<svg width="63" height="63" viewBox="0 0 63 63" fill="none" xmlns="http://www.w3.org/2000/svg">
<g clip-path="url(#clip0)">
<path d="M24.8188 19.5677C24.4084 19.9772 24.4084 20.6419 24.8188 21.0524C25.2283 21.4619 25.893 21.4619 26.3035 21.0524C27.6917 19.6643 29.5366 18.9 31.5 18.9C33.4625 18.9 35.3083 19.6643 36.6966 21.0524C36.9023 21.2572 37.1702 21.36 37.4389 21.36C37.7078 21.36 37.9765 21.2572 38.1812 21.0524C38.5919 20.6418 38.5919 19.9772 38.1812 19.5677C36.3973 17.7827 34.0244 16.7999 31.5 16.7999C28.9759 16.7999 26.6029 17.7828 24.8188 19.5677Z" fill="white"/>
<path d="M46.2 47.25C46.2 45.5133 44.7867 44.1 43.05 44.1C41.3133 44.1 39.9 45.5133 39.9 47.25C39.9 48.9867 41.3133 50.4 43.05 50.4C44.7867 50.4 46.2 48.9867 46.2 47.25ZM41.9999 47.25C41.9999 46.6714 42.4703 46.2 43.0499 46.2C43.6295 46.2 44.0999 46.6714 44.0999 47.25C44.0999 47.8285 43.6295 48.2999 43.0499 48.2999C42.4703 48.2999 41.9999 47.8285 41.9999 47.25Z" fill="white"/>
<path d="M16.8 12.6C17.074 12.6 17.347 12.4929 17.5539 12.2808C21.2951 8.42415 26.2479 6.29999 31.5 6.29999C36.8624 6.29999 41.8109 8.41997 45.4346 12.2704C45.8336 12.6924 46.4972 12.7102 46.9203 12.3144C47.3424 11.9175 47.3613 11.2529 46.9655 10.8297C42.9398 6.55519 37.4472 4.19995 31.5 4.19995C25.6746 4.19995 20.1862 6.55089 16.046 10.8191C15.6418 11.2349 15.6523 11.8996 16.0692 12.3038C16.2729 12.5013 16.5364 12.6 16.8 12.6Z" fill="white"/>
<path d="M41.895 16.9061C42.1639 16.9061 42.4326 16.8032 42.6374 16.5985C43.048 16.188 43.048 15.5233 42.6374 15.1138C39.6627 12.1391 35.7074 10.5 31.5 10.5C27.2937 10.5 23.3383 12.1391 20.3637 15.1136C19.9531 15.5231 19.9531 16.1878 20.3637 16.5983C20.7732 17.0078 21.4379 17.0078 21.8484 16.5983C24.4262 14.0196 27.8544 12.6 31.5 12.6C35.1467 12.6 38.575 14.0196 41.1527 16.5985C41.3586 16.8032 41.6273 16.9061 41.895 16.9061Z" fill="white"/>
<path d="M54.6 47.25C54.6 45.5133 53.1867 44.1 51.45 44.1C49.7133 44.1 48.3 45.5133 48.3 47.25C48.3 48.9867 49.7133 50.4 51.45 50.4C53.1867 50.4 54.6 48.9867 54.6 47.25ZM50.4 47.25C50.4 46.6714 50.8704 46.2 51.45 46.2C52.0295 46.2 52.4999 46.6714 52.4999 47.25C52.4999 47.8285 52.0295 48.2999 51.45 48.2999C50.8704 48.2999 50.4 47.8285 50.4 47.25Z" fill="white"/>
<path d="M57.75 35.7H35.7C35.1193 35.7 34.65 36.1704 34.65 36.7499C34.65 37.3295 35.1193 37.7999 35.7 37.7999H57.75C59.4866 37.7999 60.9 39.2132 60.9 40.9499V53.5499C60.9 55.2866 59.4866 56.6999 57.75 56.6999H5.25004C3.51336 56.6999 2.10004 55.2866 2.10004 53.5499V40.95C2.10004 39.2133 3.51336 37.8 5.25004 37.8H31.5C32.0796 37.8 32.55 37.3296 32.55 36.7501V29.2069C33.769 28.7712 34.65 27.6173 34.65 26.2501C34.65 24.5134 33.2367 23.1001 31.5 23.1001C29.7633 23.1001 28.35 24.5134 28.35 26.2501C28.35 27.6171 29.2299 28.7712 30.45 29.2058V35.7001H5.25004C2.35512 35.7 0 38.0552 0 40.95V53.55C0 56.4448 2.35512 58.8 5.25004 58.8H57.7501C60.6449 58.8 63.0001 56.4449 63.0001 53.55V40.95C63 38.0552 60.6449 35.7 57.75 35.7ZM31.5 25.2C32.0786 25.2 32.55 25.6714 32.55 26.25C32.55 26.8285 32.0786 27.2999 31.5 27.2999C30.9214 27.2999 30.45 26.8285 30.45 26.25C30.45 25.6714 30.9214 25.2 31.5 25.2Z" fill="white"/>
<path d="M11.55 46.2001C10.9705 46.2001 10.5001 46.6705 10.5001 47.25C10.5001 47.8296 10.9705 48.3 11.55 48.3H32.5501C33.1307 48.3 33.6 47.8296 33.6 47.25C33.6 46.6705 33.1307 46.2001 32.5501 46.2001H11.55Z" fill="white"/>
</g>
<defs>
<clipPath id="clip0">
<rect width="63" height="63" fill="white"/>
</clipPath>
</defs>
</svg>
