<svg width="56" height="56" viewBox="0 0 56 56" fill="none" xmlns="http://www.w3.org/2000/svg">
<g clip-path="url(#clip0)">
<path d="M55.9601 13.7997C55.8257 13.1996 55.3726 12.7303 54.7775 12.5751L24.5347 4.68432C24.1088 4.57287 23.6733 4.82837 23.5623 5.25427C23.4512 5.68018 23.7064 6.11549 24.1323 6.22662L54.3751 14.1174C54.3881 14.1208 54.3993 14.1236 54.4047 14.1479C54.41 14.1722 54.4013 14.1795 54.391 14.1881L52.8257 15.4949C52.1001 16.1007 51.2334 16.4909 50.3242 16.6456C50.2803 16.653 50.2362 16.659 50.1921 16.6653C50.1441 16.6721 50.096 16.6788 50.0479 16.6844C49.9953 16.6904 49.9427 16.6957 49.89 16.7001C49.8542 16.7032 49.8185 16.7057 49.7827 16.708C49.7197 16.7121 49.6567 16.7158 49.5936 16.7175C49.5787 16.718 49.5637 16.7179 49.5488 16.7182C49.1302 16.7264 48.7098 16.6857 48.3001 16.5951C48.2983 16.5947 48.2964 16.5946 48.2945 16.5942C48.2346 16.5808 48.1744 16.5685 48.1147 16.553C48.1122 16.5524 48.1096 16.5518 48.1071 16.5512L40.8227 14.6507C38.8904 14.1465 36.8785 14.5168 35.2727 15.6374C35.2655 15.6424 35.2582 15.6474 35.251 15.6524C35.0912 15.7649 34.9356 15.8846 34.7844 16.012C34.7669 16.0267 34.7494 16.0415 34.732 16.0565C34.6607 16.1177 34.5902 16.18 34.5209 16.2445C34.52 16.2454 34.519 16.2462 34.518 16.2472C34.5171 16.2481 34.5161 16.2489 34.5153 16.2496C34.4439 16.3161 34.3707 16.3796 34.2965 16.4414C34.2721 16.4617 34.2474 16.4814 34.2226 16.5012C34.1697 16.5436 34.1161 16.5849 34.0619 16.625C34.0339 16.6457 34.0062 16.6667 33.9778 16.6868C33.9139 16.7322 33.8489 16.7757 33.7833 16.8181C33.7399 16.8459 33.6958 16.8726 33.6516 16.8992C33.6063 16.9266 33.561 16.9536 33.515 16.9794C33.4688 17.0053 33.4219 17.0302 33.3749 17.0546C33.3429 17.0714 33.3106 17.0874 33.2782 17.1035C33.2241 17.1302 33.17 17.1568 33.115 17.1815C33.1124 17.1827 33.1098 17.1837 33.1072 17.1849C32.8914 17.2816 32.669 17.3633 32.4416 17.4292C32.4393 17.4299 32.437 17.4306 32.4348 17.4312C31.9742 17.5641 31.4931 17.6331 31.0033 17.6331C30.5655 17.6331 30.1282 17.577 29.7038 17.4662L10.168 12.3692C10.1677 12.3691 10.1674 12.3691 10.1671 12.369L9.39488 12.1675C9.14266 12.1017 8.93123 11.9417 8.79944 11.7168C8.66753 11.4919 8.63122 11.2292 8.69706 10.977L10.4578 4.22888C10.5602 3.83623 10.8094 3.50701 11.1595 3.30182C11.5099 3.09663 11.9189 3.0403 12.3112 3.14246L20.4232 5.25898C20.8491 5.37032 21.2845 5.11504 21.3955 4.68902C21.5066 4.26312 21.2515 3.8278 20.8255 3.71668L12.7136 1.60027C11.909 1.39016 11.0708 1.50632 10.3534 1.92676C9.63605 2.3473 9.12537 3.02193 8.91548 3.8266L7.15477 10.5745C6.797 11.9455 7.62147 13.352 8.99249 13.7097L8.99456 13.7103L8.02112 17.4411C7.826 18.1887 7.93373 18.9676 8.32453 19.6342C8.71522 20.3009 9.34227 20.7755 10.0898 20.9705L17.8054 22.9835C17.5663 24.4802 18.5012 25.9469 19.9974 26.3372L20.1885 26.3871L15.3476 35.9049C11.7663 37.2484 8.19678 38.5829 5.72928 39.4809V35.73C5.72928 34.1785 4.46698 32.9162 2.91539 32.9162H0.797016C0.356781 32.9162 0 33.273 0 33.7132V53.7049C0 54.145 0.356781 54.5019 0.797016 54.5019H2.91539C4.46698 54.5019 5.72928 53.2396 5.72928 51.6881V45.0392C6.65263 44.712 8.3125 44.0986 11.3127 42.9773C11.7249 42.8232 11.9342 42.364 11.7801 41.9518C11.6261 41.5395 11.1672 41.3303 10.7545 41.4842C8.2658 42.4144 6.70611 42.9926 5.72917 43.346V41.1766C8.26798 40.2588 12.2444 38.7717 16.1975 37.2885C16.3839 37.2185 16.5375 37.0812 16.6278 36.9036L21.7674 26.7991L23.9716 27.3742L18.1453 38.3999C18.1413 38.4075 18.1373 38.4152 18.1336 38.423C18.0199 38.6562 17.8235 38.8348 17.5808 38.9259C16.3958 39.3707 15.3193 39.7746 14.3409 40.1414C13.9287 40.2958 13.72 40.7552 13.8744 41.1673C14.0291 41.5795 14.4884 41.7883 14.9004 41.6338C15.879 41.267 16.9556 40.8631 18.1409 40.4181C18.7625 40.1848 19.2661 39.7292 19.56 39.1342L25.5559 27.7875L26.8746 28.1316C27.1216 28.196 27.3754 28.2287 27.6289 28.2287C27.6291 28.2287 27.629 28.2287 27.6292 28.2287C28.8867 28.2287 29.9972 27.4387 30.4246 26.276L43.8711 29.7844C44.0323 29.8265 44.1982 29.8478 44.3641 29.8478C44.3643 29.8478 44.3641 29.8478 44.3644 29.8478C45.1078 29.8478 45.7718 29.4252 46.0993 28.7826C48.8099 28.2921 51.1488 26.031 51.9252 23.0548C52.3759 21.3285 52.2624 19.5221 51.629 17.9564C52.4293 17.688 53.1837 17.2726 53.8473 16.7185L55.4125 15.4117C55.8845 15.0176 56.0944 14.4 55.9601 13.7997ZM4.13536 40.6165V44.472V51.6881H4.13525C4.13525 52.3608 3.58794 52.908 2.91528 52.908H1.59392V34.5102H2.91539C3.58805 34.5102 4.13536 35.0574 4.13536 35.7301V40.6165ZM27.6291 26.6348C27.5111 26.6348 27.3927 26.6195 27.277 26.5893L20.3997 24.7949C19.7554 24.6268 19.3347 24.03 19.3633 23.3901L26.9286 25.3638L28.8678 25.8698C28.636 26.3314 28.1606 26.6348 27.6291 26.6348ZM44.5645 27.8748C44.5364 27.9826 44.5329 28.0932 44.5499 28.2002C44.4952 28.2338 44.4317 28.2539 44.3641 28.2539C44.334 28.2539 44.3034 28.2499 44.2735 28.2421L10.4922 19.4283C10.1566 19.3407 9.87503 19.1276 9.69948 18.8283C9.52416 18.5289 9.4757 18.1792 9.5632 17.8436L10.5366 14.1128L29.3012 19.0086C29.8706 19.1573 30.4466 19.2299 31.0174 19.2299C32.5971 19.2299 34.1347 18.6727 35.3664 17.6256C35.4477 17.5566 35.5275 17.4854 35.6059 17.4122C35.6781 17.3447 35.7524 17.2805 35.8276 17.2178C35.852 17.1976 35.8768 17.1779 35.9014 17.1581C35.954 17.1158 36.0073 17.0748 36.0614 17.0347C36.0897 17.0137 36.1179 16.9924 36.1467 16.9721C36.2089 16.9279 36.2721 16.8855 36.336 16.8443C36.3824 16.8144 36.4294 16.7858 36.4767 16.7575C36.5201 16.7313 36.5635 16.7054 36.6076 16.6807C36.6551 16.6541 36.703 16.6285 36.7512 16.6036C36.7817 16.5877 36.8125 16.5723 36.8433 16.5571C37.1138 16.4235 37.3951 16.3133 37.6849 16.2293C37.6853 16.2292 37.6857 16.2291 37.686 16.229C38.1475 16.0954 38.6297 16.0263 39.1206 16.0263C39.5585 16.0263 39.9958 16.0824 40.4202 16.1932L44.4218 17.2372L47.154 17.9501L44.5645 27.8748ZM50.3829 22.6526C49.8415 24.7276 48.3775 26.3653 46.6122 27.0017L48.8845 18.2929C49.2682 18.3237 49.6522 18.3218 50.0327 18.2887C50.0346 18.2886 50.0364 18.2885 50.0384 18.2884C50.6454 19.595 50.7732 21.1566 50.3829 22.6526Z" fill="white"/>
</g>
<defs>
<clipPath id="clip0">
<rect width="56" height="56" fill="white"/>
</clipPath>
</defs>
</svg>
