<svg width="56" height="56" viewBox="0 0 56 56" fill="none" xmlns="http://www.w3.org/2000/svg">
<path d="M55.9153 40.1167C55.9139 40.1085 55.9124 40.1003 55.9108 40.092L52.483 22.727C52.4804 22.7136 52.4764 22.7008 52.4732 22.6876C52.4952 22.4229 52.5069 22.1551 52.5069 21.8848C52.5069 16.5767 48.1885 12.2583 42.8802 12.2583C39.5081 12.2583 36.5359 14.0015 34.816 16.6337H30.6293V14.8631C30.6293 13.7221 29.8976 12.7492 28.8791 12.388V9.61242C28.8791 9.12887 28.4871 8.73682 28.0035 8.73682C27.52 8.73682 27.1279 9.12887 27.1279 9.61242V12.3878C26.1094 12.7492 25.3777 13.722 25.3777 14.8629V16.6336H21.1962C20.5207 15.596 19.6491 14.6937 18.6152 13.975C16.9993 12.8518 15.1014 12.2581 13.1268 12.2581C7.81866 12.2581 3.50021 16.5766 3.50021 21.8847C3.50021 22.1477 3.51126 22.4082 3.53206 22.6659C3.52658 22.6861 3.52089 22.7061 3.51673 22.7269L0.0892016 40.092C0.0875599 40.1002 0.086137 40.1084 0.0847142 40.1167C0.028457 40.4517 0 40.7949 0 41.1369C0 44.5149 2.74818 47.2632 6.12623 47.2632C8.30647 47.2632 10.3397 46.0896 11.4296 44.2052L18.879 31.5114H37.121L44.5676 44.2005C45.6603 46.0896 47.6935 47.2632 49.8738 47.2632C53.2517 47.2632 56 44.515 56 41.1369C56 40.7949 55.9715 40.4517 55.9153 40.1167ZM27.1291 14.8631C27.1291 14.3808 27.5214 13.9884 28.0037 13.9884C28.4861 13.9884 28.8783 14.3808 28.8783 14.8631V16.6337H27.1292V14.8631H27.1291ZM13.127 14.0095C16.3936 14.0095 19.2735 15.9745 20.4637 19.0158C20.6399 19.4661 21.1478 19.6883 21.5982 19.512C22.0461 19.3367 22.2679 18.8333 22.0969 18.3848H33.9125C33.4875 19.4701 33.2537 20.6507 33.2537 21.8848C33.2537 23.7204 33.7724 25.5055 34.7537 27.0472C35.0133 27.4553 35.5547 27.5754 35.9625 27.3158C36.3705 27.0562 36.4907 26.515 36.2311 26.1071C35.4289 24.8467 35.0049 23.3868 35.0049 21.8848C35.0049 17.5423 38.5377 14.0095 42.8802 14.0095C47.2228 14.0095 50.7557 17.5423 50.7557 21.8848C50.7557 26.2273 47.2228 29.7602 42.8802 29.7602C41.2754 29.7602 39.7317 29.2808 38.416 28.3737C38.0177 28.099 37.4726 28.1994 37.1982 28.5975C36.9411 28.9705 37.0128 29.4725 37.3502 29.7602H18.6568C21.1328 28.0165 22.7536 25.1366 22.7536 21.8848C22.7536 21.4013 22.3616 21.0092 21.878 21.0092C21.3945 21.0092 21.0024 21.4013 21.0024 21.8848C21.0024 26.2273 17.4695 29.7602 13.127 29.7602C8.78444 29.7602 5.25162 26.2273 5.25162 21.8848C5.25162 17.5423 8.78444 14.0095 13.127 14.0095ZM9.91659 43.3236C9.13589 44.6735 7.68349 45.512 6.12623 45.512C3.71385 45.512 1.7512 43.5493 1.7512 41.1369C1.7512 40.8957 1.7709 40.654 1.80975 40.4184L4.59065 26.3308C6.19935 29.4069 9.42177 31.5114 13.127 31.5114C13.3538 31.5114 13.5786 31.5029 13.8015 31.4874C13.866 31.5025 13.933 31.5114 14.0021 31.5114H16.8486L9.91659 43.3236ZM49.8738 45.512C48.3165 45.512 46.8641 44.6735 46.0807 43.3189L39.1515 31.5114H42.0052C42.0745 31.5114 42.1417 31.5025 42.2063 31.4873C42.4298 31.5027 42.6545 31.5114 42.8802 31.5114C46.5814 31.5114 49.8009 29.4115 51.4113 26.3408L54.1901 40.4184C54.229 40.654 54.2487 40.8957 54.2487 41.1369C54.2488 43.5493 52.2861 45.512 49.8738 45.512Z" fill="white"/>
<path d="M26.2535 27.1358H29.7538C30.2374 27.1358 30.6294 26.7438 30.6294 26.2602C30.6294 25.7767 30.2374 25.3846 29.7538 25.3846H26.2535C25.77 25.3846 25.3779 25.7767 25.3779 26.2602C25.3779 26.7438 25.7699 27.1358 26.2535 27.1358Z" fill="white"/>
<path d="M10.5017 22.7604C10.9852 22.7604 11.3773 22.3683 11.3773 21.8848C11.3773 21.4012 10.9852 21.0092 10.5017 21.0092H7.87633C7.39278 21.0092 7.00073 21.4012 7.00073 21.8848C7.00073 22.3683 7.39278 22.7604 7.87633 22.7604H10.5017Z" fill="white"/>
<path d="M15.7522 22.7604H18.3774C18.861 22.7604 19.253 22.3683 19.253 21.8848C19.253 21.4012 18.861 21.0092 18.3774 21.0092H15.7522C15.2686 21.0092 14.8766 21.4012 14.8766 21.8848C14.8766 22.3683 15.2686 22.7604 15.7522 22.7604Z" fill="white"/>
<path d="M13.1269 28.0111C13.6105 28.0111 14.0025 27.6191 14.0025 27.1355V24.5102C14.0025 24.0267 13.6105 23.6346 13.1269 23.6346C12.6434 23.6346 12.2513 24.0267 12.2513 24.5102V27.1355C12.2513 27.6191 12.6434 28.0111 13.1269 28.0111Z" fill="white"/>
<path d="M13.1269 20.1351C13.6105 20.1351 14.0025 19.7431 14.0025 19.2595V16.6341C14.0025 16.1506 13.6105 15.7585 13.1269 15.7585C12.6434 15.7585 12.2513 16.1506 12.2513 16.6341V19.2594C12.2513 19.7431 12.6434 20.1351 13.1269 20.1351Z" fill="white"/>
<path d="M40.2549 26.2607C41.2203 26.2607 42.0057 25.4754 42.0057 24.51C42.0057 23.5447 41.2203 22.7593 40.2549 22.7593C39.2896 22.7593 38.5043 23.5446 38.5043 24.51C38.5043 25.4754 39.2897 26.2607 40.2549 26.2607Z" fill="white"/>
<path d="M45.5056 26.2607C46.471 26.2607 47.2564 25.4754 47.2564 24.51C47.2564 23.5447 46.471 22.7593 45.5056 22.7593C44.5403 22.7593 43.7549 23.5446 43.7549 24.51C43.7549 25.4754 44.5403 26.2607 45.5056 26.2607Z" fill="white"/>
<path d="M40.2549 21.0102C41.2203 21.0102 42.0057 20.2249 42.0057 19.2596C42.0057 18.2942 41.2203 17.5089 40.2549 17.5089C39.2896 17.5089 38.5043 18.2942 38.5043 19.2596C38.5043 20.2249 39.2897 21.0102 40.2549 21.0102Z" fill="white"/>
<path d="M45.5056 21.0102C46.471 21.0102 47.2564 20.2249 47.2564 19.2596C47.2564 18.2942 46.471 17.5089 45.5056 17.5089C44.5403 17.5089 43.7549 18.2942 43.7549 19.2596C43.7549 20.2249 44.5403 21.0102 45.5056 21.0102Z" fill="white"/>
</svg>
