<svg width="56" height="56" viewBox="0 0 56 56" fill="none" xmlns="http://www.w3.org/2000/svg">
<path d="M19.5265 37.6705C19.3524 37.6124 19.1644 37.6105 18.9891 37.6652C18.8139 37.7198 18.6603 37.8282 18.55 37.975L13.3 44.975C13.2025 45.105 13.1431 45.2595 13.1285 45.4214C13.1139 45.5832 13.1447 45.7459 13.2174 45.8913C13.29 46.0366 13.4018 46.1588 13.54 46.2443C13.6782 46.3297 13.8375 46.375 14 46.375H16.4666L15.7666 50.6064C15.735 50.7983 15.7681 50.9952 15.8609 51.1661C15.9536 51.337 16.1006 51.4722 16.2787 51.5503C16.4568 51.6283 16.6558 51.6448 16.8443 51.5972C17.0328 51.5496 17.2001 51.4405 17.3198 51.2872L23.4448 43.4122C23.5455 43.2826 23.6079 43.1273 23.6246 42.964C23.6413 42.8007 23.6117 42.636 23.5393 42.4887C23.4668 42.3414 23.3544 42.2175 23.2148 42.131C23.0752 42.0446 22.9142 41.9992 22.75 42H20.125V38.5C20.1249 38.3164 20.067 38.1375 19.9596 37.9886C19.8522 37.8398 19.7007 37.7285 19.5265 37.6705ZM20.9606 43.75L18.0565 47.4845L18.3628 45.647C18.3841 45.5214 18.3779 45.3927 18.3444 45.2698C18.3109 45.1469 18.251 45.0328 18.1688 44.9355C18.0866 44.8382 17.9842 44.76 17.8687 44.7063C17.7532 44.6527 17.6274 44.6249 17.5 44.625H15.75L18.375 41.125V42.875C18.375 43.107 18.4672 43.3296 18.6313 43.4937C18.7954 43.6578 19.0179 43.75 19.25 43.75H20.9606Z" fill="white"/>
<path d="M31.5 25.375C31.2679 25.375 31.0454 25.4672 30.8813 25.6313C30.7172 25.7954 30.625 26.0179 30.625 26.25C30.625 26.4821 30.7172 26.7046 30.8813 26.8687C31.0454 27.0328 31.2679 27.125 31.5 27.125H34.125V28.875H32.375C32.1429 28.875 31.9204 28.9672 31.7563 29.1313C31.5922 29.2954 31.5 29.5179 31.5 29.75C31.5 29.9821 31.5922 30.2046 31.7563 30.3687C31.9204 30.5328 32.1429 30.625 32.375 30.625H42.875C43.1071 30.625 43.3296 30.5328 43.4937 30.3687C43.6578 30.2046 43.75 29.9821 43.75 29.75C43.75 29.5179 43.6578 29.2954 43.4937 29.1313C43.3296 28.9672 43.1071 28.875 42.875 28.875H41.125V27.125H43.75C43.9821 27.125 44.2046 27.0328 44.3687 26.8687C44.5328 26.7046 44.625 26.4821 44.625 26.25V18.375C44.625 18.1429 44.5328 17.9204 44.3687 17.7563C44.2046 17.5922 43.9821 17.5 43.75 17.5H31.5C31.2679 17.5 31.0454 17.5922 30.8813 17.7563C30.7172 17.9204 30.625 18.1429 30.625 18.375V22.75C30.625 22.9821 30.7172 23.2046 30.8813 23.3687C31.0454 23.5328 31.2679 23.625 31.5 23.625C31.7321 23.625 31.9546 23.5328 32.1187 23.3687C32.2828 23.2046 32.375 22.9821 32.375 22.75V19.25H35.5127L41.6377 25.375H31.5ZM39.375 28.875H35.875V27.125H39.375V28.875ZM42.875 19.25V24.1378L37.9873 19.25H42.875Z" fill="white"/>
<path d="M39.375 44.625V40.25C39.375 40.0179 39.2828 39.7954 39.1187 39.6313C38.9546 39.4672 38.7321 39.375 38.5 39.375C38.2679 39.375 38.0454 39.4672 37.8813 39.6313C37.7172 39.7954 37.625 40.0179 37.625 40.25V44.625C37.625 44.8571 37.7172 45.0796 37.8813 45.2437C38.0454 45.4078 38.2679 45.5 38.5 45.5C38.7321 45.5 38.9546 45.4078 39.1187 45.2437C39.2828 45.0796 39.375 44.8571 39.375 44.625Z" fill="white"/>
<path d="M35.525 41.3227C35.3393 41.1835 35.106 41.1237 34.8763 41.1565C34.6465 41.1893 34.4392 41.3121 34.3 41.4977C33.6195 42.3984 33.2509 43.4961 33.25 44.625C33.25 46.0173 33.8031 47.3527 34.7877 48.3373C35.7723 49.3218 37.1076 49.875 38.5 49.875C39.8924 49.875 41.2277 49.3218 42.2123 48.3373C43.1969 47.3527 43.75 46.0173 43.75 44.625C43.7481 43.4976 43.3796 42.4015 42.7 41.5021C42.5559 41.3329 42.3528 41.2248 42.1319 41.1999C41.9111 41.175 41.689 41.2351 41.5108 41.3679C41.3326 41.5008 41.2117 41.6965 41.1725 41.9153C41.1334 42.1341 41.179 42.3596 41.3 42.546C41.7526 43.1447 41.9982 43.8744 42 44.625C42 45.5532 41.6313 46.4434 40.9749 47.0998C40.3185 47.7562 39.4283 48.125 38.5 48.125C37.5717 48.125 36.6815 47.7562 36.0251 47.0998C35.3687 46.4434 35 45.5532 35 44.625C35.0018 43.8744 35.2474 43.1447 35.7 42.546C35.8387 42.3604 35.8981 42.1275 35.8653 41.8982C35.8325 41.6689 35.7101 41.4619 35.525 41.3227Z" fill="white"/>
<path d="M14.875 24.5C14.2495 24.4977 13.6439 24.7196 13.1678 25.1254C12.6918 25.5312 12.3769 26.0941 12.2801 26.7121C12.1833 27.3301 12.311 27.9623 12.6402 28.4942C12.9693 29.0261 13.4781 29.4226 14.0744 29.6117C14.2454 30.6287 14.7712 31.5521 15.5586 32.2181C16.3459 32.8841 17.3438 33.2496 18.375 33.2496C19.4063 33.2496 20.4041 32.8841 21.1915 32.2181C21.9788 31.5521 22.5046 30.6287 22.6756 29.6117C23.1984 29.4469 23.6559 29.1217 23.9833 28.6822C24.3107 28.2427 24.4913 27.7112 24.4996 27.1632C24.5078 26.6152 24.3432 26.0785 24.0292 25.6293C23.7151 25.1802 23.2675 24.8413 22.75 24.661V24.3985C23.5154 23.6177 24.0578 22.6463 24.3209 21.5851C24.5841 20.5239 24.5584 19.4116 24.2465 18.3636C23.9346 17.3157 23.3479 16.3704 22.5473 15.6258C21.7467 14.8812 20.7614 14.3645 19.6937 14.1293C18.6259 13.894 17.5147 13.9489 16.4753 14.2882C15.436 14.6275 14.5063 15.2388 13.783 16.0587C13.0597 16.8785 12.569 17.8771 12.3619 18.9506C12.1548 20.0242 12.2388 21.1336 12.6053 22.1637C12.683 22.3824 12.8445 22.5613 13.0541 22.661C13.2637 22.7607 13.5044 22.773 13.7231 22.6953C13.9418 22.6175 14.1207 22.4561 14.2204 22.2465C14.3201 22.0368 14.3324 21.7962 14.2546 21.5775C13.9888 20.83 13.9312 20.0244 14.0879 19.2467C14.2447 18.4691 14.6099 17.7487 15.1446 17.1626C15.6793 16.5766 16.3632 16.1469 17.1232 15.9197C17.8833 15.6924 18.6908 15.676 19.4594 15.8724C20.2281 16.0687 20.9288 16.4703 21.4868 17.0343C22.0447 17.5982 22.4388 18.3032 22.6269 19.0739C22.815 19.8446 22.79 20.6519 22.5546 21.4095C22.3192 22.167 21.8823 22.8463 21.2905 23.3747C21.1991 23.4567 21.126 23.5571 21.076 23.6693C21.0259 23.7814 21 23.9029 21 24.0257V24.5H19.25V22.2372L20.7436 20.7436C20.903 20.5786 20.9912 20.3575 20.9892 20.1281C20.9872 19.8987 20.8952 19.6792 20.733 19.517C20.5708 19.3548 20.3513 19.2627 20.1219 19.2607C19.8924 19.2587 19.6714 19.3469 19.5064 19.5063L18.375 20.6377L17.2436 19.5063C17.0786 19.3469 16.8576 19.2587 16.6282 19.2607C16.3987 19.2627 16.1793 19.3548 16.0171 19.517C15.8548 19.6792 15.7628 19.8987 15.7608 20.1281C15.7588 20.3575 15.847 20.5786 16.0064 20.7436L17.5 22.2372V24.5H14.875ZM18.375 31.5C17.8323 31.4993 17.303 31.3307 16.8599 31.0174C16.4167 30.7041 16.0813 30.2614 15.8996 29.75H20.8504C20.6688 30.2614 20.3334 30.7041 19.8902 31.0174C19.447 31.3307 18.9178 31.4993 18.375 31.5ZM21.875 28H14.875C14.643 28 14.4204 27.9078 14.2563 27.7437C14.0922 27.5796 14 27.357 14 27.125C14 26.8929 14.0922 26.6703 14.2563 26.5062C14.4204 26.3421 14.643 26.25 14.875 26.25H21.875C22.1071 26.25 22.3296 26.3421 22.4937 26.5062C22.6578 26.6703 22.75 26.8929 22.75 27.125C22.75 27.357 22.6578 27.5796 22.4937 27.7437C22.3296 27.9078 22.1071 28 21.875 28Z" fill="white"/>
<path d="M53.8711 19.4048L44.625 13.0278V2.62496C44.625 2.3929 44.5328 2.17034 44.3687 2.00624C44.2046 1.84215 43.9821 1.74996 43.75 1.74996H36.75C36.5179 1.74996 36.2954 1.84215 36.1313 2.00624C35.9672 2.17034 35.875 2.3929 35.875 2.62496V6.99296L28.4961 1.90484C28.3505 1.80356 28.1774 1.74927 28 1.74927C27.8226 1.74927 27.6495 1.80356 27.5039 1.90484L2.12888 19.4048C2.01212 19.4852 1.91663 19.5927 1.85064 19.7182C1.78464 19.8436 1.7501 19.9832 1.75 20.125V22.75C1.75 22.982 1.84219 23.2046 2.00628 23.3687C2.17038 23.5328 2.39294 23.625 2.625 23.625H7V28C7 28.232 7.09219 28.4546 7.25628 28.6187C7.42038 28.7828 7.64294 28.875 7.875 28.875C8.10706 28.875 8.32962 28.7828 8.49372 28.6187C8.65781 28.4546 8.75 28.232 8.75 28V22.75C8.75 22.5179 8.65781 22.2953 8.49372 22.1312C8.32962 21.9671 8.10706 21.875 7.875 21.875H3.5V20.5843L28 3.68809L36.2539 9.37996C36.385 9.47023 36.5383 9.52301 36.6972 9.53262C36.8561 9.54223 37.0146 9.5083 37.1557 9.43448C37.2968 9.36067 37.415 9.24977 37.4977 9.11373C37.5804 8.97769 37.6244 8.82166 37.625 8.66246V3.49996H42.875V13.4872C42.8751 13.629 42.9096 13.7686 42.9756 13.894C43.0416 14.0194 43.1371 14.127 43.2539 14.2073L52.5 20.5843V21.875H48.125C47.8929 21.875 47.6704 21.9671 47.5063 22.1312C47.3422 22.2953 47.25 22.5179 47.25 22.75V35H28.875V7.87496C28.875 7.6429 28.7828 7.42034 28.6187 7.25624C28.4546 7.09215 28.2321 6.99996 28 6.99996C27.7679 6.99996 27.5454 7.09215 27.3813 7.25624C27.2172 7.42034 27.125 7.6429 27.125 7.87496V35H11.375C11.1429 35 10.9204 35.0921 10.7563 35.2562C10.5922 35.4203 10.5 35.6429 10.5 35.875C10.5 36.107 10.5922 36.3296 10.7563 36.4937C10.9204 36.6578 11.1429 36.75 11.375 36.75H27.125V49.875C27.125 50.107 27.2172 50.3296 27.3813 50.4937C27.5454 50.6578 27.7679 50.75 28 50.75C28.2321 50.75 28.4546 50.6578 28.6187 50.4937C28.7828 50.3296 28.875 50.107 28.875 49.875V36.75H47.25V41.125C47.25 41.357 47.3422 41.5796 47.5063 41.7437C47.6704 41.9078 47.8929 42 48.125 42C48.3571 42 48.5796 41.9078 48.7437 41.7437C48.9078 41.5796 49 41.357 49 41.125V23.625H53.375C53.6071 23.625 53.8296 23.5328 53.9937 23.3687C54.1578 23.2046 54.25 22.982 54.25 22.75V20.125C54.2499 19.9832 54.2154 19.8436 54.1494 19.7182C54.0834 19.5927 53.9879 19.4852 53.8711 19.4048Z" fill="white"/>
<path d="M53.375 49H49V44.625C49 44.3929 48.9078 44.1704 48.7437 44.0063C48.5796 43.8422 48.3571 43.75 48.125 43.75C47.8929 43.75 47.6704 43.8422 47.5063 44.0063C47.3422 44.1704 47.25 44.3929 47.25 44.625V49.875C47.25 50.1071 47.3422 50.3296 47.5063 50.4937C47.6704 50.6578 47.8929 50.75 48.125 50.75H52.5V52.5H3.5V50.75H7.875C8.10706 50.75 8.32962 50.6578 8.49372 50.4937C8.65781 50.3296 8.75 50.1071 8.75 49.875V31.5C8.75 31.2679 8.65781 31.0454 8.49372 30.8813C8.32962 30.7172 8.10706 30.625 7.875 30.625C7.64294 30.625 7.42038 30.7172 7.25628 30.8813C7.09219 31.0454 7 31.2679 7 31.5V49H2.625C2.39294 49 2.17038 49.0922 2.00628 49.2563C1.84219 49.4204 1.75 49.6429 1.75 49.875V53.375C1.75 53.6071 1.84219 53.8296 2.00628 53.9937C2.17038 54.1578 2.39294 54.25 2.625 54.25H53.375C53.6071 54.25 53.8296 54.1578 53.9937 53.9937C54.1578 53.8296 54.25 53.6071 54.25 53.375V49.875C54.25 49.6429 54.1578 49.4204 53.9937 49.2563C53.8296 49.0922 53.6071 49 53.375 49Z" fill="white"/>
</svg>
