<svg width="17" height="16" viewBox="0 0 17 16" fill="none" xmlns="http://www.w3.org/2000/svg">
<path d="M8.79973 1.44138C10.9359 1.44138 11.1886 1.44964 12.0324 1.48806C12.8123 1.52363 13.2359 1.65383 13.5179 1.76338C13.8913 1.9085 14.1577 2.08189 14.4378 2.36166C14.7179 2.64174 14.8913 2.90817 15.0361 3.28161C15.1456 3.5636 15.2758 3.98722 15.3114 4.76713C15.3498 5.61056 15.3581 5.86365 15.3581 7.99984C15.3581 10.136 15.3498 10.3888 15.3114 11.2325C15.2758 12.0125 15.1456 12.4361 15.0361 12.7181C14.8909 13.0915 14.7176 13.3579 14.4378 13.638C14.1577 13.9181 13.8913 14.0915 13.5179 14.2363C13.2359 14.3459 12.8123 14.4761 12.0324 14.5116C11.189 14.55 10.9359 14.5583 8.79973 14.5583C6.66358 14.5583 6.4105 14.55 5.56709 14.5116C4.78719 14.4761 4.36358 14.3459 4.0816 14.2363C3.70816 14.0912 3.44174 13.9178 3.16166 13.638C2.88158 13.3579 2.7082 13.0915 2.5634 12.7181C2.45384 12.4361 2.32365 12.0125 2.28808 11.2325C2.24966 10.3891 2.2414 10.136 2.2414 7.99984C2.2414 5.86365 2.24966 5.61088 2.28808 4.76713C2.32365 3.98722 2.45384 3.5636 2.5634 3.28161C2.70852 2.90817 2.8819 2.64174 3.16166 2.36166C3.44174 2.08157 3.70816 1.90819 4.0816 1.76338C4.36358 1.65383 4.78719 1.52363 5.56709 1.48806C6.41081 1.44964 6.66358 1.44138 8.79973 1.44138ZM8.79973 0C6.62706 0 6.35461 0.00920909 5.50135 0.0482683C4.65001 0.08701 4.06858 0.222288 3.55955 0.420125C3.03337 0.62463 2.58721 0.898045 2.14264 1.34294C1.69808 1.78752 1.42435 2.23368 1.22017 2.75955C1.02233 3.26859 0.887057 3.85003 0.848316 4.7014C0.809258 5.55467 0.800049 5.82713 0.800049 7.99984C0.800049 10.1726 0.809258 10.445 0.848316 11.2983C0.887057 12.1496 1.02233 12.7311 1.22017 13.2401C1.42467 13.7663 1.69808 14.2125 2.14296 14.6571C2.58785 15.102 3.03369 15.3754 3.55986 15.5799C4.06858 15.7777 4.65032 15.913 5.50167 15.9517C6.35493 15.9908 6.62738 16 8.80005 16C10.9727 16 11.2452 15.9908 12.0984 15.9517C12.9498 15.913 13.5315 15.7777 14.0402 15.5799C14.5664 15.3754 15.0126 15.102 15.4571 14.6571C15.902 14.2122 16.1754 13.7663 16.3799 13.2401C16.5778 12.7314 16.713 12.1496 16.7518 11.2983C16.7908 10.445 16.8 10.1726 16.8 7.99984C16.8 5.82713 16.7908 5.55467 16.7518 4.7014C16.713 3.85003 16.5778 3.26827 16.3799 2.75955C16.1754 2.23336 15.902 1.7872 15.4571 1.34262C15.0123 0.897727 14.5664 0.624313 14.0402 0.419807C13.5309 0.222288 12.9495 0.08701 12.0981 0.0482683C11.2449 0.00920909 10.9724 0 8.79973 0Z" fill="white"/>
<path d="M8.80005 4C6.59071 4 4.80005 5.79097 4.80005 8C4.80005 10.209 6.59102 12 8.80005 12C11.0091 12 12.8 10.209 12.8 8C12.8 5.79097 11.0094 4 8.80005 4ZM8.80005 10.5965C7.36591 10.5965 6.20357 9.43383 6.20357 8C6.20357 6.56586 7.36622 5.40352 8.80005 5.40352C10.2339 5.40352 11.3965 6.56617 11.3965 8C11.3965 9.43414 10.2342 10.5965 8.80005 10.5965Z" fill="white"/>
<path d="M13.1334 3.99992C13.3175 3.99992 13.4667 3.85068 13.4667 3.66659C13.4667 3.48249 13.3175 3.33325 13.1334 3.33325C12.9493 3.33325 12.8 3.48249 12.8 3.66659C12.8 3.85068 12.9493 3.99992 13.1334 3.99992Z" fill="white"/>
</svg>
