<svg width="56" height="56" viewBox="0 0 56 56" fill="none" xmlns="http://www.w3.org/2000/svg">
<g clip-path="url(#clip0)">
<path d="M52.267 28.0007C52.2746 24.7057 51.6007 21.4448 50.2874 18.4228C53.6092 13.3418 58.2833 4.77562 54.7469 1.25415C51.8834 -1.61211 45.6936 0.937754 40.7469 3.76669C39.9013 2.994 38.7449 2.65786 37.6169 2.85692C36.4889 3.05598 35.5173 3.76765 34.9873 4.78309C29.5293 3.11553 23.6559 3.44641 18.4197 5.71642C13.3396 2.39282 4.77343 -2.27945 1.25383 1.25415C-1.6115 4.11949 0.937435 10.3131 3.76637 15.2542C2.99368 16.0997 2.65754 17.2562 2.8566 18.3842C3.05566 19.5122 3.76733 20.4838 4.78277 21.0138C3.38402 25.5686 3.38402 30.4384 4.78277 34.9932C3.76832 35.5234 3.0574 36.4944 2.85838 37.6216C2.65937 38.7488 2.9948 39.9045 3.76637 40.75C0.933701 45.6883 -1.6115 51.8819 1.2529 54.7463C2.19672 55.6248 3.4581 56.0802 4.74543 56.0072C8.8773 56.0072 14.6229 52.7704 18.4234 50.2887C23.6594 52.5581 29.5324 52.889 34.9901 51.222C35.5205 52.2379 36.4928 52.9496 37.6215 53.1483C38.7501 53.347 39.907 53.0101 40.7525 52.2366C44.1592 54.1891 48.1566 56.0091 51.2553 56.0091C52.5413 56.0816 53.8015 55.6277 54.746 54.7519C58.2833 51.2295 53.6092 42.6643 50.2874 37.5786C51.6008 34.5566 52.2748 31.2957 52.267 28.0007ZM49.0274 35.711C48.3116 34.6843 47.5341 33.6166 46.7016 32.5264C49.1459 30.0036 49.1459 25.9959 46.7016 23.4731C47.5313 22.383 48.3116 21.3171 49.0274 20.2886C50.858 25.2658 50.858 30.7319 49.0274 35.7091V35.711ZM18.2536 48.1542C14.704 46.441 11.6715 43.8184 9.46437 40.5531C10.3446 39.4435 10.5159 37.9294 9.90577 36.6511C9.29563 35.3729 8.01067 34.5539 6.59437 34.5406C5.26902 30.2814 5.26902 25.72 6.59437 21.4608C8.01067 21.4474 9.29563 20.6284 9.90577 19.3502C10.5159 18.072 10.3446 16.5579 9.46437 15.4483C11.6713 12.183 14.7039 9.56061 18.2536 7.84815C21.4354 10.0107 24.4877 12.358 27.3946 14.878C29.7522 16.8922 32.1481 19.1144 34.5178 21.4832C35.3998 22.3652 36.1829 23.1707 36.8997 23.9286C34.9894 26.3073 34.9894 29.6941 36.8997 32.0728C36.1829 32.8307 35.3998 33.6362 34.5178 34.5182C32.1481 36.887 29.7522 39.1092 27.3918 41.1262C24.4856 43.6453 21.4343 45.992 18.2536 48.1542ZM37.3337 28.0007C37.3337 25.4234 39.423 23.334 42.0004 23.334C44.5777 23.334 46.667 25.4234 46.667 28.0007C46.667 30.578 44.5777 32.6674 42.0004 32.6674C39.4243 32.6643 37.3368 30.5767 37.3337 28.0007ZM53.4281 2.57482C55.1902 4.33135 53.5849 9.69989 49.3382 16.4507C47.5036 13.0628 44.8861 10.1624 41.7036 7.99095C42.0699 7.14624 42.0983 6.19318 41.7829 5.32815C47.4613 2.09975 51.8937 1.03855 53.4281 2.57482ZM38.267 4.66735C39.298 4.66735 40.1337 5.50309 40.1337 6.53402C40.1337 7.56495 39.298 8.40069 38.267 8.40069C37.2361 8.40069 36.4004 7.56495 36.4004 6.53402C36.4004 5.50309 37.2361 4.66735 38.267 4.66735ZM34.5402 6.59469C34.5536 8.01099 35.3726 9.29595 36.6508 9.90609C37.929 10.5162 39.4432 10.3449 40.5528 9.46469C43.8215 11.6719 46.4465 14.7063 48.1604 18.2586C47.2868 19.554 46.3058 20.9176 45.2334 22.3279C43.0457 21.0731 40.3293 21.199 38.267 22.6508C37.5362 21.879 36.7392 21.0595 35.8404 20.1635C33.437 17.7602 31.0038 15.5043 28.6117 13.4612C25.9481 11.1581 23.1674 8.99393 20.2808 6.97735C24.8631 5.28346 29.8764 5.14895 34.543 6.59469H34.5402ZM2.5745 2.57295C4.3301 0.81082 9.69864 2.41802 16.4504 6.66282C13.0627 8.49731 10.1625 11.1149 7.99157 14.2975C7.53053 14.1015 7.03468 14.0005 6.5337 14.0007C6.12241 14.0052 5.71479 14.0787 5.32783 14.2182C2.09943 8.53789 1.0373 4.10735 2.5745 2.57295ZM6.5337 15.8674C7.56463 15.8674 8.40037 16.7031 8.40037 17.734C8.40037 18.765 7.56463 19.6007 6.5337 19.6007C5.50277 19.6007 4.66703 18.765 4.66703 17.734C4.66703 16.7031 5.50277 15.8674 6.5337 15.8674ZM6.5337 36.4007C7.56463 36.4007 8.40037 37.2364 8.40037 38.2674C8.40037 39.2983 7.56463 40.134 6.5337 40.134C5.50277 40.134 4.66703 39.2983 4.66703 38.2674C4.66703 37.2364 5.50277 36.4007 6.5337 36.4007ZM2.57357 53.4275C1.0373 51.8912 2.09943 47.4635 5.32783 41.7832C5.71479 41.9227 6.12241 41.9962 6.5337 42.0007C7.03468 42.0009 7.53053 41.8999 7.99157 41.7039C10.162 44.8866 13.0619 47.5042 16.4494 49.3386C9.6977 53.5834 4.32917 55.1896 2.57357 53.4275ZM20.2789 49.024C23.1638 47.0077 25.9432 44.8445 28.6061 42.543C31.001 40.4971 33.4342 38.2412 35.8376 35.8379C36.7345 34.941 37.5316 34.1224 38.2642 33.3506C40.3265 34.8023 43.0429 34.9283 45.2306 33.6735C46.303 35.0838 47.284 36.4474 48.1576 37.7428C46.4453 41.2947 43.8218 44.3291 40.5546 46.5367C39.445 45.6564 37.9309 45.4852 36.6527 46.0953C35.3745 46.7054 34.5555 47.9904 34.5421 49.4067C29.8758 50.8524 24.8628 50.7179 20.2808 49.024H20.2789ZM38.267 51.334C37.2361 51.334 36.4004 50.4983 36.4004 49.4674C36.4004 48.4364 37.2361 47.6007 38.267 47.6007C39.298 47.6007 40.1337 48.4364 40.1337 49.4674C40.1337 50.4983 39.298 51.334 38.267 51.334ZM53.4272 53.4275C51.8918 54.9638 47.4641 53.9035 41.7829 50.6732C42.0983 49.8082 42.0699 48.8551 41.7036 48.0104C44.8862 45.8392 47.5039 42.9387 49.3382 39.5507C53.5849 46.3015 55.1902 51.671 53.4272 53.4275Z" fill="white"/>
</g>
<defs>
<clipPath id="clip0">
<rect width="56" height="56" fill="white"/>
</clipPath>
</defs>
</svg>
