<svg width="56" height="56" viewBox="0 0 56 56" fill="none" xmlns="http://www.w3.org/2000/svg">
<path d="M11.2 21.4667C11.439 21.4667 11.6779 21.3752 11.8599 21.1932L15.5932 17.4599C15.9582 17.095 15.9582 16.5051 15.5932 16.1402C15.2283 15.7752 14.6384 15.7752 14.2735 16.1402L10.5402 19.8735C10.1752 20.2384 10.1752 20.8283 10.5402 21.1932C10.7222 21.3752 10.9611 21.4667 11.2 21.4667Z" fill="white"/>
<path d="M11.2 26.1333C11.439 26.1333 11.6779 26.0419 11.8599 25.8599L13.7266 23.9932C14.0915 23.6283 14.0915 23.0384 13.7266 22.6735C13.3616 22.3085 12.7718 22.3085 12.4068 22.6735L10.5402 24.5401C10.1752 24.9051 10.1752 25.4949 10.5402 25.8599C10.7222 26.0419 10.9611 26.1333 11.2 26.1333Z" fill="white"/>
<path d="M14.2707 20.804C14.1017 20.9813 14 21.224 14 21.4666C14 21.7093 14.1017 21.952 14.2707 22.1293C14.4471 22.2973 14.6907 22.4 14.9333 22.4C15.176 22.4 15.4187 22.2973 15.596 22.1293C15.764 21.952 15.8667 21.7093 15.8667 21.4666C15.8667 21.224 15.764 20.9813 15.596 20.804C15.2507 20.4586 14.6057 20.468 14.2707 20.804Z" fill="white"/>
<path d="M16.1402 20.2599C16.3222 20.4419 16.5611 20.5334 16.8 20.5334C17.039 20.5334 17.2779 20.4419 17.4599 20.2599L20.2599 17.4599C20.6248 17.095 20.6248 16.5051 20.2599 16.1402C19.895 15.7752 19.3051 15.7752 18.9402 16.1402L16.1402 18.9402C15.7752 19.3051 15.7752 19.895 16.1402 20.2599Z" fill="white"/>
<path d="M11.2 30.8C11.439 30.8 11.6779 30.7085 11.8599 30.5265L20.2599 22.1265C20.6248 21.7616 20.6248 21.1717 20.2599 20.8068C19.895 20.4418 19.3051 20.4418 18.9402 20.8068L10.5402 29.2068C10.1752 29.5717 10.1752 30.1616 10.5402 30.5265C10.7222 30.7085 10.9611 30.8 11.2 30.8Z" fill="white"/>
<path d="M20.804 20.2627C20.9804 20.4307 21.224 20.5333 21.4667 20.5333C21.7093 20.5333 21.952 20.4307 22.1293 20.2627C22.2973 20.0853 22.4 19.8427 22.4 19.6C22.4 19.348 22.2973 19.1147 22.1293 18.9373C21.784 18.592 21.1587 18.592 20.804 18.9373C20.6351 19.1147 20.5333 19.3573 20.5333 19.6C20.5333 19.8427 20.6351 20.0853 20.804 20.2627Z" fill="white"/>
<path d="M23.3333 18.6667C23.5723 18.6667 23.8112 18.5752 23.9932 18.3932L24.9265 17.4599C25.2915 17.095 25.2915 16.5051 24.9265 16.1402C24.5616 15.7752 23.9717 15.7752 23.6068 16.1402L22.6735 17.0735C22.3085 17.4384 22.3085 18.0283 22.6735 18.3932C22.8555 18.5752 23.0944 18.6667 23.3333 18.6667Z" fill="white"/>
<path d="M54.5272 42H53.2V12.1959C53.2 10.1024 51.4976 8.40002 49.4051 8.40002H6.59493C4.5024 8.40002 2.8 10.1024 2.8 12.1959V42H1.4728C0.6608 42 0 42.6608 0 43.4728V46.1272C0 46.9392 0.6608 47.6 1.4728 47.6H54.5272C55.3392 47.6 56 46.9392 56 46.1272V43.4728C56 42.6608 55.3392 42 54.5272 42ZM4.66667 12.1959C4.66667 11.1319 5.53187 10.2667 6.59493 10.2667H49.4041C50.4681 10.2667 51.3333 11.1319 51.3333 12.1959V42H32.8561L32.6349 42.6188C32.578 42.7756 32.4221 42.9334 32.2 42.9334H24.7333C24.5112 42.9334 24.3553 42.7756 24.2984 42.6188L24.0772 42H4.66667V12.1959ZM54.1333 45.7334H1.86667V43.8667H2.8H22.8751C23.3081 44.4426 23.9932 44.8 24.7333 44.8H32.2C32.9401 44.8 33.6252 44.4426 34.0583 43.8667H53.2H54.1333V45.7334Z" fill="white"/>
<path d="M50.4 11.2001H5.59998V41.0667H50.4V11.2001ZM48.5333 39.2001H7.46664V13.0667H48.5333V39.2001Z" fill="white"/>
</svg>
