<svg width="68" height="57" viewBox="0 0 68 57" fill="none" xmlns="http://www.w3.org/2000/svg">
<g clip-path="url(#clip0)">
<path d="M56 10.2074C56 8.33153 54.4924 6.80493 52.64 6.80493C50.7875 6.80493 49.28 8.33153 49.28 10.2074C49.28 12.0833 50.7875 13.6099 52.64 13.6099C54.4924 13.6099 56 12.0833 56 10.2074ZM51.5199 10.2074C51.5199 9.58247 52.0227 9.07329 52.6398 9.07329C53.257 9.07329 53.7598 9.58247 53.7598 10.2074C53.7598 10.8323 53.257 11.3415 52.6398 11.3415C52.0228 11.3415 51.5199 10.8323 51.5199 10.2074Z" fill="white"/>
<path d="M12.3201 45.3663C11.7019 45.3663 11.2001 45.8744 11.2001 46.5004C11.2001 47.1264 11.7019 47.6346 12.3201 47.6346H32.4801C33.0983 47.6346 33.6 47.1264 33.6 46.5004C33.6 45.8744 33.0983 45.3663 32.4801 45.3663H12.3201Z" fill="white"/>
<path d="M47.04 10.2074C47.04 8.33153 45.5325 6.80493 43.68 6.80493C41.8275 6.80493 40.32 8.33153 40.32 10.2074C40.32 12.0833 41.8275 13.6099 43.68 13.6099C45.5325 13.6099 47.04 12.0833 47.04 10.2074ZM42.56 10.2074C42.56 9.58247 43.0629 9.07329 43.68 9.07329C44.2971 9.07329 44.8 9.58247 44.8 10.2074C44.8 10.8323 44.2971 11.3415 43.68 11.3415C43.0629 11.3415 42.56 10.8323 42.56 10.2074Z" fill="white"/>
<path d="M32.4801 11.3416C33.0983 11.3416 33.6 10.8335 33.6 10.2075C33.6 9.58148 33.0983 9.07336 32.4801 9.07336H12.3201C11.7019 9.07336 11.2001 9.58148 11.2001 10.2075C11.2001 10.8335 11.7019 11.3416 12.3201 11.3416H32.4801Z" fill="white"/>
<path d="M61.5999 0H5.60004C2.7216 0 0 2.75601 0 5.67084V14.7442C0 15.3702 0.501768 15.8783 1.11996 15.8783C1.73814 15.8783 2.23991 15.3702 2.23991 14.7442V5.67084C2.23991 4.01718 3.9669 2.26836 5.59991 2.26836H61.5999C63.2329 2.26836 64.9599 4.01718 64.9599 5.67084V51.0372C64.9599 52.6908 63.2329 54.4396 61.5999 54.4396H5.60004C3.96703 54.4396 2.24004 52.6908 2.24004 51.0372V38.5614H61.6C62.2182 38.5614 62.72 38.0533 62.72 37.4273C62.72 36.8013 62.2182 36.2931 61.6 36.2931H1.11996C0.501768 36.2931 0 36.8013 0 37.4273V51.0372C0 53.952 2.7216 56.708 5.60004 56.708H61.6C64.4784 56.708 67.2 53.952 67.2 51.0372V5.67084C67.2 2.75601 64.4784 0 61.5999 0Z" fill="white"/>
<path d="M1.11996 34.0247C1.73814 34.0247 2.23991 33.5166 2.23991 32.8906V20.4148H61.5999C62.2181 20.4148 62.7199 19.9067 62.7199 19.2807C62.7199 18.6547 62.2181 18.1466 61.5999 18.1466H1.11996C0.501768 18.1466 0 18.6547 0 19.2807V32.8906C0 33.5166 0.501768 34.0247 1.11996 34.0247Z" fill="white"/>
<path d="M49.28 46.5006C49.28 48.3765 50.7875 49.9031 52.64 49.9031C54.4924 49.9031 56 48.3765 56 46.5006C56 44.6247 54.4924 43.0981 52.64 43.0981C50.7875 43.0981 49.28 44.6247 49.28 46.5006ZM53.7599 46.5006C53.7599 47.1256 53.2571 47.6347 52.64 47.6347C52.0228 47.6347 51.52 47.1256 51.52 46.5006C51.52 45.8757 52.0228 45.3665 52.64 45.3665C53.2571 45.3664 53.7599 45.8757 53.7599 46.5006Z" fill="white"/>
<path d="M12.3201 27.2198C11.7019 27.2198 11.2001 27.728 11.2001 28.354C11.2001 28.98 11.7019 29.4881 12.3201 29.4881H32.4801C33.0983 29.4881 33.6 28.98 33.6 28.354C33.6 27.728 33.0983 27.2198 32.4801 27.2198H12.3201Z" fill="white"/>
<path d="M49.28 28.3539C49.28 30.2298 50.7875 31.7564 52.64 31.7564C54.4924 31.7564 56 30.2298 56 28.3539C56 26.478 54.4924 24.9514 52.64 24.9514C50.7875 24.9514 49.28 26.478 49.28 28.3539ZM53.7599 28.3539C53.7599 28.9788 53.2571 29.488 52.64 29.488C52.0228 29.488 51.52 28.9788 51.52 28.3539C51.52 27.729 52.0228 27.2198 52.64 27.2198C53.2571 27.2198 53.7599 27.729 53.7599 28.3539Z" fill="white"/>
<path d="M40.32 46.5006C40.32 48.3765 41.8275 49.9031 43.68 49.9031C45.5325 49.9031 47.04 48.3765 47.04 46.5006C47.04 44.6247 45.5325 43.0981 43.68 43.0981C41.8275 43.0981 40.32 44.6247 40.32 46.5006ZM44.8 46.5006C44.8 47.1256 44.2971 47.6347 43.68 47.6347C43.0629 47.6347 42.56 47.1256 42.56 46.5006C42.56 45.8757 43.0629 45.3665 43.68 45.3665C44.2971 45.3664 44.8 45.8757 44.8 46.5006Z" fill="white"/>
<path d="M40.32 28.3539C40.32 30.2298 41.8275 31.7564 43.68 31.7564C45.5325 31.7564 47.04 30.2298 47.04 28.3539C47.04 26.478 45.5325 24.9514 43.68 24.9514C41.8275 24.9514 40.32 26.478 40.32 28.3539ZM44.8 28.3539C44.8 28.9788 44.2971 29.488 43.68 29.488C43.0629 29.488 42.56 28.9788 42.56 28.3539C42.56 27.729 43.0629 27.2198 43.68 27.2198C44.2971 27.2198 44.8 27.729 44.8 28.3539Z" fill="white"/>
</g>
<defs>
<clipPath id="clip0">
<rect width="67.2" height="56.708" fill="white"/>
</clipPath>
</defs>
</svg>
