<svg width="18" height="18" viewBox="0 0 18 18" fill="none" xmlns="http://www.w3.org/2000/svg">
<path d="M16.9907 12.5327C15.729 12.5327 14.5514 12.3645 13.4579 11.9439C13.3738 11.9439 13.2897 11.8598 13.1215 11.8598C12.8692 11.8598 12.6168 11.9439 12.4486 12.1121L10.2617 14.2991C7.40187 12.9533 5.04673 10.5981 3.61682 7.82243L5.80374 5.63551C6.05607 5.38318 6.14019 4.96262 6.05607 4.62617C5.71963 3.4486 5.46729 2.27103 5.46729 1.00935C5.46729 0.420561 5.04673 0 4.45794 0H1.00935C0.420561 0 0 0.420561 0 1.00935C0 10.4299 7.57009 18 16.9907 18C17.5794 18 18 17.5794 18 16.9907V13.4579C18 12.9533 17.4953 12.5327 16.9907 12.5327Z" fill="#2CB5E5"/>
</svg>
