<svg width="56" height="56" viewBox="0 0 56 56" fill="none" xmlns="http://www.w3.org/2000/svg">
<path d="M53.375 5.25256H2.625C1.17775 5.25256 0 6.43031 0 7.87756V41.1249C0 42.5722 1.17775 43.7499 2.625 43.7499H17.5114V46.3714H13.1198C11.6725 46.3714 10.4948 47.5492 10.4948 48.9964V49.8714C10.4948 50.3553 10.8859 50.7464 11.3698 50.7464H44.6302C45.1141 50.7464 45.5052 50.3553 45.5052 49.8714V48.9964C45.5052 47.5492 44.3275 46.3714 42.8802 46.3714H38.5298V43.7499H53.375C54.8223 43.7499 56 42.5722 56 41.1249V7.87756C56 6.43031 54.8223 5.25256 53.375 5.25256ZM2.625 7.00256H53.375C53.858 7.00256 54.25 7.39544 54.25 7.87756V38.4999H1.75V7.87756C1.75 7.39544 2.142 7.00256 2.625 7.00256ZM13.1198 48.1214H42.8802C43.3633 48.1214 43.7552 48.5134 43.7552 48.9964H12.2448C12.2448 48.5134 12.6368 48.1214 13.1198 48.1214ZM36.7798 46.3714H19.2614V43.7499H36.7798V46.3714ZM53.375 41.9999H2.625C2.142 41.9999 1.75 41.6079 1.75 41.1249V40.2499H28.0201C27.5459 40.2596 27.167 40.6437 27.167 41.1214C27.167 41.6053 27.5625 41.9964 28.0464 41.9964C28.5294 41.9964 28.9214 41.6053 28.9214 41.1214C28.9214 40.6437 28.5381 40.2596 28.0639 40.2499H54.25V41.1249C54.25 41.6079 53.858 41.9999 53.375 41.9999Z" fill="white"/>
</svg>
