<svg width="29" height="16" viewBox="0 0 29 16" fill="none" xmlns="http://www.w3.org/2000/svg">
<path fill-rule="evenodd" clip-rule="evenodd" d="M28.1223 1.11032C28.3358 0.483984 28.1223 0.0284693 27.1767 0.0284693H24.0351C23.2421 0.0284693 22.876 0.427046 22.6625 0.854093C22.6625 0.854093 21.046 4.49822 18.7889 6.86121C18.0568 7.54448 17.7213 7.77224 17.3248 7.77224C17.1113 7.77224 16.8368 7.54449 16.8368 6.91815V1.08185C16.8368 0.341636 16.5928 0 15.9217 0H10.9805C10.4925 0 10.1875 0.341635 10.1875 0.683272C10.1875 1.39502 11.316 1.56584 11.438 3.55872V7.88612C11.438 8.82562 11.255 8.99644 10.8585 8.99644C9.79095 8.99644 7.19833 5.32384 5.64276 1.13879C5.33774 0.313167 5.03273 0 4.23969 0H1.06755C0.152507 0 0 0.398575 0 0.825621C0 1.5943 1.06755 5.46619 4.97173 10.5907C7.56435 14.0925 11.255 15.9715 14.5797 15.9715C16.5928 15.9715 16.8368 15.5445 16.8368 14.8327V12.1851C16.8368 11.331 17.0198 11.1886 17.6603 11.1886C18.1178 11.1886 18.9414 11.4164 20.8019 13.0961C22.937 15.089 23.3031 16 24.4926 16H27.6343C28.5493 16 28.9763 15.573 28.7323 14.7473C28.4578 13.9217 27.4207 12.726 26.0787 11.3025C25.3467 10.5053 24.2486 9.62278 23.9131 9.19573C23.4556 8.62634 23.5776 8.39858 23.9131 7.88612C23.8826 7.88612 27.7258 2.8185 28.1223 1.11032Z" fill="white"/>
</svg>
