<svg id="euqz9xz1vo1m1" xmlns="http://www.w3.org/2000/svg" xmlns:xlink="http://www.w3.org/1999/xlink" viewBox="0 0 1024 832" shape-rendering="geometricPrecision" text-rendering="geometricPrecision" width="1024" height="832"><style><![CDATA[#euqz9xz1vo1m4_to {animation: euqz9xz1vo1m4_to__to 6000ms linear infinite normal forwards}@keyframes euqz9xz1vo1m4_to__to { 0% {transform: translate(0px,0px)} 50% {transform: translate(-30px,0px)} 100% {transform: translate(0px,0px)} }#euqz9xz1vo1m5_to {animation: euqz9xz1vo1m5_to__to 6000ms linear infinite normal forwards}@keyframes euqz9xz1vo1m5_to__to { 0% {transform: translate(0px,0px)} 50% {transform: translate(-30px,0px)} 100% {transform: translate(0px,0px)} }#euqz9xz1vo1m6_to {animation: euqz9xz1vo1m6_to__to 6000ms linear infinite normal forwards}@keyframes euqz9xz1vo1m6_to__to { 0% {transform: translate(0px,0px)} 50% {transform: translate(-30px,0px)} 100% {transform: translate(0px,0px)} }#euqz9xz1vo1m137_tr {animation: euqz9xz1vo1m137_tr__tr 6000ms linear infinite normal forwards}@keyframes euqz9xz1vo1m137_tr__tr { 0% {transform: translate(777.171000px,671.404000px) rotate(0deg)} 50% {transform: translate(777.171000px,671.404000px) rotate(180.107650deg)} 100% {transform: translate(777.171000px,671.404000px) rotate(360.144700deg)} }]]></style><defs><clipPath id="euqz9xz1vo1m2"><rect id="euqz9xz1vo1m3" width="132" height="123" rx="0" ry="0" transform="matrix(1 0 0 1 307 677)" fill="rgb(255,255,255)" stroke="none" stroke-width="1"/></clipPath></defs><g id="euqz9xz1vo1m4_to" transform="translate(0,0)"><path id="euqz9xz1vo1m4" d="M322.457000,589.487000L313.527000,589.487000C312.039000,589.487000,310.923000,590.602000,310.923000,592.089000C310.923000,593.948000,312.039000,595.063000,313.527000,595.063000L322.457000,595.063000C323.945000,595.063000,325.061000,593.948000,325.061000,592.089000C325.061000,590.602000,323.945000,589.487000,322.457000,589.487000ZM208.976000,608.818000L225.719000,608.818000C224.975000,607.331000,224.975000,606.216000,224.975000,604.729000C224.975000,599.524000,229.067000,595.435000,234.276000,595.435000L244.322000,595.435000C244.322000,595.063000,244.322000,594.691000,244.322000,594.320000C244.322000,590.974000,247.299000,588,250.647000,588L299.389000,588C303.109000,588,305.714000,590.974000,305.714000,594.320000C305.714000,594.691000,305.714000,595.435000,305.714000,595.807000C309.807000,596.922000,312.411000,600.268000,312.411000,604.729000C312.411000,609.933000,308.318000,614.022000,303.109000,614.022000L265.530000,614.022000C265.158000,614.022000,264.786000,614.394000,264.414000,614.394000L208.976000,614.394000C207.487000,614.394000,205.999000,612.907000,205.999000,611.420000C205.999000,609.933000,207.487000,608.818000,208.976000,608.818000ZM198.186000,608.818000L192.977000,608.818000C191.488000,608.818000,190,609.933000,190,611.420000C190,612.907000,191.488000,614.394000,192.977000,614.394000L198.186000,614.394000C199.674000,614.394000,200.790000,612.907000,200.790000,611.420000C200.790000,609.933000,199.674000,608.818000,198.186000,608.818000Z" transform="translate(0,0)" clip-rule="evenodd" fill="rgb(230,251,255)" fill-opacity="0.5" fill-rule="evenodd" stroke="none" stroke-width="1"/></g><g id="euqz9xz1vo1m5_to" transform="translate(0,0)"><path id="euqz9xz1vo1m5" d="M773.813000,589.781000L782.743000,589.781000C782.743000,589.781000,782.743000,589.409000,782.743000,589.037000C782.743000,586.063000,784.976000,583.833000,787.952000,583.833000L822.183000,583.833000C821.810000,583.461000,821.810000,582.717000,821.810000,582.346000C821.810000,580.487000,823.299000,579,825.531000,579L834.461000,579C836.321000,579,837.809000,580.487000,837.809000,582.346000C837.809000,584.204000,836.321000,586.063000,834.461000,586.063000L834.089000,586.063000C834.833000,586.807000,835.205000,587.922000,835.205000,589.037000C835.205000,589.409000,835.205000,589.781000,835.205000,590.152000C838.554000,591.268000,840.786000,594.242000,840.786000,597.959000C840.786000,598.703000,840.786000,599.446000,840.786000,600.190000L850.460000,600.190000C851.948000,600.190000,853.064000,601.305000,853.064000,602.792000C853.064000,604.279000,851.948000,605.766000,850.460000,605.766000L834.461000,605.766000C834.089000,605.766000,833.345000,605.766000,832.973000,605.766000L773.813000,605.766000C769.349000,605.766000,766,602.420000,766,597.959000C766,593.498000,769.349000,589.781000,773.813000,589.781000ZM867.203000,600.190000L860.134000,600.190000C858.645000,600.190000,857.157000,601.305000,857.157000,602.792000C857.157000,604.279000,858.645000,605.766000,860.134000,605.766000L867.203000,605.766000C868.691000,605.766000,870.179000,604.279000,870.179000,602.792000C870.179000,601.305000,868.691000,600.190000,867.203000,600.190000Z" transform="translate(0,0)" clip-rule="evenodd" fill="rgb(230,251,255)" fill-opacity="0.5" fill-rule="evenodd" stroke="none" stroke-width="1"/></g><g id="euqz9xz1vo1m6_to" transform="translate(0,0)"><path id="euqz9xz1vo1m6" d="M706.207500,27.137500L708.811535,27.137500C708.067525,25.650500,707.695520,24.163500,707.695520,22.676500C707.695520,17.843800,711.788575,13.754600,716.625640,13.754600L727.787790,13.754600C730.764830,5.576200,738.577935,0,747.880060,0C756.809180,0,764.623285,5.576200,767.599325,13.754600L780.994505,13.754600C785.831570,13.754600,789.924625,17.843800,789.924625,22.676500C789.924625,24.163500,789.179615,25.650500,788.435605,27.137500L807.039855,27.137500C812.992935,27.137500,817.830000,31.970200,817.830000,37.546400C817.830000,43.494400,812.992935,47.955300,807.039855,47.955300L722.950725,47.955300C722.950725,48.327100,722.578720,48.327100,722.206715,48.327100L682.395180,48.327100C681.278165,48.327100,680.534155,47.211800,680.534155,46.096600C680.534155,44.981300,681.278165,44.237900,682.395180,44.237900L698.021390,44.237900C696.905375,42.379100,695.789360,40.148600,695.789360,37.546400C695.789360,31.970200,700.626425,27.137500,706.207500,27.137500ZM674.581075,44.237900L670.860025,44.237900C669.744010,44.237900,669,44.981300,669,46.096600C669,47.211800,669.744010,48.327100,670.860025,48.327100L674.581075,48.327100C675.697090,48.327100,676.813105,47.211800,676.813105,46.096600C676.813105,44.981300,675.697090,44.237900,674.581075,44.237900Z" transform="translate(0,0)" clip-rule="evenodd" fill="rgb(230,251,255)" fill-opacity="0.5" fill-rule="evenodd" stroke="none" stroke-width="1"/></g><path id="euqz9xz1vo1m7" d="M-322,743.017000C87,803.525000,231,784,595,724.776000C881.955000,678.087000,1187,611.322000,1532,743.017000L1532,832L-322,832L-322,743.017000Z" fill="rgb(150,200,71)" stroke="none" stroke-width="1"/><path id="euqz9xz1vo1m8" d="M707.930000,766.225000L707.274000,764.184000C707.347000,764.111000,707.420000,764.111000,707.566000,764.038000C708.076000,763.819000,709.825000,764.038000,709.825000,764.038000C710.700000,764.038000,711.356000,763.965000,711.356000,763.090000L711.356000,763.018000C711.356000,762.143000,710.554000,761.997000,709.680000,761.924000C708.440000,761.851000,705.379000,761.414000,704.869000,761.414000C704.140000,761.414000,703.483000,761.851000,703.119000,762.361000C702.900000,762.653000,702.682000,763.018000,702.682000,763.455000C702.682000,764.548000,703.411000,765.059000,704.869000,765.059000C705.233000,765.059000,705.525000,764.986000,705.889000,764.840000L706.472000,766.662000C706.545000,766.371000,707.639000,766.006000,707.930000,766.225000Z" fill="rgb(51,51,51)" stroke="none" stroke-width="1"/><path id="euqz9xz1vo1m9" d="M735.776000,771.108000C733.589000,771.108000,731.475000,771.692000,729.653000,772.712000C729.871000,773.149000,730.090000,773.587000,730.309000,774.024000C731.912000,773.149000,733.735000,772.566000,735.703000,772.566000C741.753000,772.566000,746.637000,777.450000,746.637000,783.501000C746.637000,789.551000,741.753000,794.435000,735.703000,794.435000C729.653000,794.435000,724.769000,789.551000,724.769000,783.501000C724.769000,780.002000,726.445000,776.867000,729.069000,774.826000C728.851000,774.389000,728.559000,773.951000,728.340000,773.441000C725.279000,775.701000,723.238000,779.346000,723.238000,783.428000C723.238000,790.280000,728.778000,795.820000,735.630000,795.820000C742.482000,795.820000,748.022000,790.280000,748.022000,783.428000C748.168000,776.721000,742.628000,771.108000,735.776000,771.108000Z" fill="rgb(51,51,51)" stroke="none" stroke-width="1"/><path id="euqz9xz1vo1m10" d="M735.775000,785.615000C736.942000,785.615000,737.889000,784.667000,737.889000,783.501000C737.889000,782.335000,736.942000,781.387000,735.775000,781.387000C735.557000,781.387000,735.338000,781.460000,735.119000,781.533000C735.557000,782.116000,735.921000,782.553000,736.213000,782.845000C736.504000,783.136000,736.504000,783.647000,736.213000,783.938000C736.067000,784.084000,735.848000,784.157000,735.703000,784.157000C735.484000,784.157000,735.338000,784.084000,735.192000,783.938000C734.901000,783.647000,734.536000,783.136000,734.026000,782.480000C733.880000,782.772000,733.734000,783.136000,733.734000,783.501000C733.662000,784.740000,734.609000,785.615000,735.775000,785.615000Z" fill="rgb(51,51,51)" stroke="none" stroke-width="1"/><path id="euqz9xz1vo1m11" d="M696.777000,782.772000L697.214000,782.772000C697.142000,782.626000,697.142000,782.553000,697.069000,782.407000L696.777000,782.772000Z" fill="rgb(51,51,51)" stroke="none" stroke-width="1"/><path id="euqz9xz1vo1m12" d="M713.616000,783.865000C713.397000,784.157000,712.814000,784.157000,712.814000,784.157000L709.315000,784.157000C709.607000,785.614000,710.773000,786.781000,712.304000,786.999000L707.420000,786.562000C707.638000,785.760000,707.711000,784.958000,707.784000,784.157000L706.253000,784.157000C706.181000,784.958000,706.108000,785.760000,705.889000,786.489000L704.868000,786.416000L695.392000,785.614000C696.340000,785.614000,697.069000,785.031000,697.360000,784.229000L695.392000,784.229000C695.101000,784.229000,694.882000,784.157000,694.736000,783.865000C694.590000,783.573000,694.663000,783.355000,694.809000,783.136000L696.048000,781.532000C695.829000,781.459000,695.611000,781.459000,695.392000,781.459000L696.194000,781.387000L696.996000,780.293000L695.319000,780.439000C693.643000,780.439000,692.258000,781.824000,692.258000,783.501000C692.258000,785.177000,693.643000,786.562000,695.319000,786.635000L704.504000,787.510000L705.524000,787.583000C703.921000,791.665000,699.984000,794.508000,695.392000,794.508000C689.342000,794.508000,684.458000,789.624000,684.458000,783.573000C684.458000,777.523000,689.342000,772.639000,695.392000,772.639000C697.652000,772.639000,699.693000,773.295000,701.442000,774.462000L702.390000,773.295000C700.422000,771.910000,698.016000,771.108000,695.392000,771.108000C688.540000,771.108000,683,776.648000,683,783.501000C683,790.353000,688.540000,795.893000,695.392000,795.893000C700.786000,795.893000,705.379000,792.394000,707.128000,787.583000L712.887000,788.093000L712.960000,788.093000L713.397000,790.936000L713.033000,791.009000C712.668000,791.082000,712.377000,791.446000,712.449000,791.883000L712.449000,791.956000C712.522000,792.321000,712.887000,792.612000,713.324000,792.539000L716.313000,791.956000C716.677000,791.883000,716.969000,791.519000,716.896000,791.082000L716.896000,791.009000C716.823000,790.644000,716.459000,790.353000,716.021000,790.426000L714.855000,790.644000L714.418000,787.801000C716.240000,787.145000,717.479000,785.323000,717.479000,783.355000C717.479000,782.407000,717.188000,781.459000,716.604000,780.658000L713.616000,783.865000Z" fill="rgb(51,51,51)" stroke="none" stroke-width="1"/><path id="euqz9xz1vo1m13" d="M709.242000,782.772000L711.721000,782.772000L710.992000,780.439000C710.117000,780.877000,709.461000,781.751000,709.242000,782.772000Z" fill="rgb(51,51,51)" stroke="none" stroke-width="1"/><path id="euqz9xz1vo1m14" d="M730.892000,774.972000C732.350000,774.170000,734.026000,773.660000,735.776000,773.660000C741.243000,773.660000,745.690000,778.107000,745.690000,783.574000C745.690000,789.041000,741.243000,793.487000,735.776000,793.487000C730.309000,793.487000,725.862000,789.041000,725.862000,783.574000C725.862000,780.439000,727.320000,777.596000,729.653000,775.774000C729.507000,775.482000,729.288000,775.191000,729.142000,774.899000C726.518000,776.867000,724.842000,780.002000,724.842000,783.574000C724.842000,789.624000,729.726000,794.508000,735.776000,794.508000C741.826000,794.508000,746.710000,789.624000,746.710000,783.574000C746.710000,777.523000,741.826000,772.639000,735.776000,772.639000C733.808000,772.639000,731.985000,773.150000,730.382000,774.097000C730.527000,774.389000,730.673000,774.680000,730.892000,774.972000Z" fill="rgb(191,63,18)" stroke="none" stroke-width="1"/><path id="euqz9xz1vo1m15" d="M705.816000,786.489000C706.035000,785.760000,706.180000,784.959000,706.180000,784.157000L705.160000,784.157000C705.087000,784.959000,705.014000,785.688000,704.795000,786.344000L705.816000,786.489000Z" fill="rgb(191,63,18)" stroke="none" stroke-width="1"/><path id="euqz9xz1vo1m16" d="M704.358000,779.565000L705.379000,779.492000C704.723000,777.961000,703.775000,776.576000,702.536000,775.482000L701.953000,776.284000C702.973000,777.159000,703.775000,778.252000,704.358000,779.565000Z" fill="rgb(191,63,18)" stroke="none" stroke-width="1"/><path id="euqz9xz1vo1m17" d="M704.723000,780.585000C704.941000,781.314000,705.087000,782.043000,705.160000,782.772000L706.181000,782.772000C706.108000,781.970000,705.962000,781.241000,705.743000,780.512000L704.723000,780.585000Z" fill="rgb(191,63,18)" stroke="none" stroke-width="1"/><path id="euqz9xz1vo1m18" d="M684.385000,783.574000C684.385000,789.624000,689.269000,794.508000,695.319000,794.508000C699.911000,794.508000,703.848000,791.665000,705.451000,787.583000L704.431000,787.510000C702.900000,791.082000,699.401000,793.560000,695.319000,793.560000C689.852000,793.560000,685.405000,789.114000,685.405000,783.647000C685.405000,778.179000,689.852000,773.733000,695.319000,773.733000C697.360000,773.733000,699.182000,774.316000,700.786000,775.409000L701.369000,774.608000C699.620000,773.441000,697.506000,772.785000,695.319000,772.785000C689.269000,772.639000,684.385000,777.523000,684.385000,783.574000Z" fill="rgb(191,63,18)" stroke="none" stroke-width="1"/><path id="euqz9xz1vo1m19" d="M728.049000,765.787000L728.049000,760.830000C728.049000,760.612000,727.903000,760.320000,727.757000,760.174000C727.538000,760.029000,727.320000,759.956000,727.101000,760.029000L724.258000,760.320000C724.112000,760.174000,723.821000,760.101000,723.602000,760.101000L719.739000,760.247000C719.155000,760.247000,718.791000,760.758000,718.791000,761.268000C718.791000,761.705000,719.155000,762.070000,719.520000,762.215000C719.593000,762.215000,719.739000,762.288000,719.812000,762.215000L723.675000,762.070000C723.894000,762.070000,724.112000,761.997000,724.258000,761.851000L726.518000,761.705000L726.518000,766.516000C726.518000,766.079000,726.518000,765.714000,726.518000,765.714000C726.518000,765.423000,727.903000,765.496000,728.049000,765.787000Z" fill="rgb(51,51,51)" stroke="none" stroke-width="1"/><path id="euqz9xz1vo1m20" d="M729.653000,775.774000C731.111000,778.398000,732.787000,780.949000,734.027000,782.553000C734.537000,783.209000,734.901000,783.719000,735.193000,784.011000C735.339000,784.157000,735.557000,784.230000,735.703000,784.230000C735.922000,784.230000,736.068000,784.157000,736.213000,784.011000C736.505000,783.719000,736.505000,783.209000,736.213000,782.918000C735.922000,782.626000,735.557000,782.189000,735.120000,781.606000C733.954000,780.002000,732.277000,777.523000,730.892000,774.972000C730.746000,774.681000,730.601000,774.389000,730.382000,774.097000C730.163000,773.660000,729.944000,773.223000,729.726000,772.785000C728.851000,771.036000,728.195000,769.432000,728.122000,768.339000C728.195000,768.193000,728.122000,768.047000,728.122000,767.901000C728.122000,767.172000,728.122000,765.933000,728.122000,765.933000L728.122000,765.860000C727.976000,765.496000,726.664000,765.496000,726.664000,765.860000C726.664000,765.860000,726.664000,766.225000,726.664000,766.662000C726.664000,766.881000,726.664000,767.172000,726.664000,767.464000L708.513000,767.464000L708.149000,766.371000C708.149000,766.371000,708.149000,766.298000,708.076000,766.298000C707.784000,766.079000,706.691000,766.371000,706.691000,766.735000C706.691000,766.735000,706.691000,766.735000,706.691000,766.808000L706.910000,767.537000C706.837000,767.610000,706.837000,767.610000,706.764000,767.683000L702.317000,773.368000L701.370000,774.535000L700.787000,775.337000L696.923000,780.293000L696.121000,781.387000L695.976000,781.533000L694.736000,783.136000C694.591000,783.355000,694.518000,783.574000,694.663000,783.865000C694.809000,784.157000,695.028000,784.230000,695.320000,784.230000L697.288000,784.230000L705.233000,784.230000L706.254000,784.230000L707.784000,784.230000L709.388000,784.230000L712.887000,784.230000C712.887000,784.230000,713.470000,784.303000,713.689000,783.938000L716.605000,780.804000L726.956000,769.724000C727.320000,770.817000,727.831000,772.202000,728.559000,773.514000C728.778000,773.952000,728.997000,774.389000,729.288000,774.899000C729.288000,775.191000,729.434000,775.482000,729.653000,775.774000ZM709.242000,782.772000L707.639000,782.772000L706.108000,782.772000L705.087000,782.772000L697.142000,782.845000L696.705000,782.845000L696.996000,782.480000L698.017000,781.168000L698.891000,780.075000L701.880000,776.211000L702.463000,775.409000L703.411000,774.243000L707.347000,769.141000L710.482000,778.908000L710.846000,780.002000L710.919000,780.293000L711.648000,782.626000L709.242000,782.772000ZM715.366000,779.564000L713.106000,781.970000L712.085000,778.763000L708.878000,768.776000L725.571000,768.776000L715.366000,779.564000Z" fill="rgb(248,85,85)" stroke="none" stroke-width="1"/><path id="euqz9xz1vo1m21" d="M710.919000,780.075000L710.554000,778.981000L706.982000,779.346000C706.253000,777.378000,705.014000,775.628000,703.484000,774.316000L702.536000,775.482000C703.775000,776.576000,704.723000,777.961000,705.379000,779.492000L704.358000,779.565000L698.964000,780.075000L698.089000,781.168000L704.723000,780.585000L705.743000,780.512000C705.962000,781.241000,706.108000,781.970000,706.181000,782.772000L707.711000,782.772000C707.638000,781.970000,707.493000,781.168000,707.347000,780.366000L710.919000,780.075000Z" fill="rgb(51,51,51)" stroke="none" stroke-width="1"/><path id="euqz9xz1vo1m22" d="M712.741000,778.762000L712.085000,778.835000L713.106000,782.043000L715.365000,779.637000C714.636000,779.054000,713.762000,778.762000,712.741000,778.762000Z" fill="rgb(51,51,51)" stroke="none" stroke-width="1"/><path id="euqz9xz1vo1m23" d="M788.946000,778.524000C788.946000,777.703000,788.296000,777.037000,787.494000,777.037000C786.693000,777.037000,786.043000,777.703000,786.043000,778.524000L786.043000,784.078000C786.043000,784.899000,786.693000,785.565000,787.494000,785.565000C788.296000,785.565000,788.946000,784.899000,788.946000,784.078000L788.946000,778.524000Z" fill="rgb(99,167,34)" stroke="none" stroke-width="1"/><path id="euqz9xz1vo1m24" d="M504.903000,748.487000C504.903000,747.666000,504.253000,747,503.452000,747C502.650000,747,502,747.666000,502,748.487000L502,754.041000C502,754.862000,502.650000,755.528000,503.452000,755.528000C504.253000,755.528000,504.903000,754.862000,504.903000,754.041000L504.903000,748.487000Z" fill="rgb(99,167,34)" stroke="none" stroke-width="1"/><path id="euqz9xz1vo1m25" d="M838.060000,772.204000C838.060000,771.588000,837.410000,771.089000,836.608000,771.089000C835.806000,771.089000,835.156000,771.588000,835.156000,772.204000L835.156000,776.353000C835.156000,776.969000,835.806000,777.468000,836.608000,777.468000C837.410000,777.468000,838.060000,776.969000,838.060000,776.353000L838.060000,772.204000Z" fill="rgb(99,167,34)" stroke="none" stroke-width="1"/><path id="euqz9xz1vo1m26" d="M555.287000,784.472000C555.287000,783.856000,554.637000,783.357000,553.835000,783.357000C553.033000,783.357000,552.384000,783.856000,552.384000,784.472000L552.384000,788.620000C552.384000,789.236000,553.033000,789.736000,553.835000,789.736000C554.637000,789.736000,555.287000,789.236000,555.287000,788.620000L555.287000,784.472000Z" fill="rgb(99,167,34)" stroke="none" stroke-width="1"/><path id="euqz9xz1vo1m27" d="M1026.330000,782.985000C1026.330000,782.164000,1025.680000,781.498000,1024.870000,781.498000C1024.070000,781.498000,1023.420000,782.164000,1023.420000,782.985000L1023.420000,788.539000C1023.420000,789.360000,1024.070000,790.026000,1024.870000,790.026000C1025.680000,790.026000,1026.330000,789.360000,1026.330000,788.539000L1026.330000,782.985000Z" fill="rgb(99,167,34)" stroke="none" stroke-width="1"/><path id="euqz9xz1vo1m28" d="M742.283000,752.948000C742.283000,752.127000,741.633000,751.461000,740.832000,751.461000C740.030000,751.461000,739.380000,752.127000,739.380000,752.948000L739.380000,758.502000C739.380000,759.323000,740.030000,759.989000,740.832000,759.989000C741.633000,759.989000,742.283000,759.323000,742.283000,758.502000L742.283000,752.948000Z" fill="rgb(99,167,34)" stroke="none" stroke-width="1"/><path id="euqz9xz1vo1m29" d="M653.903000,763.487000C653.903000,762.666000,653.253000,762,652.451000,762C651.650000,762,651,762.666000,651,763.487000L651,769.040000C651,769.862000,651.650000,770.527000,652.451000,770.527000C653.253000,770.527000,653.903000,769.862000,653.903000,769.040000L653.903000,763.487000Z" fill="rgb(99,167,34)" stroke="none" stroke-width="1"/><path id="euqz9xz1vo1m30" d="M978.903000,769.487000C978.903000,768.666000,978.253000,768,977.451000,768C976.650000,768,976,768.666000,976,769.487000L976,775.041000C976,775.862000,976.650000,776.528000,977.451000,776.528000C978.253000,776.528000,978.903000,775.862000,978.903000,775.041000L978.903000,769.487000Z" fill="rgb(99,167,34)" stroke="none" stroke-width="1"/><path id="euqz9xz1vo1m31" d="M365.903000,774.807000C365.903000,773.985000,365.253000,773.320000,364.452000,773.320000C363.650000,773.320000,363,773.985000,363,774.807000L363,780.360000C363,781.181000,363.650000,781.847000,364.452000,781.847000C365.253000,781.847000,365.903000,781.181000,365.903000,780.360000L365.903000,774.807000Z" fill="rgb(99,167,34)" stroke="none" stroke-width="1"/><path id="euqz9xz1vo1m32" d="M45.903000,804.807000C45.903000,803.985000,45.253100,803.320000,44.451500,803.320000C43.649900,803.320000,43,803.985000,43,804.807000L43,810.360000C43,811.181000,43.649900,811.847000,44.451500,811.847000C45.253100,811.847000,45.903000,811.181000,45.903000,810.360000L45.903000,804.807000Z" fill="rgb(99,167,34)" stroke="none" stroke-width="1"/><path id="euqz9xz1vo1m33" d="M244.766000,797.040000C244.766000,797.862000,245.416000,798.527000,246.218000,798.527000C247.020000,798.527000,247.669000,797.862000,247.669000,797.040000L247.669000,791.487000C247.669000,790.666000,247.020000,790,246.218000,790C245.416000,790,244.766000,790.666000,244.766000,791.487000L244.766000,797.040000Z" fill="rgb(99,167,34)" stroke="none" stroke-width="1"/><path id="euqz9xz1vo1m34" d="M379.670000,768.115000C379.670000,767.499000,379.020000,767,378.218000,767C377.416000,767,376.767000,767.499000,376.767000,768.115000L376.767000,772.263000C376.767000,772.879000,377.416000,773.379000,378.218000,773.379000C379.020000,773.379000,379.670000,772.879000,379.670000,772.263000L379.670000,768.115000Z" fill="rgb(99,167,34)" stroke="none" stroke-width="1"/><path id="euqz9xz1vo1m35" d="M59.669500,798.115000C59.669500,797.499000,59.019700,797,58.218100,797C57.416400,797,56.766600,797.499000,56.766600,798.115000L56.766600,802.263000C56.766600,802.879000,57.416400,803.379000,58.218100,803.379000C59.019700,803.379000,59.669500,802.879000,59.669500,802.263000L59.669500,798.115000Z" fill="rgb(99,167,34)" stroke="none" stroke-width="1"/><path id="euqz9xz1vo1m36" d="M231,803.732000C231,804.348000,231.650000,804.847000,232.451000,804.847000C233.253000,804.847000,233.903000,804.348000,233.903000,803.732000L233.903000,799.584000C233.903000,798.968000,233.253000,798.468000,232.451000,798.468000C231.650000,798.468000,231,798.968000,231,799.584000L231,803.732000Z" fill="rgb(99,167,34)" stroke="none" stroke-width="1"/><path id="euqz9xz1vo1m37" d="M648.674000,718.520000C649.418000,718.520000,649.790000,718.892000,649.790000,719.636000L649.790000,726.699000L647.558000,726.699000L647.558000,719.636000C647.558000,718.892000,647.930000,718.520000,648.674000,718.520000Z" clip-rule="evenodd" fill="rgb(166,28,28)" fill-rule="evenodd" stroke="none" stroke-width="1"/><path id="euqz9xz1vo1m38" d="M655.371000,705.881000C657.231000,707.368000,658.348000,709.970000,658.348000,712.572000C658.348000,717.777000,653.883000,722.238000,648.674000,722.238000C643.093000,722.238000,639,717.777000,639,712.572000C639,709.970000,640.116000,707.368000,641.604000,705.881000C641.977000,705.509000,641.977000,704.766000,641.977000,704.394000C641.604000,703.650000,641.232000,702.535000,641.232000,701.420000C641.232000,699.189000,641.977000,697.331000,643.465000,695.844000C643.837000,695.844000,643.837000,695.100000,643.837000,694.728000C643.465000,694.357000,643.465000,693.613000,643.465000,692.870000C643.465000,690.268000,645.697000,687.665000,648.674000,687.665000C651.650000,687.665000,653.883000,690.268000,653.883000,692.870000C653.883000,693.613000,653.511000,694.357000,653.511000,694.728000C653.139000,695.100000,653.511000,695.844000,653.511000,695.844000C654.999000,697.331000,656.115000,699.189000,656.115000,701.420000C656.115000,702.535000,655.743000,703.650000,655.371000,704.394000C654.999000,704.766000,654.999000,705.509000,655.371000,705.881000Z" clip-rule="evenodd" fill="rgb(248,85,85)" fill-rule="evenodd" stroke="none" stroke-width="1"/><path id="euqz9xz1vo1m39" d="M650.162000,721.866000C649.790000,722.238000,649.046000,722.238000,648.674000,722.238000C643.093000,722.238000,639,717.777000,639,712.572000C639,709.970000,640.116000,707.368000,641.604000,705.881000C641.977000,705.509000,641.977000,704.766000,641.977000,704.394000C641.604000,703.650000,641.232000,702.535000,641.232000,701.420000C641.232000,699.189000,641.977000,697.331000,643.465000,695.844000C643.837000,695.844000,643.837000,695.100000,643.837000,694.728000C643.465000,694.357000,643.465000,693.613000,643.465000,692.870000C643.465000,690.268000,645.697000,687.665000,648.674000,687.665000C649.046000,687.665000,649.046000,687.665000,649.418000,687.665000C647.186000,688.409000,645.697000,690.639000,645.697000,692.870000C645.697000,693.613000,645.697000,693.985000,646.069000,694.728000C646.069000,695.100000,646.069000,695.472000,645.697000,695.844000C644.209000,697.331000,643.465000,699.189000,643.465000,701.048000C643.465000,702.535000,643.837000,703.279000,644.209000,704.394000C644.209000,704.766000,644.209000,705.137000,643.837000,705.509000C642.349000,707.368000,641.232000,709.598000,641.232000,712.201000C641.232000,717.405000,645.325000,721.866000,650.162000,721.866000Z" clip-rule="evenodd" fill="rgb(235,61,61)" fill-rule="evenodd" stroke="none" stroke-width="1"/><path id="euqz9xz1vo1m40" d="M648.674000,695.844000L648.674000,696.215000L648.674000,701.792000L651.650000,700.305000C651.650000,700.305000,651.650000,700.305000,652.022000,700.305000C652.022000,700.676000,652.022000,700.676000,651.650000,700.676000L648.674000,702.535000L648.674000,712.201000L651.650000,710.714000C651.650000,710.714000,651.650000,710.714000,652.022000,710.714000C652.022000,711.085000,652.022000,711.085000,651.650000,711.085000L648.674000,712.944000L648.674000,719.636000C648.302000,719.636000,648.302000,719.636000,648.302000,719.636000L648.302000,710.342000L645.325000,708.483000C645.325000,708.483000,645.325000,708.483000,645.325000,708.111000L645.697000,708.111000L648.302000,709.598000L648.302000,696.215000C648.302000,696.215000,648.302000,695.844000,648.674000,695.844000Z" clip-rule="evenodd" fill="rgb(166,28,28)" fill-rule="evenodd" stroke="none" stroke-width="1"/><path id="euqz9xz1vo1m41" d="M643.093000,726.699000L653.883000,726.699000C654.255000,726.699000,654.255000,726.699000,654.255000,726.699000C654.255000,727.070000,654.255000,727.070000,653.883000,727.070000L643.093000,727.070000C643.093000,727.070000,643.093000,727.070000,643.093000,726.699000Z" clip-rule="evenodd" fill="rgb(0,0,0)" fill-opacity="0.101961" fill-rule="evenodd" stroke="none" stroke-width="1"/><path id="euqz9xz1vo1m42" d="M666.161000,716.290000C667.278000,716.290000,667.650000,717.033000,667.650000,717.777000L667.650000,726.327000L665.045000,726.327000L665.045000,717.777000C665.045000,717.033000,665.417000,716.290000,666.161000,716.290000Z" clip-rule="evenodd" fill="rgb(171,67,22)" fill-rule="evenodd" stroke="none" stroke-width="1"/><path id="euqz9xz1vo1m43" d="M674.719000,700.305000C676.951000,702.535000,678.439000,705.509000,678.439000,708.855000C678.439000,715.546000,672.858000,721.123000,666.161000,721.123000C659.836000,721.123000,654.255000,715.546000,654.255000,708.855000C654.255000,705.509000,655.743000,702.535000,657.604000,700.305000C658.348000,699.933000,658.348000,699.561000,657.976000,699.190000C657.604000,697.703000,657.231000,696.587000,657.231000,695.100000C657.231000,692.498000,658.348000,690.268000,659.836000,688.409000C660.580000,688.037000,660.580000,687.665000,660.208000,686.922000C660.208000,686.178000,659.836000,685.435000,659.836000,684.691000C659.836000,680.974000,662.812000,678,666.161000,678C669.882000,678,672.858000,680.974000,672.858000,684.691000C672.858000,685.435000,672.486000,686.178000,672.486000,686.922000C672.114000,687.665000,672.114000,688.037000,672.858000,688.409000C674.347000,690.268000,675.463000,692.498000,675.463000,695.100000C675.463000,696.587000,675.091000,697.703000,674.719000,699.190000C674.347000,699.561000,674.347000,699.933000,674.719000,700.305000Z" clip-rule="evenodd" fill="rgb(255,207,66)" fill-rule="evenodd" stroke="none" stroke-width="1"/><path id="euqz9xz1vo1m44" d="M668.394000,720.751000C667.649000,720.751000,666.905000,721.123000,666.161000,721.123000C659.836000,721.123000,654.255000,715.546000,654.255000,708.855000C654.255000,705.509000,655.743000,702.535000,657.604000,700.305000C658.348000,699.933000,658.348000,699.561000,657.976000,699.190000C657.604000,697.703000,657.231000,696.587000,657.231000,695.100000C657.231000,692.498000,658.348000,690.268000,659.836000,688.409000C660.580000,688.037000,660.580000,687.665000,660.208000,686.922000C660.208000,686.178000,659.836000,685.435000,659.836000,684.691000C659.836000,680.974000,662.812000,678,666.161000,678C666.533000,678,666.905000,678.372000,667.277000,678.372000C664.673000,679.115000,662.812000,681.346000,662.812000,684.320000C662.812000,685.435000,662.812000,686.178000,663.185000,686.922000C663.185000,687.294000,663.185000,688.037000,662.812000,688.409000C660.952000,689.896000,659.836000,692.126000,659.836000,694.729000C659.836000,696.216000,660.208000,697.703000,660.952000,698.818000C660.952000,699.190000,660.952000,699.933000,660.580000,700.305000C658.348000,702.535000,657.231000,705.509000,657.231000,708.855000C657.231000,715.175000,662.068000,720.379000,668.394000,720.751000Z" clip-rule="evenodd" fill="rgb(255,170,66)" fill-rule="evenodd" stroke="none" stroke-width="1"/><path id="euqz9xz1vo1m45" d="M666.161000,688.409000C666.533000,688.409000,666.533000,688.409000,666.533000,688.781000L666.533000,695.844000L669.882000,693.613000C670.254000,693.613000,670.254000,693.613000,670.626000,693.985000C670.626000,693.985000,670.626000,694.357000,670.254000,694.357000L666.533000,696.587000L666.533000,708.855000L669.882000,706.625000C670.254000,706.625000,670.254000,706.625000,670.626000,706.996000C670.626000,706.996000,670.626000,707.368000,670.254000,707.368000L666.533000,709.598000L666.533000,717.405000C666.533000,717.777000,666.533000,717.777000,666.161000,717.777000C666.161000,717.777000,665.789000,717.777000,665.789000,717.405000L665.789000,706.253000L662.440000,704.022000C662.068000,704.022000,662.068000,703.651000,662.068000,703.651000C662.440000,703.651000,662.440000,703.279000,662.812000,703.651000L665.789000,705.509000L665.789000,688.781000C665.789000,688.409000,666.161000,688.409000,666.161000,688.409000Z" clip-rule="evenodd" fill="rgb(171,67,22)" fill-rule="evenodd" stroke="none" stroke-width="1"/><path id="euqz9xz1vo1m46" d="M659.464000,726.327000L673.231000,726.327000L673.231000,726.699000C673.231000,727.071000,673.231000,727.071000,673.231000,727.071000L659.464000,727.071000C659.464000,727.071000,659.464000,727.071000,659.464000,726.699000L659.464000,726.327000Z" clip-rule="evenodd" fill="rgb(0,0,0)" fill-opacity="0.101961" fill-rule="evenodd" stroke="none" stroke-width="1"/><path id="euqz9xz1vo1m47" d="M552.068000,747.234000C553.928000,747.234000,555.045000,748.721000,555.045000,750.208000L555.045000,766.937000L549.464000,766.937000L549.464000,750.208000C549.464000,748.721000,550.580000,747.234000,552.068000,747.234000Z" clip-rule="evenodd" fill="rgb(145,96,19)" fill-rule="evenodd" stroke="none" stroke-width="1"/><path id="euqz9xz1vo1m48" d="M568.811000,716.751000C572.904000,720.840000,575.509000,726.788000,575.509000,733.108000C575.509000,745.747000,565.091000,756.156000,552.068000,756.156000C539.418000,756.156000,529,745.747000,529,733.108000C529,726.788000,531.604000,720.840000,535.697000,716.751000C536.441000,716.007000,536.813000,714.892000,536.069000,714.149000C534.953000,711.546000,534.581000,708.944000,534.581000,706.342000C534.581000,701.509000,536.441000,696.677000,540.162000,693.703000C540.906000,692.959000,540.906000,691.844000,540.534000,690.729000C540.162000,689.613000,539.790000,687.755000,539.790000,686.268000C539.790000,679.576000,545.371000,674,552.068000,674C559.138000,674,564.719000,679.576000,564.719000,686.268000C564.719000,687.755000,564.347000,689.613000,563.975000,690.729000C563.230000,691.844000,563.602000,692.959000,564.347000,693.703000C567.695000,696.677000,569.928000,701.509000,569.928000,706.342000C569.928000,708.944000,569.184000,711.546000,568.067000,714.149000C567.695000,714.892000,568.067000,716.007000,568.811000,716.751000Z" clip-rule="evenodd" fill="rgb(115,209,61)" fill-rule="evenodd" stroke="none" stroke-width="1"/><path id="euqz9xz1vo1m49" d="M556.533000,755.784000C555.045000,756.156000,553.557000,756.156000,552.068000,756.156000C539.418000,756.156000,529,745.747000,529,733.108000C529,726.788000,531.604000,720.840000,535.697000,716.751000C536.441000,716.007000,536.813000,714.892000,536.069000,714.149000C534.953000,711.546000,534.581000,708.944000,534.581000,706.342000C534.581000,701.509000,536.441000,696.677000,540.162000,693.703000C540.906000,692.959000,540.906000,691.844000,540.534000,690.729000C540.162000,689.613000,539.790000,687.755000,539.790000,686.268000C539.790000,679.576000,545.371000,674,552.068000,674C552.813000,674,553.557000,674,553.929000,674C549.092000,675.487000,544.999000,680.320000,544.999000,685.896000C544.999000,687.383000,545.371000,689.242000,546.115000,690.357000C546.487000,691.472000,546.115000,692.587000,545.371000,693.331000C542.022000,696.305000,539.790000,701.138000,539.790000,705.970000C539.790000,708.572000,540.534000,711.175000,541.650000,713.777000C542.022000,714.520000,542.022000,715.636000,540.906000,716.379000C536.813000,720.468000,534.209000,726.416000,534.209000,732.736000C534.209000,745.004000,544.255000,755.041000,556.533000,755.784000Z" clip-rule="evenodd" fill="rgb(70,184,55)" fill-rule="evenodd" stroke="none" stroke-width="1"/><path id="euqz9xz1vo1m50" d="M552.068000,693.703000C552.440000,693.703000,552.812000,693.703000,552.812000,694.074000L552.812000,707.457000L559.138000,703.740000C559.510000,703.740000,559.882000,703.740000,560.254000,704.112000C560.254000,704.483000,560.254000,704.855000,559.882000,704.855000L552.812000,708.944000L552.812000,732.736000L559.138000,729.019000C559.510000,728.647000,559.882000,729.019000,560.254000,729.019000C560.254000,729.390000,560.254000,729.762000,559.882000,730.134000L552.812000,734.223000L552.812000,749.836000C552.812000,750.208000,552.440000,750.208000,552.068000,750.208000C551.696000,750.208000,551.324000,750.208000,551.324000,749.836000L551.324000,727.903000L544.627000,723.814000C544.255000,723.814000,544.255000,723.071000,544.255000,723.071000C544.627000,722.699000,544.999000,722.327000,544.999000,722.699000L551.324000,726.416000L551.324000,694.074000C551.324000,693.703000,551.696000,693.703000,552.068000,693.703000Z" clip-rule="evenodd" fill="rgb(145,96,19)" fill-rule="evenodd" stroke="none" stroke-width="1"/><path id="euqz9xz1vo1m51" d="M539.418000,766.937000L565.091000,766.937000C565.463000,766.937000,565.835000,766.937000,565.835000,767.309000C565.835000,767.680000,565.463000,768.052000,565.091000,768.052000L539.418000,768.052000C539.046000,768.052000,538.674000,767.680000,538.674000,767.309000C538.674000,766.937000,539.046000,766.937000,539.418000,766.937000Z" clip-rule="evenodd" fill="rgb(0,0,0)" fill-opacity="0.101961" fill-rule="evenodd" stroke="none" stroke-width="1"/><path id="euqz9xz1vo1m52" d="M925.929000,688C932.998000,688,938.951000,692.833000,940.811000,698.781000C940.811000,699.896000,941.556000,700.268000,942.672000,700.639000C944.904000,700.639000,947.137000,702.126000,948.253000,704.357000C948.625000,705.100000,948.625000,705.844000,948.253000,706.587000C947.881000,707.331000,947.509000,707.703000,946.393000,707.703000L903.232000,707.703000C902.488000,707.703000,901.744000,707.331000,901.372000,706.959000C901,706.216000,901,705.844000,901,705.100000C901.744000,699.896000,906.209000,696.178000,911.418000,696.178000C912.162000,696.178000,912.906000,695.807000,913.278000,695.063000C915.883000,690.974000,920.720000,688,925.929000,688Z" clip-rule="evenodd" fill="rgb(170,223,86)" fill-rule="evenodd" stroke="none" stroke-width="1"/><path id="euqz9xz1vo1m53" d="M925.929000,688C930.394000,688,934.486000,689.859000,937.463000,692.833000C934.858000,691.346000,932.254000,690.230000,928.905000,690.230000C924.068000,690.230000,919.604000,692.833000,916.999000,696.922000C916.627000,697.665000,915.883000,697.665000,915.139000,697.665000C910.302000,698.037000,906.581000,701.383000,905.465000,706.216000C905.465000,706.587000,905.837000,706.959000,905.837000,707.703000L903.232000,707.703000C902.488000,707.703000,901.744000,707.331000,901.372000,706.959000C901,706.216000,901,705.844000,901,705.100000C901.744000,699.896000,906.209000,696.178000,911.418000,696.178000C912.162000,696.178000,912.906000,695.807000,913.278000,695.063000C915.883000,690.974000,920.720000,688,925.929000,688ZM942.672000,700.639000C944.532000,700.639000,946.021000,701.755000,947.509000,702.870000C946.393000,702.498000,945.276000,701.755000,944.160000,701.755000C943.416000,701.755000,943.044000,701.383000,942.672000,700.639000Z" clip-rule="evenodd" fill="rgb(139,185,67)" fill-rule="evenodd" stroke="none" stroke-width="1"/><path id="euqz9xz1vo1m54" d="M3.928700,772C10.998000,772,16.951100,776.833000,18.811500,782.781000C18.811500,783.896000,19.555600,784.268000,20.671800,784.639000C22.904300,784.639000,25.136700,786.126000,26.252900,788.357000C26.625000,789.100000,26.625000,789.844000,26.252900,790.587000C25.880800,791.331000,25.508800,791.703000,24.392500,791.703000L-18.767600,791.703000C-19.511700,791.703000,-20.255900,791.331000,-20.627900,790.959000C-21,790.216000,-21,789.844000,-21,789.100000C-20.255900,783.896000,-15.791000,780.178000,-10.582000,780.178000C-9.837900,780.178000,-9.093760,779.807000,-8.721690,779.063000C-6.117200,774.974000,-1.280290,772,3.928700,772Z" clip-rule="evenodd" fill="rgb(170,223,86)" fill-rule="evenodd" stroke="none" stroke-width="1"/><path id="euqz9xz1vo1m55" d="M3.928710,772C8.393550,772,12.486300,773.859000,15.462900,776.833000C12.858400,775.346000,10.253900,774.230000,6.905270,774.230000C2.068360,774.230000,-2.396480,776.833000,-5.000980,780.922000C-5.373050,781.665000,-6.117190,781.665000,-6.861330,781.665000C-11.698200,782.037000,-15.418900,785.383000,-16.535200,790.216000C-16.535200,790.587000,-16.163100,790.959000,-16.163100,791.703000L-18.767600,791.703000C-19.511700,791.703000,-20.255900,791.331000,-20.627900,790.959000C-21,790.216000,-21,789.844000,-21,789.100000C-20.255900,783.896000,-15.791000,780.178000,-10.582000,780.178000C-9.837890,780.178000,-9.093750,779.807000,-8.721680,779.063000C-6.117190,774.974000,-1.280270,772,3.928710,772ZM20.671900,784.639000C22.532200,784.639000,24.020500,785.755000,25.508800,786.870000C24.392600,786.498000,23.276400,785.755000,22.160200,785.755000C21.416000,785.755000,21.043900,785.383000,20.671900,784.639000Z" clip-rule="evenodd" fill="rgb(139,185,67)" fill-rule="evenodd" stroke="none" stroke-width="1"/><g id="euqz9xz1vo1m56" clip-path="url(#euqz9xz1vo1m2)"><path id="euqz9xz1vo1m57" d="M347.821000,681.449000L318.849000,709.181000L318.849000,745.248000L376.721000,745.248000L376.721000,709.181000L347.821000,681.449000Z" fill="rgb(229,216,185)" stroke="none" stroke-width="1"/><path id="euqz9xz1vo1m58" d="M347.821000,681.449000L318.849000,709.181000L318.849000,716.869000L347.821000,689.136000L376.721000,716.869000L376.721000,709.181000L347.821000,681.449000Z" fill="rgb(175,175,175)" stroke="none" stroke-width="1"/><path id="euqz9xz1vo1m59" d="M376.721000,742.805000L318.849000,742.805000L318.849000,745.248000L376.721000,745.248000L376.721000,742.805000Z" fill="rgb(200,177,134)" stroke="none" stroke-width="1"/><path id="euqz9xz1vo1m60" d="M313.792000,712.630000L347.821000,681.449000L381.345000,712.630000" fill="none" stroke="rgb(0,90,138)" stroke-width="7" stroke-miterlimit="10"/><path id="euqz9xz1vo1m61" d="M347.821000,709.037000C351.572000,709.037000,354.612000,706.014000,354.612000,702.284000C354.612000,698.554000,351.572000,695.530000,347.821000,695.530000C344.070000,695.530000,341.030000,698.554000,341.030000,702.284000C341.030000,706.014000,344.070000,709.037000,347.821000,709.037000Z" fill="rgb(255,255,255)" stroke="none" stroke-width="1"/><path id="euqz9xz1vo1m62" d="M352.517000,702.284000C352.517000,704.870000,350.422000,706.954000,347.821000,706.954000C345.220000,706.954000,343.125000,704.870000,343.125000,702.284000C343.125000,699.697000,345.220000,697.614000,347.821000,697.614000C350.422000,697.614000,352.517000,699.697000,352.517000,702.284000Z" fill="rgb(18,146,213)" stroke="none" stroke-width="1"/><path id="euqz9xz1vo1m63" d="M345.003000,719.311000L326.580000,719.311000L326.580000,737.632000L345.003000,737.632000L345.003000,719.311000Z" fill="rgb(255,255,255)" stroke="none" stroke-width="1"/><path id="euqz9xz1vo1m64" d="M343.269000,720.964000L328.241000,720.964000L328.241000,735.908000L343.269000,735.908000L343.269000,720.964000Z" fill="rgb(18,146,213)" stroke="none" stroke-width="1"/><path id="euqz9xz1vo1m65" d="M336.333000,720.964000L335.250000,720.964000L335.250000,735.908000L336.333000,735.908000L336.333000,720.964000Z" fill="rgb(255,255,255)" stroke="none" stroke-width="1"/><path id="euqz9xz1vo1m66" d="M343.269000,727.933000L328.241000,727.933000L328.241000,729.011000L343.269000,729.011000L343.269000,727.933000Z" fill="rgb(255,255,255)" stroke="none" stroke-width="1"/><path id="euqz9xz1vo1m67" d="M368.629000,718.737000L350.205000,718.737000L350.205000,737.057000L368.629000,737.057000L368.629000,718.737000Z" fill="rgb(255,255,255)" stroke="none" stroke-width="1"/><path id="euqz9xz1vo1m68" d="M366.895000,720.461000L351.867000,720.461000L351.867000,735.405000L366.895000,735.405000L366.895000,720.461000Z" fill="rgb(18,146,213)" stroke="none" stroke-width="1"/><path id="euqz9xz1vo1m69" d="M359.959000,720.461000L358.875000,720.461000L358.875000,735.405000L359.959000,735.405000L359.959000,720.461000Z" fill="rgb(255,255,255)" stroke="none" stroke-width="1"/><path id="euqz9xz1vo1m70" d="M366.895000,727.430000L351.867000,727.430000L351.867000,728.508000L366.895000,728.508000L366.895000,727.430000Z" fill="rgb(255,255,255)" stroke="none" stroke-width="1"/><path id="euqz9xz1vo1m71" d="M378.888000,753.588000L315.959000,753.588000L315.959000,800L378.888000,800L378.888000,753.588000Z" fill="rgb(245,236,213)" stroke="none" stroke-width="1"/><path id="euqz9xz1vo1m72" d="M378.888000,753.588000L315.959000,753.588000L315.959000,764.436000L378.888000,764.436000L378.888000,753.588000Z" fill="rgb(138,138,138)" stroke="none" stroke-width="1"/><path id="euqz9xz1vo1m73" d="M378.888000,797.198000L315.959000,797.198000L315.959000,800L378.888000,800L378.888000,797.198000Z" fill="rgb(200,177,134)" stroke="none" stroke-width="1"/><path id="euqz9xz1vo1m74" d="M364.655000,768.316000L330.553000,768.316000L330.553000,800L364.655000,800L364.655000,768.316000Z" fill="rgb(255,255,255)" stroke="none" stroke-width="1"/><path id="euqz9xz1vo1m75" d="M361.621000,771.190000L333.516000,771.190000L333.516000,800L361.621000,800L361.621000,771.190000Z" fill="rgb(184,170,139)" stroke="none" stroke-width="1"/><path id="euqz9xz1vo1m76" d="M361.621000,772.914000L333.516000,772.914000L333.516000,774.207000L361.621000,774.207000L361.621000,772.914000Z" fill="rgb(255,255,255)" stroke="none" stroke-width="1"/><path id="euqz9xz1vo1m77" d="M361.621000,773.848000L333.516000,773.848000L333.516000,774.207000L361.621000,774.207000L361.621000,773.848000Z" fill="rgb(197,197,197)" stroke="none" stroke-width="1"/><path id="euqz9xz1vo1m78" d="M361.621000,776.147000L333.516000,776.147000L333.516000,777.440000L361.621000,777.440000L361.621000,776.147000Z" fill="rgb(255,255,255)" stroke="none" stroke-width="1"/><path id="euqz9xz1vo1m79" d="M361.621000,777.009000L333.516000,777.009000L333.516000,777.369000L361.621000,777.369000L361.621000,777.009000Z" fill="rgb(197,197,197)" stroke="none" stroke-width="1"/><path id="euqz9xz1vo1m80" d="M361.621000,779.380000L333.516000,779.380000L333.516000,780.673000L361.621000,780.673000L361.621000,779.380000Z" fill="rgb(255,255,255)" stroke="none" stroke-width="1"/><path id="euqz9xz1vo1m81" d="M361.621000,780.242000L333.516000,780.242000L333.516000,780.602000L361.621000,780.602000L361.621000,780.242000Z" fill="rgb(197,197,197)" stroke="none" stroke-width="1"/><path id="euqz9xz1vo1m82" d="M361.621000,782.613000L333.516000,782.613000L333.516000,783.907000L361.621000,783.907000L361.621000,782.613000Z" fill="rgb(255,255,255)" stroke="none" stroke-width="1"/><path id="euqz9xz1vo1m83" d="M361.621000,783.475000L333.516000,783.475000L333.516000,783.835000L361.621000,783.835000L361.621000,783.475000Z" fill="rgb(197,197,197)" stroke="none" stroke-width="1"/><path id="euqz9xz1vo1m84" d="M361.621000,785.775000L333.516000,785.775000L333.516000,787.068000L361.621000,787.068000L361.621000,785.775000Z" fill="rgb(255,255,255)" stroke="none" stroke-width="1"/><path id="euqz9xz1vo1m85" d="M361.621000,786.708000L333.516000,786.708000L333.516000,787.068000L361.621000,787.068000L361.621000,786.708000Z" fill="rgb(197,197,197)" stroke="none" stroke-width="1"/><path id="euqz9xz1vo1m86" d="M361.621000,789.008000L333.516000,789.008000L333.516000,790.301000L361.621000,790.301000L361.621000,789.008000Z" fill="rgb(255,255,255)" stroke="none" stroke-width="1"/><path id="euqz9xz1vo1m87" d="M361.621000,789.942000L333.516000,789.942000L333.516000,790.301000L361.621000,790.301000L361.621000,789.942000Z" fill="rgb(197,197,197)" stroke="none" stroke-width="1"/><path id="euqz9xz1vo1m88" d="M361.621000,792.241000L333.516000,792.241000L333.516000,793.534000L361.621000,793.534000L361.621000,792.241000Z" fill="rgb(255,255,255)" stroke="none" stroke-width="1"/><path id="euqz9xz1vo1m89" d="M361.621000,793.175000L333.516000,793.175000L333.516000,793.534000L361.621000,793.534000L361.621000,793.175000Z" fill="rgb(197,197,197)" stroke="none" stroke-width="1"/><path id="euqz9xz1vo1m90" d="M361.621000,795.474000L333.516000,795.474000L333.516000,796.767000L361.621000,796.767000L361.621000,795.474000Z" fill="rgb(255,255,255)" stroke="none" stroke-width="1"/><path id="euqz9xz1vo1m91" d="M361.621000,796.408000L333.516000,796.408000L333.516000,796.767000L361.621000,796.767000L361.621000,796.408000Z" fill="rgb(197,197,197)" stroke="none" stroke-width="1"/><path id="euqz9xz1vo1m92" d="M383.007000,744.607000L334.310000,744.607000L332.865000,744.607000L311.841000,744.607000L307,759.982000L332.865000,759.982000L334.310000,759.982000L387.775000,759.982000L383.007000,744.607000Z" fill="rgb(0,90,138)" stroke="none" stroke-width="1"/><path id="euqz9xz1vo1m93" d="M316.970000,748.056000L384.090000,748.056000L383.007000,744.607000L311.841000,744.607000L307,759.982000L313.647000,759.982000L316.970000,748.056000Z" fill="rgb(12,68,98)" stroke="none" stroke-width="1"/><path id="euqz9xz1vo1m94" d="M387.775000,759.982000L307,759.982000L307,761.706000L387.775000,761.706000L387.775000,759.982000Z" fill="rgb(80,43,50)" stroke="none" stroke-width="1"/><path id="euqz9xz1vo1m95" d="M378.888000,761.706000L366.895000,761.706000L366.895000,799.928000L378.888000,799.928000L378.888000,761.706000Z" fill="rgb(138,138,138)" stroke="none" stroke-width="1"/><path id="euqz9xz1vo1m96" d="M402.153000,729.807000L371.808000,751.432000L371.808000,800L432.498000,800L432.498000,751.432000L402.153000,729.807000Z" fill="rgb(235,231,207)" stroke="none" stroke-width="1"/><path id="euqz9xz1vo1m97" d="M402.153000,729.807000L371.808000,751.432000L371.808000,762.568000L402.153000,740.871000L432.498000,762.568000L432.498000,751.432000L402.153000,729.807000Z" fill="rgb(175,175,175)" stroke="none" stroke-width="1"/><path id="euqz9xz1vo1m98" d="M432.498000,796.336000L371.808000,796.336000L371.808000,800L432.498000,800L432.498000,796.336000Z" fill="rgb(197,185,158)" stroke="none" stroke-width="1"/><path id="euqz9xz1vo1m99" d="M411.039000,769.825000L393.266000,769.825000L393.266000,800L411.039000,800L411.039000,769.825000Z" fill="rgb(131,87,47)" stroke="none" stroke-width="1"/><path id="euqz9xz1vo1m100" d="M394.350000,800L394.350000,771.693000L409.883000,771.693000L409.883000,800" fill="none" stroke="rgb(101,68,35)" stroke-width="1" stroke-miterlimit="10"/><g id="euqz9xz1vo1m101" opacity="0.2"><path id="euqz9xz1vo1m102" d="M408.655000,772.986000L395.433000,772.986000L395.433000,778.949000L408.655000,778.949000L408.655000,772.986000Z" opacity="0.2" fill="rgb(255,255,255)" stroke="none" stroke-width="1"/><path id="euqz9xz1vo1m103" d="M408.655000,779.739000L395.433000,779.739000L395.433000,785.703000L408.655000,785.703000L408.655000,779.739000Z" opacity="0.2" fill="rgb(255,255,255)" stroke="none" stroke-width="1"/><path id="euqz9xz1vo1m104" d="M408.655000,786.421000L395.433000,786.421000L395.433000,792.384000L408.655000,792.384000L408.655000,786.421000Z" opacity="0.2" fill="rgb(255,255,255)" stroke="none" stroke-width="1"/><path id="euqz9xz1vo1m105" d="M408.655000,793.103000L395.433000,793.103000L395.433000,799.066000L408.655000,799.066000L408.655000,793.103000Z" opacity="0.2" fill="rgb(255,255,255)" stroke="none" stroke-width="1"/></g><path id="euqz9xz1vo1m106" d="M409.016000,785.846000C409.016000,786.493000,408.438000,787.068000,407.788000,787.068000C407.138000,787.068000,406.560000,786.493000,406.560000,785.846000C406.560000,785.200000,407.138000,784.625000,407.788000,784.625000C408.511000,784.625000,409.016000,785.128000,409.016000,785.846000Z" fill="rgb(101,68,35)" stroke="none" stroke-width="1"/><path id="euqz9xz1vo1m107" d="M408.655000,785.846000C408.655000,786.277000,408.294000,786.637000,407.860000,786.637000C407.427000,786.637000,407.065000,786.277000,407.065000,785.846000C407.065000,785.415000,407.427000,785.056000,407.860000,785.056000C408.294000,784.984000,408.655000,785.343000,408.655000,785.846000Z" fill="rgb(81,55,27)" stroke="none" stroke-width="1"/><path id="euqz9xz1vo1m108" d="M366.245000,756.749000L402.153000,729.807000L437.555000,755.743000" fill="none" stroke="rgb(9,78,115)" stroke-width="7" stroke-miterlimit="10"/><path id="euqz9xz1vo1m109" d="M409.594000,752.654000C409.594000,756.749000,406.271000,760.054000,402.153000,760.054000C398.034000,760.054000,394.711000,756.749000,394.711000,752.654000C394.711000,748.558000,398.034000,745.254000,402.153000,745.254000C406.199000,745.325000,409.594000,748.630000,409.594000,752.654000Z" fill="rgb(255,255,255)" stroke="none" stroke-width="1"/><path id="euqz9xz1vo1m110" d="M407.282000,752.654000C407.282000,755.456000,404.970000,757.755000,402.153000,757.755000C399.335000,757.755000,397.023000,755.456000,397.023000,752.654000C397.023000,749.852000,399.335000,747.553000,402.153000,747.553000C404.970000,747.553000,407.282000,749.852000,407.282000,752.654000Z" fill="rgb(18,146,213)" stroke="none" stroke-width="1"/><path id="euqz9xz1vo1m111" d="M392.760000,779.237000C392.616000,777.584000,390.448000,776.291000,387.775000,776.291000C385.102000,776.291000,382.934000,777.584000,382.790000,779.237000L382.790000,800L392.760000,800L392.760000,779.237000Z" fill="rgb(255,255,255)" stroke="none" stroke-width="1"/><path id="euqz9xz1vo1m112" d="M391.749000,779.596000C391.676000,778.303000,389.942000,777.225000,387.775000,777.225000C385.680000,777.225000,383.946000,778.231000,383.801000,779.596000L383.801000,800L391.676000,800L391.749000,779.596000Z" fill="rgb(18,146,213)" stroke="none" stroke-width="1"/><path id="euqz9xz1vo1m113" d="M388.281000,776.578000L387.269000,776.578000L387.269000,800L388.281000,800L388.281000,776.578000Z" fill="rgb(255,255,255)" stroke="none" stroke-width="1"/><path id="euqz9xz1vo1m114" d="M391.749000,780.530000L383.874000,780.530000L383.874000,781.248000L391.749000,781.248000L391.749000,780.530000Z" fill="rgb(255,255,255)" stroke="none" stroke-width="1"/><path id="euqz9xz1vo1m115" d="M391.749000,784.338000L383.874000,784.338000L383.874000,785.056000L391.749000,785.056000L391.749000,784.338000Z" fill="rgb(255,255,255)" stroke="none" stroke-width="1"/><path id="euqz9xz1vo1m116" d="M391.749000,788.145000L383.874000,788.145000L383.874000,788.864000L391.749000,788.864000L391.749000,788.145000Z" fill="rgb(255,255,255)" stroke="none" stroke-width="1"/><path id="euqz9xz1vo1m117" d="M391.749000,791.953000L383.874000,791.953000L383.874000,792.672000L391.749000,792.672000L391.749000,791.953000Z" fill="rgb(255,255,255)" stroke="none" stroke-width="1"/><path id="euqz9xz1vo1m118" d="M391.749000,795.761000L383.874000,795.761000L383.874000,796.480000L391.749000,796.480000L391.749000,795.761000Z" fill="rgb(255,255,255)" stroke="none" stroke-width="1"/><path id="euqz9xz1vo1m119" d="M420.937000,779.237000C420.865000,777.584000,418.626000,776.291000,415.952000,776.291000C413.279000,776.291000,411.112000,777.584000,410.967000,779.237000L410.967000,800L420.937000,800L420.937000,779.237000Z" fill="rgb(255,255,255)" stroke="none" stroke-width="1"/><path id="euqz9xz1vo1m120" d="M419.926000,779.596000C419.854000,778.303000,418.120000,777.225000,415.952000,777.225000C413.857000,777.225000,412.123000,778.231000,411.979000,779.596000L411.979000,800L419.854000,800L419.926000,779.596000Z" fill="rgb(18,146,213)" stroke="none" stroke-width="1"/><path id="euqz9xz1vo1m121" d="M416.458000,776.578000L415.447000,776.578000L415.447000,800L416.458000,800L416.458000,776.578000Z" fill="rgb(255,255,255)" stroke="none" stroke-width="1"/><path id="euqz9xz1vo1m122" d="M419.854000,780.530000L411.979000,780.530000L411.979000,781.248000L419.854000,781.248000L419.854000,780.530000Z" fill="rgb(255,255,255)" stroke="none" stroke-width="1"/><path id="euqz9xz1vo1m123" d="M419.854000,784.338000L411.979000,784.338000L411.979000,785.056000L419.854000,785.056000L419.854000,784.338000Z" fill="rgb(255,255,255)" stroke="none" stroke-width="1"/><path id="euqz9xz1vo1m124" d="M419.854000,788.145000L411.979000,788.145000L411.979000,788.864000L419.854000,788.864000L419.854000,788.145000Z" fill="rgb(255,255,255)" stroke="none" stroke-width="1"/><path id="euqz9xz1vo1m125" d="M419.854000,791.953000L411.979000,791.953000L411.979000,792.672000L419.854000,792.672000L419.854000,791.953000Z" fill="rgb(255,255,255)" stroke="none" stroke-width="1"/><path id="euqz9xz1vo1m126" d="M419.854000,795.761000L411.979000,795.761000L411.979000,796.480000L419.854000,796.480000L419.854000,795.761000Z" fill="rgb(255,255,255)" stroke="none" stroke-width="1"/><path id="euqz9xz1vo1m127" d="M348,701.728000C348,701.728000,348,701.839000,348,701.949000L346.504000,703.382000C346.388000,703.382000,346.273000,703.382000,346.273000,703.382000C346.158000,703.272000,346.158000,703.161000,346.273000,703.051000L347.770000,701.728000C347.770000,701.618000,347.885000,701.618000,348,701.728000ZM351.914000,700.846000C352.029000,700.957000,352.029000,701.067000,351.914000,701.177000L350.187000,702.831000C350.072000,702.941000,349.957000,702.941000,349.842000,702.831000C349.842000,702.831000,349.842000,702.720000,349.842000,702.610000L351.683000,700.846000C351.799000,700.846000,351.914000,700.846000,351.914000,700.846000ZM347.194000,699.413000C347.309000,699.524000,347.309000,699.634000,347.194000,699.634000L345.468000,701.398000C345.353000,701.508000,345.237000,701.508000,345.122000,701.398000C345.122000,701.287000,345.122000,701.177000,345.122000,701.177000L346.964000,699.413000C347.079000,699.303000,347.194000,699.303000,347.194000,699.413000ZM345.122000,703.051000C345.237000,703.161000,345.237000,703.272000,345.122000,703.382000L344.317000,704.154000C344.317000,704.154000,344.201000,704.154000,344.086000,704.154000C343.971000,704.043000,343.971000,703.933000,344.086000,703.823000L344.892000,703.051000C345.007000,703.051000,345.122000,703.051000,345.122000,703.051000ZM351.338000,699.854000C351.453000,699.965000,351.453000,700.075000,351.338000,700.075000L348.691000,702.720000C348.576000,702.720000,348.460000,702.720000,348.460000,702.720000C348.345000,702.610000,348.345000,702.500000,348.460000,702.390000L351.108000,699.854000C351.223000,699.744000,351.338000,699.744000,351.338000,699.854000ZM348.230000,702.831000C348.345000,702.941000,348.345000,703.051000,348.230000,703.051000L346.964000,704.264000C346.964000,704.374000,346.734000,704.374000,346.734000,704.264000C346.619000,704.264000,346.619000,704.154000,346.734000,704.043000L348,702.831000C348,702.720000,348.115000,702.720000,348.230000,702.831000ZM346.504000,704.484000C346.619000,704.594000,346.619000,704.705000,346.504000,704.705000L345.237000,705.917000C345.237000,706.028000,345.122000,706.028000,345.007000,705.917000C344.892000,705.917000,344.892000,705.807000,345.007000,705.697000L346.273000,704.484000C346.388000,704.374000,346.504000,704.374000,346.504000,704.484000ZM348.921000,700.846000C348.921000,700.846000,348.921000,700.957000,348.921000,701.067000L348.460000,701.508000C348.345000,701.508000,348.230000,701.508000,348.230000,701.508000C348.115000,701.398000,348.115000,701.287000,348.230000,701.287000L348.576000,700.846000C348.691000,700.736000,348.806000,700.736000,348.921000,700.846000ZM346.043000,703.602000C346.043000,703.713000,346.043000,703.823000,346.043000,703.823000L345.583000,704.264000C345.468000,704.374000,345.353000,704.374000,345.353000,704.264000C345.237000,704.154000,345.237000,704.043000,345.353000,704.043000L345.698000,703.602000C345.813000,703.492000,345.928000,703.492000,346.043000,703.602000ZM349.381000,699.083000C349.496000,699.083000,349.496000,699.193000,349.381000,699.303000L345.583000,702.831000C345.583000,702.941000,345.468000,702.941000,345.353000,702.831000C345.237000,702.831000,345.237000,702.720000,345.353000,702.610000L349.151000,699.083000C349.151000,698.972000,349.266000,698.972000,349.381000,699.083000Z" clip-rule="evenodd" fill="rgb(255,255,255)" fill-opacity="0.2" fill-rule="evenodd" stroke="none" stroke-width="1"/><path id="euqz9xz1vo1m128" d="M402,751.728000C402,751.728000,402,751.839000,402,751.949000L400.504000,753.382000C400.388000,753.382000,400.273000,753.382000,400.273000,753.382000C400.158000,753.272000,400.158000,753.161000,400.273000,753.051000L401.770000,751.728000C401.770000,751.618000,401.885000,751.618000,402,751.728000ZM405.914000,750.846000C406.029000,750.957000,406.029000,751.067000,405.914000,751.177000L404.187000,752.831000C404.072000,752.941000,403.957000,752.941000,403.842000,752.831000C403.842000,752.831000,403.842000,752.720000,403.842000,752.610000L405.683000,750.846000C405.799000,750.846000,405.914000,750.846000,405.914000,750.846000ZM401.194000,749.413000C401.309000,749.524000,401.309000,749.634000,401.194000,749.634000L399.468000,751.398000C399.353000,751.508000,399.237000,751.508000,399.122000,751.398000C399.122000,751.287000,399.122000,751.177000,399.122000,751.177000L400.964000,749.413000C401.079000,749.303000,401.194000,749.303000,401.194000,749.413000ZM399.122000,753.051000C399.237000,753.161000,399.237000,753.272000,399.122000,753.382000L398.317000,754.154000C398.317000,754.154000,398.201000,754.154000,398.086000,754.154000C397.971000,754.043000,397.971000,753.933000,398.086000,753.823000L398.892000,753.051000C399.007000,753.051000,399.122000,753.051000,399.122000,753.051000ZM405.338000,749.854000C405.453000,749.965000,405.453000,750.075000,405.338000,750.075000L402.691000,752.720000C402.576000,752.720000,402.460000,752.720000,402.460000,752.720000C402.345000,752.610000,402.345000,752.500000,402.460000,752.390000L405.108000,749.854000C405.223000,749.744000,405.338000,749.744000,405.338000,749.854000ZM402.230000,752.831000C402.345000,752.941000,402.345000,753.051000,402.230000,753.051000L400.964000,754.264000C400.964000,754.374000,400.734000,754.374000,400.734000,754.264000C400.619000,754.264000,400.619000,754.154000,400.734000,754.043000L402,752.831000C402,752.720000,402.115000,752.720000,402.230000,752.831000ZM400.504000,754.484000C400.619000,754.594000,400.619000,754.705000,400.504000,754.705000L399.237000,755.917000C399.237000,756.028000,399.122000,756.028000,399.007000,755.917000C398.892000,755.917000,398.892000,755.807000,399.007000,755.697000L400.273000,754.484000C400.388000,754.374000,400.504000,754.374000,400.504000,754.484000ZM402.921000,750.846000C402.921000,750.846000,402.921000,750.957000,402.921000,751.067000L402.460000,751.508000C402.345000,751.508000,402.230000,751.508000,402.230000,751.508000C402.115000,751.398000,402.115000,751.287000,402.230000,751.287000L402.576000,750.846000C402.691000,750.736000,402.806000,750.736000,402.921000,750.846000ZM400.043000,753.602000C400.043000,753.713000,400.043000,753.823000,400.043000,753.823000L399.583000,754.264000C399.468000,754.374000,399.353000,754.374000,399.353000,754.264000C399.237000,754.154000,399.237000,754.043000,399.353000,754.043000L399.698000,753.602000C399.813000,753.492000,399.928000,753.492000,400.043000,753.602000ZM403.381000,749.083000C403.496000,749.083000,403.496000,749.193000,403.381000,749.303000L399.583000,752.831000C399.583000,752.941000,399.468000,752.941000,399.353000,752.831000C399.237000,752.831000,399.237000,752.720000,399.353000,752.610000L403.151000,749.083000C403.151000,748.972000,403.266000,748.972000,403.381000,749.083000Z" clip-rule="evenodd" fill="rgb(255,255,255)" fill-opacity="0.2" fill-rule="evenodd" stroke="none" stroke-width="1"/></g><path id="euqz9xz1vo1m129" d="M182.834000,660.977000C138.874000,674.746000,94.395800,681.073000,50.090400,679.584000C11.496200,678.468000,-26.925000,671.769000,-65,659.861000L-65,658C-26.925000,669.908000,11.496200,676.607000,50.090400,677.723000C94.395800,679.212000,138.874000,673.258000,182.834000,659.116000L183.007000,659.116000C204.294000,684.422000,226.966000,702.285000,250.676000,712.705000C261.753000,717.915000,273.175000,721.636000,284.598000,723.497000C290.136000,724.241000,295.674000,724.985000,301.212000,725.357000C306.578000,725.357000,312.116000,725.357000,317.481000,724.985000L318,724.613000L318,726.474000L317.481000,726.474000C312.116000,726.846000,306.578000,727.218000,301.212000,726.846000C295.674000,726.846000,290.136000,726.102000,284.425000,725.357000C273.002000,723.124000,261.580000,719.775000,250.503000,714.565000C226.793000,703.773000,203.948000,685.910000,182.834000,660.977000Z" clip-rule="evenodd" fill="rgb(0,255,255)" fill-rule="evenodd" stroke="none" stroke-width="1"/><path id="euqz9xz1vo1m130" d="M185.036000,667.063000L185.036000,810.557000L178.339000,810.557000L178.339000,667.063000L176.106000,667.063000L176.106000,664.461000L179.827000,664.461000L179.827000,660L182.804000,660L182.804000,664.461000L187.269000,664.461000L187.269000,667.063000L185.036000,667.063000Z" clip-rule="evenodd" fill="rgb(105,67,67)" fill-rule="evenodd" stroke="none" stroke-width="1"/><path id="euqz9xz1vo1m131" d="M792.482000,734.009000L761.860000,734.009000L768.445000,659.269000L785.018000,659.435000L792.482000,734.009000Z" fill="rgb(234,234,234)" stroke="none" stroke-width="1"/><path id="euqz9xz1vo1m132" d="M766.085000,685.911000L765.537000,692.420000L788.366000,692.420000L787.707000,685.911000L766.085000,685.911000Z" fill="rgb(248,85,85)" stroke="none" stroke-width="1"/><path id="euqz9xz1vo1m133" d="M762.628000,725.570000L761.860000,734.009000L792.482000,734.009000L791.659000,725.570000L762.628000,725.570000Z" fill="rgb(248,85,85)" stroke="none" stroke-width="1"/><path id="euqz9xz1vo1m134" d="M781.561000,719.006000L771.957000,719.006000L771.957000,733.954000L781.561000,733.954000L781.561000,719.006000Z" fill="rgb(113,64,55)" stroke="none" stroke-width="1"/><path id="euqz9xz1vo1m135" d="M779.805000,682.491000L773.768000,682.491000L773.768000,692.309000L779.805000,692.309000L779.805000,682.491000Z" fill="rgb(113,64,55)" stroke="none" stroke-width="1"/><path id="euqz9xz1vo1m136" d="M786,661.009000C784.330000,656.279000,780.676000,653.009000,776.500000,653.009000C772.272000,653.009000,768.670000,656.279000,767,661.009000L786,661.009000Z" fill="rgb(113,64,55)" stroke="none" stroke-width="1"/><g id="euqz9xz1vo1m137_tr" transform="translate(777.171000,671.404000) rotate(0)"><g id="euqz9xz1vo1m137" transform="translate(-777.171000,-671.404000)"><path id="euqz9xz1vo1m138" d="M776.942000,670.930000L757.956000,691.070000L758.394000,691.488000L777.380000,671.347000L776.942000,670.930000Z" fill="rgb(113,64,55)" stroke="none" stroke-width="1"/><path id="euqz9xz1vo1m139" d="M777.323000,670.767000L776.901000,671.201000L796.643000,690.592000L797.065000,690.158000L777.323000,670.767000Z" fill="rgb(113,64,55)" stroke="none" stroke-width="1"/><path id="euqz9xz1vo1m140" d="M777.665000,671.128000L777.281000,671.569000L757.195000,652.429000L757.634000,651.988000L777.665000,671.128000Z" fill="rgb(113,64,55)" stroke="none" stroke-width="1"/><path id="euqz9xz1vo1m141" d="M777.280000,671.404000L776.841000,671.018000L796.488000,650.333000L796.927000,650.719000L777.280000,671.404000Z" fill="rgb(113,64,55)" stroke="none" stroke-width="1"/><path id="euqz9xz1vo1m142" d="M779.640000,671.294000C779.585000,672.673000,778.433000,673.721000,777.116000,673.666000C775.744000,673.610000,774.701000,672.452000,774.756000,671.128000C774.811000,669.749000,775.963000,668.701000,777.280000,668.756000C778.652000,668.812000,779.695000,669.970000,779.640000,671.294000Z" fill="rgb(113,64,55)" stroke="none" stroke-width="1"/><path id="euqz9xz1vo1m143" d="M760.428000,649L757.326000,652.276000L772.830000,667.107000L775.932000,663.830000L760.428000,649Z" fill="rgb(255,170,66)" stroke="none" stroke-width="1"/><path id="euqz9xz1vo1m144" d="M785.732000,668.701000L782.384000,665.557000L796.597000,650.443000L800,653.643000L785.732000,668.701000Z" fill="rgb(255,170,66)" stroke="none" stroke-width="1"/><path id="euqz9xz1vo1m145" d="M769.214000,673.059000L772.506000,676.203000L758.293000,691.316000L755,688.172000L769.214000,673.059000Z" fill="rgb(255,170,66)" stroke="none" stroke-width="1"/><path id="euqz9xz1vo1m146" d="M778.158000,678.850000L781.616000,675.210000L796.872000,690.268000L793.469000,693.909000L778.158000,678.850000Z" fill="rgb(255,170,66)" stroke="none" stroke-width="1"/></g></g></svg>