<svg id="eau7nl6434bb1" xmlns="http://www.w3.org/2000/svg" xmlns:xlink="http://www.w3.org/1999/xlink" viewBox="0 0 320 437" shape-rendering="geometricPrecision" text-rendering="geometricPrecision"><style><![CDATA[#eau7nl6434bb2_to {animation: eau7nl6434bb2_to__to 6000ms linear infinite normal forwards}@keyframes eau7nl6434bb2_to__to { 0% {transform: translate(-12.689655px,18.241379px)} 50% {transform: translate(17.310000px,18.241379px)} 100% {transform: translate(-12.690000px,18.241379px)} }#eau7nl6434bb3_to {animation: eau7nl6434bb3_to__to 6000ms linear infinite normal forwards}@keyframes eau7nl6434bb3_to__to { 0% {transform: translate(20.620689px,-16.655172px)} 50% {transform: translate(50.620000px,-16.655172px)} 100% {transform: translate(20.620000px,-16.655172px)} }]]></style><g id="eau7nl6434bb2_to" transform="translate(-12.689655,18.241379)"><path id="eau7nl6434bb2" d="M237.705000,11.097600L248.293000,11.097600C248.116000,10.745300,247.940000,10.216800,247.940000,9.864540C247.940000,8.103010,249.352000,6.869940,250.940000,6.869940L256.587000,6.869940C257.116000,2.994590,260.469000,0,264.351000,0C268.409000,0,271.586000,2.994590,272.115000,6.869940L272.644000,6.869940C274.233000,6.869940,275.644000,8.103010,275.644000,9.864540C275.644000,10.216800,275.468000,10.745300,275.291000,11.097600L275.821000,11.097600C277.762000,11.097600,279.174000,12.683000,279.174000,14.620700C279.174000,16.382200,277.762000,17.967500,275.821000,17.967500L247.058000,17.967500C246.881000,17.967500,246.705000,18.143700,246.528000,18.143700L233.117000,18.143700C232.412000,18.143700,231.882000,17.615200,231.882000,16.910600C231.882000,16.206000,232.412000,15.677600,233.117000,15.677600L234.529000,15.677600C234.353000,15.325300,234.353000,14.973000,234.353000,14.620700C234.353000,12.683000,235.764000,11.097600,237.705000,11.097600ZM229.765000,15.677600L229.235000,15.677600C228.529000,15.677600,228,16.206000,228,16.910600C228,17.615200,228.529000,18.143700,229.235000,18.143700L229.765000,18.143700C230.294000,18.143700,230.823000,17.615200,230.823000,16.910600C230.823000,16.206000,230.294000,15.677600,229.765000,15.677600Z" transform="translate(0,0)" clip-rule="evenodd" fill="rgb(239,239,239)" fill-opacity="0.5" fill-rule="evenodd" stroke="none" stroke-width="1"/></g><g id="eau7nl6434bb3_to" transform="translate(20.620689,-16.655172)"><path id="eau7nl6434bb3" d="M62.819900,424.705000L58.584900,424.705000C57.879100,424.705000,57.349700,425.233000,57.349700,425.938000C57.349700,426.818000,57.879100,427.347000,58.584900,427.347000L62.819900,427.347000C63.525800,427.347000,64.055200,426.818000,64.055200,425.938000C64.055200,425.233000,63.525800,424.705000,62.819900,424.705000ZM8.999490,433.865000L16.940200,433.865000C16.587300,433.160000,16.587300,432.631000,16.587300,431.927000C16.587300,429.461000,18.528400,427.523000,20.998800,427.523000L25.763200,427.523000C25.763200,427.347000,25.763200,427.171000,25.763200,426.995000C25.763200,425.409000,27.174900,424,28.763100,424L51.879400,424C53.644000,424,54.879200,425.409000,54.879200,426.995000C54.879200,427.171000,54.879200,427.523000,54.879200,427.699000C56.820300,428.228000,58.055500,429.813000,58.055500,431.927000C58.055500,434.393000,56.114400,436.331000,53.644000,436.331000L35.821500,436.331000C35.645000,436.331000,35.468600,436.507000,35.292100,436.507000L8.999490,436.507000C8.293640,436.507000,7.587800,435.802000,7.587800,435.098000C7.587800,434.393000,8.293640,433.865000,8.999490,433.865000ZM3.882130,433.865000L1.411680,433.865000C0.705842,433.865000,0,434.393000,0,435.098000C0,435.802000,0.705842,436.507000,1.411680,436.507000L3.882130,436.507000C4.587970,436.507000,5.117350,435.802000,5.117350,435.098000C5.117350,434.393000,4.587970,433.865000,3.882130,433.865000Z" transform="translate(0,0)" clip-rule="evenodd" fill="rgb(239,239,239)" fill-opacity="0.5" fill-rule="evenodd" stroke="none" stroke-width="1"/></g></svg>