<svg id="ewjb12pfiker1" xmlns="http://www.w3.org/2000/svg" xmlns:xlink="http://www.w3.org/1999/xlink" viewBox="0 0 410 476" shape-rendering="geometricPrecision" text-rendering="geometricPrecision" width="410" height="476"><style><![CDATA[#ewjb12pfiker4_to {animation: ewjb12pfiker4_to__to 12000ms linear infinite normal forwards}@keyframes ewjb12pfiker4_to__to { 0% {transform: translate(0px,0px)} 25% {transform: translate(-30px,0px)} 50% {transform: translate(0px,0px)} 75% {transform: translate(-30px,0px)} 100% {transform: translate(0px,0px)} }#ewjb12pfiker5_to {animation: ewjb12pfiker5_to__to 12000ms linear infinite normal forwards}@keyframes ewjb12pfiker5_to__to { 0% {transform: translate(0px,0px)} 25% {transform: translate(-30px,0px)} 50% {transform: translate(0px,0px)} 75% {transform: translate(-30px,0px)} 100% {transform: translate(0px,0px)} }#ewjb12pfiker6_to {animation: ewjb12pfiker6_to__to 12000ms linear infinite normal forwards}@keyframes ewjb12pfiker6_to__to { 0% {transform: translate(0px,0px)} 25% {transform: translate(-30px,0px)} 50% {transform: translate(0px,0px)} 75% {transform: translate(-30px,0px)} 100% {transform: translate(0px,0px)} }#ewjb12pfiker7_to {animation: ewjb12pfiker7_to__to 12000ms linear infinite normal forwards}@keyframes ewjb12pfiker7_to__to { 0% {transform: translate(0px,0px)} 25% {transform: translate(-30px,0px)} 50% {transform: translate(0px,0px)} 75% {transform: translate(-30px,0px)} 100% {transform: translate(0px,0px)} }#ewjb12pfiker8_to {animation: ewjb12pfiker8_to__to 12000ms linear infinite normal forwards}@keyframes ewjb12pfiker8_to__to { 0% {offset-distance: 0%} 33.333333% {offset-distance: 20%} 44.166667% {offset-distance: 40%} 55.833333% {offset-distance: 60%} 66.666667% {offset-distance: 80%} 100% {offset-distance: 100%} }#ewjb12pfiker8_tr {animation: ewjb12pfiker8_tr__tr 12000ms linear infinite normal forwards}@keyframes ewjb12pfiker8_tr__tr { 0% {transform: rotate(0deg)} 16.666667% {transform: rotate(3deg)} 37.500000% {transform: rotate(-3deg)} 50% {transform: rotate(-6deg)} 58.333333% {transform: rotate(0deg)} 68.333333% {transform: rotate(-3deg)} 80.833333% {transform: rotate(3deg)} 100% {transform: rotate(-3deg)} }]]></style><defs><clipPath id="ewjb12pfiker2"><rect id="ewjb12pfiker3" width="59" height="28" rx="0" ry="0" transform="matrix(1 0 0 1 299 416)" fill="rgb(255,255,255)" stroke="none" stroke-width="1"/></clipPath></defs><g id="ewjb12pfiker4_to" transform="translate(0,0)"><path id="ewjb12pfiker4" d="M41.705300,11.097600L52.292900,11.097600C52.116500,10.745300,51.940000,10.216800,51.940000,9.864540C51.940000,8.103010,53.351700,6.869940,54.939800,6.869940L60.586600,6.869940C61.116000,2.994590,64.468700,0,68.350800,0C72.409400,0,75.585700,2.994590,76.115100,6.869940L76.644500,6.869940C78.232600,6.869940,79.644300,8.103010,79.644300,9.864540C79.644300,10.216800,79.467800,10.745300,79.291400,11.097600L79.820800,11.097600C81.761800,11.097600,83.173500,12.683000,83.173500,14.620700C83.173500,16.382200,81.761800,17.967500,79.820800,17.967500L51.057700,17.967500C50.881300,17.967500,50.704800,18.143700,50.528300,18.143700L37.117300,18.143700C36.411500,18.143700,35.882100,17.615200,35.882100,16.910600C35.882100,16.206000,36.411500,15.677600,37.117300,15.677600L38.529000,15.677600C38.352600,15.325300,38.352600,14.973000,38.352600,14.620700C38.352600,12.683000,39.764300,11.097600,41.705300,11.097600ZM33.764600,15.677600L33.235200,15.677600C32.529400,15.677600,32,16.206000,32,16.910600C32,17.615200,32.529400,18.143700,33.235200,18.143700L33.764600,18.143700C34.294000,18.143700,34.823400,17.615200,34.823400,16.910600C34.823400,16.206000,34.294000,15.677600,33.764600,15.677600Z" transform="translate(0,0)" clip-rule="evenodd" fill="rgb(239,239,239)" fill-opacity="0.2" fill-rule="evenodd" stroke="none" stroke-width="1"/></g><g id="ewjb12pfiker5_to" transform="translate(0,0)"><path id="ewjb12pfiker5" d="M276.155000,50.019400L297.052000,50.019400C296.703000,49.320400,296.355000,48.271800,296.355000,47.572800C296.355000,44.077700,299.141000,41.631100,302.276000,41.631100L313.421000,41.631100C314.466000,33.941700,321.083000,28,328.745000,28C336.755000,28,343.024000,33.941700,344.069000,41.631100L345.114000,41.631100C348.248000,41.631100,351.034000,44.077700,351.034000,47.572800C351.034000,48.271800,350.686000,49.320400,350.338000,50.019400L351.383000,50.019400C355.214000,50.019400,358,53.165000,358,57.009700C358,60.504900,355.214000,63.650500,351.383000,63.650500L294.614000,63.650500C294.266000,63.650500,293.917000,64,293.569000,64L267.100000,64C265.707000,64,264.662000,62.951500,264.662000,61.553400C264.662000,60.155300,265.707000,59.106800,267.100000,59.106800L269.886000,59.106800C269.538000,58.407800,269.538000,57.708700,269.538000,57.009700C269.538000,53.165000,272.324000,50.019400,276.155000,50.019400ZM260.483000,59.106800L259.438000,59.106800C258.045000,59.106800,257,60.155300,257,61.553400C257,62.951500,258.045000,64,259.438000,64L260.483000,64C261.528000,64,262.572000,62.951500,262.572000,61.553400C262.572000,60.155300,261.528000,59.106800,260.483000,59.106800Z" transform="translate(0,0)" clip-rule="evenodd" fill="rgb(239,239,239)" fill-opacity="0.2" fill-rule="evenodd" stroke="none" stroke-width="1"/></g><g id="ewjb12pfiker6_to" transform="translate(0,0)"><path id="ewjb12pfiker6" d="M135.342000,354.958000L129.656000,354.958000C128.708000,354.958000,127.997000,355.676000,127.997000,356.634000C127.997000,357.831000,128.708000,358.549000,129.656000,358.549000L135.342000,358.549000C136.289000,358.549000,137,357.831000,137,356.634000C137,355.676000,136.289000,354.958000,135.342000,354.958000ZM63.082600,367.408000L73.743800,367.408000C73.270000,366.451000,73.270000,365.732000,73.270000,364.775000C73.270000,361.423000,75.876000,358.789000,79.192800,358.789000L85.589500,358.789000C85.589500,358.549000,85.589500,358.310000,85.589500,358.070000C85.589500,355.915000,87.484900,354,89.617100,354L120.653000,354C123.022000,354,124.680000,355.915000,124.680000,358.070000C124.680000,358.310000,124.680000,358.789000,124.680000,359.028000C127.287000,359.746000,128.945000,361.901000,128.945000,364.775000C128.945000,368.127000,126.339000,370.761000,123.022000,370.761000L99.093700,370.761000C98.856700,370.761000,98.619800,371,98.382900,371L63.082600,371C62.135000,371,61.187300,370.042000,61.187300,369.085000C61.187300,368.127000,62.135000,367.408000,63.082600,367.408000ZM56.212100,367.408000L52.895300,367.408000C51.947700,367.408000,51,368.127000,51,369.085000C51,370.042000,51.947700,371,52.895300,371L56.212100,371C57.159800,371,57.870500,370.042000,57.870500,369.085000C57.870500,368.127000,57.159800,367.408000,56.212100,367.408000Z" transform="translate(0,0)" clip-rule="evenodd" fill="rgb(239,239,239)" fill-opacity="0.2" fill-rule="evenodd" stroke="none" stroke-width="1"/></g><g id="ewjb12pfiker7_to" transform="translate(0,0)"><path id="ewjb12pfiker7" d="M281.225000,231.861000L288.339000,231.861000C288.339000,231.861000,288.339000,231.556000,288.339000,231.250000C288.339000,228.806000,290.118000,226.972000,292.489000,226.972000L319.761000,226.972000C319.464000,226.667000,319.464000,226.056000,319.464000,225.750000C319.464000,224.222000,320.650000,223,322.429000,223L329.543000,223C331.025000,223,332.211000,224.222000,332.211000,225.750000C332.211000,227.278000,331.025000,228.806000,329.543000,228.806000L329.246000,228.806000C329.839000,229.417000,330.136000,230.333000,330.136000,231.250000C330.136000,231.556000,330.136000,231.861000,330.136000,232.167000C332.804000,233.083000,334.582000,235.528000,334.582000,238.583000C334.582000,239.194000,334.582000,239.806000,334.582000,240.417000L342.289000,240.417000C343.475000,240.417000,344.364000,241.333000,344.364000,242.556000C344.364000,243.778000,343.475000,245,342.289000,245L329.543000,245C329.246000,245,328.654000,245,328.357000,245L281.225000,245C277.668000,245,275,242.250000,275,238.583000C275,234.917000,277.668000,231.861000,281.225000,231.861000ZM355.629000,240.417000L349.996000,240.417000C348.811000,240.417000,347.625000,241.333000,347.625000,242.556000C347.625000,243.778000,348.811000,245,349.996000,245L355.629000,245C356.814000,245,358,243.778000,358,242.556000C358,241.333000,356.814000,240.417000,355.629000,240.417000Z" transform="translate(0,0)" clip-rule="evenodd" fill="rgb(239,239,239)" fill-opacity="0.2" fill-rule="evenodd" stroke="none" stroke-width="1"/></g><g id="ewjb12pfiker8_to" style="offset-path:path('M333.012500,497.853149L334.010000,110.360154L279.649333,46.639702C251.677110,27.397786,147.776408,42.845352,123.968485,53.983161L65.153026,122.937919L74.586350,494.505149');offset-rotate:0deg"><g id="ewjb12pfiker8_tr" transform="rotate(0)"><g id="ewjb12pfiker8" transform="translate(-328.512500,-430.152000)" clip-path="url(#ewjb12pfiker2)"><path id="ewjb12pfiker9" d="M338.451000,442.554000L339.057000,442.554000L339.057000,439.967000C338.679000,440.449000,338.451000,441.033000,338.451000,441.667000L338.451000,442.554000Z" fill="rgb(237,237,236)" stroke="none" stroke-width="1"/><path id="ewjb12pfiker10" d="M311.174000,417.217000C311.123000,416.837000,310.972000,416.457000,310.719000,416.152000C310.542000,415.949000,310.239000,415.949000,310.063000,416.152000C309.810000,416.457000,309.633000,416.812000,309.608000,417.217000L311.174000,417.217000Z" fill="rgb(237,237,236)" stroke="none" stroke-width="1"/><path id="ewjb12pfiker11" d="M347.417000,417.217000C347.367000,416.837000,347.215000,416.457000,346.963000,416.152000C346.786000,415.949000,346.483000,415.949000,346.306000,416.152000C346.053000,416.457000,345.877000,416.812000,345.851000,417.217000L347.417000,417.217000Z" fill="rgb(237,237,236)" stroke="none" stroke-width="1"/><path id="ewjb12pfiker12" d="M327.565000,439.283000L326.227000,439.283000L326.227000,441.312000L327.565000,441.312000L327.565000,439.283000Z" fill="rgb(217,217,217)" stroke="none" stroke-width="1"/><path id="ewjb12pfiker13" d="M331.278000,440.322000C331.278000,439.841000,330.874000,439.435000,330.394000,439.435000C329.914000,439.435000,329.510000,439.841000,329.510000,440.322000C329.510000,440.804000,329.914000,441.210000,330.394000,441.210000C330.874000,441.210000,331.278000,440.804000,331.278000,440.322000Z" fill="rgb(0,0,0)" stroke="none" stroke-width="1"/><path id="ewjb12pfiker14" d="M330.217000,439.739000C330.116000,439.764000,329.940000,439.841000,329.839000,440.018000C329.813000,440.094000,329.839000,440.170000,329.914000,440.170000C329.990000,440.170000,330.041000,440.145000,330.066000,440.094000C330.116000,440.018000,330.192000,439.967000,330.293000,439.917000C330.344000,439.891000,330.369000,439.866000,330.369000,439.790000C330.369000,439.790000,330.293000,439.739000,330.217000,439.739000Z" fill="rgb(255,255,255)" stroke="none" stroke-width="1"/><path id="ewjb12pfiker15" d="M318.549000,442.554000L317.943000,442.554000L317.943000,439.967000C318.321000,440.449000,318.549000,441.033000,318.549000,441.667000L318.549000,442.554000Z" fill="rgb(237,237,236)" stroke="none" stroke-width="1"/><path id="ewjb12pfiker16" d="M319.483000,426.196000C319.483000,426.652000,319.408000,427.083000,319.231000,427.489000L318.044000,430.507000C317.816000,431.116000,317.690000,431.750000,317.690000,432.384000L317.690000,440.906000C317.690000,441.261000,317.968000,441.565000,318.296000,441.591000C318.675000,441.616000,319.003000,441.312000,319.003000,440.931000L319.003000,432.384000C319.003000,431.750000,319.130000,431.091000,319.357000,430.507000L320.494000,427.616000C320.670000,427.159000,321.100000,426.880000,321.580000,426.880000C321.883000,426.880000,322.110000,426.627000,322.110000,426.348000L322.110000,426.221000L319.483000,426.221000L319.483000,426.196000Z" fill="rgb(217,217,217)" stroke="none" stroke-width="1"/><path id="ewjb12pfiker17" d="M319.559000,440.322000L319.029000,440.322000L319.029000,437.989000C319.382000,438.420000,319.559000,438.953000,319.559000,439.511000L319.559000,440.322000Z" fill="rgb(197,197,197)" stroke="none" stroke-width="1"/><path id="ewjb12pfiker18" d="M337.517000,426.196000C337.517000,426.652000,337.592000,427.083000,337.769000,427.489000L338.956000,430.507000C339.184000,431.116000,339.310000,431.750000,339.310000,432.384000L339.310000,440.906000C339.310000,441.261000,339.032000,441.565000,338.704000,441.591000C338.325000,441.616000,337.997000,441.312000,337.997000,440.931000L337.997000,432.384000C337.997000,431.750000,337.870000,431.091000,337.643000,430.507000L336.506000,427.616000C336.330000,427.159000,335.900000,426.880000,335.420000,426.880000C335.117000,426.880000,334.890000,426.627000,334.890000,426.348000L334.890000,426.221000L337.517000,426.221000L337.517000,426.196000Z" fill="rgb(217,217,217)" stroke="none" stroke-width="1"/><path id="ewjb12pfiker19" d="M337.416000,440.322000L337.946000,440.322000L337.946000,437.989000C337.592000,438.420000,337.416000,438.953000,337.416000,439.511000L337.416000,440.322000Z" fill="rgb(197,197,197)" stroke="none" stroke-width="1"/><path id="ewjb12pfiker20" d="M326.909000,436.442000L326.909000,438.572000C326.909000,438.750000,327.035000,438.877000,327.212000,438.877000L329.763000,438.877000C329.940000,438.877000,330.066000,438.750000,330.066000,438.572000L330.066000,436.442000C330.066000,436.265000,329.940000,436.138000,329.763000,436.138000L327.212000,436.138000C327.035000,436.138000,326.909000,436.265000,326.909000,436.442000Z" fill="rgb(237,237,236)" stroke="none" stroke-width="1"/><path id="ewjb12pfiker21" d="M327.565000,438.293000L327.565000,442.351000C327.565000,442.580000,327.742000,442.783000,327.995000,442.783000L332.844000,442.783000C333.071000,442.783000,333.274000,442.605000,333.274000,442.351000L333.274000,438.293000C333.274000,438.065000,333.097000,437.862000,332.844000,437.862000L327.995000,437.862000C327.742000,437.862000,327.565000,438.065000,327.565000,438.293000Z" fill="rgb(255,255,255)" stroke="none" stroke-width="1"/><path id="ewjb12pfiker22" d="M323.676000,439.257000L323.676000,441.312000C323.676000,441.514000,323.853000,441.692000,324.055000,441.692000L324.509000,441.692000L324.509000,438.877000L324.055000,438.877000C323.853000,438.877000,323.676000,439.054000,323.676000,439.257000Z" fill="rgb(237,237,236)" stroke="none" stroke-width="1"/><path id="ewjb12pfiker23" d="M324.509000,438.851000L324.509000,441.743000C324.509000,441.895000,324.636000,442.047000,324.813000,442.047000L325.924000,442.047000C326.075000,442.047000,326.227000,441.920000,326.227000,441.743000L326.227000,438.851000C326.227000,438.699000,326.101000,438.547000,325.924000,438.547000L324.813000,438.547000C324.636000,438.547000,324.509000,438.674000,324.509000,438.851000Z" fill="rgb(255,255,255)" stroke="none" stroke-width="1"/><path id="ewjb12pfiker24" d="M322.691000,432.283000L324.055000,432.283000C324.232000,432.105000,324.333000,431.877000,324.333000,431.598000C324.333000,431.293000,324.181000,431.015000,323.979000,430.837000L322.792000,430.837000C322.565000,431.015000,322.438000,431.293000,322.438000,431.598000C322.413000,431.877000,322.514000,432.105000,322.691000,432.283000Z" fill="rgb(237,237,236)" stroke="none" stroke-width="1"/><path id="ewjb12pfiker25" d="M331.878000,441.807000C332.697000,440.985000,332.697000,439.652000,331.878000,438.830000C331.059000,438.008000,329.732000,438.008000,328.913000,438.830000C328.095000,439.652000,328.095000,440.985000,328.913000,441.807000C329.732000,442.629000,331.059000,442.629000,331.878000,441.807000Z" fill="rgb(217,217,217)" stroke="none" stroke-width="1"/><path id="ewjb12pfiker26" d="M332.011000,440.322000C332.011000,439.435000,331.278000,438.699000,330.394000,438.699000C329.510000,438.699000,328.778000,439.435000,328.778000,440.322000C328.778000,441.210000,329.510000,441.946000,330.394000,441.946000C331.278000,441.946000,332.011000,441.210000,332.011000,440.322000Z" fill="rgb(112,111,111)" stroke="none" stroke-width="1"/><path id="ewjb12pfiker27" d="M318.448000,426.830000C318.448000,427.337000,318.347000,427.819000,318.170000,428.275000L316.857000,431.623000C316.604000,432.283000,316.452000,432.993000,316.452000,433.728000L316.452000,443.239000C316.452000,443.645000,316.756000,443.975000,317.134000,444C317.564000,444.025000,317.917000,443.696000,317.917000,443.265000L317.917000,433.728000C317.917000,433.018000,318.044000,432.308000,318.321000,431.623000L319.584000,428.377000C319.786000,427.870000,320.266000,427.565000,320.797000,427.565000C321.125000,427.565000,321.403000,427.286000,321.403000,426.957000L321.403000,426.804000L318.448000,426.804000L318.448000,426.830000Z" fill="rgb(255,255,255)" stroke="none" stroke-width="1"/><path id="ewjb12pfiker28" d="M311.452000,419.170000L309.179000,419.170000C308.825000,419.170000,308.547000,419.449000,308.547000,419.804000L308.547000,421.504000L312.058000,421.504000L312.058000,419.804000C312.058000,419.424000,311.780000,419.170000,311.452000,419.170000Z" fill="rgb(237,237,236)" stroke="none" stroke-width="1"/><path id="ewjb12pfiker29" d="M312.058000,419.779000C312.058000,419.424000,311.780000,419.145000,311.426000,419.145000L309.153000,419.145000C308.800000,419.145000,308.522000,419.424000,308.522000,419.779000L312.058000,419.779000Z" fill="rgb(255,255,255)" stroke="none" stroke-width="1"/><path id="ewjb12pfiker30" d="M310.694000,416.152000C310.517000,415.949000,310.214000,415.949000,310.037000,416.152000C309.734000,416.507000,309.557000,416.964000,309.557000,417.420000L309.557000,419.145000L311.174000,419.145000L311.174000,417.446000C311.174000,416.964000,310.997000,416.507000,310.694000,416.152000Z" fill="rgb(197,197,197)" stroke="none" stroke-width="1"/><path id="ewjb12pfiker31" d="M304.961000,417.598000L299,417.953000L299,418.080000C299,418.156000,299.051000,418.232000,299.152000,418.257000L300.036000,418.460000L304.961000,418.511000L309.305000,418.866000L309.305000,417.699000L304.961000,417.598000Z" fill="rgb(237,237,236)" stroke="none" stroke-width="1"/><path id="ewjb12pfiker32" d="M315.771000,417.598000L321.731000,417.953000L321.731000,418.080000C321.731000,418.156000,321.681000,418.232000,321.580000,418.257000L320.696000,418.460000L315.771000,418.511000L311.426000,418.866000L311.426000,417.699000L315.771000,417.598000Z" fill="rgb(237,237,236)" stroke="none" stroke-width="1"/><path id="ewjb12pfiker33" d="M311.123000,417.446000L309.608000,417.446000C309.431000,417.446000,309.305000,417.598000,309.305000,417.750000L309.305000,418.967000L311.426000,418.967000L311.426000,417.750000C311.426000,417.572000,311.300000,417.446000,311.123000,417.446000Z" fill="rgb(255,255,255)" stroke="none" stroke-width="1"/><path id="ewjb12pfiker34" d="M348.428000,421.478000L344.690000,421.478000C344.109000,421.478000,343.528000,421.402000,342.972000,421.225000L335.521000,418.993000C334.233000,418.612000,332.895000,418.409000,331.556000,418.409000L325.444000,418.409000C324.105000,418.409000,322.767000,418.612000,321.479000,418.993000L314.028000,421.225000C313.472000,421.402000,312.891000,421.478000,312.310000,421.478000L308.572000,421.478000C308.042000,421.478000,307.638000,421.909000,307.638000,422.417000L307.638000,422.873000C307.638000,423.406000,308.067000,423.812000,308.572000,423.812000L311.932000,423.812000C312.765000,423.812000,313.573000,423.989000,314.331000,424.319000L317.917000,425.891000L317.917000,426.297000C317.917000,426.576000,318.145000,426.830000,318.448000,426.830000L321.580000,426.830000C321.857000,426.830000,322.110000,426.601000,322.110000,426.297000L322.110000,426.170000L323.600000,429.214000C323.878000,429.797000,324.459000,430.152000,325.116000,430.152000L331.884000,430.152000C332.516000,430.152000,333.097000,429.797000,333.400000,429.214000L334.890000,426.170000L334.890000,426.297000C334.890000,426.576000,335.117000,426.830000,335.420000,426.830000L338.552000,426.830000C338.830000,426.830000,339.083000,426.601000,339.083000,426.297000L339.083000,425.891000L342.694000,424.319000C343.452000,423.989000,344.260000,423.812000,345.094000,423.812000L348.453000,423.812000C348.983000,423.812000,349.387000,423.380000,349.387000,422.873000L349.387000,422.417000C349.362000,421.884000,348.958000,421.478000,348.428000,421.478000Z" fill="rgb(237,237,236)" stroke="none" stroke-width="1"/><path id="ewjb12pfiker35" d="M349.362000,422.543000L349.362000,422.417000C349.362000,421.884000,348.933000,421.478000,348.428000,421.478000L344.690000,421.478000C344.109000,421.478000,343.528000,421.402000,342.972000,421.225000L335.521000,418.993000C334.233000,418.612000,332.895000,418.409000,331.556000,418.409000L325.444000,418.409000C324.105000,418.409000,322.767000,418.612000,321.479000,418.993000L314.028000,421.225000C313.472000,421.402000,312.891000,421.478000,312.310000,421.478000L308.572000,421.478000C308.042000,421.478000,307.638000,421.909000,307.638000,422.417000L307.638000,422.543000L349.362000,422.543000Z" fill="rgb(255,255,255)" stroke="none" stroke-width="1"/><path id="ewjb12pfiker36" d="M334.612000,430.152000L322.388000,430.152000C322.186000,430.152000,322.034000,430.304000,322.034000,430.507000C322.034000,430.710000,322.186000,430.862000,322.388000,430.862000L334.612000,430.862000C334.814000,430.862000,334.966000,430.710000,334.966000,430.507000C334.966000,430.304000,334.814000,430.152000,334.612000,430.152000Z" fill="rgb(255,255,255)" stroke="none" stroke-width="1"/><path id="ewjb12pfiker37" d="M334.612000,432.283000L322.388000,432.283000C322.186000,432.283000,322.034000,432.435000,322.034000,432.638000C322.034000,432.841000,322.186000,432.993000,322.388000,432.993000L334.612000,432.993000C334.814000,432.993000,334.966000,432.841000,334.966000,432.638000C334.966000,432.435000,334.814000,432.283000,334.612000,432.283000Z" fill="rgb(255,255,255)" stroke="none" stroke-width="1"/><path id="ewjb12pfiker38" d="M330.015000,432.993000L326.959000,432.993000L326.959000,434.870000L330.015000,434.870000L330.015000,432.993000Z" fill="rgb(217,217,217)" stroke="none" stroke-width="1"/><path id="ewjb12pfiker39" d="M329.232000,434.870000L327.742000,434.870000L327.742000,435.707000L329.232000,435.707000L329.232000,434.870000Z" fill="rgb(237,237,236)" stroke="none" stroke-width="1"/><path id="ewjb12pfiker40" d="M329.005000,435.707000L327.970000,435.707000L327.970000,436.112000L329.005000,436.112000L329.005000,435.707000Z" fill="rgb(217,217,217)" stroke="none" stroke-width="1"/><path id="ewjb12pfiker41" d="M334.309000,432.283000L332.945000,432.283000C332.768000,432.105000,332.667000,431.877000,332.667000,431.598000C332.667000,431.293000,332.819000,431.015000,333.021000,430.837000L334.208000,430.837000C334.435000,431.015000,334.562000,431.293000,334.562000,431.598000C334.587000,431.877000,334.461000,432.105000,334.309000,432.283000Z" fill="rgb(237,237,236)" stroke="none" stroke-width="1"/><path id="ewjb12pfiker42" d="M329.283000,430.862000L327.717000,430.862000C327.540000,430.862000,327.389000,431.014000,327.389000,431.192000L327.389000,431.978000C327.389000,432.156000,327.540000,432.308000,327.717000,432.308000L329.283000,432.308000C329.460000,432.308000,329.611000,432.156000,329.611000,431.978000L329.611000,431.192000C329.611000,430.989000,329.460000,430.862000,329.283000,430.862000Z" fill="rgb(237,237,236)" stroke="none" stroke-width="1"/><path id="ewjb12pfiker43" d="M338.552000,426.830000C338.552000,427.337000,338.653000,427.819000,338.830000,428.275000L340.143000,431.623000C340.396000,432.283000,340.548000,432.993000,340.548000,433.728000L340.548000,443.239000C340.548000,443.645000,340.244000,443.975000,339.866000,444C339.436000,444.025000,339.083000,443.696000,339.083000,443.265000L339.083000,433.728000C339.083000,433.018000,338.956000,432.308000,338.679000,431.623000L337.416000,428.377000C337.214000,427.870000,336.734000,427.565000,336.203000,427.565000C335.875000,427.565000,335.597000,427.286000,335.597000,426.957000L335.597000,426.804000L338.552000,426.804000L338.552000,426.830000Z" fill="rgb(255,255,255)" stroke="none" stroke-width="1"/><path id="ewjb12pfiker44" d="M345.548000,419.170000L347.821000,419.170000C348.175000,419.170000,348.453000,419.449000,348.453000,419.804000L348.453000,421.504000L344.942000,421.504000L344.942000,419.804000C344.917000,419.424000,345.195000,419.170000,345.548000,419.170000Z" fill="rgb(237,237,236)" stroke="none" stroke-width="1"/><path id="ewjb12pfiker45" d="M344.917000,419.779000C344.917000,419.424000,345.195000,419.145000,345.548000,419.145000L347.821000,419.145000C348.175000,419.145000,348.453000,419.424000,348.453000,419.779000L344.917000,419.779000Z" fill="rgb(255,255,255)" stroke="none" stroke-width="1"/><path id="ewjb12pfiker46" d="M346.281000,416.152000C346.458000,415.949000,346.761000,415.949000,346.937000,416.152000C347.241000,416.507000,347.417000,416.964000,347.417000,417.420000L347.417000,419.145000L345.801000,419.145000L345.801000,417.446000C345.826000,416.964000,345.978000,416.507000,346.281000,416.152000Z" fill="rgb(197,197,197)" stroke="none" stroke-width="1"/><path id="ewjb12pfiker47" d="M352.039000,417.598000L358,417.953000L358,418.080000C358,418.156000,357.949000,418.232000,357.848000,418.257000L356.964000,418.460000L352.039000,418.511000L347.695000,418.866000L347.695000,417.699000L352.039000,417.598000Z" fill="rgb(237,237,236)" stroke="none" stroke-width="1"/><path id="ewjb12pfiker48" d="M341.229000,417.598000L335.269000,417.953000L335.269000,418.080000C335.269000,418.156000,335.319000,418.232000,335.420000,418.257000L336.304000,418.460000L341.229000,418.511000L345.574000,418.866000L345.574000,417.699000L341.229000,417.598000Z" fill="rgb(237,237,236)" stroke="none" stroke-width="1"/><path id="ewjb12pfiker49" d="M345.877000,417.446000L347.367000,417.446000C347.544000,417.446000,347.670000,417.598000,347.670000,417.750000L347.670000,418.967000L345.548000,418.967000L345.548000,417.750000C345.574000,417.572000,345.700000,417.446000,345.877000,417.446000Z" fill="rgb(255,255,255)" stroke="none" stroke-width="1"/></g></g></g></svg>