<svg width="285" height="200" viewBox="0 0 285 200" fill="none" xmlns="http://www.w3.org/2000/svg">
<g clip-path="url(#clip0)">
<path d="M35.498 139.88C35.498 139.88 25.8456 108.457 55.1203 95.5971C84.3951 82.7368 74.1076 56.3826 100.398 50.491C129.037 44.0291 139.325 72.6006 145.485 75.3247C151.644 78.0488 164.472 72.6639 174.505 73.8676C184.539 75.0713 191.397 90.1489 199.271 97.8777C207.146 105.607 225.689 103.326 235.214 114.286C244.739 125.245 248.74 157.428 228.356 173.963" fill="#CAF5FF" fill-opacity="0.2"/>
<path d="M89.9198 169.971C84.9666 156.478 72.3295 143.871 59.8195 136.712C56.7714 134.938 52.3262 133.608 50.9291 137.789C50.0401 140.45 46.865 139.753 45.0869 138.549C42.8643 137.029 41.5942 134.495 39.6892 132.594C38.1651 131.074 36.26 129.933 34.1009 129.553C32.0053 129.237 29.6557 129.743 28.1317 131.264C26.9251 132.404 26.2266 133.988 24.9565 134.938C22.7974 136.585 19.5588 135.952 17.2727 134.558C14.9231 133.101 13.0815 131.01 10.8589 129.49C8.57285 127.97 5.58822 127.019 3.17512 128.35C-1.59587e-05 130.06 -0.317529 134.685 1.07953 138.042C1.90506 140.133 3.23862 143.111 4.82619 144.758C7.04878 147.038 10.3509 148.622 13.4626 149.192C15.7486 149.636 18.1617 149.636 20.4478 150.143C21.2734 150.333 22.2259 150.713 22.4164 151.663C22.6704 153.057 20.9559 153.88 19.9398 154.387C18.2253 155.274 16.5107 157.111 17.3362 158.885C17.8442 159.962 19.1143 160.469 20.3208 160.659C23.877 161.292 27.4331 160.215 30.8623 159.202C32.8944 158.568 34.7359 157.301 36.8315 156.731C37.9111 156.478 40.7687 156.351 40.4512 158.188C40.3877 158.758 39.9432 159.265 39.4986 159.645C39.0541 160.025 38.5461 160.342 38.1651 160.786C36.514 162.749 38.1651 165.093 40.2607 165.6C41.9117 165.98 43.6263 165.6 45.2774 165.22C56.0093 162.686 67.2493 161.736 78.1083 163.953C80.3944 164.397 82.9345 165.22 84.0775 167.247" fill="#B0EEFF"/>
<path opacity="0.5" d="M78.2988 161.482C70.4244 154.197 59.9465 149.382 49.024 147.989C42.2292 147.165 35.3075 147.608 28.4492 146.975C21.5909 146.341 14.5421 144.568 9.58887 140.07" stroke="white" stroke-width="1.0479" stroke-miterlimit="10" stroke-linecap="round" stroke-linejoin="round"/>
<path opacity="0.25" d="M80.7753 162.559C80.7753 162.559 61.9785 150.079 56.7078 137.472C60.264 138.423 62.6136 139.626 65.1537 141.653C67.8843 145.455 74.2981 151.346 78.6797 155.147C79.2513 157.175 79.9498 159.645 80.7753 162.559Z" fill="#FCCCB1"/>
<path d="M80.0768 158.251C79.3783 153.88 77.4097 149.509 76.6477 145.011C75.4411 137.852 75.2506 130.63 76.5842 123.472C77.7272 117.39 79.5688 111.055 77.5367 104.91C76.9652 103.263 75.9492 101.489 73.8536 101.552C73.028 101.552 72.2025 101.932 71.5675 102.439C70.0434 103.833 69.7259 105.797 69.4719 107.634L68.6463 113.906C68.3923 115.933 65.2807 116.186 64.6457 114.222V114.159C64.1377 112.512 64.2012 110.738 64.3917 109.028C64.7092 105.29 65.1537 101.489 64.5822 97.751C63.8836 93.2531 61.407 88.6284 56.5808 86.9813C54.8663 86.4111 52.9612 86.2844 51.2466 86.7913C46.4204 88.185 45.4044 92.7463 46.4204 96.5473C47.1189 99.2081 48.643 101.679 50.0401 104.086C53.4057 110.041 51.6276 115.743 52.4532 122.458C54.1042 136.585 68.0113 150.269 80.0768 158.251Z" fill="#B0EEFF"/>
<path opacity="0.5" d="M53.5327 94.9636C63.6931 107.19 60.0099 136.142 77.7272 151.726" stroke="white" stroke-width="1.0479" stroke-miterlimit="10" stroke-linecap="round" stroke-linejoin="round"/>
<path opacity="0.5" d="M73.3456 109.344C74.4887 115.553 70.488 122.458 69.5989 126.322C68.6464 130.187 68.2019 136.712 69.1544 140.576" stroke="white" stroke-width="1.0479" stroke-miterlimit="10" stroke-linecap="round" stroke-linejoin="round"/>
<path d="M201.049 148.052C201.748 144.061 209.051 119.164 221.942 125.816C229.562 129.743 228.229 144.188 216.29 155.147C218.64 152.867 221.307 150.333 224.545 149.699C226.26 149.382 228.356 150.143 229.689 151.346C230.832 152.423 231.15 154.07 231.213 155.654C231.404 161.356 228.419 166.994 223.656 170.098C226.26 168.641 228.546 166.804 231.594 166.551C232.547 166.487 234.198 166.994 234.706 167.881C235.214 168.831 235.15 172.379 229.372 175.04C252.995 170.542 254.392 180.615 245.882 180.615C237.373 180.615 189.682 180.615 189.682 180.615" fill="#D7F6FF"/>
<path d="M73.5996 181.691C55.1838 181.945 35.752 181.058 17.3362 181.311C16.7012 181.311 14.7326 181.121 18.0347 178.967C20.8923 177.13 29.8462 178.777 29.8462 178.777C29.8462 178.777 27.7506 177.954 27.7506 176.877C27.7506 175.8 28.5762 174.85 29.5922 174.406C30.5448 173.963 31.6878 173.899 32.7673 173.963C34.9899 174.089 37.149 174.596 39.1811 175.42C38.2921 174.913 38.0381 173.583 38.6731 172.759C39.2446 171.935 40.5782 171.745 41.3402 172.379C39.9431 170.542 37.8476 162.243 44.3883 158.632C52.5802 154.07 58.8669 157.808 60.2005 160.596C60.899 157.871 63.9472 155.844 66.0427 155.337C70.6784 154.197 73.8536 154.324 78.0448 156.541C92.1423 164.016 85.6016 180.361 84.649 182.135" fill="#BAE9F4"/>
<path d="M212.67 181.755C231.277 182.008 251.026 181.121 269.632 181.375C270.267 181.375 272.299 181.185 268.87 179.031C266.013 177.194 256.932 178.841 256.932 178.841C256.932 178.841 259.027 178.017 259.027 176.877C259.027 175.8 258.202 174.85 257.186 174.343C256.17 173.899 255.027 173.836 253.947 173.899C251.725 174.026 249.502 174.533 247.47 175.356C248.359 174.85 248.613 173.519 248.041 172.696C247.47 171.872 246.136 171.682 245.311 172.316C246.708 170.415 248.74 161.356 242.136 157.618C234.261 153.12 228.102 158.505 226.768 161.229C226.07 158.505 222.45 155.591 220.418 155.021C209.559 152.17 203.59 159.265 202.637 160.659C195.334 171.239 200.414 179.918 201.558 181.692" fill="#BAE9F4"/>
<path d="M264.679 181.755C261.631 169.021 263.409 155.337 269.696 144.188L270.077 144.378C263.854 155.401 262.076 169.021 265.124 181.628L264.679 181.755Z" fill="#BAE9F4"/>
<path d="M268.299 147.355C268.362 145.075 269.315 142.794 270.966 141.083C271.347 140.703 271.855 140.26 272.426 140.323C272.553 140.323 272.744 140.387 272.871 140.513C273.061 140.703 273.061 140.957 272.998 141.21C272.744 142.54 271.855 143.617 270.902 144.504C269.823 145.455 269.251 146.278 268.299 147.355Z" fill="#BAE9F4"/>
<path d="M266.521 151.726C267.537 149.636 269.315 147.925 271.41 147.038C271.918 146.785 272.553 146.658 273.062 146.912C273.189 146.975 273.316 147.102 273.379 147.228C273.443 147.482 273.316 147.735 273.189 147.925C272.426 149.002 271.156 149.636 269.95 150.143C268.743 150.649 267.854 151.156 266.521 151.726Z" fill="#BAE9F4"/>
<path d="M264.806 157.618C265.568 155.401 267.092 153.5 269.124 152.36C269.632 152.043 270.204 151.853 270.712 152.043C270.839 152.107 271.029 152.17 271.093 152.36C271.22 152.613 271.093 152.867 271.029 153.057C270.394 154.261 269.251 155.021 268.045 155.654C266.838 156.224 266.013 156.858 264.806 157.618Z" fill="#BAE9F4"/>
<path d="M263.79 163.51C264.552 161.292 266.076 159.392 268.108 158.252C268.616 157.935 269.188 157.745 269.696 157.935C269.823 157.998 270.013 158.062 270.077 158.252C270.204 158.505 270.077 158.758 270.013 158.948C269.378 160.152 268.235 160.912 267.029 161.546C265.822 162.116 265.06 162.686 263.79 163.51Z" fill="#BAE9F4"/>
<path d="M263.536 171.429C264.044 169.148 265.378 167.121 267.283 165.727C267.727 165.41 268.299 165.094 268.87 165.22C268.997 165.284 269.188 165.347 269.251 165.474C269.378 165.664 269.315 165.98 269.251 166.171C268.743 167.438 267.664 168.324 266.584 169.021C265.441 169.782 264.679 170.478 263.536 171.429Z" fill="#BAE9F4"/>
<path d="M263.917 177.13C264.298 175.04 265.441 172.949 267.156 171.365C267.6 170.985 268.108 170.605 268.616 170.668C268.743 170.668 268.934 170.732 268.997 170.795C269.124 170.985 269.061 171.239 268.997 171.429C268.616 172.632 267.6 173.646 266.584 174.47C265.632 175.356 264.997 176.117 263.917 177.13Z" fill="#BAE9F4"/>
<path d="M265.886 153.817C264.171 152.17 262.965 149.889 262.711 147.482C262.647 146.912 262.647 146.215 263.028 145.771C263.155 145.645 263.282 145.581 263.409 145.518C263.663 145.518 263.854 145.708 264.044 145.898C264.933 146.975 265.187 148.432 265.314 149.826C265.378 151.22 265.632 152.297 265.886 153.817Z" fill="#BAE9F4"/>
<path d="M264.616 158.378C262.52 157.238 260.869 155.274 259.98 152.993C259.789 152.423 259.599 151.79 259.853 151.283C259.916 151.156 260.043 151.03 260.17 150.966C260.424 150.903 260.678 151.03 260.869 151.22C261.949 152.043 262.584 153.437 263.028 154.767C263.536 156.034 264.044 156.921 264.616 158.378Z" fill="#BAE9F4"/>
<path d="M263.79 164.46C261.504 163.763 259.472 162.179 258.202 160.089C257.884 159.582 257.567 158.948 257.757 158.442C257.821 158.315 257.884 158.125 258.011 158.061C258.202 157.935 258.519 157.998 258.773 158.125C260.043 158.758 260.869 159.962 261.568 161.166C262.266 162.369 262.901 163.193 263.79 164.46Z" fill="#BAE9F4"/>
<path d="M263.409 172.252C261.377 171.049 259.726 169.021 258.9 166.741C258.71 166.171 258.583 165.537 258.837 165.03C258.9 164.903 259.027 164.777 259.154 164.713C259.408 164.65 259.662 164.777 259.853 164.967C260.933 165.854 261.504 167.184 261.949 168.578C262.393 169.908 262.901 170.859 263.409 172.252Z" fill="#BAE9F4"/>
<path d="M264.108 177.891C261.758 177.764 259.345 176.687 257.567 174.976C257.122 174.533 256.678 174.026 256.741 173.456C256.741 173.266 256.805 173.139 256.932 173.012C257.122 172.822 257.44 172.886 257.694 172.886C259.027 173.203 260.17 174.153 261.187 175.166C262.076 176.243 262.965 176.877 264.108 177.891Z" fill="#BAE9F4"/>
<path d="M285 182.135C285 183.085 221.307 183.845 135.388 183.845C49.4686 183.845 0 183.085 0 182.135C0 181.185 49.4686 180.424 135.388 180.424C221.307 180.424 285 181.185 285 182.135Z" fill="#AFE1F2"/>
<path d="M209.178 141.527H62.8041V136.965C62.8041 135.382 64.0742 134.115 65.6618 134.115H206.32C207.908 134.115 209.178 135.382 209.178 136.965V141.527Z" fill="#1B8DCC"/>
<path d="M209.178 173.773H62.8041V178.334C62.8041 179.918 64.0742 181.185 65.6618 181.185H206.32C207.908 181.185 209.178 179.918 209.178 178.334V173.773Z" fill="#0771A0"/>
<path d="M87.1257 182.832H69.4084C68.7734 182.832 68.2654 182.325 68.2654 181.691V176.75H88.3322V181.691C88.3322 182.325 87.7607 182.832 87.1257 182.832Z" fill="#0771A0"/>
<path d="M202.51 182.832H184.793C184.158 182.832 183.65 182.325 183.65 181.691V176.75H203.717V181.691C203.717 182.325 203.145 182.832 202.51 182.832Z" fill="#0771A0"/>
<path d="M198.001 140.386H189.301L191.334 39.4678C191.334 38.2008 192.413 37.1872 193.62 37.1872C194.89 37.1872 195.906 38.2008 195.906 39.4678L198.001 140.386Z" fill="#389FE5"/>
<path d="M198.001 140.386H196.033L194.001 37.2505C194.509 37.3138 194.89 37.5672 195.207 37.884C195.652 38.2641 195.906 38.8343 195.906 39.4678L198.001 140.386Z" fill="#1A91C6"/>
<path d="M214.195 139.943V177.067C214.195 178.27 213.242 179.221 212.035 179.221H59.9465C58.74 179.221 57.7874 178.27 57.7874 177.067V139.943C57.7874 138.739 58.74 137.789 59.9465 137.789H212.035C213.242 137.789 214.195 138.803 214.195 139.943Z" fill="#389FE5"/>
<path d="M214.195 139.943V177.067C214.195 178.27 213.242 179.221 212.035 179.221H59.9465C58.74 179.221 57.7874 178.27 57.7874 177.067C206.32 180.108 214.195 139.943 214.195 139.943Z" fill="#268CDB"/>
<path d="M75.4211 162.895C77.8492 161.886 78.9979 159.105 77.9868 156.682C76.9757 154.26 74.1876 153.114 71.7595 154.123C69.3315 155.132 68.1828 157.913 69.1939 160.335C70.205 162.758 72.993 163.904 75.4211 162.895Z" fill="#0771A0"/>
<path d="M103.192 158.505C103.192 159.772 102.176 160.786 100.906 160.786C99.6357 160.786 98.6196 159.772 98.6196 158.505C98.6196 157.238 99.6357 156.224 100.906 156.224C102.176 156.224 103.192 157.238 103.192 158.505Z" fill="#5FF0FF"/>
<path d="M113.162 158.505C113.162 159.772 112.146 160.786 110.876 160.786C109.606 160.786 108.59 159.772 108.59 158.505C108.59 157.238 109.606 156.224 110.876 156.224C112.146 156.224 113.162 157.238 113.162 158.505Z" fill="#A6F2FF"/>
<path d="M123.132 158.505C123.132 159.772 122.116 160.786 120.846 160.786C119.575 160.786 118.559 159.772 118.559 158.505C118.559 157.238 119.575 156.224 120.846 156.224C122.116 156.224 123.132 157.238 123.132 158.505Z" fill="#A6F2FF"/>
<path d="M133.165 158.505C133.165 159.772 132.149 160.786 130.879 160.786C129.609 160.786 128.593 159.772 128.593 158.505C128.593 157.238 129.609 156.224 130.879 156.224C132.086 156.224 133.165 157.238 133.165 158.505Z" fill="#A6F2FF"/>
<path d="M143.135 158.505C143.135 159.772 142.119 160.786 140.849 160.786C139.579 160.786 138.563 159.772 138.563 158.505C138.563 157.238 139.579 156.224 140.849 156.224C142.119 156.224 143.135 157.238 143.135 158.505Z" fill="white"/>
<path d="M153.105 158.505C153.105 159.772 152.089 160.786 150.819 160.786C149.549 160.786 148.533 159.772 148.533 158.505C148.533 157.238 149.549 156.224 150.819 156.224C152.089 156.224 153.105 157.238 153.105 158.505Z" fill="white"/>
<path d="M204.034 160.786H165.932C164.662 160.786 163.646 159.772 163.646 158.505C163.646 157.238 164.662 156.224 165.932 156.224H204.034C205.304 156.224 206.32 157.238 206.32 158.505C206.32 159.772 205.304 160.786 204.034 160.786Z" fill="white"/>
<path d="M193.683 33.7661C195.261 33.7661 196.541 32.4898 196.541 30.9153C196.541 29.3409 195.261 28.0645 193.683 28.0645C192.105 28.0645 190.826 29.3409 190.826 30.9153C190.826 32.4898 192.105 33.7661 193.683 33.7661Z" fill="#B0EEFF"/>
<path d="M188.666 27.5577C188.285 27.5577 187.841 27.431 187.523 27.1143C186.888 26.4807 186.888 25.4671 187.523 24.897C189.174 23.2498 191.334 22.3629 193.62 22.3629C195.906 22.3629 198.065 23.2498 199.716 24.897C200.351 25.5305 200.351 26.5441 199.716 27.1143C199.081 27.7478 198.065 27.7478 197.493 27.1143C196.477 26.1006 195.08 25.5305 193.62 25.5305C192.159 25.5305 190.762 26.1006 189.746 27.1143C189.492 27.3677 189.111 27.5577 188.666 27.5577Z" fill="#B0EEFF"/>
<path d="M203.209 22.9965C202.828 22.9965 202.383 22.8698 202.066 22.553C199.843 20.3357 196.795 19.0687 193.62 19.0687C190.444 19.0687 187.46 20.3357 185.174 22.553C184.539 23.1865 183.523 23.1865 182.951 22.553C182.316 21.9195 182.316 20.9059 182.951 20.3357C185.809 17.4849 189.619 15.9011 193.62 15.9011C197.62 15.9011 201.43 17.4849 204.288 20.3357C204.923 20.9692 204.923 21.9828 204.288 22.553C204.034 22.8064 203.653 22.9965 203.209 22.9965Z" fill="#B0EEFF"/>
<path d="M209.368 17.9917C208.987 18.3718 208.479 18.5619 208.035 18.5619C207.527 18.5619 207.082 18.3718 206.701 17.9917C203.209 14.5074 198.636 12.6069 193.683 12.6069C188.793 12.6069 184.158 14.5074 180.665 17.9917C179.903 18.7519 178.697 18.7519 177.998 17.9917C177.236 17.2315 177.236 16.0278 177.998 15.331C179.014 14.3174 180.157 13.3671 181.364 12.6069C184.983 10.1995 189.238 8.86914 193.747 8.86914C194.636 8.86914 195.525 8.93249 196.414 8.99584C201.367 9.566 205.876 11.7833 209.432 15.331C210.13 16.0278 210.13 17.2315 209.368 17.9917Z" fill="#B0EEFF"/>
<path d="M269.124 198.29C269.124 199.24 257.059 200 242.136 200C227.213 200 215.147 199.24 215.147 198.29C215.147 197.339 227.213 196.579 242.136 196.579C257.059 196.579 269.124 197.339 269.124 198.29Z" fill="#CAF5FF"/>
<path d="M229.308 191.701C229.308 191.701 229.181 195.122 229.372 195.946C229.499 196.579 231.467 196.642 231.658 196.326C231.912 196.009 232.166 192.018 232.166 192.018" fill="#FFE1BD"/>
<path d="M232.42 196.452C232.42 196.959 232.293 197.719 232.229 198.163C232.166 198.353 232.039 198.543 231.785 198.543H229.372C229.372 198.543 228.292 198.543 227.594 198.543H225.244C223.529 198.543 222.513 198.353 222.45 198.036C222.259 196.769 228.991 194.678 229.308 194.805C229.308 194.805 229.372 195.059 229.626 195.375C230.007 195.819 230.324 196.009 230.896 195.882C231.277 195.819 231.594 195.692 231.848 195.439C231.848 195.439 232.42 195.692 232.42 196.452Z" fill="#153A4F"/>
<path d="M258.456 193.158C258.456 193.158 258.837 194.869 259.027 195.439C259.218 196.009 261.123 195.629 261.25 195.249C261.377 194.869 260.488 191.638 260.488 191.638" fill="#FFE1BD"/>
<path d="M261.885 195.375C262.012 195.819 262.139 196.516 262.202 196.959C262.266 197.149 262.139 197.339 261.948 197.466L260.297 198.163C260.17 198.226 259.535 198.416 258.964 198.67C258.456 198.923 257.567 199.113 256.995 199.176C255.281 199.303 254.074 198.923 253.947 198.733C253.566 197.783 257.63 195.122 258.519 194.678C258.646 194.615 258.773 194.615 258.837 194.678C258.964 194.742 259.218 194.868 259.345 195.185C259.408 195.375 259.599 195.502 259.853 195.439C260.297 195.375 260.996 195.185 261.25 194.678C261.25 194.678 261.758 194.742 261.885 195.375Z" fill="#153A4F"/>
<path d="M251.598 141.97C251.598 141.97 255.471 130.63 244.485 121.318C244.485 121.318 238.643 123.662 233.944 123.915C230.261 124.105 228.356 123.788 228.356 123.788C228.356 123.788 228.038 133.861 228.038 139.246L251.598 141.97Z" fill="#1D445E"/>
<path d="M229.562 130.06C228.673 130.377 228.419 132.974 228.292 134.748C228.165 136.522 227.467 154.957 227.213 158.251C227.149 158.822 227.149 159.328 227.213 159.772C227.149 160.089 227.149 160.405 227.149 160.722C227.403 166.107 228.546 183.212 228.419 193.665C228.419 193.665 231.594 193.982 232.42 193.792C233.055 186.506 237.119 172.759 235.722 164.016C235.214 160.912 235.468 157.681 236.42 154.704C238.008 149.572 239.85 143.491 240.358 140.64C241.501 134.051 233.88 128.413 229.562 130.06Z" fill="#1D445E"/>
<path d="M255.09 165.347C253.439 162.496 252.36 159.265 252.296 155.908C252.169 149.762 252.042 141.907 251.407 138.929C249.946 132.341 242.326 129.617 238.96 132.721C238.262 133.354 238.135 136.839 238.706 138.549C239.278 140.26 243.596 159.075 244.676 162.243C244.803 162.686 244.993 163.13 245.12 163.446C245.184 163.763 245.247 164.016 245.374 164.397C247.216 169.528 254.9 184.162 257.884 194.172C257.884 194.172 260.742 193.855 261.758 193.158C260.17 186.063 259.726 173.266 255.09 165.347Z" fill="#1D445E"/>
<path d="M251.153 129.553C237.944 131.961 227.594 129.743 227.721 128.856C228.102 126.702 229.054 109.914 228.483 108.267C227.467 105.416 227.022 100.665 226.197 98.5112C225.625 96.8641 224.037 92.1761 225.307 90.909C226.705 89.452 230.134 87.298 235.15 87.4247C238.643 87.5514 247.533 88.4383 249.121 90.4022C250.137 91.6059 250.645 93.8865 250.899 96.674C251.026 98.3845 251.09 100.222 251.09 102.249C251.026 108.141 250.328 114.856 249.946 119.797C249.756 123.282 251.153 129.553 251.153 129.553Z" fill="#62C1C5"/>
<path d="M234.007 83.3703C234.007 83.3703 234.007 86.918 233.88 87.0447C233.563 87.4248 232.547 87.6148 232.547 87.6148C232.547 87.6148 232.737 89.8321 234.896 90.0855C239.532 90.6557 241.12 87.9949 241.12 87.9949C241.12 87.9949 239.913 87.7415 239.977 87.0447C239.977 86.7279 240.739 80.8362 240.739 80.8362" fill="#FFCCB0"/>
<path d="M234.007 83.6871L236.484 84.1305C236.484 84.1305 235.658 85.0174 234.007 85.0174" fill="#F2A181"/>
<path d="M228.038 70.7C227.276 71.3335 227.276 72.6639 227.34 73.6142C227.403 74.6911 227.657 75.7681 227.911 76.8451C228.102 77.6053 228.419 78.3022 228.927 78.8723C229.181 79.1257 229.562 79.3158 229.88 79.5058C230.07 79.6325 230.261 79.6959 230.515 79.7593C230.705 79.8226 230.959 79.7592 231.15 79.6325C231.404 79.3791 231.34 79.0624 231.34 78.7456C231.086 76.655 230.832 74.5644 231.15 72.4739" fill="#0A2960"/>
<path d="M229.562 77.0352C229.308 76.465 228.483 76.3383 228.229 77.1619C227.975 77.8587 228.292 78.8723 228.546 79.5692C228.864 80.4561 229.626 80.3294 230.197 80.2027" fill="#FFCCB0"/>
<path d="M231.594 69.6864C230.896 70.1932 228.737 70.6367 228.546 71.7136C228.356 72.7906 228.737 75.0079 228.737 75.6414C228.8 76.9084 229.054 78.2388 229.245 79.5058C229.499 81.153 230.007 84.1305 231.975 84.764C232.547 84.9541 232.801 84.954 233.309 84.8273C234.071 84.6373 234.769 84.5106 235.531 84.3205C236.674 84.0671 237.944 83.7504 238.897 82.9902C240.104 81.9132 240.04 79.6325 239.85 78.1755L238.707 69.7498L231.594 69.6864Z" fill="#FFCCB0"/>
<path d="M240.04 76.5283C239.469 76.465 238.961 76.3383 238.834 76.9085C238.77 77.2252 238.834 77.6053 238.58 77.7954C238.326 77.9854 237.944 77.8587 237.754 77.6053C237.563 77.3519 237.5 77.0352 237.5 76.7184C237.436 76.0215 237.373 75.3247 237.309 74.6278C237.246 73.9309 237.119 73.1707 236.674 72.7273C236.42 72.4739 236.103 72.3472 235.785 72.2205C234.706 71.9037 233.499 71.9671 232.42 72.2205C231.277 72.4739 230.197 72.7906 229.054 72.9173C228.61 72.9807 228.102 72.9807 227.657 72.854C226.895 72.6006 226.323 72.0304 226.006 71.3335C225.688 70.6367 225.625 69.8131 225.752 69.0529C225.942 69.2429 226.133 69.433 226.387 69.6231C226.387 69.2429 226.45 68.8628 226.577 68.4827C227.594 70.0032 234.388 66.4555 236.293 66.5188C237.627 66.5188 238.707 66.4555 239.469 68.356C239.532 68.4827 239.659 68.4827 239.786 68.5461C241.183 69.0529 242.136 70.0032 242.961 71.5869C243.977 73.5508 243.723 76.2749 243.279 78.4289C243.152 78.999 243.152 79.3158 242.834 79.8226C242.58 80.3294 241.882 80.7729 241.374 80.8996C240.802 81.0263 239.85 81.4697 239.596 80.9629C239.405 80.5828 239.913 79.6326 240.04 79.1891" fill="#0A2960"/>
<path d="M239.024 79.2525C239.024 79.2525 239.088 79.6326 239.405 79.8227C239.723 79.9494 240.04 79.7593 240.294 79.5692C240.929 78.9991 241.12 78.0488 240.929 77.2886C240.739 76.3383 239.85 75.6415 239.151 76.2116C238.707 76.5284 238.643 77.2252 238.897 77.6687" fill="#FFCCB0"/>
<path d="M224.99 91.5425L222.45 100.602L228.102 101.299L229.626 95.6604L224.99 91.5425Z" fill="#62C1C5"/>
<path d="M213.997 116.073H245.304V114.87H213.997V116.073Z" fill="#71E4FF"/>
<path d="M207.971 116.06H235.15L230.261 100.222C230.007 99.3348 229.181 98.7646 228.292 98.7646H204.479C203.59 98.7646 202.891 99.6516 203.209 100.538L207.971 116.06Z" fill="#71E4FF"/>
<path d="M207.59 116.06H234.325L229.435 100.222C229.181 99.3348 228.356 98.7646 227.467 98.7646H203.653C202.764 98.7646 202.066 99.6516 202.383 100.538L207.019 115.743C207.146 115.933 207.4 116.06 207.59 116.06Z" fill="#B0EEFF"/>
<path d="M220.1 107.57C220.1 109.091 218.894 110.295 217.37 110.295C215.846 110.295 214.639 109.091 214.639 107.57C214.639 106.05 215.846 104.846 217.37 104.846C218.894 104.846 220.1 106.113 220.1 107.57Z" fill="#71E4FF"/>
<path d="M243.025 101.299C243.025 101.299 241.945 108.457 241.628 110.358C241.374 111.815 240.802 116.123 240.802 116.123L242.58 119.734C242.58 119.734 244.168 119.227 245.311 117.833C246.454 116.376 248.74 105.226 248.74 105.226" fill="#FFCCB0"/>
<path d="M244.041 93.8232C244.041 93.8232 242.644 99.6516 242.326 104.91C242.326 104.91 247.343 105.923 250.328 106.303C250.328 106.303 254.519 94.14 248.867 90.2756" fill="#62C1C5"/>
<path d="M243.596 95.6604L242.961 100.285C242.834 101.045 242.771 101.805 242.644 102.566C242.58 103.326 242.453 104.086 242.453 104.846L242.326 104.656C243.469 104.91 244.612 105.163 245.692 105.416C246.835 105.67 247.978 105.86 249.121 106.05C247.978 105.987 246.835 105.86 245.692 105.67C244.549 105.48 243.406 105.29 242.263 105.036H242.136V104.91C242.136 104.086 242.199 103.326 242.326 102.566C242.453 101.805 242.58 101.045 242.707 100.285C242.961 98.7013 243.215 97.1808 243.596 95.6604Z" fill="#47A59E"/>
<path d="M235.912 116.06C235.912 116.06 239.088 115.173 242.009 115.679C244.93 116.186 242.517 119.671 242.517 119.671C229.626 120.748 221.497 116.06 221.497 116.06H240.802" fill="#FFCCB0"/>
<path d="M219.084 116.06C219.084 116.06 220.926 116.82 223.148 116.883C225.434 116.947 225.752 116.06 225.752 116.06H219.084Z" fill="#FFCCB0"/>
<g opacity="0.5">
<g opacity="0.5">
<g opacity="0.5">
<path opacity="0.5" d="M213.305 71.2069L216.544 72.9173L214.957 68.7361" fill="#389FE5"/>
</g>
<path opacity="0.5" d="M210.13 72.6639C213.918 72.6639 216.989 69.6007 216.989 65.822C216.989 62.0433 213.918 58.98 210.13 58.98C206.343 58.98 203.272 62.0433 203.272 65.822C203.272 69.6007 206.343 72.6639 210.13 72.6639Z" fill="#389FE5"/>
</g>
</g>
<path d="M210.575 68.9261C210.321 69.1795 209.876 69.1795 209.622 68.9261C209.368 68.6727 209.368 68.2293 209.622 67.9759C209.876 67.7225 210.321 67.7225 210.575 67.9759C210.829 68.2293 210.892 68.6094 210.575 68.9261Z" fill="white"/>
<path d="M208.924 67.5958C208.797 67.5958 208.733 67.5324 208.67 67.4691C208.543 67.3424 208.543 67.089 208.67 66.9622C209.051 66.5821 209.559 66.3921 210.13 66.3921C210.702 66.3921 211.21 66.5821 211.591 66.9622C211.718 67.089 211.718 67.3424 211.591 67.4691C211.464 67.5958 211.21 67.5958 211.083 67.4691C210.829 67.2157 210.511 67.089 210.194 67.089C209.876 67.089 209.559 67.2157 209.305 67.4691C209.114 67.5958 209.051 67.5958 208.924 67.5958Z" fill="white"/>
<path d="M212.353 66.5188C212.226 66.5188 212.162 66.4555 212.099 66.3921C211.591 65.8853 210.892 65.5686 210.13 65.5686C209.368 65.5686 208.67 65.8853 208.162 66.3921C208.035 66.5188 207.781 66.5188 207.654 66.3921C207.527 66.2654 207.527 66.012 207.654 65.8853C208.352 65.1885 209.241 64.8717 210.194 64.8717C211.146 64.8717 212.035 65.2518 212.734 65.8853C212.861 66.012 212.861 66.2654 212.734 66.3921C212.543 66.5188 212.48 66.5188 212.353 66.5188Z" fill="white"/>
<path d="M213.813 65.3785C213.75 65.4418 213.623 65.5052 213.496 65.5052C213.369 65.5052 213.242 65.4418 213.178 65.3785C212.353 64.5549 211.273 64.1115 210.13 64.1115C208.987 64.1115 207.908 64.5549 207.082 65.3785C206.892 65.5685 206.638 65.5685 206.447 65.3785C206.257 65.1884 206.257 64.935 206.447 64.745C206.701 64.4916 206.955 64.3015 207.209 64.1115C208.035 63.5413 209.051 63.2245 210.13 63.2245C210.321 63.2245 210.575 63.2245 210.765 63.2879C211.908 63.4146 212.988 63.9214 213.813 64.8083C214.004 64.935 214.004 65.1884 213.813 65.3785Z" fill="white"/>
<path d="M58.3589 198.29C58.3589 199.24 48.8335 200 37.0855 200C25.3375 200 15.8121 199.24 15.8121 198.29C15.8121 197.339 25.3375 196.579 37.0855 196.579C48.8335 196.579 58.3589 197.339 58.3589 198.29Z" fill="#CAF5FF"/>
<path d="M30.1637 182.135C30.1637 182.135 27.2426 187.963 25.655 191.194C25.528 191.384 25.528 191.638 25.655 191.828C26.036 192.651 27.1156 194.742 27.7506 195.565C27.2426 195.375 20.8288 193.602 22.1624 191.638C23.3054 189.991 24.0675 185.303 25.5915 180.488" fill="#FFE1BD"/>
<path d="M22.5434 190.624C22.6069 190.561 22.7974 190.561 22.8609 190.687C23.1784 191.131 23.877 191.511 24.1945 191.638C24.8295 191.828 25.4645 191.574 25.7185 191.764C25.9726 191.954 27.4966 195.249 28.8937 196.389C29.9097 197.213 29.1477 197.846 29.0207 197.909C25.274 198.796 24.3215 196.832 23.9405 196.389C23.0514 195.375 22.9244 194.869 22.0989 193.918C21.8449 193.665 21.4004 193.095 21.3369 192.715C21.1464 191.954 21.8449 191.068 22.5434 190.624Z" fill="#1D445E"/>
<path d="M47.7539 186.633C47.7539 186.633 47.8809 189.167 47.8174 193.538C47.8174 193.728 47.8809 193.918 48.0714 194.045C48.8335 194.615 50.9926 196.262 52.1356 196.706C51.5006 196.832 44.1978 198.606 44.5788 195.882C44.8963 193.602 44.4518 191.511 43.3723 186.76" fill="#FFE1BD"/>
<path d="M44.4518 194.805C44.5153 194.679 44.6423 194.615 44.7693 194.615C45.2774 194.805 46.0394 194.742 46.4204 194.742C46.9284 194.805 47.6905 193.982 48.008 194.045C48.3255 194.108 50.6751 195.692 52.1356 196.326C52.4532 196.452 53.0247 196.642 53.8502 196.959C55.5013 197.719 54.2947 198.416 53.8502 198.48C53.1517 198.67 46.6109 198.606 45.2774 198.226C44.6423 198.1 44.2613 197.909 44.0073 197.593C43.6898 197.023 44.1343 195.819 44.4518 194.805Z" fill="#1D445E"/>
<path d="M51.5006 137.916C51.7546 145.455 48.008 189.674 48.008 189.674C48.008 189.674 47.4999 189.927 46.4204 189.927C44.9598 189.927 43.6263 189.737 43.6263 189.737C43.6263 189.737 41.0227 178.524 41.4037 167.057C41.4672 165.537 41.5307 164.017 41.7212 162.496C41.9752 160.089 41.9752 157.681 41.5942 155.274C41.1497 152.55 40.7052 149.572 40.3241 146.405C39.5621 140.26 38.9906 133.671 38.8636 128.223C38.4191 102.122 49.532 123.535 49.532 123.535C49.532 123.535 51.2466 130.44 51.5006 137.916Z" fill="#1D445E"/>
<path d="M41.7847 162.496C42.0387 160.089 42.0387 157.681 41.6577 155.274C41.2132 152.55 40.7687 149.572 40.3876 146.405L42.7372 135.255C42.7372 135.255 45.4044 153.817 41.4672 167.057C41.5307 165.537 41.5942 164.016 41.7847 162.496Z" fill="#0B3247"/>
<path d="M31.0528 126.069C31.0528 126.069 27.7506 132.911 28.5762 140.196C29.1477 145.201 30.5447 150.776 31.6243 154.45C32.2593 156.604 32.0688 158.885 31.1163 160.912C27.6236 168.514 23.1149 187.14 23.1149 187.14C23.1149 187.14 25.655 188.533 27.7506 188.47C27.7506 188.47 37.657 166.931 39.3716 160.596C42.6102 148.876 43.0548 126.576 43.0548 126.576L31.0528 126.069Z" fill="#1D445E"/>
<path d="M46.9284 75.1347C47.5634 76.7185 46.6109 78.4923 46.4204 80.1394C46.2934 81.2798 46.4839 82.4834 46.5474 83.6871C46.5474 84.8908 46.3569 86.1578 45.5313 86.9814C44.8328 87.6782 43.8168 87.995 42.8007 88.0584C40.4511 88.1851 38.1015 87.2348 36.514 85.5243C34.9264 83.8138 34.1644 81.3431 34.5454 79.0625C34.6724 78.2389 34.9264 77.4153 35.2439 76.6551C36.133 74.6912 37.5935 72.854 39.6891 72.1572C41.7212 71.4603 44.3248 72.0938 45.3408 73.9944" fill="#FFE1BD"/>
<path d="M34.2279 71.4603C33.2119 70.6368 31.8783 70.1933 30.6082 70.0666C28.9572 69.9399 27.1791 70.5101 26.2266 71.7771C25.274 72.9808 25.147 74.6279 24.385 75.9583C23.0514 78.1756 20.1938 78.9991 18.4157 80.8997C17.9077 81.4698 17.4632 82.1667 17.5267 82.9269C17.5902 83.8772 18.3522 84.6374 18.4792 85.5877C18.7332 87.2982 16.9552 88.7552 17.2092 90.4657C17.4632 91.9228 19.0508 92.683 20.5748 92.8731C22.7974 93.1898 25.0835 92.683 26.8616 91.3526C28.6397 90.0223 29.7192 87.7416 29.4652 85.5877C29.3382 84.6374 28.9572 83.6871 28.9572 82.7369C28.8937 81.0264 29.9097 79.3792 29.7827 77.6054C29.7192 76.8452 29.4652 75.9583 29.8462 75.2614C30.0367 74.9446 30.2907 74.6912 30.5447 74.5012C31.3703 73.8043 32.4498 73.1075 33.4024 73.6143" fill="#1F3A71"/>
<path d="M48.4525 74.3745C48.3255 73.6776 48.1985 72.9807 47.8175 72.4106C47.119 71.2702 45.5314 70.8901 44.3248 71.3969C44.1978 71.0802 44.0708 70.8268 43.8803 70.5734C41.9752 67.9126 37.6571 68.166 35.0535 69.3697C34.4819 69.6231 33.9739 69.8765 33.5929 70.3833C33.0214 71.0802 32.9579 72.0305 32.8944 72.9807C32.1958 73.1074 31.6243 73.6776 31.3068 74.2478C30.9893 74.8813 30.8623 75.5781 30.7988 76.275C30.6083 78.619 31.3068 81.0897 32.7674 82.9269C33.3389 83.6871 34.1644 84.3206 35.0535 84.4473C35.1805 84.4473 35.371 84.4473 35.498 84.3206C35.5615 84.2573 35.5615 84.1939 35.5615 84.1306C35.5615 83.6237 35.371 83.1803 35.3075 82.6735C35.244 82.1667 35.244 81.6599 35.5615 81.2164C35.8155 81.2164 36.006 81.7232 36.26 81.5965C36.3235 81.5965 36.3235 81.5332 36.387 81.4698C36.768 80.7729 36.514 79.886 36.514 79.0625C36.514 78.9358 36.5775 78.8724 36.5775 78.7457C39.0541 77.2253 42.3563 77.9855 44.8329 76.275C45.0234 76.1483 45.2774 75.9582 45.4044 75.7048C45.5314 75.4514 45.5949 75.198 45.5949 74.8813C45.8489 75.2614 46.1029 75.6415 46.2299 76.0216C46.6109 77.2886 46.738 77.9221 46.5474 79.886C47.0555 78.9991 47.627 78.2389 48.135 77.2886C48.3255 76.9719 48.516 76.5918 48.5795 76.2116C48.7065 75.5781 48.5795 75.008 48.4525 74.3745Z" fill="#1F3A71"/>
<path d="M36.5775 81.5332C36.7045 81.4065 36.5775 81.2797 36.4505 81.2164C36.1965 81.0263 35.9424 80.8996 35.6884 80.8363C35.4344 80.7729 35.0534 80.7729 34.8629 80.963C34.6724 81.153 34.5454 81.4065 34.4819 81.7232C34.3549 82.6735 34.7359 83.7505 35.5614 84.3206C35.8789 84.574 36.26 84.7641 36.641 84.6374C37.022 84.574 37.3395 84.1306 37.2125 83.7505" fill="#F5BC8E"/>
<path d="M51.9452 108.711C51.9452 108.711 49.532 123.218 49.278 125.436C49.0875 127.209 50.1036 128.476 51.3101 125.119C52.1357 122.838 57.4064 111.372 56.0093 107.697C54.6123 104.086 53.0882 107.317 53.0882 107.317L51.9452 108.711Z" fill="#FFE1BD"/>
<path d="M51.4372 97.8145C51.4372 97.8145 54.2948 102.946 55.9459 107.507C56.7079 109.661 53.8503 112.829 51.9452 108.964C49.7226 104.403 47.627 100.412 47.627 100.412" fill="#FFE1BD"/>
<path d="M52.1992 98.828C52.1356 98.8914 52.0721 98.9547 51.9451 99.0181C51.5641 99.3348 50.9291 99.7783 50.0401 100.348C49.9131 100.412 49.786 100.475 49.659 100.602C46.9284 102.122 45.4679 97.6244 45.4679 97.6244L45.0869 89.9589C45.0869 89.9589 46.4839 90.2123 48.8335 93.0631C48.9605 93.3798 51.0561 96.1673 52.1992 98.828Z" fill="#62C1C5"/>
<path d="M51.9452 99.018C51.5642 99.3348 50.9291 99.7783 50.0401 100.348L47.119 98.8913L47.5635 93.7599C47.5635 93.7599 48.9605 96.0405 49.5956 96.9274C50.3576 97.9411 51.2466 98.3212 51.9452 99.018Z" fill="#54AFAC"/>
<path d="M49.9765 107.507C47.7539 111.372 49.786 121.381 50.4845 126.766C50.4845 126.956 50.3575 127.146 50.167 127.209C46.4204 127.906 39.1811 128.857 34.2914 127.78C33.7833 127.653 33.2753 127.526 32.8943 127.463C32.0688 127.209 31.5607 127.019 31.1797 126.829C31.0527 126.766 30.9892 126.576 30.9892 126.449C31.0527 126.196 31.1162 125.942 31.1162 125.689C31.7513 122.268 32.1958 116.63 30.1637 108.331C28.7666 102.756 28.0681 96.3573 30.2272 92.9364C30.4177 92.6196 30.6717 92.3028 30.9892 91.9861C33.2753 89.7054 37.3395 89.3887 43.1817 89.6421C44.3248 89.7054 45.5313 90.3389 46.1029 90.8458C47.7539 92.2395 47.6269 97.3076 49.659 100.158C50.548 101.172 52.4531 103.199 49.9765 107.507Z" fill="#62C1C5"/>
<path d="M32.8943 127.399C31.8783 127.083 30.7353 126.893 30.6082 126.322C30.5447 125.309 31.1163 124.359 31.1798 124.042C31.8148 120.621 32.3228 116.503 30.2272 108.204C28.8302 102.629 28.1316 96.2306 30.2907 92.8096C30.6717 92.1761 31.4338 91.796 32.1958 91.796C32.5768 91.796 32.9578 91.796 33.4024 91.9227C33.0848 92.8096 32.6403 95.2803 32.6403 95.2803L35.498 95.9139C35.498 95.9139 36.1965 96.9275 34.4819 102.946C33.9104 104.466 33.4659 105.543 33.4024 106.874C33.2119 109.281 33.6564 114.286 33.6564 114.286C33.6564 114.286 33.4024 123.852 32.8943 127.399Z" fill="#54AFAC"/>
<path d="M34.1009 99.905L30.4177 109.788C29.2747 110.991 27.8776 111.752 26.6076 111.118C25.782 110.738 25.655 109.724 25.655 109.091C25.655 108.711 25.7185 108.521 25.7185 108.521C26.0995 106.367 26.6711 103.833 27.1791 101.742C27.3061 101.299 27.3696 100.855 27.4966 100.412C27.8776 98.9547 28.1316 97.8778 28.2586 97.4977C28.3221 97.371 28.3221 97.3076 28.3221 97.3076L34.1009 99.905Z" fill="#FFE1BD"/>
<path d="M29.9732 102.502L28.3857 105.733C28.3857 105.733 27.1156 106.367 27.6236 105.29C28.1316 104.213 28.0681 102.502 28.0681 102.502C27.6871 102.312 27.3696 101.996 27.1156 101.806C27.2426 101.362 27.3061 100.919 27.4331 100.475C27.8776 100.475 28.9572 100.475 28.9572 100.475C28.9572 100.539 29.9732 102.502 29.9732 102.502Z" fill="#FCD4A9"/>
<path d="M31.7513 91.2892C28.1316 92.9997 27.3696 97.1175 26.7346 101.299L33.0213 103.833C33.0213 103.833 38.3556 95.7238 35.0534 92.6829C33.7199 91.4159 33.0848 90.5923 31.7513 91.2892Z" fill="#62C1C5"/>
<path d="M40.8957 86.8547C40.9592 87.3615 41.3402 89.0086 41.5307 89.262C41.7847 89.5788 42.1657 89.5154 42.4832 89.5154C42.4832 90.8458 40.6417 92.0495 39.1176 91.7327C38.1016 91.5427 37.022 90.7191 36.641 89.7055C37.4665 89.072 37.4665 87.7416 37.4665 86.7913C37.4665 86.0945 37.5935 85.0808 37.3395 84.384" fill="#FFE1BD"/>
<path d="M39.7526 86.7913L35.9424 88.1217C35.6884 88.185 35.3709 88.0583 35.3074 87.8049L32.3863 79.3792C32.3228 79.1258 32.4498 78.809 32.7038 78.7457L36.514 77.4153C36.768 77.352 37.0855 77.4787 37.149 77.7321L40.0701 86.1578C40.1971 86.4112 40.0066 86.7279 39.7526 86.7913Z" fill="#97DEEF"/>
<path d="M29.7827 112.258C31.0528 112.068 33.3389 108.647 34.2279 105.1C36.006 98.2578 37.022 93.1898 37.4031 90.9725C37.5301 90.1489 37.5936 89.7688 37.5936 89.7688C37.5936 89.7688 35.117 88.9452 35.117 89.262C35.117 89.5154 35.117 89.8321 34.9265 90.1489C33.6564 92.5562 29.8462 99.5882 27.9412 104.846C27.8142 105.163 27.4331 105.353 27.1156 105.29C25.7186 106.05 25.7186 110.168 25.7186 110.168L25.9726 110.675C27.1791 112.449 28.8937 112.385 29.7827 112.258Z" fill="#FFE1BD"/>
<path d="M35.244 89.3254C35.244 89.3254 35.4345 87.995 34.7994 86.8547C34.1009 85.651 33.9104 83.9405 33.9104 83.9405C33.9104 83.9405 33.9739 81.0897 34.2279 80.8996C34.4184 80.6462 34.6089 81.1531 34.6724 81.5965C34.7359 81.9766 34.7359 83.6238 34.7994 84.0039C34.8629 84.4473 35.1805 85.0808 35.1805 85.0808C35.1805 85.0808 35.0534 82.8635 35.0534 82.1667C35.0534 81.5332 35.0534 80.7729 35.244 80.7729C35.5615 80.8363 35.752 81.5332 35.752 82.4201C35.752 83.307 36.1965 85.1442 36.1965 85.1442C36.1965 85.1442 36.133 83.4971 36.1965 82.9269C36.26 82.3567 36.3235 81.2798 36.4505 81.1531C36.5775 81.0264 36.9585 81.2798 36.9585 81.7866C36.9585 82.2934 37.0855 84.0039 37.149 84.5107C37.2125 85.0175 37.5301 85.3976 37.5301 85.3976C37.5301 85.3976 37.4666 84.6374 37.4666 83.8772C37.4666 83.0536 37.5936 82.1667 37.7206 82.1667C38.2286 82.1667 38.1016 84.574 38.2286 84.9541C38.8636 86.7913 37.8476 89.8955 37.8476 89.8955C37.8476 89.8955 36.387 91.2893 36.1965 91.3526C36.006 91.416 34.9264 91.5427 34.9264 91.5427L35.244 89.3254Z" fill="#FFE1BD"/>
<g opacity="0.5">
<g opacity="0.5">
<g opacity="0.5">
<path opacity="0.5" d="M54.8028 71.9037L51.3737 72.6006L53.4692 69.8765" fill="#389FE5"/>
</g>
<path opacity="0.5" d="M52.1357 67.5325C52.1357 70.6367 54.6758 73.1074 57.7239 73.1074C60.8356 73.1074 63.3122 70.5733 63.3122 67.5325C63.3122 64.4283 60.772 61.9576 57.7239 61.9576C54.6758 61.9576 52.1357 64.4283 52.1357 67.5325Z" fill="#389FE5"/>
</g>
</g>
<path d="M55.6283 67.5325C55.6283 67.9759 55.3108 68.2927 54.8663 68.2927C54.4218 68.2927 54.1042 67.9759 54.1042 67.5325C54.1042 67.089 54.4218 66.7723 54.8663 66.7723C55.3108 66.7723 55.6283 67.089 55.6283 67.5325Z" fill="white"/>
<path d="M57.7874 68.2927C58.2083 68.2927 58.5494 67.9523 58.5494 67.5325C58.5494 67.1126 58.2083 66.7723 57.7874 66.7723C57.3666 66.7723 57.0254 67.1126 57.0254 67.5325C57.0254 67.9523 57.3666 68.2927 57.7874 68.2927Z" fill="white"/>
<path d="M60.7085 68.2927C61.1294 68.2927 61.4705 67.9523 61.4705 67.5325C61.4705 67.1126 61.1294 66.7723 60.7085 66.7723C60.2876 66.7723 59.9465 67.1126 59.9465 67.5325C59.9465 67.9523 60.2876 68.2927 60.7085 68.2927Z" fill="white"/>
<g opacity="0.5">
<g opacity="0.5">
<path opacity="0.5" d="M2.15844 106.62C2.15844 107.127 1.71392 107.57 1.2059 107.57C0.697876 107.57 0.253357 107.127 0.253357 106.62C0.253357 106.113 0.697876 105.67 1.2059 105.67C1.71392 105.67 2.15844 106.113 2.15844 106.62Z" fill="#389FE5"/>
<path opacity="0.5" d="M94.365 29.5217C94.365 30.0286 93.9205 30.472 93.4124 30.472C92.9044 30.472 92.4599 30.0286 92.4599 29.5217C92.4599 29.0149 92.9044 28.5715 93.4124 28.5715C93.9205 28.5715 94.365 29.0149 94.365 29.5217Z" fill="#389FE5"/>
<path opacity="0.5" d="M132.086 0.950269C132.086 1.45708 131.641 1.90054 131.133 1.90054C130.625 1.90054 130.18 1.45708 130.18 0.950269C130.18 0.443459 130.625 0 131.133 0C131.641 0 132.086 0.443459 132.086 0.950269Z" fill="#389FE5"/>
<path opacity="0.5" d="M219.338 80.5195C219.338 81.0263 218.894 81.4697 218.386 81.4697C217.878 81.4697 217.433 81.0263 217.433 80.5195C217.433 80.0127 217.878 79.5692 218.386 79.5692C218.894 79.5692 219.338 80.0127 219.338 80.5195Z" fill="#389FE5"/>
</g>
<g opacity="0.5">
<g opacity="0.5">
<g opacity="0.5">
<path opacity="0.5" d="M14.161 60.6271C13.9705 60.6271 13.78 60.4371 13.78 60.247V57.5863C13.78 57.3962 13.9705 57.2062 14.161 57.2062C14.3516 57.2062 14.5421 57.3962 14.5421 57.5863V60.247C14.5421 60.5004 14.3516 60.6271 14.161 60.6271Z" fill="#389FE5"/>
</g>
<g opacity="0.5">
<path opacity="0.5" d="M15.4946 59.2968H12.8275C12.637 59.2968 12.4465 59.1067 12.4465 58.9167C12.4465 58.7266 12.637 58.5366 12.8275 58.5366H15.4946C15.6851 58.5366 15.8756 58.7266 15.8756 58.9167C15.8756 59.1067 15.6851 59.2968 15.4946 59.2968Z" fill="#389FE5"/>
</g>
</g>
<g opacity="0.5">
<g opacity="0.5">
<path opacity="0.5" d="M75.6952 94.4567C75.5047 94.4567 75.3141 94.2666 75.3141 94.0766V91.4158C75.3141 91.2258 75.5047 91.0357 75.6952 91.0357C75.8857 91.0357 76.0762 91.2258 76.0762 91.4158V94.0766C76.0762 94.2666 75.8857 94.4567 75.6952 94.4567Z" fill="#389FE5"/>
</g>
<g opacity="0.5">
<path opacity="0.5" d="M77.0287 93.1263H74.3616C74.1711 93.1263 73.9806 92.9362 73.9806 92.7462C73.9806 92.5561 74.1711 92.3661 74.3616 92.3661H77.0287C77.2192 92.3661 77.4097 92.5561 77.4097 92.7462C77.4097 92.9362 77.2192 93.1263 77.0287 93.1263Z" fill="#389FE5"/>
</g>
</g>
<g opacity="0.5">
<g opacity="0.5">
<path opacity="0.5" d="M174.188 40.6715C173.997 40.6715 173.807 40.4815 173.807 40.2914V37.6307C173.807 37.4406 173.997 37.2505 174.188 37.2505C174.378 37.2505 174.569 37.4406 174.569 37.6307V40.2914C174.569 40.5448 174.442 40.6715 174.188 40.6715Z" fill="#389FE5"/>
</g>
<g opacity="0.5">
<path opacity="0.5" d="M175.585 39.3411H172.918C172.727 39.3411 172.537 39.1511 172.537 38.961C172.537 38.771 172.727 38.5809 172.918 38.5809H175.585C175.775 38.5809 175.966 38.771 175.966 38.961C175.966 39.2144 175.775 39.3411 175.585 39.3411Z" fill="#389FE5"/>
</g>
</g>
<g opacity="0.5">
<g opacity="0.5">
<path opacity="0.5" d="M219.783 30.5353C219.592 30.5353 219.402 30.3452 219.402 30.1552V27.4944C219.402 27.3044 219.592 27.1143 219.783 27.1143C219.973 27.1143 220.164 27.3044 220.164 27.4944V30.1552C220.164 30.3452 219.973 30.5353 219.783 30.5353Z" fill="#389FE5"/>
</g>
<g opacity="0.5">
<path opacity="0.5" d="M221.116 29.1416H218.449C218.259 29.1416 218.068 28.9515 218.068 28.7615C218.068 28.5714 218.259 28.3813 218.449 28.3813H221.116C221.307 28.3813 221.497 28.5714 221.497 28.7615C221.497 29.0149 221.307 29.1416 221.116 29.1416Z" fill="#389FE5"/>
</g>
</g>
<g opacity="0.5">
<g opacity="0.5">
<path opacity="0.5" d="M209.749 124.105C209.559 124.105 209.368 123.915 209.368 123.725V121.064C209.368 120.874 209.559 120.684 209.749 120.684C209.94 120.684 210.13 120.874 210.13 121.064V123.725C210.13 123.915 209.94 124.105 209.749 124.105Z" fill="#389FE5"/>
</g>
<g opacity="0.5">
<path opacity="0.5" d="M211.083 122.775H208.416C208.225 122.775 208.035 122.585 208.035 122.395C208.035 122.205 208.225 122.015 208.416 122.015H211.083C211.273 122.015 211.464 122.205 211.464 122.395C211.464 122.585 211.273 122.775 211.083 122.775Z" fill="#389FE5"/>
</g>
</g>
<g opacity="0.5">
<g opacity="0.5">
<path opacity="0.5" d="M156.344 58.4099C156.153 58.4099 155.963 58.2198 155.963 58.0297V55.369C155.963 55.1789 156.153 54.9889 156.344 54.9889C156.534 54.9889 156.725 55.1789 156.725 55.369V58.0297C156.725 58.2831 156.534 58.4099 156.344 58.4099Z" fill="#389FE5"/>
</g>
<g opacity="0.5">
<path opacity="0.5" d="M157.677 57.0795H155.01C154.819 57.0795 154.629 56.8894 154.629 56.6994C154.629 56.5093 154.819 56.3193 155.01 56.3193H157.677C157.868 56.3193 158.058 56.5093 158.058 56.6994C158.058 56.9528 157.868 57.0795 157.677 57.0795Z" fill="#389FE5"/>
</g>
</g>
</g>
</g>
<path opacity="0.5" d="M71.4404 21.9195C70.6149 21.9195 69.8529 22.2996 69.2813 22.8698L66.9953 21.286C67.1223 21.0326 67.1858 20.7792 67.1858 20.5258C67.1858 19.4488 66.2967 18.5619 65.2172 18.5619C64.1376 18.5619 63.2486 19.4488 63.2486 20.5258C63.2486 21.6028 64.1376 22.4897 65.2172 22.4897C65.7252 22.4897 66.2332 22.2996 66.5507 21.9195L68.8368 23.5033C68.6463 23.8834 68.5193 24.3269 68.5193 24.8337C68.5193 25.5305 68.7733 26.164 69.1543 26.6709L67.9478 27.8745C67.6303 27.6845 67.3128 27.5578 66.8683 27.5578C65.7887 27.5578 64.8997 28.4447 64.8997 29.5217C64.8997 30.5986 65.7887 31.4856 66.8683 31.4856C67.9478 31.4856 68.8368 30.5986 68.8368 29.5217C68.8368 29.0782 68.7098 28.6981 68.4558 28.3813L69.6624 27.1777C70.1704 27.5578 70.7419 27.7478 71.3769 27.7478C72.9645 27.7478 74.2981 26.4808 74.2981 24.8337C74.3616 23.1865 73.0915 21.9195 71.4404 21.9195Z" fill="#389FE5"/>
<path d="M161.487 97.2442C161.487 97.2442 159.201 103.706 157.868 109.408C157.868 109.408 149.803 108.014 146.437 105.797L147.644 108.711L159.963 114.159L161.805 105.163V103.389L161.487 97.2442Z" fill="#F4CEA4"/>
<path d="M129.736 131.644C129.736 132.277 129.609 133.164 129.545 133.671C129.482 133.925 129.291 134.115 129.037 134.115L121.354 134.178C119.322 134.178 118.178 133.925 118.115 133.608C117.861 132.151 120.401 131.644 121.036 131.517C123.322 131.01 125.291 129.553 125.672 129.68C125.672 129.68 125.989 129.743 126.243 130.187C126.561 130.82 127.259 131.264 127.958 131.137C128.339 131.074 128.783 130.884 129.101 130.567C129.101 130.504 129.736 130.757 129.736 131.644Z" fill="#0B3247"/>
<path d="M149.93 110.421C150.057 110.295 150.184 110.231 150.311 110.105C151.327 109.154 153.105 109.344 153.867 109.661C159.963 111.942 179.84 121.001 179.967 121.825C180.157 123.472 179.014 125.752 177.744 127.653C176.347 129.743 173.553 130.504 171.33 129.3C165.742 126.322 155.772 122.141 151.39 119.607C151.327 119.671 151.263 119.734 151.2 119.734C151.136 119.734 151.073 119.861 151.009 119.987C149.93 121.191 148.596 122.141 147.199 122.901C143.008 125.119 134.118 129.68 130.117 131.264C130.054 131.137 129.927 130.82 129.863 130.694C128.783 128.603 127.958 127.653 127.958 127.653C127.958 127.653 144.596 114.032 149.93 110.421Z" fill="#0B3247"/>
<path d="M123.132 128.35C123.132 128.35 118.369 129.237 117.353 129.743C116.527 130.124 117.099 132.784 117.607 133.038C118.115 133.228 123.703 132.404 123.703 132.404" fill="#FFE1BD"/>
<path d="M116.972 133.925C116.337 134.051 115.384 134.178 114.876 134.178C114.686 134.178 114.495 134.051 114.432 133.861L113.797 131.01C113.797 131.01 113.543 129.807 113.352 128.983L112.717 126.259C112.273 124.295 112.273 123.092 112.59 122.965C113.987 122.395 115.067 124.802 115.321 125.372C116.337 127.526 118.179 129.11 118.115 129.49C118.115 129.49 118.115 129.807 117.798 130.124C117.289 130.63 116.972 131.327 117.289 131.961C117.48 132.341 117.671 132.721 118.052 132.911C117.988 133.038 117.861 133.735 116.972 133.925Z" fill="#153A4F"/>
<path d="M121.163 128.666C121.163 128.666 142.754 122.775 148.025 121.635C148.152 121.571 148.85 121.508 149.612 121.381C149.612 121.381 146.437 123.155 146.437 126.829C146.437 129.553 149.866 129.87 150.882 129.997C148.596 129.87 147.39 130.187 144.596 131.01C144.342 131.074 144.151 131.137 143.961 131.201C143.897 131.264 143.77 131.264 143.707 131.327C136.023 134.431 128.402 132.468 121.735 132.848C121.417 132.468 121.163 131.961 121.036 131.201C120.719 129.173 121.163 128.666 121.163 128.666Z" fill="#1D445E"/>
<path d="M145.675 127.653C145.548 123.028 149.549 121.381 149.549 121.381C151.136 121.444 179.459 123.915 179.903 124.802C180.602 126.322 180.221 128.793 179.649 131.01C179.014 133.481 175.331 134.875 172.791 134.938C163.202 134.938 145.739 130.44 145.675 127.653Z" fill="#1D445E"/>
<path d="M163.075 113.779C163.138 112.258 163.138 110.611 162.884 108.837C162.313 105.29 160.789 102.692 160.471 100.158C160.281 98.5746 160.916 93.4431 161.233 92.4295C161.995 90.2122 163.329 88.9452 163.329 88.9452C165.297 87.6782 176.093 91.796 179.776 103.009C183.459 114.222 181.745 128.793 180.665 130.504C179.586 132.214 175.14 128.54 171.457 126.576C167.774 124.612 163.837 125.309 162.884 122.015C162.884 122.015 161.805 118.784 162.122 115.489C162.249 114.666 162.694 114.096 163.075 113.779Z" fill="#62C1C5"/>
<path d="M142.754 103.263C142.754 103.263 142.309 103.263 142.246 103.579C142.182 103.896 142.754 105.733 143.135 105.987C143.516 106.24 145.231 106.684 145.612 106.557C145.993 106.43 145.612 106.05 145.612 106.05L142.754 103.263Z" fill="#F4CEA4"/>
<path d="M168.981 95.597C168.981 95.597 171.203 100.285 168.536 108.457H167.901C167.901 108.457 166.377 115.489 162.63 119.227L163.9 109.978L168.981 95.597Z" fill="#54AFAC"/>
<path d="M137.737 99.8416L146.056 106.62C146.247 106.81 146.564 106.747 146.755 106.557C146.945 106.367 146.882 106.05 146.691 105.86L138.372 99.0814C138.182 98.8913 137.864 98.9547 137.674 99.1447C137.547 99.3348 137.547 99.6515 137.737 99.8416Z" fill="#97DEEF"/>
<path d="M142.691 106.177C142.754 106.303 142.945 106.494 143.135 106.747C144.024 107.57 145.802 108.711 145.802 108.711C149.866 112.068 159.582 121.128 161.868 120.177C163.646 119.481 166.631 111.055 167.901 104.023C168.282 101.996 168.473 100.095 168.473 98.5112C168.409 92.9363 165.552 92.8096 165.552 92.8096C161.741 91.9861 159.519 113.082 159.519 113.082C156.471 111.942 150.565 109.091 148.088 107.824C148.088 107.824 147.326 107.317 147.136 106.557C146.945 105.797 145.929 104.593 145.421 104.023C144.913 103.453 144.913 104.086 145.104 104.656C145.294 105.226 145.802 105.923 145.866 106.05C145.929 106.177 145.421 106.303 144.786 106.177C144.088 106.05 143.389 105.543 143.262 105.353C143.199 105.226 142.564 103.389 142.246 103.389C141.802 103.453 142.437 105.607 142.691 106.177Z" fill="#FFE1BD"/>
<path d="M143.135 106.747C144.024 107.57 145.802 108.711 145.802 108.711C149.866 112.068 159.582 121.128 161.868 120.177C163.646 119.481 166.631 111.055 167.901 104.023L167.266 103.389L166.758 105.163C166.758 105.163 163.265 118.974 161.36 119.29C159.455 119.544 146.12 108.394 145.358 108.014C144.659 107.57 143.326 106.81 143.135 106.747Z" fill="#FCD4A9"/>
<path d="M168.536 106.494C168.536 106.494 161.868 105.163 160.154 104.023C160.535 100.792 161.995 92.7463 165.615 92.4929C169.235 92.2394 170.822 99.7783 168.536 106.494Z" fill="#62C1C5"/>
<path d="M162.249 94.8369C161.868 96.3573 161.487 97.8778 161.17 99.3982C160.979 100.158 160.852 100.919 160.662 101.679C160.535 102.439 160.408 103.199 160.344 103.96L160.281 103.769C160.662 103.96 161.106 104.213 161.551 104.403C161.995 104.593 162.44 104.783 162.884 104.91C163.773 105.227 164.662 105.543 165.615 105.733C164.662 105.607 163.71 105.417 162.821 105.1C161.932 104.846 161.043 104.466 160.154 104.023L160.027 103.96V103.833C160.09 103.073 160.217 102.249 160.344 101.489C160.471 100.729 160.662 99.9684 160.852 99.2082C161.233 97.8144 161.678 96.294 162.249 94.8369Z" fill="#47A59E"/>
<path d="M165.742 88.9452C165.679 89.1986 165.552 89.452 165.425 89.7055C164.345 91.606 161.233 92.4295 161.233 92.4295C161.233 92.4295 161.487 91.4793 160.217 89.7055C158.757 90.8458 157.233 91.6693 156.153 91.4793C155.201 90.9091 154.375 90.2123 153.55 89.3253C153.168 89.5154 152.406 89.8322 152.089 89.452C151.771 89.0719 151.644 87.3615 151.581 86.7279C151.581 86.7279 151.581 86.6646 151.517 86.6646C151.39 86.2211 150.628 84.9541 150.501 84.8274C149.295 83.8138 149.485 82.9269 149.485 82.9269C149.485 82.9269 151.2 78.619 151.454 78.4923C151.708 78.3656 157.36 75.5148 157.55 75.5781C157.804 75.5781 161.805 78.2389 163.329 81.9766C163.9 83.4337 163.9 84.6374 163.71 85.5876C163.773 85.7143 164.535 88.3751 165.742 88.9452Z" fill="#FFE1BD"/>
<path d="M165.425 89.7688C164.345 91.6694 161.233 92.493 161.233 92.493C161.233 92.493 161.487 91.5427 160.217 89.7688C160.217 89.7688 161.297 88.3751 161.551 87.2348L162.503 91.2893C162.567 91.2259 164.599 90.9725 165.425 89.7688Z" fill="#FCD4A9"/>
<path d="M149.612 83.0536C151.835 83.8771 156.471 81.3431 157.423 81.7232C158.376 82.1033 159.074 84.1305 159.455 84.1305C159.9 84.1305 159.646 83.497 159.519 82.7368C159.392 82.23 159.392 81.0263 160.535 80.8996C162.376 80.7729 161.741 82.8001 162.376 84.0672C163.519 86.2211 163.837 85.7143 163.837 85.7143C165.488 81.5965 163.583 72.9807 157.614 74.121C157.614 74.121 155.836 73.044 153.74 73.6142C153.74 73.6142 153.74 73.6142 153.676 73.6142C150.184 74.6278 150.184 77.2886 149.295 77.8587C148.279 78.5556 147.707 77.6687 147.707 77.6687C146.183 80.076 147.39 82.23 149.612 83.0536Z" fill="#2C1E56"/>
<path opacity="0.2" d="M140.214 92.9998H85.6652C85.1571 92.9998 84.7761 92.6197 84.7761 92.1128V80.7096C84.7761 80.2028 85.1571 79.8227 85.6652 79.8227H140.214C140.722 79.8227 141.103 80.2028 141.103 80.7096V92.1128C141.103 92.6197 140.722 92.9998 140.214 92.9998Z" fill="#5FB0E7"/>
<path d="M138.753 91.606H84.6491C84.0141 91.606 83.506 91.0992 83.506 90.4657V79.5059C83.506 78.8724 84.0141 78.3656 84.6491 78.3656H138.753C139.388 78.3656 139.896 78.8724 139.896 79.5059V90.4657C139.833 91.0992 139.388 91.606 138.753 91.606Z" fill="#8FD7F7"/>
<path d="M133.165 87.2348H90.2373C88.9673 87.2348 87.9512 86.2212 87.9512 84.9542C87.9512 83.6871 88.9673 82.6735 90.2373 82.6735H133.165C134.435 82.6735 135.451 83.6871 135.451 84.9542C135.451 86.2212 134.435 87.2348 133.165 87.2348Z" fill="white"/>
<path d="M130.435 89.9589C133.205 89.9589 135.451 87.7182 135.451 84.9542C135.451 82.1901 133.205 79.9494 130.435 79.9494C127.664 79.9494 125.418 82.1901 125.418 84.9542C125.418 87.7182 127.664 89.9589 130.435 89.9589Z" fill="white"/>
<path d="M90.6183 86.2845C90.4913 86.2845 90.3643 86.1578 90.3643 86.0311V83.9405C90.3643 83.8138 90.4913 83.6871 90.6183 83.6871C90.7453 83.6871 90.8723 83.8138 90.8723 83.9405V86.0311C90.8723 86.1578 90.7453 86.2845 90.6183 86.2845Z" fill="#97DEEF"/>
<path d="M132.53 86.6647L131.578 85.8411C131.832 85.5243 131.959 85.1442 131.959 84.7008C131.959 83.6872 131.133 82.8636 130.117 82.8636C129.101 82.8636 128.275 83.6872 128.275 84.7008C128.275 85.7144 129.101 86.538 130.117 86.538C130.562 86.538 130.943 86.4113 131.26 86.1579L132.213 86.9814C132.276 87.0448 132.34 87.0448 132.34 87.0448C132.403 87.0448 132.467 87.0448 132.53 86.9814C132.594 86.9181 132.594 86.728 132.53 86.6647ZM130.117 86.0945C129.355 86.0945 128.72 85.461 128.72 84.7008C128.72 83.9406 129.355 83.307 130.117 83.307C130.879 83.307 131.514 83.9406 131.514 84.7008C131.514 85.461 130.879 86.0945 130.117 86.0945Z" fill="#8FD7F7"/>
<path d="M133.483 91.1626L136.023 94.5202V90.8458" fill="#8FD7F7"/>
</g>
<defs>
<clipPath id="clip0">
<rect width="285" height="200" fill="white"/>
</clipPath>
</defs>
</svg>
