<svg id="e2bwgfwxozjd1" xmlns="http://www.w3.org/2000/svg" xmlns:xlink="http://www.w3.org/1999/xlink" viewBox="0 0 1440 565" shape-rendering="geometricPrecision" text-rendering="geometricPrecision"><style><![CDATA[#e2bwgfwxozjd6_to {animation: e2bwgfwxozjd6_to__to 6000ms linear infinite normal forwards}@keyframes e2bwgfwxozjd6_to__to { 0% {transform: translate(0px,0px)} 50% {transform: translate(30px,0px)} 100% {transform: translate(0px,0px)} }#e2bwgfwxozjd7_to {animation: e2bwgfwxozjd7_to__to 6000ms linear infinite normal forwards}@keyframes e2bwgfwxozjd7_to__to { 0% {transform: translate(0px,0px)} 50% {transform: translate(30px,0px)} 100% {transform: translate(0px,0px)} }#e2bwgfwxozjd8_to {animation: e2bwgfwxozjd8_to__to 6000ms linear infinite normal forwards}@keyframes e2bwgfwxozjd8_to__to { 0% {transform: translate(0px,0px)} 50% {transform: translate(30px,0px)} 100% {transform: translate(0px,0px)} }#e2bwgfwxozjd9_to {animation: e2bwgfwxozjd9_to__to 6000ms linear infinite normal forwards}@keyframes e2bwgfwxozjd9_to__to { 0% {transform: translate(0px,0px)} 50% {transform: translate(31px,0px)} 100% {transform: translate(0px,0px)} }#e2bwgfwxozjd144_tr {animation: e2bwgfwxozjd144_tr__tr 6000ms linear infinite normal forwards}@keyframes e2bwgfwxozjd144_tr__tr { 0% {transform: translate(1289.500000px,375.444992px) rotate(0deg)} 50% {transform: translate(1289.500000px,375.444992px) rotate(180deg)} 100% {transform: translate(1289.500000px,375.444992px) rotate(360deg)} }]]></style><defs><clipPath id="e2bwgfwxozjd2"><rect id="e2bwgfwxozjd3" width="132" height="123" rx="0" ry="0" transform="matrix(1 0 0 1 173 410)" fill="rgb(255,255,255)" stroke="none" stroke-width="1"/></clipPath></defs><path id="e2bwgfwxozjd4" d="M-714,500.343000C-323.531000,544.310000,-180.413000,442.128000,160.251000,500.343000C312.784000,526.409000,725.341000,381.819000,1056,500.343000L1056,565L-714,565L-714,500.343000Z" fill="rgb(189,222,122)" stroke="none" stroke-width="1"/><path id="e2bwgfwxozjd5" d="M1330.590000,435.578000L1331.830000,435.578000L1331.830000,441.930000C1331.830000,443.102000,1331.790000,444.161000,1331.720000,445.109000L1331.780000,445.109000L1338.190000,435.578000L1339.640000,435.578000L1339.640000,447L1338.390000,447L1338.390000,440.711000C1338.390000,439.664000,1338.430000,438.565000,1338.520000,437.414000L1338.450000,437.414000L1332.040000,447L1330.590000,447L1330.590000,435.578000ZM1343.880000,438.438000L1343.880000,442.023000L1348.670000,442.023000L1348.670000,438.438000L1349.970000,438.438000L1349.970000,447L1348.670000,447L1348.670000,443.141000L1343.880000,443.141000L1343.880000,447L1342.580000,447L1342.580000,438.438000L1343.880000,438.438000ZM1358.490000,439.547000L1355.710000,439.547000L1355.710000,447L1354.410000,447L1354.410000,439.547000L1351.660000,439.547000L1351.660000,438.438000L1358.490000,438.438000L1358.490000,439.547000ZM1363.800000,447.156000C1362.540000,447.156000,1361.540000,446.771000,1360.800000,446C1360.080000,445.229000,1359.710000,444.159000,1359.710000,442.789000C1359.710000,441.409000,1360.050000,440.312000,1360.730000,439.500000C1361.410000,438.688000,1362.320000,438.281000,1363.470000,438.281000C1364.540000,438.281000,1365.390000,438.635000,1366.020000,439.344000C1366.640000,440.047000,1366.950000,440.977000,1366.950000,442.133000L1366.950000,442.953000L1361.050000,442.953000C1361.080000,443.958000,1361.330000,444.721000,1361.810000,445.242000C1362.300000,445.763000,1362.980000,446.023000,1363.850000,446.023000C1364.770000,446.023000,1365.680000,445.831000,1366.590000,445.445000L1366.590000,446.602000C1366.130000,446.799000,1365.690000,446.940000,1365.280000,447.023000C1364.880000,447.112000,1364.380000,447.156000,1363.800000,447.156000ZM1363.450000,439.367000C1362.770000,439.367000,1362.220000,439.591000,1361.800000,440.039000C1361.400000,440.487000,1361.160000,441.107000,1361.090000,441.898000L1365.560000,441.898000C1365.560000,441.081000,1365.380000,440.456000,1365.020000,440.023000C1364.650000,439.586000,1364.130000,439.367000,1363.450000,439.367000ZM1373.160000,447.156000C1372.600000,447.156000,1372.090000,447.055000,1371.620000,446.852000C1371.170000,446.643000,1370.780000,446.326000,1370.470000,445.898000L1370.380000,445.898000C1370.440000,446.398000,1370.470000,446.872000,1370.470000,447.320000L1370.470000,450.844000L1369.170000,450.844000L1369.170000,438.438000L1370.230000,438.438000L1370.410000,439.609000L1370.470000,439.609000C1370.800000,439.141000,1371.190000,438.802000,1371.630000,438.594000C1372.080000,438.385000,1372.580000,438.281000,1373.160000,438.281000C1374.290000,438.281000,1375.170000,438.669000,1375.780000,439.445000C1376.400000,440.221000,1376.710000,441.310000,1376.710000,442.711000C1376.710000,444.117000,1376.400000,445.211000,1375.770000,445.992000C1375.140000,446.768000,1374.270000,447.156000,1373.160000,447.156000ZM1372.970000,439.383000C1372.090000,439.383000,1371.460000,439.625000,1371.070000,440.109000C1370.680000,440.594000,1370.480000,441.365000,1370.470000,442.422000L1370.470000,442.711000C1370.470000,443.914000,1370.670000,444.776000,1371.070000,445.297000C1371.470000,445.812000,1372.110000,446.070000,1373,446.070000C1373.740000,446.070000,1374.320000,445.771000,1374.730000,445.172000C1375.160000,444.573000,1375.370000,443.747000,1375.370000,442.695000C1375.370000,441.628000,1375.160000,440.810000,1374.730000,440.242000C1374.320000,439.669000,1373.730000,439.383000,1372.970000,439.383000ZM1380.280000,438.438000L1380.280000,442.023000L1385.080000,442.023000L1385.080000,438.438000L1386.380000,438.438000L1386.380000,447L1385.080000,447L1385.080000,443.141000L1380.280000,443.141000L1380.280000,447L1378.980000,447L1378.980000,438.438000L1380.280000,438.438000ZM1392.740000,447.156000C1391.480000,447.156000,1390.480000,446.771000,1389.740000,446C1389.010000,445.229000,1388.650000,444.159000,1388.650000,442.789000C1388.650000,441.409000,1388.990000,440.312000,1389.660000,439.500000C1390.350000,438.688000,1391.260000,438.281000,1392.410000,438.281000C1393.480000,438.281000,1394.330000,438.635000,1394.950000,439.344000C1395.580000,440.047000,1395.890000,440.977000,1395.890000,442.133000L1395.890000,442.953000L1389.990000,442.953000C1390.020000,443.958000,1390.270000,444.721000,1390.750000,445.242000C1391.230000,445.763000,1391.910000,446.023000,1392.790000,446.023000C1393.710000,446.023000,1394.620000,445.831000,1395.520000,445.445000L1395.520000,446.602000C1395.070000,446.799000,1394.630000,446.940000,1394.220000,447.023000C1393.810000,447.112000,1393.320000,447.156000,1392.740000,447.156000ZM1392.390000,439.367000C1391.700000,439.367000,1391.150000,439.591000,1390.740000,440.039000C1390.340000,440.487000,1390.100000,441.107000,1390.020000,441.898000L1394.500000,441.898000C1394.500000,441.081000,1394.320000,440.456000,1393.950000,440.023000C1393.590000,439.586000,1393.070000,439.367000,1392.390000,439.367000ZM1403.880000,439.547000L1401.100000,439.547000L1401.100000,447L1399.800000,447L1399.800000,439.547000L1397.050000,439.547000L1397.050000,438.438000L1403.880000,438.438000L1403.880000,439.547000ZM1413.950000,447L1412.680000,447L1412.680000,438.859000C1412.680000,438.182000,1412.700000,437.542000,1412.740000,436.938000C1412.630000,437.047000,1412.510000,437.161000,1412.380000,437.281000C1412.240000,437.401000,1411.620000,437.909000,1410.520000,438.805000L1409.830000,437.914000L1412.850000,435.578000L1413.950000,435.578000L1413.950000,447ZM1425.870000,441.273000C1425.870000,443.247000,1425.550000,444.721000,1424.930000,445.695000C1424.310000,446.669000,1423.360000,447.156000,1422.080000,447.156000C1420.850000,447.156000,1419.910000,446.659000,1419.270000,445.664000C1418.630000,444.664000,1418.310000,443.201000,1418.310000,441.273000C1418.310000,439.284000,1418.620000,437.807000,1419.240000,436.844000C1419.860000,435.880000,1420.810000,435.398000,1422.080000,435.398000C1423.320000,435.398000,1424.260000,435.901000,1424.900000,436.906000C1425.540000,437.911000,1425.870000,439.367000,1425.870000,441.273000ZM1419.620000,441.273000C1419.620000,442.935000,1419.820000,444.146000,1420.210000,444.906000C1420.600000,445.661000,1421.220000,446.039000,1422.080000,446.039000C1422.940000,446.039000,1423.570000,445.656000,1423.950000,444.891000C1424.340000,444.120000,1424.540000,442.914000,1424.540000,441.273000C1424.540000,439.633000,1424.340000,438.432000,1423.950000,437.672000C1423.570000,436.906000,1422.940000,436.523000,1422.080000,436.523000C1421.220000,436.523000,1420.600000,436.901000,1420.210000,437.656000C1419.820000,438.406000,1419.620000,439.612000,1419.620000,441.273000ZM1435.020000,441.273000C1435.020000,443.247000,1434.710000,444.721000,1434.090000,445.695000C1433.470000,446.669000,1432.520000,447.156000,1431.230000,447.156000C1430.010000,447.156000,1429.070000,446.659000,1428.430000,445.664000C1427.790000,444.664000,1427.470000,443.201000,1427.470000,441.273000C1427.470000,439.284000,1427.780000,437.807000,1428.400000,436.844000C1429.020000,435.880000,1429.960000,435.398000,1431.230000,435.398000C1432.470000,435.398000,1433.410000,435.901000,1434.050000,436.906000C1434.700000,437.911000,1435.020000,439.367000,1435.020000,441.273000ZM1428.780000,441.273000C1428.780000,442.935000,1428.980000,444.146000,1429.370000,444.906000C1429.760000,445.661000,1430.380000,446.039000,1431.230000,446.039000C1432.100000,446.039000,1432.720000,445.656000,1433.110000,444.891000C1433.500000,444.120000,1433.700000,442.914000,1433.700000,441.273000C1433.700000,439.633000,1433.500000,438.432000,1433.110000,437.672000C1432.720000,436.906000,1432.100000,436.523000,1431.230000,436.523000C1430.380000,436.523000,1429.760000,436.901000,1429.370000,437.656000C1428.980000,438.406000,1428.780000,439.612000,1428.780000,441.273000Z" fill="rgb(0,0,0)" stroke="none" stroke-width="1"/><g id="e2bwgfwxozjd6_to" transform="translate(0,0)"><path id="e2bwgfwxozjd6" d="M1359.460000,16.487000L1350.530000,16.487000C1349.040000,16.487000,1347.920000,17.602200,1347.920000,19.089200C1347.920000,20.947900,1349.040000,22.063200,1350.530000,22.063200L1359.460000,22.063200C1360.950000,22.063200,1362.060000,20.947900,1362.060000,19.089200C1362.060000,17.602200,1360.950000,16.487000,1359.460000,16.487000ZM1245.980000,35.817800L1262.720000,35.817800C1261.970000,34.330800,1261.970000,33.215600,1261.970000,31.728600C1261.970000,26.524100,1266.070000,22.434900,1271.280000,22.434900L1281.320000,22.434900C1281.320000,22.063200,1281.320000,21.691400,1281.320000,21.319700C1281.320000,17.974000,1284.300000,15,1287.650000,15L1336.390000,15C1340.110000,15,1342.710000,17.974000,1342.710000,21.319700C1342.710000,21.691400,1342.710000,22.434900,1342.710000,22.806700C1346.810000,23.921900,1349.410000,27.267600,1349.410000,31.728600C1349.410000,36.933100,1345.320000,41.022300,1340.110000,41.022300L1302.530000,41.022300C1302.160000,41.022300,1301.790000,41.394000,1301.410000,41.394000L1245.980000,41.394000C1244.490000,41.394000,1243,39.907000,1243,38.420000C1243,36.933100,1244.490000,35.817800,1245.980000,35.817800ZM1235.190000,35.817800L1229.980000,35.817800C1228.490000,35.817800,1227,36.933100,1227,38.420000C1227,39.907000,1228.490000,41.394000,1229.980000,41.394000L1235.190000,41.394000C1236.670000,41.394000,1237.790000,39.907000,1237.790000,38.420000C1237.790000,36.933100,1236.670000,35.817800,1235.190000,35.817800Z" transform="translate(0,0)" clip-rule="evenodd" fill="rgb(230,251,255)" fill-opacity="0.5" fill-rule="evenodd" stroke="none" stroke-width="1"/></g><g id="e2bwgfwxozjd7_to" transform="translate(0,0)"><path id="e2bwgfwxozjd7" d="M1316.810000,294.781000L1325.740000,294.781000C1325.740000,294.781000,1325.740000,294.409000,1325.740000,294.037000C1325.740000,291.063000,1327.980000,288.833000,1330.950000,288.833000L1365.180000,288.833000C1364.810000,288.461000,1364.810000,287.717000,1364.810000,287.346000C1364.810000,285.487000,1366.300000,284,1368.530000,284L1377.460000,284C1379.320000,284,1380.810000,285.487000,1380.810000,287.346000C1380.810000,289.204000,1379.320000,291.063000,1377.460000,291.063000L1377.090000,291.063000C1377.830000,291.807000,1378.200000,292.922000,1378.200000,294.037000C1378.200000,294.409000,1378.200000,294.781000,1378.200000,295.152000C1381.550000,296.268000,1383.790000,299.242000,1383.790000,302.959000C1383.790000,303.703000,1383.790000,304.446000,1383.790000,305.190000L1393.460000,305.190000C1394.950000,305.190000,1396.060000,306.305000,1396.060000,307.792000C1396.060000,309.279000,1394.950000,310.766000,1393.460000,310.766000L1377.460000,310.766000C1377.090000,310.766000,1376.340000,310.766000,1375.970000,310.766000L1316.810000,310.766000C1312.350000,310.766000,1309,307.420000,1309,302.959000C1309,298.498000,1312.350000,294.781000,1316.810000,294.781000ZM1410.200000,305.190000L1403.130000,305.190000C1401.650000,305.190000,1400.160000,306.305000,1400.160000,307.792000C1400.160000,309.279000,1401.650000,310.766000,1403.130000,310.766000L1410.200000,310.766000C1411.690000,310.766000,1413.180000,309.279000,1413.180000,307.792000C1413.180000,306.305000,1411.690000,305.190000,1410.200000,305.190000Z" transform="translate(0,0)" clip-rule="evenodd" fill="rgb(230,251,255)" fill-opacity="0.5" fill-rule="evenodd" stroke="none" stroke-width="1"/></g><g id="e2bwgfwxozjd8_to" transform="translate(0,0)"><path id="e2bwgfwxozjd8" d="M905.207000,27.137500L907.811000,27.137500C907.067000,25.650500,906.695000,24.163500,906.695000,22.676500C906.695000,17.843800,910.788000,13.754600,915.625000,13.754600L926.787000,13.754600C929.764000,5.576200,937.577000,0,946.879000,0C955.808000,0,963.622000,5.576200,966.598000,13.754600L979.993000,13.754600C984.830000,13.754600,988.923000,17.843800,988.923000,22.676500C988.923000,24.163500,988.178000,25.650500,987.434000,27.137500L1006.040000,27.137500C1011.990000,27.137500,1016.830000,31.970200,1016.830000,37.546400C1016.830000,43.494400,1011.990000,47.955300,1006.040000,47.955300L921.950000,47.955300C921.950000,48.327100,921.578000,48.327100,921.206000,48.327100L881.395000,48.327100C880.278000,48.327100,879.534000,47.211800,879.534000,46.096600C879.534000,44.981300,880.278000,44.237900,881.395000,44.237900L897.021000,44.237900C895.905000,42.379100,894.789000,40.148600,894.789000,37.546400C894.789000,31.970200,899.626000,27.137500,905.207000,27.137500ZM873.581000,44.237900L869.860000,44.237900C868.744000,44.237900,868,44.981300,868,46.096600C868,47.211800,868.744000,48.327100,869.860000,48.327100L873.581000,48.327100C874.697000,48.327100,875.813000,47.211800,875.813000,46.096600C875.813000,44.981300,874.697000,44.237900,873.581000,44.237900Z" transform="translate(0,0)" clip-rule="evenodd" fill="rgb(230,251,255)" fill-opacity="0.5" fill-rule="evenodd" stroke="none" stroke-width="1"/></g><g id="e2bwgfwxozjd9_to" transform="translate(0,0)"><path id="e2bwgfwxozjd9" d="M9.463830,184.420000L31.788000,184.420000C31.415900,183.677000,31.043900,182.561000,31.043900,181.818000C31.043900,178.100000,34.020400,175.498000,37.369100,175.498000L49.275300,175.498000C50.391500,167.320000,57.460800,161,65.646300,161C74.203900,161,80.901200,167.320000,82.017400,175.498000L83.133600,175.498000C86.482200,175.498000,89.458800,178.100000,89.458800,181.818000C89.458800,182.561000,89.086700,183.677000,88.714700,184.420000L89.830900,184.420000C93.923600,184.420000,96.900200,187.766000,96.900200,191.855000C96.900200,195.572000,93.923600,198.918000,89.830900,198.918000L29.183500,198.918000C28.811500,198.918000,28.439400,199.290000,28.067300,199.290000L-0.209980,199.290000C-1.698260,199.290000,-2.814470,198.175000,-2.814470,196.688000C-2.814470,195.201000,-1.698260,194.085000,-0.209980,194.085000L2.766580,194.085000C2.394510,193.342000,2.394510,192.598000,2.394510,191.855000C2.394510,187.766000,5.371070,184.420000,9.463830,184.420000ZM-7.279300,194.085000L-8.395510,194.085000C-9.883790,194.085000,-11,195.201000,-11,196.688000C-11,198.175000,-9.883790,199.290000,-8.395510,199.290000L-7.279300,199.290000C-6.163090,199.290000,-5.046890,198.175000,-5.046890,196.688000C-5.046890,195.201000,-6.163090,194.085000,-7.279300,194.085000Z" transform="translate(0,0)" clip-rule="evenodd" fill="rgb(230,251,255)" fill-opacity="0.5" fill-rule="evenodd" stroke="none" stroke-width="1"/></g><path id="e2bwgfwxozjd10" d="M-22,476.017000C387,536.525000,531,517,895,457.776000C1181.950000,411.087000,1487,344.322000,1832,476.017000L1832,565L-22,565L-22,476.017000Z" fill="rgb(150,200,71)" stroke="none" stroke-width="1"/><path id="e2bwgfwxozjd11" d="M1209.140000,448.217000L1208.370000,445.832000C1208.460000,445.746000,1208.540000,445.746000,1208.710000,445.661000C1209.310000,445.406000,1211.350000,445.661000,1211.350000,445.661000C1212.380000,445.661000,1213.140000,445.576000,1213.140000,444.554000L1213.140000,444.468000C1213.140000,443.446000,1212.200000,443.276000,1211.180000,443.191000C1209.730000,443.105000,1206.160000,442.594000,1205.560000,442.594000C1204.710000,442.594000,1203.940000,443.105000,1203.510000,443.702000C1203.260000,444.042000,1203,444.468000,1203,444.980000C1203,446.258000,1203.860000,446.854000,1205.560000,446.854000C1205.990000,446.854000,1206.330000,446.769000,1206.750000,446.598000L1207.430000,448.728000C1207.520000,448.388000,1208.800000,447.962000,1209.140000,448.217000Z" fill="rgb(51,51,51)" stroke="none" stroke-width="1"/><path id="e2bwgfwxozjd12" d="M1241.680000,453.925000C1239.130000,453.925000,1236.660000,454.607000,1234.530000,455.800000C1234.780000,456.311000,1235.040000,456.822000,1235.290000,457.333000C1237.170000,456.311000,1239.300000,455.629000,1241.600000,455.629000C1248.670000,455.629000,1254.380000,461.338000,1254.380000,468.409000C1254.380000,475.481000,1248.670000,481.189000,1241.600000,481.189000C1234.530000,481.189000,1228.820000,475.481000,1228.820000,468.409000C1228.820000,464.320000,1230.780000,460.656000,1233.850000,458.271000C1233.590000,457.759000,1233.250000,457.248000,1232.990000,456.652000C1229.410000,459.293000,1227.030000,463.553000,1227.030000,468.324000C1227.030000,476.333000,1233.500000,482.808000,1241.510000,482.808000C1249.520000,482.808000,1256,476.333000,1256,468.324000C1256.170000,460.486000,1249.690000,453.925000,1241.680000,453.925000Z" fill="rgb(51,51,51)" stroke="none" stroke-width="1"/><path id="e2bwgfwxozjd13" d="M1241.680000,470.880000C1243.050000,470.880000,1244.150000,469.772000,1244.150000,468.409000C1244.150000,467.046000,1243.050000,465.938000,1241.680000,465.938000C1241.430000,465.938000,1241.170000,466.024000,1240.920000,466.109000C1241.430000,466.790000,1241.850000,467.302000,1242.190000,467.642000C1242.540000,467.983000,1242.540000,468.579000,1242.190000,468.920000C1242.020000,469.091000,1241.770000,469.176000,1241.600000,469.176000C1241.340000,469.176000,1241.170000,469.091000,1241,468.920000C1240.660000,468.579000,1240.230000,467.983000,1239.640000,467.216000C1239.470000,467.557000,1239.300000,467.983000,1239.300000,468.409000C1239.210000,469.857000,1240.320000,470.880000,1241.680000,470.880000Z" fill="rgb(51,51,51)" stroke="none" stroke-width="1"/><path id="e2bwgfwxozjd14" d="M1196.100000,467.557000L1196.610000,467.557000C1196.530000,467.387000,1196.530000,467.302000,1196.440000,467.131000L1196.100000,467.557000Z" fill="rgb(51,51,51)" stroke="none" stroke-width="1"/><path id="e2bwgfwxozjd15" d="M1215.780000,468.835000C1215.530000,469.176000,1214.850000,469.176000,1214.850000,469.176000L1210.760000,469.176000C1211.100000,470.880000,1212.460000,472.243000,1214.250000,472.499000L1208.540000,471.987000C1208.800000,471.050000,1208.880000,470.113000,1208.970000,469.176000L1207.180000,469.176000C1207.090000,470.113000,1207.010000,471.050000,1206.750000,471.902000L1205.560000,471.817000L1194.480000,470.880000C1195.590000,470.880000,1196.440000,470.198000,1196.780000,469.261000L1194.480000,469.261000C1194.140000,469.261000,1193.890000,469.176000,1193.720000,468.835000C1193.550000,468.494000,1193.630000,468.239000,1193.800000,467.983000L1195.250000,466.109000C1194.990000,466.024000,1194.740000,466.024000,1194.480000,466.024000L1195.420000,465.938000L1196.360000,464.660000L1194.400000,464.831000C1192.440000,464.831000,1190.820000,466.450000,1190.820000,468.409000C1190.820000,470.369000,1192.440000,471.987000,1194.400000,472.073000L1205.130000,473.095000L1206.330000,473.180000C1204.450000,477.951000,1199.850000,481.274000,1194.480000,481.274000C1187.410000,481.274000,1181.700000,475.566000,1181.700000,468.494000C1181.700000,461.423000,1187.410000,455.715000,1194.480000,455.715000C1197.120000,455.715000,1199.510000,456.481000,1201.560000,457.845000L1202.660000,456.481000C1200.360000,454.863000,1197.550000,453.925000,1194.480000,453.925000C1186.480000,453.925000,1180,460.400000,1180,468.409000C1180,476.418000,1186.480000,482.893000,1194.480000,482.893000C1200.790000,482.893000,1206.160000,478.803000,1208.200000,473.180000L1214.930000,473.777000L1215.020000,473.777000L1215.530000,477.099000L1215.100000,477.185000C1214.680000,477.270000,1214.330000,477.696000,1214.420000,478.207000L1214.420000,478.292000C1214.510000,478.718000,1214.930000,479.059000,1215.440000,478.974000L1218.940000,478.292000C1219.360000,478.207000,1219.700000,477.781000,1219.620000,477.270000L1219.620000,477.185000C1219.530000,476.759000,1219.110000,476.418000,1218.590000,476.503000L1217.230000,476.759000L1216.720000,473.436000C1218.850000,472.669000,1220.300000,470.539000,1220.300000,468.239000C1220.300000,467.131000,1219.960000,466.024000,1219.280000,465.086000L1215.780000,468.835000Z" fill="rgb(51,51,51)" stroke="none" stroke-width="1"/><path id="e2bwgfwxozjd16" d="M1210.670000,467.557000L1213.570000,467.557000L1212.720000,464.831000C1211.690000,465.342000,1210.930000,466.364000,1210.670000,467.557000Z" fill="rgb(51,51,51)" stroke="none" stroke-width="1"/><path id="e2bwgfwxozjd17" d="M1235.980000,458.441000C1237.680000,457.504000,1239.640000,456.907000,1241.680000,456.907000C1248.070000,456.907000,1253.270000,462.104000,1253.270000,468.494000C1253.270000,474.884000,1248.070000,480.081000,1241.680000,480.081000C1235.290000,480.081000,1230.100000,474.884000,1230.100000,468.494000C1230.100000,464.831000,1231.800000,461.508000,1234.530000,459.378000C1234.360000,459.037000,1234.100000,458.697000,1233.930000,458.356000C1230.860000,460.656000,1228.900000,464.320000,1228.900000,468.494000C1228.900000,475.566000,1234.610000,481.274000,1241.680000,481.274000C1248.750000,481.274000,1254.460000,475.566000,1254.460000,468.494000C1254.460000,461.423000,1248.750000,455.715000,1241.680000,455.715000C1239.380000,455.715000,1237.250000,456.311000,1235.380000,457.419000C1235.550000,457.759000,1235.720000,458.100000,1235.980000,458.441000Z" fill="rgb(191,63,18)" stroke="none" stroke-width="1"/><path id="e2bwgfwxozjd18" d="M1206.670000,471.902000C1206.920000,471.050000,1207.090000,470.113000,1207.090000,469.176000L1205.900000,469.176000C1205.820000,470.113000,1205.730000,470.965000,1205.470000,471.732000L1206.670000,471.902000Z" fill="rgb(191,63,18)" stroke="none" stroke-width="1"/><path id="e2bwgfwxozjd19" d="M1204.960000,463.808000L1206.160000,463.723000C1205.390000,461.934000,1204.280000,460.315000,1202.830000,459.037000L1202.150000,459.975000C1203.340000,460.997000,1204.280000,462.275000,1204.960000,463.808000Z" fill="rgb(191,63,18)" stroke="none" stroke-width="1"/><path id="e2bwgfwxozjd20" d="M1205.390000,465.001000C1205.640000,465.853000,1205.820000,466.705000,1205.900000,467.557000L1207.090000,467.557000C1207.010000,466.620000,1206.840000,465.768000,1206.580000,464.916000L1205.390000,465.001000Z" fill="rgb(191,63,18)" stroke="none" stroke-width="1"/><path id="e2bwgfwxozjd21" d="M1181.620000,468.494000C1181.620000,475.566000,1187.330000,481.274000,1194.400000,481.274000C1199.770000,481.274000,1204.370000,477.951000,1206.240000,473.180000L1205.050000,473.095000C1203.260000,477.270000,1199.170000,480.166000,1194.400000,480.166000C1188.010000,480.166000,1182.810000,474.969000,1182.810000,468.579000C1182.810000,462.190000,1188.010000,456.993000,1194.400000,456.993000C1196.780000,456.993000,1198.910000,457.674000,1200.790000,458.952000L1201.470000,458.015000C1199.430000,456.652000,1196.950000,455.885000,1194.400000,455.885000C1187.330000,455.715000,1181.620000,461.423000,1181.620000,468.494000Z" fill="rgb(191,63,18)" stroke="none" stroke-width="1"/><path id="e2bwgfwxozjd22" d="M1232.650000,447.706000L1232.650000,441.913000C1232.650000,441.657000,1232.480000,441.316000,1232.310000,441.146000C1232.060000,440.975000,1231.800000,440.890000,1231.540000,440.975000L1228.220000,441.316000C1228.050000,441.146000,1227.710000,441.061000,1227.460000,441.061000L1222.940000,441.231000C1222.260000,441.231000,1221.830000,441.827000,1221.830000,442.424000C1221.830000,442.935000,1222.260000,443.361000,1222.680000,443.531000C1222.770000,443.531000,1222.940000,443.616000,1223.030000,443.531000L1227.540000,443.361000C1227.800000,443.361000,1228.050000,443.276000,1228.220000,443.105000L1230.860000,442.935000L1230.860000,448.558000C1230.860000,448.047000,1230.860000,447.621000,1230.860000,447.621000C1230.860000,447.280000,1232.480000,447.365000,1232.650000,447.706000Z" fill="rgb(51,51,51)" stroke="none" stroke-width="1"/><path id="e2bwgfwxozjd23" d="M1234.530000,459.378000C1236.230000,462.445000,1238.190000,465.427000,1239.640000,467.302000C1240.240000,468.068000,1240.660000,468.665000,1241,469.006000C1241.170000,469.176000,1241.430000,469.261000,1241.600000,469.261000C1241.850000,469.261000,1242.020000,469.176000,1242.190000,469.006000C1242.540000,468.665000,1242.540000,468.068000,1242.190000,467.728000C1241.850000,467.387000,1241.430000,466.876000,1240.920000,466.194000C1239.550000,464.320000,1237.590000,461.423000,1235.980000,458.441000C1235.800000,458.100000,1235.630000,457.759000,1235.380000,457.419000C1235.120000,456.907000,1234.870000,456.396000,1234.610000,455.885000C1233.590000,453.840000,1232.820000,451.966000,1232.740000,450.688000C1232.820000,450.518000,1232.740000,450.347000,1232.740000,450.177000C1232.740000,449.325000,1232.740000,447.876000,1232.740000,447.876000L1232.740000,447.791000C1232.570000,447.365000,1231.030000,447.365000,1231.030000,447.791000C1231.030000,447.791000,1231.030000,448.217000,1231.030000,448.728000C1231.030000,448.984000,1231.030000,449.325000,1231.030000,449.666000L1209.820000,449.666000L1209.390000,448.388000C1209.390000,448.388000,1209.390000,448.302000,1209.310000,448.302000C1208.970000,448.047000,1207.690000,448.388000,1207.690000,448.814000C1207.690000,448.814000,1207.690000,448.814000,1207.690000,448.899000L1207.940000,449.751000C1207.860000,449.836000,1207.860000,449.836000,1207.770000,449.921000L1202.580000,456.567000L1201.470000,457.930000L1200.790000,458.867000L1196.270000,464.660000L1195.340000,465.938000L1195.170000,466.109000L1193.720000,467.983000C1193.550000,468.239000,1193.460000,468.494000,1193.630000,468.835000C1193.800000,469.176000,1194.060000,469.261000,1194.400000,469.261000L1196.700000,469.261000L1205.990000,469.261000L1207.180000,469.261000L1208.970000,469.261000L1210.840000,469.261000L1214.930000,469.261000C1214.930000,469.261000,1215.610000,469.346000,1215.870000,468.920000L1219.280000,465.257000L1231.370000,452.307000C1231.800000,453.585000,1232.400000,455.203000,1233.250000,456.737000C1233.500000,457.248000,1233.760000,457.759000,1234.100000,458.356000C1234.100000,458.697000,1234.270000,459.037000,1234.530000,459.378000ZM1210.670000,467.557000L1208.800000,467.557000L1207.010000,467.557000L1205.820000,467.557000L1196.530000,467.642000L1196.020000,467.642000L1196.360000,467.216000L1197.550000,465.683000L1198.570000,464.405000L1202.070000,459.889000L1202.750000,458.952000L1203.860000,457.589000L1208.460000,451.625000L1212.120000,463.042000L1212.550000,464.320000L1212.630000,464.660000L1213.480000,467.387000L1210.670000,467.557000ZM1217.830000,463.808000L1215.190000,466.620000L1213.990000,462.871000L1210.250000,451.199000L1229.760000,451.199000L1217.830000,463.808000Z" fill="rgb(248,85,85)" stroke="none" stroke-width="1"/><path id="e2bwgfwxozjd24" d="M1212.630000,464.405000L1212.200000,463.127000L1208.030000,463.553000C1207.180000,461.252000,1205.730000,459.208000,1203.940000,457.674000L1202.830000,459.037000C1204.280000,460.315000,1205.390000,461.934000,1206.160000,463.723000L1204.960000,463.808000L1198.660000,464.405000L1197.640000,465.683000L1205.390000,465.001000L1206.580000,464.916000C1206.840000,465.768000,1207.010000,466.620000,1207.090000,467.557000L1208.880000,467.557000C1208.800000,466.620000,1208.630000,465.683000,1208.460000,464.746000L1212.630000,464.405000Z" fill="rgb(51,51,51)" stroke="none" stroke-width="1"/><path id="e2bwgfwxozjd25" d="M1214.760000,462.871000L1213.990000,462.956000L1215.190000,466.705000L1217.830000,463.894000C1216.980000,463.212000,1215.950000,462.871000,1214.760000,462.871000Z" fill="rgb(51,51,51)" stroke="none" stroke-width="1"/><path id="e2bwgfwxozjd26" d="M1088.950000,511.524000C1088.950000,510.703000,1088.300000,510.037000,1087.490000,510.037000C1086.690000,510.037000,1086.040000,510.703000,1086.040000,511.524000L1086.040000,517.078000C1086.040000,517.899000,1086.690000,518.565000,1087.490000,518.565000C1088.300000,518.565000,1088.950000,517.899000,1088.950000,517.078000L1088.950000,511.524000Z" fill="rgb(99,167,34)" stroke="none" stroke-width="1"/><path id="e2bwgfwxozjd27" d="M804.903000,481.487000C804.903000,480.666000,804.253000,480,803.452000,480C802.650000,480,802,480.666000,802,481.487000L802,487.041000C802,487.862000,802.650000,488.528000,803.452000,488.528000C804.253000,488.528000,804.903000,487.862000,804.903000,487.041000L804.903000,481.487000Z" fill="rgb(99,167,34)" stroke="none" stroke-width="1"/><path id="e2bwgfwxozjd28" d="M1138.060000,505.204000C1138.060000,504.588000,1137.410000,504.089000,1136.610000,504.089000C1135.810000,504.089000,1135.160000,504.588000,1135.160000,505.204000L1135.160000,509.353000C1135.160000,509.969000,1135.810000,510.468000,1136.610000,510.468000C1137.410000,510.468000,1138.060000,509.969000,1138.060000,509.353000L1138.060000,505.204000Z" fill="rgb(99,167,34)" stroke="none" stroke-width="1"/><path id="e2bwgfwxozjd29" d="M82.903000,539.115000C82.903000,538.499000,82.253200,538,81.451500,538C80.649900,538,80,538.499000,80,539.115000L80,543.263000C80,543.879000,80.649900,544.379000,81.451500,544.379000C82.253200,544.379000,82.903000,543.879000,82.903000,543.263000L82.903000,539.115000Z" fill="rgb(99,167,34)" stroke="none" stroke-width="1"/><path id="e2bwgfwxozjd30" d="M855.287000,517.472000C855.287000,516.856000,854.637000,516.357000,853.835000,516.357000C853.033000,516.357000,852.384000,516.856000,852.384000,517.472000L852.384000,521.620000C852.384000,522.236000,853.033000,522.736000,853.835000,522.736000C854.637000,522.736000,855.287000,522.236000,855.287000,521.620000L855.287000,517.472000Z" fill="rgb(99,167,34)" stroke="none" stroke-width="1"/><path id="e2bwgfwxozjd31" d="M1326.330000,515.985000C1326.330000,515.164000,1325.680000,514.498000,1324.870000,514.498000C1324.070000,514.498000,1323.420000,515.164000,1323.420000,515.985000L1323.420000,521.539000C1323.420000,522.360000,1324.070000,523.026000,1324.870000,523.026000C1325.680000,523.026000,1326.330000,522.360000,1326.330000,521.539000L1326.330000,515.985000Z" fill="rgb(99,167,34)" stroke="none" stroke-width="1"/><path id="e2bwgfwxozjd32" d="M135.903000,522.487000C135.903000,521.666000,135.253000,521,134.451000,521C133.650000,521,133,521.666000,133,522.487000L133,528.040000C133,528.862000,133.650000,529.527000,134.451000,529.527000C135.253000,529.527000,135.903000,528.862000,135.903000,528.040000L135.903000,522.487000Z" fill="rgb(99,167,34)" stroke="none" stroke-width="1"/><path id="e2bwgfwxozjd33" d="M1042.280000,485.948000C1042.280000,485.127000,1041.630000,484.461000,1040.830000,484.461000C1040.030000,484.461000,1039.380000,485.127000,1039.380000,485.948000L1039.380000,491.502000C1039.380000,492.323000,1040.030000,492.989000,1040.830000,492.989000C1041.630000,492.989000,1042.280000,492.323000,1042.280000,491.502000L1042.280000,485.948000Z" fill="rgb(99,167,34)" stroke="none" stroke-width="1"/><path id="e2bwgfwxozjd34" d="M953.903000,496.487000C953.903000,495.666000,953.253000,495,952.451000,495C951.650000,495,951,495.666000,951,496.487000L951,502.040000C951,502.862000,951.650000,503.527000,952.451000,503.527000C953.253000,503.527000,953.903000,502.862000,953.903000,502.040000L953.903000,496.487000Z" fill="rgb(99,167,34)" stroke="none" stroke-width="1"/><path id="e2bwgfwxozjd35" d="M1354.900000,496.487000C1354.900000,495.666000,1354.250000,495,1353.450000,495C1352.650000,495,1352,495.666000,1352,496.487000L1352,502.040000C1352,502.862000,1352.650000,503.527000,1353.450000,503.527000C1354.250000,503.527000,1354.900000,502.862000,1354.900000,502.040000L1354.900000,496.487000Z" fill="rgb(99,167,34)" stroke="none" stroke-width="1"/><path id="e2bwgfwxozjd36" d="M103.903000,505.487000C103.903000,504.666000,103.253000,504,102.452000,504C101.650000,504,101,504.666000,101,505.487000L101,511.040000C101,511.862000,101.650000,512.527000,102.452000,512.527000C103.253000,512.527000,103.903000,511.862000,103.903000,511.040000L103.903000,505.487000Z" fill="rgb(99,167,34)" stroke="none" stroke-width="1"/><path id="e2bwgfwxozjd37" d="M1278.900000,502.487000C1278.900000,501.666000,1278.250000,501,1277.450000,501C1276.650000,501,1276,501.666000,1276,502.487000L1276,508.041000C1276,508.862000,1276.650000,509.528000,1277.450000,509.528000C1278.250000,509.528000,1278.900000,508.862000,1278.900000,508.041000L1278.900000,502.487000Z" fill="rgb(99,167,34)" stroke="none" stroke-width="1"/><path id="e2bwgfwxozjd38" d="M665.903000,507.807000C665.903000,506.985000,665.253000,506.320000,664.452000,506.320000C663.650000,506.320000,663,506.985000,663,507.807000L663,513.360000C663,514.181000,663.650000,514.847000,664.452000,514.847000C665.253000,514.847000,665.903000,514.181000,665.903000,513.360000L665.903000,507.807000Z" fill="rgb(99,167,34)" stroke="none" stroke-width="1"/><path id="e2bwgfwxozjd39" d="M345.903000,537.807000C345.903000,536.985000,345.253000,536.320000,344.452000,536.320000C343.650000,536.320000,343,536.985000,343,537.807000L343,543.360000C343,544.181000,343.650000,544.847000,344.452000,544.847000C345.253000,544.847000,345.903000,544.181000,345.903000,543.360000L345.903000,537.807000Z" fill="rgb(99,167,34)" stroke="none" stroke-width="1"/><path id="e2bwgfwxozjd40" d="M544.767000,530.040000C544.767000,530.862000,545.416000,531.527000,546.218000,531.527000C547.020000,531.527000,547.670000,530.862000,547.670000,530.040000L547.670000,524.487000C547.670000,523.666000,547.020000,523,546.218000,523C545.416000,523,544.767000,523.666000,544.767000,524.487000L544.767000,530.040000Z" fill="rgb(99,167,34)" stroke="none" stroke-width="1"/><path id="e2bwgfwxozjd41" d="M679.670000,501.115000C679.670000,500.499000,679.020000,500,678.218000,500C677.416000,500,676.767000,500.499000,676.767000,501.115000L676.767000,505.263000C676.767000,505.879000,677.416000,506.379000,678.218000,506.379000C679.020000,506.379000,679.670000,505.879000,679.670000,505.263000L679.670000,501.115000Z" fill="rgb(99,167,34)" stroke="none" stroke-width="1"/><path id="e2bwgfwxozjd42" d="M359.670000,531.115000C359.670000,530.499000,359.020000,530,358.218000,530C357.416000,530,356.767000,530.499000,356.767000,531.115000L356.767000,535.263000C356.767000,535.879000,357.416000,536.379000,358.218000,536.379000C359.020000,536.379000,359.670000,535.879000,359.670000,535.263000L359.670000,531.115000Z" fill="rgb(99,167,34)" stroke="none" stroke-width="1"/><path id="e2bwgfwxozjd43" d="M531,536.732000C531,537.348000,531.650000,537.847000,532.451000,537.847000C533.253000,537.847000,533.903000,537.348000,533.903000,536.732000L533.903000,532.584000C533.903000,531.968000,533.253000,531.468000,532.451000,531.468000C531.650000,531.468000,531,531.968000,531,532.584000L531,536.732000Z" fill="rgb(99,167,34)" stroke="none" stroke-width="1"/><path id="e2bwgfwxozjd44" d="M1076.670000,436.520000C1077.420000,436.520000,1077.790000,436.892000,1077.790000,437.636000L1077.790000,444.699000L1075.560000,444.699000L1075.560000,437.636000C1075.560000,436.892000,1075.930000,436.520000,1076.670000,436.520000Z" clip-rule="evenodd" fill="rgb(166,28,28)" fill-rule="evenodd" stroke="none" stroke-width="1"/><path id="e2bwgfwxozjd45" d="M1083.370000,423.881000C1085.230000,425.368000,1086.350000,427.970000,1086.350000,430.572000C1086.350000,435.777000,1081.880000,440.238000,1076.670000,440.238000C1071.090000,440.238000,1067,435.777000,1067,430.572000C1067,427.970000,1068.120000,425.368000,1069.600000,423.881000C1069.980000,423.509000,1069.980000,422.766000,1069.980000,422.394000C1069.600000,421.650000,1069.230000,420.535000,1069.230000,419.420000C1069.230000,417.190000,1069.980000,415.331000,1071.460000,413.844000C1071.840000,413.844000,1071.840000,413.100000,1071.840000,412.729000C1071.460000,412.357000,1071.460000,411.613000,1071.460000,410.870000C1071.460000,408.268000,1073.700000,405.665000,1076.670000,405.665000C1079.650000,405.665000,1081.880000,408.268000,1081.880000,410.870000C1081.880000,411.613000,1081.510000,412.357000,1081.510000,412.729000C1081.140000,413.100000,1081.510000,413.844000,1081.510000,413.844000C1083,415.331000,1084.120000,417.190000,1084.120000,419.420000C1084.120000,420.535000,1083.740000,421.650000,1083.370000,422.394000C1083,422.766000,1083,423.509000,1083.370000,423.881000Z" clip-rule="evenodd" fill="rgb(248,85,85)" fill-rule="evenodd" stroke="none" stroke-width="1"/><path id="e2bwgfwxozjd46" d="M1078.160000,439.866000C1077.790000,440.238000,1077.050000,440.238000,1076.670000,440.238000C1071.090000,440.238000,1067,435.777000,1067,430.572000C1067,427.970000,1068.120000,425.368000,1069.600000,423.881000C1069.980000,423.509000,1069.980000,422.766000,1069.980000,422.394000C1069.600000,421.650000,1069.230000,420.535000,1069.230000,419.420000C1069.230000,417.190000,1069.980000,415.331000,1071.460000,413.844000C1071.840000,413.844000,1071.840000,413.100000,1071.840000,412.729000C1071.460000,412.357000,1071.460000,411.613000,1071.460000,410.870000C1071.460000,408.268000,1073.700000,405.665000,1076.670000,405.665000C1077.050000,405.665000,1077.050000,405.665000,1077.420000,405.665000C1075.190000,406.409000,1073.700000,408.639000,1073.700000,410.870000C1073.700000,411.613000,1073.700000,411.985000,1074.070000,412.729000C1074.070000,413.100000,1074.070000,413.472000,1073.700000,413.844000C1072.210000,415.331000,1071.460000,417.190000,1071.460000,419.048000C1071.460000,420.535000,1071.840000,421.279000,1072.210000,422.394000C1072.210000,422.766000,1072.210000,423.137000,1071.840000,423.509000C1070.350000,425.368000,1069.230000,427.598000,1069.230000,430.201000C1069.230000,435.405000,1073.330000,439.866000,1078.160000,439.866000Z" clip-rule="evenodd" fill="rgb(235,61,61)" fill-rule="evenodd" stroke="none" stroke-width="1"/><path id="e2bwgfwxozjd47" d="M1076.670000,413.844000L1076.670000,414.216000L1076.670000,419.792000L1079.650000,418.305000C1079.650000,418.305000,1079.650000,418.305000,1080.020000,418.305000C1080.020000,418.677000,1080.020000,418.677000,1079.650000,418.677000L1076.670000,420.535000L1076.670000,430.201000L1079.650000,428.714000C1079.650000,428.714000,1079.650000,428.714000,1080.020000,428.714000C1080.020000,429.085000,1080.020000,429.085000,1079.650000,429.085000L1076.670000,430.944000L1076.670000,437.636000C1076.300000,437.636000,1076.300000,437.636000,1076.300000,437.636000L1076.300000,428.342000L1073.330000,426.483000C1073.330000,426.483000,1073.330000,426.483000,1073.330000,426.111000L1073.700000,426.111000L1076.300000,427.598000L1076.300000,414.216000C1076.300000,414.216000,1076.300000,413.844000,1076.670000,413.844000Z" clip-rule="evenodd" fill="rgb(166,28,28)" fill-rule="evenodd" stroke="none" stroke-width="1"/><path id="e2bwgfwxozjd48" d="M1071.090000,444.699000L1081.880000,444.699000C1082.250000,444.699000,1082.250000,444.699000,1082.250000,444.699000C1082.250000,445.070000,1082.250000,445.070000,1081.880000,445.070000L1071.090000,445.070000C1071.090000,445.070000,1071.090000,445.070000,1071.090000,444.699000Z" clip-rule="evenodd" fill="rgb(0,0,0)" fill-opacity="0.101961" fill-rule="evenodd" stroke="none" stroke-width="1"/><path id="e2bwgfwxozjd49" d="M1094.160000,434.290000C1095.280000,434.290000,1095.650000,435.033000,1095.650000,435.777000L1095.650000,444.327000L1093.050000,444.327000L1093.050000,435.777000C1093.050000,435.033000,1093.420000,434.290000,1094.160000,434.290000Z" clip-rule="evenodd" fill="rgb(171,67,22)" fill-rule="evenodd" stroke="none" stroke-width="1"/><path id="e2bwgfwxozjd50" d="M1102.720000,418.305000C1104.950000,420.535000,1106.440000,423.509000,1106.440000,426.855000C1106.440000,433.546000,1100.860000,439.123000,1094.160000,439.123000C1087.840000,439.123000,1082.250000,433.546000,1082.250000,426.855000C1082.250000,423.509000,1083.740000,420.535000,1085.600000,418.305000C1086.350000,417.933000,1086.350000,417.561000,1085.980000,417.190000C1085.600000,415.703000,1085.230000,414.587000,1085.230000,413.100000C1085.230000,410.498000,1086.350000,408.268000,1087.840000,406.409000C1088.580000,406.037000,1088.580000,405.665000,1088.210000,404.922000C1088.210000,404.178000,1087.840000,403.435000,1087.840000,402.691000C1087.840000,398.974000,1090.810000,396,1094.160000,396C1097.880000,396,1100.860000,398.974000,1100.860000,402.691000C1100.860000,403.435000,1100.490000,404.178000,1100.490000,404.922000C1100.110000,405.665000,1100.110000,406.037000,1100.860000,406.409000C1102.350000,408.268000,1103.460000,410.498000,1103.460000,413.100000C1103.460000,414.587000,1103.090000,415.703000,1102.720000,417.190000C1102.350000,417.561000,1102.350000,417.933000,1102.720000,418.305000Z" clip-rule="evenodd" fill="rgb(255,207,66)" fill-rule="evenodd" stroke="none" stroke-width="1"/><path id="e2bwgfwxozjd51" d="M1096.390000,438.751000C1095.650000,438.751000,1094.910000,439.123000,1094.160000,439.123000C1087.840000,439.123000,1082.250000,433.546000,1082.250000,426.855000C1082.250000,423.509000,1083.740000,420.535000,1085.600000,418.305000C1086.350000,417.933000,1086.350000,417.561000,1085.980000,417.190000C1085.600000,415.703000,1085.230000,414.587000,1085.230000,413.100000C1085.230000,410.498000,1086.350000,408.268000,1087.840000,406.409000C1088.580000,406.037000,1088.580000,405.665000,1088.210000,404.922000C1088.210000,404.178000,1087.840000,403.435000,1087.840000,402.691000C1087.840000,398.974000,1090.810000,396,1094.160000,396C1094.530000,396,1094.910000,396.372000,1095.280000,396.372000C1092.670000,397.115000,1090.810000,399.346000,1090.810000,402.320000C1090.810000,403.435000,1090.810000,404.178000,1091.180000,404.922000C1091.180000,405.294000,1091.180000,406.037000,1090.810000,406.409000C1088.950000,407.896000,1087.840000,410.126000,1087.840000,412.729000C1087.840000,414.216000,1088.210000,415.703000,1088.950000,416.818000C1088.950000,417.190000,1088.950000,417.933000,1088.580000,418.305000C1086.350000,420.535000,1085.230000,423.509000,1085.230000,426.855000C1085.230000,433.175000,1090.070000,438.379000,1096.390000,438.751000Z" clip-rule="evenodd" fill="rgb(255,170,66)" fill-rule="evenodd" stroke="none" stroke-width="1"/><path id="e2bwgfwxozjd52" d="M1094.160000,406.409000C1094.530000,406.409000,1094.530000,406.409000,1094.530000,406.781000L1094.530000,413.844000L1097.880000,411.613000C1098.250000,411.613000,1098.250000,411.613000,1098.630000,411.985000C1098.630000,411.985000,1098.630000,412.357000,1098.250000,412.357000L1094.530000,414.587000L1094.530000,426.855000L1097.880000,424.624000C1098.250000,424.624000,1098.250000,424.624000,1098.630000,424.996000C1098.630000,424.996000,1098.630000,425.368000,1098.250000,425.368000L1094.530000,427.598000L1094.530000,435.405000C1094.530000,435.777000,1094.530000,435.777000,1094.160000,435.777000C1094.160000,435.777000,1093.790000,435.777000,1093.790000,435.405000L1093.790000,424.253000L1090.440000,422.022000C1090.070000,422.022000,1090.070000,421.650000,1090.070000,421.650000C1090.440000,421.650000,1090.440000,421.279000,1090.810000,421.650000L1093.790000,423.509000L1093.790000,406.781000C1093.790000,406.409000,1094.160000,406.409000,1094.160000,406.409000Z" clip-rule="evenodd" fill="rgb(171,67,22)" fill-rule="evenodd" stroke="none" stroke-width="1"/><path id="e2bwgfwxozjd53" d="M1087.460000,444.327000L1101.230000,444.327000L1101.230000,444.699000C1101.230000,445.071000,1101.230000,445.071000,1101.230000,445.071000L1087.460000,445.071000C1087.460000,445.071000,1087.460000,445.071000,1087.460000,444.699000L1087.460000,444.327000Z" clip-rule="evenodd" fill="rgb(0,0,0)" fill-opacity="0.101961" fill-rule="evenodd" stroke="none" stroke-width="1"/><path id="e2bwgfwxozjd54" d="M425.068000,512.234000C426.929000,512.234000,428.045000,513.721000,428.045000,515.208000L428.045000,531.937000L422.464000,531.937000L422.464000,515.208000C422.464000,513.721000,423.580000,512.234000,425.068000,512.234000Z" clip-rule="evenodd" fill="rgb(145,96,19)" fill-rule="evenodd" stroke="none" stroke-width="1"/><path id="e2bwgfwxozjd55" d="M441.811000,481.751000C445.904000,485.840000,448.509000,491.788000,448.509000,498.108000C448.509000,510.747000,438.091000,521.156000,425.068000,521.156000C412.418000,521.156000,402,510.747000,402,498.108000C402,491.788000,404.604000,485.840000,408.697000,481.751000C409.441000,481.007000,409.813000,479.892000,409.069000,479.149000C407.953000,476.546000,407.581000,473.944000,407.581000,471.342000C407.581000,466.509000,409.441000,461.677000,413.162000,458.703000C413.906000,457.959000,413.906000,456.844000,413.534000,455.729000C413.162000,454.613000,412.790000,452.755000,412.790000,451.268000C412.790000,444.576000,418.371000,439,425.068000,439C432.138000,439,437.719000,444.576000,437.719000,451.268000C437.719000,452.755000,437.347000,454.613000,436.975000,455.729000C436.230000,456.844000,436.602000,457.959000,437.347000,458.703000C440.695000,461.677000,442.928000,466.509000,442.928000,471.342000C442.928000,473.944000,442.184000,476.546000,441.067000,479.149000C440.695000,479.892000,441.067000,481.007000,441.811000,481.751000Z" clip-rule="evenodd" fill="rgb(115,209,61)" fill-rule="evenodd" stroke="none" stroke-width="1"/><path id="e2bwgfwxozjd56" d="M429.533000,520.784000C428.045000,521.156000,426.557000,521.156000,425.068000,521.156000C412.418000,521.156000,402,510.747000,402,498.108000C402,491.788000,404.604000,485.840000,408.697000,481.751000C409.441000,481.007000,409.813000,479.892000,409.069000,479.149000C407.953000,476.546000,407.581000,473.944000,407.581000,471.342000C407.581000,466.509000,409.441000,461.677000,413.162000,458.703000C413.906000,457.959000,413.906000,456.844000,413.534000,455.729000C413.162000,454.613000,412.790000,452.755000,412.790000,451.268000C412.790000,444.576000,418.371000,439,425.068000,439C425.813000,439,426.557000,439,426.929000,439C422.092000,440.487000,417.999000,445.320000,417.999000,450.896000C417.999000,452.383000,418.371000,454.242000,419.115000,455.357000C419.487000,456.472000,419.115000,457.587000,418.371000,458.331000C415.022000,461.305000,412.790000,466.138000,412.790000,470.970000C412.790000,473.572000,413.534000,476.175000,414.650000,478.777000C415.022000,479.520000,415.022000,480.636000,413.906000,481.379000C409.813000,485.468000,407.209000,491.416000,407.209000,497.736000C407.209000,510.004000,417.255000,520.041000,429.533000,520.784000Z" clip-rule="evenodd" fill="rgb(70,184,55)" fill-rule="evenodd" stroke="none" stroke-width="1"/><path id="e2bwgfwxozjd57" d="M425.068000,458.703000C425.440000,458.703000,425.813000,458.703000,425.813000,459.074000L425.813000,472.457000L432.138000,468.740000C432.510000,468.740000,432.882000,468.740000,433.254000,469.111000C433.254000,469.483000,433.254000,469.855000,432.882000,469.855000L425.813000,473.944000L425.813000,497.736000L432.138000,494.019000C432.510000,493.647000,432.882000,494.019000,433.254000,494.019000C433.254000,494.390000,433.254000,494.762000,432.882000,495.134000L425.813000,499.223000L425.813000,514.836000C425.813000,515.208000,425.440000,515.208000,425.068000,515.208000C424.696000,515.208000,424.324000,515.208000,424.324000,514.836000L424.324000,492.903000L417.627000,488.814000C417.255000,488.814000,417.255000,488.071000,417.255000,488.071000C417.627000,487.699000,417.999000,487.327000,417.999000,487.699000L424.324000,491.416000L424.324000,459.074000C424.324000,458.703000,424.696000,458.703000,425.068000,458.703000Z" clip-rule="evenodd" fill="rgb(145,96,19)" fill-rule="evenodd" stroke="none" stroke-width="1"/><path id="e2bwgfwxozjd58" d="M412.418000,531.937000L438.091000,531.937000C438.463000,531.937000,438.835000,531.937000,438.835000,532.308000C438.835000,532.680000,438.463000,533.052000,438.091000,533.052000L412.418000,533.052000C412.046000,533.052000,411.674000,532.680000,411.674000,532.308000C411.674000,531.937000,412.046000,531.937000,412.418000,531.937000Z" clip-rule="evenodd" fill="rgb(0,0,0)" fill-opacity="0.101961" fill-rule="evenodd" stroke="none" stroke-width="1"/><path id="e2bwgfwxozjd59" d="M1368.930000,396C1376,396,1381.950000,400.833000,1383.810000,406.781000C1383.810000,407.896000,1384.560000,408.268000,1385.670000,408.639000C1387.900000,408.639000,1390.140000,410.126000,1391.250000,412.357000C1391.620000,413.100000,1391.620000,413.844000,1391.250000,414.587000C1390.880000,415.331000,1390.510000,415.703000,1389.390000,415.703000L1346.230000,415.703000C1345.490000,415.703000,1344.740000,415.331000,1344.370000,414.959000C1344,414.216000,1344,413.844000,1344,413.100000C1344.740000,407.896000,1349.210000,404.178000,1354.420000,404.178000C1355.160000,404.178000,1355.910000,403.807000,1356.280000,403.063000C1358.880000,398.974000,1363.720000,396,1368.930000,396Z" clip-rule="evenodd" fill="rgb(170,223,86)" fill-rule="evenodd" stroke="none" stroke-width="1"/><path id="e2bwgfwxozjd60" d="M1368.930000,396C1373.390000,396,1377.490000,397.859000,1380.460000,400.833000C1377.860000,399.346000,1375.250000,398.230000,1371.910000,398.230000C1367.070000,398.230000,1362.600000,400.833000,1360,404.922000C1359.630000,405.665000,1358.880000,405.665000,1358.140000,405.665000C1353.300000,406.037000,1349.580000,409.383000,1348.460000,414.216000C1348.460000,414.587000,1348.840000,414.959000,1348.840000,415.703000L1346.230000,415.703000C1345.490000,415.703000,1344.740000,415.331000,1344.370000,414.959000C1344,414.216000,1344,413.844000,1344,413.100000C1344.740000,407.896000,1349.210000,404.178000,1354.420000,404.178000C1355.160000,404.178000,1355.910000,403.807000,1356.280000,403.063000C1358.880000,398.974000,1363.720000,396,1368.930000,396ZM1385.670000,408.639000C1387.530000,408.639000,1389.020000,409.755000,1390.510000,410.870000C1389.390000,410.498000,1388.280000,409.755000,1387.160000,409.755000C1386.420000,409.755000,1386.040000,409.383000,1385.670000,408.639000Z" clip-rule="evenodd" fill="rgb(139,185,67)" fill-rule="evenodd" stroke="none" stroke-width="1"/><path id="e2bwgfwxozjd61" d="M56.928700,474C63.998000,474,69.951100,478.833000,71.811500,484.781000C71.811500,485.896000,72.555600,486.268000,73.671800,486.639000C75.904300,486.639000,78.136700,488.126000,79.252900,490.357000C79.625000,491.100000,79.625000,491.844000,79.252900,492.587000C78.880800,493.331000,78.508800,493.703000,77.392500,493.703000L34.232400,493.703000C33.488300,493.703000,32.744100,493.331000,32.372100,492.959000C32,492.216000,32,491.844000,32,491.100000C32.744100,485.896000,37.209000,482.178000,42.418000,482.178000C43.162100,482.178000,43.906200,481.807000,44.278300,481.063000C46.882800,476.974000,51.719700,474,56.928700,474Z" clip-rule="evenodd" fill="rgb(170,223,86)" fill-rule="evenodd" stroke="none" stroke-width="1"/><path id="e2bwgfwxozjd62" d="M56.928700,474C61.393600,474,65.486300,475.859000,68.462900,478.833000C65.858400,477.346000,63.253900,476.230000,59.905300,476.230000C55.068400,476.230000,50.603500,478.833000,47.999000,482.922000C47.627000,483.665000,46.882800,483.665000,46.138700,483.665000C41.301800,484.037000,37.581100,487.383000,36.464800,492.216000C36.464800,492.587000,36.836900,492.959000,36.836900,493.703000L34.232400,493.703000C33.488300,493.703000,32.744100,493.331000,32.372100,492.959000C32,492.216000,32,491.844000,32,491.100000C32.744100,485.896000,37.209000,482.178000,42.418000,482.178000C43.162100,482.178000,43.906200,481.807000,44.278300,481.063000C46.882800,476.974000,51.719700,474,56.928700,474ZM73.671900,486.639000C75.532200,486.639000,77.020500,487.755000,78.508800,488.870000C77.392600,488.498000,76.276400,487.755000,75.160200,487.755000C74.416000,487.755000,74.043900,487.383000,73.671900,486.639000Z" clip-rule="evenodd" fill="rgb(139,185,67)" fill-rule="evenodd" stroke="none" stroke-width="1"/><g id="e2bwgfwxozjd63" clip-path="url(#e2bwgfwxozjd2)"><path id="e2bwgfwxozjd64" d="M213.821000,414.449000L184.849000,442.181000L184.849000,478.248000L242.721000,478.248000L242.721000,442.181000L213.821000,414.449000Z" fill="rgb(229,216,185)" stroke="none" stroke-width="1"/><path id="e2bwgfwxozjd65" d="M213.821000,414.449000L184.849000,442.181000L184.849000,449.869000L213.821000,422.136000L242.721000,449.869000L242.721000,442.181000L213.821000,414.449000Z" fill="rgb(175,175,175)" stroke="none" stroke-width="1"/><path id="e2bwgfwxozjd66" d="M242.721000,475.805000L184.849000,475.805000L184.849000,478.248000L242.721000,478.248000L242.721000,475.805000Z" fill="rgb(200,177,134)" stroke="none" stroke-width="1"/><path id="e2bwgfwxozjd67" d="M179.791000,445.630000L213.821000,414.449000L247.345000,445.630000" fill="none" stroke="rgb(0,90,138)" stroke-width="7" stroke-miterlimit="10"/><path id="e2bwgfwxozjd68" d="M213.821000,442.037000C217.572000,442.037000,220.612000,439.014000,220.612000,435.284000C220.612000,431.554000,217.572000,428.530000,213.821000,428.530000C210.070000,428.530000,207.030000,431.554000,207.030000,435.284000C207.030000,439.014000,210.070000,442.037000,213.821000,442.037000Z" fill="rgb(255,255,255)" stroke="none" stroke-width="1"/><path id="e2bwgfwxozjd69" d="M218.517000,435.284000C218.517000,437.870000,216.422000,439.954000,213.821000,439.954000C211.220000,439.954000,209.125000,437.870000,209.125000,435.284000C209.125000,432.697000,211.220000,430.614000,213.821000,430.614000C216.422000,430.614000,218.517000,432.697000,218.517000,435.284000Z" fill="rgb(18,146,213)" stroke="none" stroke-width="1"/><path id="e2bwgfwxozjd70" d="M211.003000,452.311000L192.580000,452.311000L192.580000,470.632000L211.003000,470.632000L211.003000,452.311000Z" fill="rgb(255,255,255)" stroke="none" stroke-width="1"/><path id="e2bwgfwxozjd71" d="M209.269000,453.964000L194.241000,453.964000L194.241000,468.908000L209.269000,468.908000L209.269000,453.964000Z" fill="rgb(18,146,213)" stroke="none" stroke-width="1"/><path id="e2bwgfwxozjd72" d="M202.333000,453.964000L201.250000,453.964000L201.250000,468.908000L202.333000,468.908000L202.333000,453.964000Z" fill="rgb(255,255,255)" stroke="none" stroke-width="1"/><path id="e2bwgfwxozjd73" d="M209.269000,460.933000L194.241000,460.933000L194.241000,462.011000L209.269000,462.011000L209.269000,460.933000Z" fill="rgb(255,255,255)" stroke="none" stroke-width="1"/><path id="e2bwgfwxozjd74" d="M234.629000,451.737000L216.205000,451.737000L216.205000,470.057000L234.629000,470.057000L234.629000,451.737000Z" fill="rgb(255,255,255)" stroke="none" stroke-width="1"/><path id="e2bwgfwxozjd75" d="M232.895000,453.461000L217.867000,453.461000L217.867000,468.405000L232.895000,468.405000L232.895000,453.461000Z" fill="rgb(18,146,213)" stroke="none" stroke-width="1"/><path id="e2bwgfwxozjd76" d="M225.959000,453.461000L224.875000,453.461000L224.875000,468.405000L225.959000,468.405000L225.959000,453.461000Z" fill="rgb(255,255,255)" stroke="none" stroke-width="1"/><path id="e2bwgfwxozjd77" d="M232.895000,460.430000L217.867000,460.430000L217.867000,461.508000L232.895000,461.508000L232.895000,460.430000Z" fill="rgb(255,255,255)" stroke="none" stroke-width="1"/><path id="e2bwgfwxozjd78" d="M244.888000,486.588000L181.959000,486.588000L181.959000,533L244.888000,533L244.888000,486.588000Z" fill="rgb(245,236,213)" stroke="none" stroke-width="1"/><path id="e2bwgfwxozjd79" d="M244.888000,486.588000L181.959000,486.588000L181.959000,497.436000L244.888000,497.436000L244.888000,486.588000Z" fill="rgb(138,138,138)" stroke="none" stroke-width="1"/><path id="e2bwgfwxozjd80" d="M244.888000,530.198000L181.959000,530.198000L181.959000,533L244.888000,533L244.888000,530.198000Z" fill="rgb(200,177,134)" stroke="none" stroke-width="1"/><path id="e2bwgfwxozjd81" d="M230.655000,501.316000L196.553000,501.316000L196.553000,533L230.655000,533L230.655000,501.316000Z" fill="rgb(255,255,255)" stroke="none" stroke-width="1"/><path id="e2bwgfwxozjd82" d="M227.621000,504.190000L199.516000,504.190000L199.516000,533L227.621000,533L227.621000,504.190000Z" fill="rgb(184,170,139)" stroke="none" stroke-width="1"/><path id="e2bwgfwxozjd83" d="M227.621000,505.914000L199.516000,505.914000L199.516000,507.207000L227.621000,507.207000L227.621000,505.914000Z" fill="rgb(255,255,255)" stroke="none" stroke-width="1"/><path id="e2bwgfwxozjd84" d="M227.621000,506.848000L199.516000,506.848000L199.516000,507.207000L227.621000,507.207000L227.621000,506.848000Z" fill="rgb(197,197,197)" stroke="none" stroke-width="1"/><path id="e2bwgfwxozjd85" d="M227.621000,509.147000L199.516000,509.147000L199.516000,510.440000L227.621000,510.440000L227.621000,509.147000Z" fill="rgb(255,255,255)" stroke="none" stroke-width="1"/><path id="e2bwgfwxozjd86" d="M227.621000,510.009000L199.516000,510.009000L199.516000,510.369000L227.621000,510.369000L227.621000,510.009000Z" fill="rgb(197,197,197)" stroke="none" stroke-width="1"/><path id="e2bwgfwxozjd87" d="M227.621000,512.380000L199.516000,512.380000L199.516000,513.674000L227.621000,513.674000L227.621000,512.380000Z" fill="rgb(255,255,255)" stroke="none" stroke-width="1"/><path id="e2bwgfwxozjd88" d="M227.621000,513.242000L199.516000,513.242000L199.516000,513.602000L227.621000,513.602000L227.621000,513.242000Z" fill="rgb(197,197,197)" stroke="none" stroke-width="1"/><path id="e2bwgfwxozjd89" d="M227.621000,515.613000L199.516000,515.613000L199.516000,516.907000L227.621000,516.907000L227.621000,515.613000Z" fill="rgb(255,255,255)" stroke="none" stroke-width="1"/><path id="e2bwgfwxozjd90" d="M227.621000,516.475000L199.516000,516.475000L199.516000,516.835000L227.621000,516.835000L227.621000,516.475000Z" fill="rgb(197,197,197)" stroke="none" stroke-width="1"/><path id="e2bwgfwxozjd91" d="M227.621000,518.775000L199.516000,518.775000L199.516000,520.068000L227.621000,520.068000L227.621000,518.775000Z" fill="rgb(255,255,255)" stroke="none" stroke-width="1"/><path id="e2bwgfwxozjd92" d="M227.621000,519.709000L199.516000,519.709000L199.516000,520.068000L227.621000,520.068000L227.621000,519.709000Z" fill="rgb(197,197,197)" stroke="none" stroke-width="1"/><path id="e2bwgfwxozjd93" d="M227.621000,522.008000L199.516000,522.008000L199.516000,523.301000L227.621000,523.301000L227.621000,522.008000Z" fill="rgb(255,255,255)" stroke="none" stroke-width="1"/><path id="e2bwgfwxozjd94" d="M227.621000,522.942000L199.516000,522.942000L199.516000,523.301000L227.621000,523.301000L227.621000,522.942000Z" fill="rgb(197,197,197)" stroke="none" stroke-width="1"/><path id="e2bwgfwxozjd95" d="M227.621000,525.241000L199.516000,525.241000L199.516000,526.534000L227.621000,526.534000L227.621000,525.241000Z" fill="rgb(255,255,255)" stroke="none" stroke-width="1"/><path id="e2bwgfwxozjd96" d="M227.621000,526.175000L199.516000,526.175000L199.516000,526.534000L227.621000,526.534000L227.621000,526.175000Z" fill="rgb(197,197,197)" stroke="none" stroke-width="1"/><path id="e2bwgfwxozjd97" d="M227.621000,528.474000L199.516000,528.474000L199.516000,529.767000L227.621000,529.767000L227.621000,528.474000Z" fill="rgb(255,255,255)" stroke="none" stroke-width="1"/><path id="e2bwgfwxozjd98" d="M227.621000,529.408000L199.516000,529.408000L199.516000,529.767000L227.621000,529.767000L227.621000,529.408000Z" fill="rgb(197,197,197)" stroke="none" stroke-width="1"/><path id="e2bwgfwxozjd99" d="M249.007000,477.607000L200.310000,477.607000L198.865000,477.607000L177.841000,477.607000L173,492.982000L198.865000,492.982000L200.310000,492.982000L253.775000,492.982000L249.007000,477.607000Z" fill="rgb(0,90,138)" stroke="none" stroke-width="1"/><path id="e2bwgfwxozjd100" d="M182.970000,481.056000L250.090000,481.056000L249.007000,477.607000L177.841000,477.607000L173,492.982000L179.647000,492.982000L182.970000,481.056000Z" fill="rgb(12,68,98)" stroke="none" stroke-width="1"/><path id="e2bwgfwxozjd101" d="M253.775000,492.982000L173,492.982000L173,494.706000L253.775000,494.706000L253.775000,492.982000Z" fill="rgb(80,43,50)" stroke="none" stroke-width="1"/><path id="e2bwgfwxozjd102" d="M244.888000,494.706000L232.895000,494.706000L232.895000,532.928000L244.888000,532.928000L244.888000,494.706000Z" fill="rgb(138,138,138)" stroke="none" stroke-width="1"/><path id="e2bwgfwxozjd103" d="M268.153000,462.807000L237.808000,484.432000L237.808000,533L298.498000,533L298.498000,484.432000L268.153000,462.807000Z" fill="rgb(235,231,207)" stroke="none" stroke-width="1"/><path id="e2bwgfwxozjd104" d="M268.153000,462.807000L237.808000,484.432000L237.808000,495.568000L268.153000,473.871000L298.498000,495.568000L298.498000,484.432000L268.153000,462.807000Z" fill="rgb(175,175,175)" stroke="none" stroke-width="1"/><path id="e2bwgfwxozjd105" d="M298.498000,529.336000L237.808000,529.336000L237.808000,533L298.498000,533L298.498000,529.336000Z" fill="rgb(197,185,158)" stroke="none" stroke-width="1"/><path id="e2bwgfwxozjd106" d="M277.039000,502.825000L259.266000,502.825000L259.266000,533L277.039000,533L277.039000,502.825000Z" fill="rgb(131,87,47)" stroke="none" stroke-width="1"/><path id="e2bwgfwxozjd107" d="M260.350000,533L260.350000,504.693000L275.883000,504.693000L275.883000,533" fill="none" stroke="rgb(101,68,35)" stroke-width="1" stroke-miterlimit="10"/><g id="e2bwgfwxozjd108" opacity="0.2"><path id="e2bwgfwxozjd109" d="M274.655000,505.986000L261.434000,505.986000L261.434000,511.949000L274.655000,511.949000L274.655000,505.986000Z" opacity="0.2" fill="rgb(255,255,255)" stroke="none" stroke-width="1"/><path id="e2bwgfwxozjd110" d="M274.655000,512.740000L261.434000,512.740000L261.434000,518.703000L274.655000,518.703000L274.655000,512.740000Z" opacity="0.2" fill="rgb(255,255,255)" stroke="none" stroke-width="1"/><path id="e2bwgfwxozjd111" d="M274.655000,519.421000L261.434000,519.421000L261.434000,525.384000L274.655000,525.384000L274.655000,519.421000Z" opacity="0.2" fill="rgb(255,255,255)" stroke="none" stroke-width="1"/><path id="e2bwgfwxozjd112" d="M274.655000,526.103000L261.434000,526.103000L261.434000,532.066000L274.655000,532.066000L274.655000,526.103000Z" opacity="0.2" fill="rgb(255,255,255)" stroke="none" stroke-width="1"/></g><path id="e2bwgfwxozjd113" d="M275.016000,518.846000C275.016000,519.493000,274.438000,520.068000,273.788000,520.068000C273.138000,520.068000,272.560000,519.493000,272.560000,518.846000C272.560000,518.200000,273.138000,517.625000,273.788000,517.625000C274.511000,517.625000,275.016000,518.128000,275.016000,518.846000Z" fill="rgb(101,68,35)" stroke="none" stroke-width="1"/><path id="e2bwgfwxozjd114" d="M274.655000,518.846000C274.655000,519.277000,274.294000,519.637000,273.860000,519.637000C273.427000,519.637000,273.066000,519.277000,273.066000,518.846000C273.066000,518.415000,273.427000,518.056000,273.860000,518.056000C274.294000,517.984000,274.655000,518.343000,274.655000,518.846000Z" fill="rgb(81,55,27)" stroke="none" stroke-width="1"/><path id="e2bwgfwxozjd115" d="M232.245000,489.749000L268.153000,462.807000L303.555000,488.743000" fill="none" stroke="rgb(9,78,115)" stroke-width="7" stroke-miterlimit="10"/><path id="e2bwgfwxozjd116" d="M275.594000,485.654000C275.594000,489.749000,272.271000,493.054000,268.153000,493.054000C264.034000,493.054000,260.711000,489.749000,260.711000,485.654000C260.711000,481.558000,264.034000,478.253000,268.153000,478.253000C272.199000,478.325000,275.594000,481.630000,275.594000,485.654000Z" fill="rgb(255,255,255)" stroke="none" stroke-width="1"/><path id="e2bwgfwxozjd117" d="M273.282000,485.654000C273.282000,488.456000,270.970000,490.755000,268.153000,490.755000C265.335000,490.755000,263.023000,488.456000,263.023000,485.654000C263.023000,482.852000,265.335000,480.553000,268.153000,480.553000C270.970000,480.553000,273.282000,482.852000,273.282000,485.654000Z" fill="rgb(18,146,213)" stroke="none" stroke-width="1"/><path id="e2bwgfwxozjd118" d="M258.760000,512.237000C258.616000,510.584000,256.448000,509.291000,253.775000,509.291000C251.102000,509.291000,248.934000,510.584000,248.790000,512.237000L248.790000,533L258.760000,533L258.760000,512.237000Z" fill="rgb(255,255,255)" stroke="none" stroke-width="1"/><path id="e2bwgfwxozjd119" d="M257.749000,512.596000C257.677000,511.303000,255.943000,510.225000,253.775000,510.225000C251.680000,510.225000,249.946000,511.231000,249.801000,512.596000L249.801000,533L257.677000,533L257.749000,512.596000Z" fill="rgb(18,146,213)" stroke="none" stroke-width="1"/><path id="e2bwgfwxozjd120" d="M254.281000,509.578000L253.269000,509.578000L253.269000,533L254.281000,533L254.281000,509.578000Z" fill="rgb(255,255,255)" stroke="none" stroke-width="1"/><path id="e2bwgfwxozjd121" d="M257.749000,513.530000L249.874000,513.530000L249.874000,514.248000L257.749000,514.248000L257.749000,513.530000Z" fill="rgb(255,255,255)" stroke="none" stroke-width="1"/><path id="e2bwgfwxozjd122" d="M257.749000,517.338000L249.874000,517.338000L249.874000,518.056000L257.749000,518.056000L257.749000,517.338000Z" fill="rgb(255,255,255)" stroke="none" stroke-width="1"/><path id="e2bwgfwxozjd123" d="M257.749000,521.146000L249.874000,521.146000L249.874000,521.864000L257.749000,521.864000L257.749000,521.146000Z" fill="rgb(255,255,255)" stroke="none" stroke-width="1"/><path id="e2bwgfwxozjd124" d="M257.749000,524.953000L249.874000,524.953000L249.874000,525.672000L257.749000,525.672000L257.749000,524.953000Z" fill="rgb(255,255,255)" stroke="none" stroke-width="1"/><path id="e2bwgfwxozjd125" d="M257.749000,528.761000L249.874000,528.761000L249.874000,529.480000L257.749000,529.480000L257.749000,528.761000Z" fill="rgb(255,255,255)" stroke="none" stroke-width="1"/><path id="e2bwgfwxozjd126" d="M286.938000,512.237000C286.865000,510.584000,284.626000,509.291000,281.952000,509.291000C279.279000,509.291000,277.112000,510.584000,276.967000,512.237000L276.967000,533L286.938000,533L286.938000,512.237000Z" fill="rgb(255,255,255)" stroke="none" stroke-width="1"/><path id="e2bwgfwxozjd127" d="M285.926000,512.596000C285.854000,511.303000,284.120000,510.225000,281.952000,510.225000C279.857000,510.225000,278.123000,511.231000,277.979000,512.596000L277.979000,533L285.854000,533L285.926000,512.596000Z" fill="rgb(18,146,213)" stroke="none" stroke-width="1"/><path id="e2bwgfwxozjd128" d="M282.458000,509.578000L281.447000,509.578000L281.447000,533L282.458000,533L282.458000,509.578000Z" fill="rgb(255,255,255)" stroke="none" stroke-width="1"/><path id="e2bwgfwxozjd129" d="M285.854000,513.530000L277.979000,513.530000L277.979000,514.248000L285.854000,514.248000L285.854000,513.530000Z" fill="rgb(255,255,255)" stroke="none" stroke-width="1"/><path id="e2bwgfwxozjd130" d="M285.854000,517.338000L277.979000,517.338000L277.979000,518.056000L285.854000,518.056000L285.854000,517.338000Z" fill="rgb(255,255,255)" stroke="none" stroke-width="1"/><path id="e2bwgfwxozjd131" d="M285.854000,521.146000L277.979000,521.146000L277.979000,521.864000L285.854000,521.864000L285.854000,521.146000Z" fill="rgb(255,255,255)" stroke="none" stroke-width="1"/><path id="e2bwgfwxozjd132" d="M285.854000,524.953000L277.979000,524.953000L277.979000,525.672000L285.854000,525.672000L285.854000,524.953000Z" fill="rgb(255,255,255)" stroke="none" stroke-width="1"/><path id="e2bwgfwxozjd133" d="M285.854000,528.761000L277.979000,528.761000L277.979000,529.480000L285.854000,529.480000L285.854000,528.761000Z" fill="rgb(255,255,255)" stroke="none" stroke-width="1"/><path id="e2bwgfwxozjd134" d="M214,434.728000C214,434.728000,214,434.839000,214,434.949000L212.504000,436.382000C212.388000,436.382000,212.273000,436.382000,212.273000,436.382000C212.158000,436.272000,212.158000,436.161000,212.273000,436.051000L213.770000,434.728000C213.770000,434.618000,213.885000,434.618000,214,434.728000ZM217.914000,433.846000C218.029000,433.957000,218.029000,434.067000,217.914000,434.177000L216.187000,435.831000C216.072000,435.941000,215.957000,435.941000,215.842000,435.831000C215.842000,435.831000,215.842000,435.720000,215.842000,435.610000L217.683000,433.846000C217.799000,433.846000,217.914000,433.846000,217.914000,433.846000ZM213.194000,432.413000C213.309000,432.524000,213.309000,432.634000,213.194000,432.634000L211.468000,434.398000C211.353000,434.508000,211.237000,434.508000,211.122000,434.398000C211.122000,434.287000,211.122000,434.177000,211.122000,434.177000L212.964000,432.413000C213.079000,432.303000,213.194000,432.303000,213.194000,432.413000ZM211.122000,436.051000C211.237000,436.161000,211.237000,436.272000,211.122000,436.382000L210.317000,437.154000C210.317000,437.154000,210.201000,437.154000,210.086000,437.154000C209.971000,437.043000,209.971000,436.933000,210.086000,436.823000L210.892000,436.051000C211.007000,436.051000,211.122000,436.051000,211.122000,436.051000ZM217.338000,432.854000C217.453000,432.965000,217.453000,433.075000,217.338000,433.075000L214.691000,435.720000C214.576000,435.720000,214.460000,435.720000,214.460000,435.720000C214.345000,435.610000,214.345000,435.500000,214.460000,435.390000L217.108000,432.854000C217.223000,432.744000,217.338000,432.744000,217.338000,432.854000ZM214.230000,435.831000C214.345000,435.941000,214.345000,436.051000,214.230000,436.051000L212.964000,437.264000C212.964000,437.374000,212.734000,437.374000,212.734000,437.264000C212.619000,437.264000,212.619000,437.154000,212.734000,437.043000L214,435.831000C214,435.720000,214.115000,435.720000,214.230000,435.831000ZM212.504000,437.484000C212.619000,437.594000,212.619000,437.705000,212.504000,437.705000L211.237000,438.917000C211.237000,439.028000,211.122000,439.028000,211.007000,438.917000C210.892000,438.917000,210.892000,438.807000,211.007000,438.697000L212.273000,437.484000C212.388000,437.374000,212.504000,437.374000,212.504000,437.484000ZM214.921000,433.846000C214.921000,433.846000,214.921000,433.957000,214.921000,434.067000L214.460000,434.508000C214.345000,434.508000,214.230000,434.508000,214.230000,434.508000C214.115000,434.398000,214.115000,434.287000,214.230000,434.287000L214.576000,433.846000C214.691000,433.736000,214.806000,433.736000,214.921000,433.846000ZM212.043000,436.602000C212.043000,436.713000,212.043000,436.823000,212.043000,436.823000L211.583000,437.264000C211.468000,437.374000,211.353000,437.374000,211.353000,437.264000C211.237000,437.154000,211.237000,437.043000,211.353000,437.043000L211.698000,436.602000C211.813000,436.492000,211.928000,436.492000,212.043000,436.602000ZM215.381000,432.083000C215.496000,432.083000,215.496000,432.193000,215.381000,432.303000L211.583000,435.831000C211.583000,435.941000,211.468000,435.941000,211.353000,435.831000C211.237000,435.831000,211.237000,435.720000,211.353000,435.610000L215.151000,432.083000C215.151000,431.972000,215.266000,431.972000,215.381000,432.083000Z" clip-rule="evenodd" fill="rgb(255,255,255)" fill-opacity="0.2" fill-rule="evenodd" stroke="none" stroke-width="1"/><path id="e2bwgfwxozjd135" d="M268,484.728000C268,484.728000,268,484.839000,268,484.949000L266.504000,486.382000C266.388000,486.382000,266.273000,486.382000,266.273000,486.382000C266.158000,486.272000,266.158000,486.161000,266.273000,486.051000L267.770000,484.728000C267.770000,484.618000,267.885000,484.618000,268,484.728000ZM271.914000,483.846000C272.029000,483.957000,272.029000,484.067000,271.914000,484.177000L270.187000,485.831000C270.072000,485.941000,269.957000,485.941000,269.842000,485.831000C269.842000,485.831000,269.842000,485.720000,269.842000,485.610000L271.683000,483.846000C271.799000,483.846000,271.914000,483.846000,271.914000,483.846000ZM267.194000,482.413000C267.309000,482.524000,267.309000,482.634000,267.194000,482.634000L265.468000,484.398000C265.353000,484.508000,265.237000,484.508000,265.122000,484.398000C265.122000,484.287000,265.122000,484.177000,265.122000,484.177000L266.964000,482.413000C267.079000,482.303000,267.194000,482.303000,267.194000,482.413000ZM265.122000,486.051000C265.237000,486.161000,265.237000,486.272000,265.122000,486.382000L264.317000,487.154000C264.317000,487.154000,264.201000,487.154000,264.086000,487.154000C263.971000,487.043000,263.971000,486.933000,264.086000,486.823000L264.892000,486.051000C265.007000,486.051000,265.122000,486.051000,265.122000,486.051000ZM271.338000,482.854000C271.453000,482.965000,271.453000,483.075000,271.338000,483.075000L268.691000,485.720000C268.576000,485.720000,268.460000,485.720000,268.460000,485.720000C268.345000,485.610000,268.345000,485.500000,268.460000,485.390000L271.108000,482.854000C271.223000,482.744000,271.338000,482.744000,271.338000,482.854000ZM268.230000,485.831000C268.345000,485.941000,268.345000,486.051000,268.230000,486.051000L266.964000,487.264000C266.964000,487.374000,266.734000,487.374000,266.734000,487.264000C266.619000,487.264000,266.619000,487.154000,266.734000,487.043000L268,485.831000C268,485.720000,268.115000,485.720000,268.230000,485.831000ZM266.504000,487.484000C266.619000,487.594000,266.619000,487.705000,266.504000,487.705000L265.237000,488.917000C265.237000,489.028000,265.122000,489.028000,265.007000,488.917000C264.892000,488.917000,264.892000,488.807000,265.007000,488.697000L266.273000,487.484000C266.388000,487.374000,266.504000,487.374000,266.504000,487.484000ZM268.921000,483.846000C268.921000,483.846000,268.921000,483.957000,268.921000,484.067000L268.460000,484.508000C268.345000,484.508000,268.230000,484.508000,268.230000,484.508000C268.115000,484.398000,268.115000,484.287000,268.230000,484.287000L268.576000,483.846000C268.691000,483.736000,268.806000,483.736000,268.921000,483.846000ZM266.043000,486.602000C266.043000,486.713000,266.043000,486.823000,266.043000,486.823000L265.583000,487.264000C265.468000,487.374000,265.353000,487.374000,265.353000,487.264000C265.237000,487.154000,265.237000,487.043000,265.353000,487.043000L265.698000,486.602000C265.813000,486.492000,265.928000,486.492000,266.043000,486.602000ZM269.381000,482.083000C269.496000,482.083000,269.496000,482.193000,269.381000,482.303000L265.583000,485.831000C265.583000,485.941000,265.468000,485.941000,265.353000,485.831000C265.237000,485.831000,265.237000,485.720000,265.353000,485.610000L269.151000,482.083000C269.151000,481.972000,269.266000,481.972000,269.381000,482.083000Z" clip-rule="evenodd" fill="rgb(255,255,255)" fill-opacity="0.2" fill-rule="evenodd" stroke="none" stroke-width="1"/></g><path id="e2bwgfwxozjd136" d="M48.833700,393.977000C4.874390,407.746000,-39.604200,414.073000,-83.909600,412.584000C-122.504000,411.468000,-160.925000,404.769000,-199,392.861000L-199,391C-160.925000,402.908000,-122.504000,409.607000,-83.909600,410.723000C-39.604200,412.212000,4.874390,406.258000,48.833700,392.116000L49.006800,392.116000C70.294200,417.422000,92.966100,435.285000,116.676000,445.705000C127.753000,450.915000,139.175000,454.636000,150.598000,456.497000C156.136000,457.241000,161.674000,457.985000,167.212000,458.357000C172.578000,458.357000,178.116000,458.357000,183.481000,457.985000L184,457.613000L184,459.474000L183.481000,459.474000C178.116000,459.846000,172.578000,460.218000,167.212000,459.846000C161.674000,459.846000,156.136000,459.102000,150.425000,458.357000C139.002000,456.124000,127.580000,452.775000,116.503000,447.565000C92.793100,436.773000,69.948100,418.910000,48.833700,393.977000Z" clip-rule="evenodd" fill="rgb(0,255,255)" fill-rule="evenodd" stroke="none" stroke-width="1"/><path id="e2bwgfwxozjd137" d="M51.036400,400.063000L51.036400,543.557000L44.339100,543.557000L44.339100,400.063000L42.106700,400.063000L42.106700,397.461000L45.827400,397.461000L45.827400,393L48.804000,393L48.804000,397.461000L53.268800,397.461000L53.268800,400.063000L51.036400,400.063000Z" clip-rule="evenodd" fill="rgb(105,67,67)" fill-rule="evenodd" stroke="none" stroke-width="1"/><path id="e2bwgfwxozjd138" d="M1304.480000,438L1273.860000,438L1280.450000,363.260000L1297.020000,363.425000L1304.480000,438Z" fill="rgb(234,234,234)" stroke="none" stroke-width="1"/><path id="e2bwgfwxozjd139" d="M1278.090000,389.901000L1277.540000,396.410000L1300.370000,396.410000L1299.710000,389.901000L1278.090000,389.901000Z" fill="rgb(248,85,85)" stroke="none" stroke-width="1"/><path id="e2bwgfwxozjd140" d="M1274.630000,429.561000L1273.860000,438L1304.480000,438L1303.660000,429.561000L1274.630000,429.561000Z" fill="rgb(248,85,85)" stroke="none" stroke-width="1"/><path id="e2bwgfwxozjd141" d="M1293.560000,422.997000L1283.960000,422.997000L1283.960000,437.945000L1293.560000,437.945000L1293.560000,422.997000Z" fill="rgb(113,64,55)" stroke="none" stroke-width="1"/><path id="e2bwgfwxozjd142" d="M1291.800000,386.482000L1285.770000,386.482000L1285.770000,396.300000L1291.800000,396.300000L1291.800000,386.482000Z" fill="rgb(113,64,55)" stroke="none" stroke-width="1"/><path id="e2bwgfwxozjd143" d="M1298,365C1296.330000,360.270000,1292.680000,357,1288.500000,357C1284.270000,357,1280.670000,360.270000,1279,365L1298,365Z" fill="rgb(113,64,55)" stroke="none" stroke-width="1"/><g id="e2bwgfwxozjd144_tr" transform="translate(1289.500000,375.444992) rotate(0)"><g id="e2bwgfwxozjd144" transform="translate(-1289.500000,-375.444992)"><path id="e2bwgfwxozjd145" d="M1288.940000,374.921000L1269.960000,395.061000L1270.390000,395.478000L1289.380000,375.338000L1288.940000,374.921000Z" fill="rgb(113,64,55)" stroke="none" stroke-width="1"/><path id="e2bwgfwxozjd146" d="M1289.320000,374.758000L1288.900000,375.191000L1308.640000,394.582000L1309.060000,394.148000L1289.320000,374.758000Z" fill="rgb(113,64,55)" stroke="none" stroke-width="1"/><path id="e2bwgfwxozjd147" d="M1289.280000,375.395000L1288.840000,375.008000L1308.490000,354.324000L1308.930000,354.710000L1289.280000,375.395000Z" fill="rgb(113,64,55)" stroke="none" stroke-width="1"/><path id="e2bwgfwxozjd148" d="M1289.660000,375.119000L1289.280000,375.560000L1269.200000,356.420000L1269.630000,355.979000L1289.660000,375.119000Z" fill="rgb(113,64,55)" stroke="none" stroke-width="1"/><path id="e2bwgfwxozjd149" d="M1291.640000,375.284000C1291.590000,376.663000,1290.430000,377.711000,1289.120000,377.656000C1287.740000,377.601000,1286.700000,376.443000,1286.760000,375.119000C1286.810000,373.740000,1287.960000,372.692000,1289.280000,372.747000C1290.650000,372.802000,1291.700000,373.960000,1291.640000,375.284000Z" fill="rgb(113,64,55)" stroke="none" stroke-width="1"/><path id="e2bwgfwxozjd150" d="M1272.430000,352.991000L1269.330000,356.267000L1284.830000,371.097000L1287.930000,367.821000L1272.430000,352.991000Z" fill="rgb(255,170,66)" stroke="none" stroke-width="1"/><path id="e2bwgfwxozjd151" d="M1281.210000,377.049000L1284.510000,380.193000L1270.290000,395.307000L1267,392.163000L1281.210000,377.049000Z" fill="rgb(255,170,66)" stroke="none" stroke-width="1"/><path id="e2bwgfwxozjd152" d="M1297.730000,372.692000L1294.380000,369.548000L1308.600000,354.434000L1312,357.633000L1297.730000,372.692000Z" fill="rgb(255,170,66)" stroke="none" stroke-width="1"/><path id="e2bwgfwxozjd153" d="M1290.160000,382.841000L1293.620000,379.201000L1308.870000,394.259000L1305.470000,397.899000L1290.160000,382.841000Z" fill="rgb(255,170,66)" stroke="none" stroke-width="1"/></g></g></svg>