<svg id="eil7nce9135d1" xmlns="http://www.w3.org/2000/svg" xmlns:xlink="http://www.w3.org/1999/xlink" viewBox="0 0 320 607" shape-rendering="geometricPrecision" text-rendering="geometricPrecision"><style><![CDATA[#eil7nce9135d2_to {animation: eil7nce9135d2_to__to 6000ms linear infinite normal forwards}@keyframes eil7nce9135d2_to__to { 0% {transform: translate(0px,0px)} 50% {transform: translate(30px,0px)} 100% {transform: translate(0px,0px)} }#eil7nce9135d3_to {animation: eil7nce9135d3_to__to 6000ms linear infinite normal forwards}@keyframes eil7nce9135d3_to__to { 0% {transform: translate(0px,0px)} 50% {transform: translate(30px,0px)} 100% {transform: translate(0px,0px)} }#eil7nce9135d4_to {animation: eil7nce9135d4_to__to 6000ms linear infinite normal forwards}@keyframes eil7nce9135d4_to__to { 0% {transform: translate(0px,0px)} 50% {transform: translate(30px,0px)} 100% {transform: translate(0px,0px)} }#eil7nce9135d104_tr {animation: eil7nce9135d104_tr__tr 6000ms linear infinite normal forwards}@keyframes eil7nce9135d104_tr__tr { 0% {transform: translate(291.198000px,417.560000px) rotate(0deg)} 50% {transform: translate(291.198000px,417.560000px) rotate(180.120096deg)} 100% {transform: translate(291.198000px,417.560000px) rotate(359.563188deg)} }]]></style><g id="eil7nce9135d2_to" transform="translate(0,0)"><path id="eil7nce9135d2" d="M250.646000,12.859100L251.881000,12.859100C251.528000,12.154500,251.352000,11.449900,251.352000,10.745300C251.352000,8.455310,253.293000,6.517640,255.587000,6.517640L260.881000,6.517640C262.292000,2.642290,265.998000,0,270.410000,0C274.645000,0,278.350000,2.642290,279.762000,6.517640L286.115000,6.517640C288.409000,6.517640,290.350000,8.455310,290.350000,10.745300C290.350000,11.449900,289.997000,12.154500,289.644000,12.859100L298.467000,12.859100C301.290000,12.859100,303.584000,15.149100,303.584000,17.791400C303.584000,20.609800,301.290000,22.723700,298.467000,22.723700L258.587000,22.723700C258.587000,22.899800,258.410000,22.899800,258.234000,22.899800L239.353000,22.899800C238.823000,22.899800,238.470000,22.371400,238.470000,21.842900C238.470000,21.314400,238.823000,20.962100,239.353000,20.962100L246.764000,20.962100C246.235000,20.081400,245.705000,19.024500,245.705000,17.791400C245.705000,15.149100,247.999000,12.859100,250.646000,12.859100ZM235.647000,20.962100L233.882000,20.962100C233.353000,20.962100,233,21.314400,233,21.842900C233,22.371400,233.353000,22.899800,233.882000,22.899800L235.647000,22.899800C236.176000,22.899800,236.706000,22.371400,236.706000,21.842900C236.706000,21.314400,236.176000,20.962100,235.647000,20.962100Z" transform="translate(0,0)" clip-rule="evenodd" fill="rgb(239,239,239)" fill-opacity="0.5" fill-rule="evenodd" stroke="none" stroke-width="1"/></g><g id="eil7nce9135d3_to" transform="translate(0,0)"><path id="eil7nce9135d3" d="M159.646000,395.859000L160.881000,395.859000C160.528000,395.155000,160.352000,394.450000,160.352000,393.745000C160.352000,391.455000,162.293000,389.518000,164.587000,389.518000L169.881000,389.518000C171.292000,385.642000,174.998000,383,179.410000,383C183.645000,383,187.350000,385.642000,188.762000,389.518000L195.115000,389.518000C197.409000,389.518000,199.350000,391.455000,199.350000,393.745000C199.350000,394.450000,198.997000,395.155000,198.644000,395.859000L207.467000,395.859000C210.290000,395.859000,212.584000,398.149000,212.584000,400.791000C212.584000,403.610000,210.290000,405.724000,207.467000,405.724000L167.587000,405.724000C167.587000,405.900000,167.410000,405.900000,167.234000,405.900000L148.353000,405.900000C147.823000,405.900000,147.470000,405.371000,147.470000,404.843000C147.470000,404.314000,147.823000,403.962000,148.353000,403.962000L155.764000,403.962000C155.235000,403.081000,154.705000,402.024000,154.705000,400.791000C154.705000,398.149000,156.999000,395.859000,159.646000,395.859000ZM144.647000,403.962000L142.882000,403.962000C142.353000,403.962000,142,404.314000,142,404.843000C142,405.371000,142.353000,405.900000,142.882000,405.900000L144.647000,405.900000C145.176000,405.900000,145.706000,405.371000,145.706000,404.843000C145.706000,404.314000,145.176000,403.962000,144.647000,403.962000Z" transform="translate(0,0)" clip-rule="evenodd" fill="rgb(239,239,239)" fill-opacity="0.5" fill-rule="evenodd" stroke="none" stroke-width="1"/></g><g id="eil7nce9135d4_to" transform="translate(0,0)"><path id="eil7nce9135d4" d="M78.819900,402.705000L74.584900,402.705000C73.879100,402.705000,73.349700,403.233000,73.349700,403.938000C73.349700,404.818000,73.879100,405.347000,74.584900,405.347000L78.819900,405.347000C79.525800,405.347000,80.055200,404.818000,80.055200,403.938000C80.055200,403.233000,79.525800,402.705000,78.819900,402.705000ZM24.999500,411.865000L32.940200,411.865000C32.587300,411.160000,32.587300,410.631000,32.587300,409.927000C32.587300,407.461000,34.528400,405.523000,36.998800,405.523000L41.763200,405.523000C41.763200,405.347000,41.763200,405.171000,41.763200,404.995000C41.763200,403.409000,43.174900,402,44.763100,402L67.879400,402C69.644000,402,70.879200,403.409000,70.879200,404.995000C70.879200,405.171000,70.879200,405.523000,70.879200,405.699000C72.820300,406.228000,74.055500,407.813000,74.055500,409.927000C74.055500,412.393000,72.114400,414.331000,69.644000,414.331000L51.821500,414.331000C51.645000,414.331000,51.468600,414.507000,51.292100,414.507000L24.999500,414.507000C24.293600,414.507000,23.587800,413.802000,23.587800,413.098000C23.587800,412.393000,24.293600,411.865000,24.999500,411.865000ZM19.882100,411.865000L17.411700,411.865000C16.705800,411.865000,16,412.393000,16,413.098000C16,413.802000,16.705800,414.507000,17.411700,414.507000L19.882100,414.507000C20.588000,414.507000,21.117400,413.802000,21.117400,413.098000C21.117400,412.393000,20.588000,411.865000,19.882100,411.865000Z" transform="translate(0,0)" clip-rule="evenodd" fill="rgb(239,239,239)" fill-opacity="0.5" fill-rule="evenodd" stroke="none" stroke-width="1"/></g><path id="eil7nce9135d5" d="M-1697,542.343000C-1306.530000,586.310000,-1163.410000,484.128000,-822.749000,542.343000C-670.216000,568.409000,-257.659000,423.819000,73,542.343000L73,607L-1697,607L-1697,542.343000Z" fill="rgb(189,222,122)" stroke="none" stroke-width="1"/><path id="eil7nce9135d6" d="M-1005,518.017000C-596,578.525000,-452,559,-88,499.776000C198.955000,453.087000,504,386.322000,849,518.017000L849,607L-1005,607L-1005,518.017000Z" fill="rgb(150,200,71)" stroke="none" stroke-width="1"/><path id="eil7nce9135d7" d="M146.903000,584.487000C146.903000,583.666000,146.253000,583,145.452000,583C144.650000,583,144,583.666000,144,584.487000L144,590.041000C144,590.862000,144.650000,591.528000,145.452000,591.528000C146.253000,591.528000,146.903000,590.862000,146.903000,590.041000L146.903000,584.487000Z" fill="rgb(99,167,34)" stroke="none" stroke-width="1"/><path id="eil7nce9135d8" d="M122.903000,550.115000C122.903000,549.499000,122.253000,549,121.452000,549C120.650000,549,120,549.499000,120,550.115000L120,554.263000C120,554.879000,120.650000,555.379000,121.452000,555.379000C122.253000,555.379000,122.903000,554.879000,122.903000,554.263000L122.903000,550.115000Z" fill="rgb(99,167,34)" stroke="none" stroke-width="1"/><path id="eil7nce9135d9" d="M44.903000,514.487000C44.903000,513.666000,44.253100,513,43.451500,513C42.649900,513,42,513.666000,42,514.487000L42,520.040000C42,520.862000,42.649900,521.527000,43.451500,521.527000C44.253100,521.527000,44.903000,520.862000,44.903000,520.040000L44.903000,514.487000Z" fill="rgb(99,167,34)" stroke="none" stroke-width="1"/><path id="eil7nce9135d10" d="M295.903000,544.487000C295.903000,543.666000,295.253000,543,294.451000,543C293.650000,543,293,543.666000,293,544.487000L293,550.041000C293,550.862000,293.650000,551.528000,294.451000,551.528000C295.253000,551.528000,295.903000,550.862000,295.903000,550.041000L295.903000,544.487000Z" fill="rgb(99,167,34)" stroke="none" stroke-width="1"/><path id="eil7nce9135d11" d="M227.674000,453.520000C228.418000,453.520000,228.790000,453.892000,228.790000,454.636000L228.790000,461.699000L226.558000,461.699000L226.558000,454.636000C226.558000,453.892000,226.930000,453.520000,227.674000,453.520000Z" clip-rule="evenodd" fill="rgb(166,28,28)" fill-rule="evenodd" stroke="none" stroke-width="1"/><path id="eil7nce9135d12" d="M234.371000,440.881000C236.231000,442.368000,237.348000,444.970000,237.348000,447.572000C237.348000,452.777000,232.883000,457.238000,227.674000,457.238000C222.093000,457.238000,218,452.777000,218,447.572000C218,444.970000,219.116000,442.368000,220.604000,440.881000C220.977000,440.509000,220.977000,439.766000,220.977000,439.394000C220.604000,438.650000,220.232000,437.535000,220.232000,436.420000C220.232000,434.189000,220.977000,432.331000,222.465000,430.844000C222.837000,430.844000,222.837000,430.100000,222.837000,429.728000C222.465000,429.357000,222.465000,428.613000,222.465000,427.870000C222.465000,425.268000,224.697000,422.665000,227.674000,422.665000C230.650000,422.665000,232.883000,425.268000,232.883000,427.870000C232.883000,428.613000,232.511000,429.357000,232.511000,429.728000C232.139000,430.100000,232.511000,430.844000,232.511000,430.844000C233.999000,432.331000,235.115000,434.189000,235.115000,436.420000C235.115000,437.535000,234.743000,438.650000,234.371000,439.394000C233.999000,439.766000,233.999000,440.509000,234.371000,440.881000Z" clip-rule="evenodd" fill="rgb(248,85,85)" fill-rule="evenodd" stroke="none" stroke-width="1"/><path id="eil7nce9135d13" d="M229.162000,456.866000C228.790000,457.238000,228.046000,457.238000,227.674000,457.238000C222.093000,457.238000,218,452.777000,218,447.572000C218,444.970000,219.116000,442.368000,220.604000,440.881000C220.977000,440.509000,220.977000,439.766000,220.977000,439.394000C220.604000,438.650000,220.232000,437.535000,220.232000,436.420000C220.232000,434.189000,220.977000,432.331000,222.465000,430.844000C222.837000,430.844000,222.837000,430.100000,222.837000,429.728000C222.465000,429.357000,222.465000,428.613000,222.465000,427.870000C222.465000,425.268000,224.697000,422.665000,227.674000,422.665000C228.046000,422.665000,228.046000,422.665000,228.418000,422.665000C226.186000,423.409000,224.697000,425.639000,224.697000,427.870000C224.697000,428.613000,224.697000,428.985000,225.069000,429.728000C225.069000,430.100000,225.069000,430.472000,224.697000,430.844000C223.209000,432.331000,222.465000,434.189000,222.465000,436.048000C222.465000,437.535000,222.837000,438.279000,223.209000,439.394000C223.209000,439.766000,223.209000,440.137000,222.837000,440.509000C221.349000,442.368000,220.232000,444.598000,220.232000,447.201000C220.232000,452.405000,224.325000,456.866000,229.162000,456.866000Z" clip-rule="evenodd" fill="rgb(235,61,61)" fill-rule="evenodd" stroke="none" stroke-width="1"/><path id="eil7nce9135d14" d="M227.674000,430.844000L227.674000,431.215000L227.674000,436.792000L230.650000,435.305000C230.650000,435.305000,230.650000,435.305000,231.022000,435.305000C231.022000,435.676000,231.022000,435.676000,230.650000,435.676000L227.674000,437.535000L227.674000,447.201000L230.650000,445.714000C230.650000,445.714000,230.650000,445.714000,231.022000,445.714000C231.022000,446.085000,231.022000,446.085000,230.650000,446.085000L227.674000,447.944000L227.674000,454.636000C227.302000,454.636000,227.302000,454.636000,227.302000,454.636000L227.302000,445.342000L224.325000,443.483000C224.325000,443.483000,224.325000,443.483000,224.325000,443.111000L224.697000,443.111000L227.302000,444.598000L227.302000,431.215000C227.302000,431.215000,227.302000,430.844000,227.674000,430.844000Z" clip-rule="evenodd" fill="rgb(166,28,28)" fill-rule="evenodd" stroke="none" stroke-width="1"/><path id="eil7nce9135d15" d="M222.093000,461.699000L232.883000,461.699000C233.255000,461.699000,233.255000,461.699000,233.255000,461.699000C233.255000,462.070000,233.255000,462.070000,232.883000,462.070000L222.093000,462.070000C222.093000,462.070000,222.093000,462.070000,222.093000,461.699000Z" clip-rule="evenodd" fill="rgb(0,0,0)" fill-opacity="0.101961" fill-rule="evenodd" stroke="none" stroke-width="1"/><path id="eil7nce9135d16" d="M245.161000,451.290000C246.277000,451.290000,246.649000,452.033000,246.649000,452.777000L246.649000,461.327000L244.045000,461.327000L244.045000,452.777000C244.045000,452.033000,244.417000,451.290000,245.161000,451.290000Z" clip-rule="evenodd" fill="rgb(171,67,22)" fill-rule="evenodd" stroke="none" stroke-width="1"/><path id="eil7nce9135d17" d="M253.719000,435.305000C255.951000,437.535000,257.439000,440.509000,257.439000,443.855000C257.439000,450.546000,251.858000,456.123000,245.161000,456.123000C238.836000,456.123000,233.255000,450.546000,233.255000,443.855000C233.255000,440.509000,234.743000,437.535000,236.604000,435.305000C237.348000,434.933000,237.348000,434.561000,236.976000,434.190000C236.604000,432.703000,236.231000,431.587000,236.231000,430.100000C236.231000,427.498000,237.348000,425.268000,238.836000,423.409000C239.580000,423.037000,239.580000,422.665000,239.208000,421.922000C239.208000,421.178000,238.836000,420.435000,238.836000,419.691000C238.836000,415.974000,241.812000,413,245.161000,413C248.882000,413,251.858000,415.974000,251.858000,419.691000C251.858000,420.435000,251.486000,421.178000,251.486000,421.922000C251.114000,422.665000,251.114000,423.037000,251.858000,423.409000C253.347000,425.268000,254.463000,427.498000,254.463000,430.100000C254.463000,431.587000,254.091000,432.703000,253.719000,434.190000C253.347000,434.561000,253.347000,434.933000,253.719000,435.305000Z" clip-rule="evenodd" fill="rgb(255,207,66)" fill-rule="evenodd" stroke="none" stroke-width="1"/><path id="eil7nce9135d18" d="M247.394000,455.751000C246.649000,455.751000,245.905000,456.123000,245.161000,456.123000C238.836000,456.123000,233.255000,450.546000,233.255000,443.855000C233.255000,440.509000,234.743000,437.535000,236.604000,435.305000C237.348000,434.933000,237.348000,434.561000,236.976000,434.190000C236.604000,432.703000,236.231000,431.587000,236.231000,430.100000C236.231000,427.498000,237.348000,425.268000,238.836000,423.409000C239.580000,423.037000,239.580000,422.665000,239.208000,421.922000C239.208000,421.178000,238.836000,420.435000,238.836000,419.691000C238.836000,415.974000,241.812000,413,245.161000,413C245.533000,413,245.905000,413.372000,246.277000,413.372000C243.673000,414.115000,241.812000,416.346000,241.812000,419.320000C241.812000,420.435000,241.812000,421.178000,242.185000,421.922000C242.185000,422.294000,242.185000,423.037000,241.812000,423.409000C239.952000,424.896000,238.836000,427.126000,238.836000,429.729000C238.836000,431.216000,239.208000,432.703000,239.952000,433.818000C239.952000,434.190000,239.952000,434.933000,239.580000,435.305000C237.348000,437.535000,236.231000,440.509000,236.231000,443.855000C236.231000,450.175000,241.068000,455.379000,247.394000,455.751000Z" clip-rule="evenodd" fill="rgb(255,170,66)" fill-rule="evenodd" stroke="none" stroke-width="1"/><path id="eil7nce9135d19" d="M245.161000,423.409000C245.533000,423.409000,245.533000,423.409000,245.533000,423.781000L245.533000,430.844000L248.882000,428.613000C249.254000,428.613000,249.254000,428.613000,249.626000,428.985000C249.626000,428.985000,249.626000,429.357000,249.254000,429.357000L245.533000,431.587000L245.533000,443.855000L248.882000,441.625000C249.254000,441.625000,249.254000,441.625000,249.626000,441.996000C249.626000,441.996000,249.626000,442.368000,249.254000,442.368000L245.533000,444.598000L245.533000,452.405000C245.533000,452.777000,245.533000,452.777000,245.161000,452.777000C245.161000,452.777000,244.789000,452.777000,244.789000,452.405000L244.789000,441.253000L241.440000,439.022000C241.068000,439.022000,241.068000,438.651000,241.068000,438.651000C241.440000,438.651000,241.440000,438.279000,241.812000,438.651000L244.789000,440.509000L244.789000,423.781000C244.789000,423.409000,245.161000,423.409000,245.161000,423.409000Z" clip-rule="evenodd" fill="rgb(171,67,22)" fill-rule="evenodd" stroke="none" stroke-width="1"/><path id="eil7nce9135d20" d="M238.464000,461.327000L252.231000,461.327000L252.231000,461.699000C252.231000,462.071000,252.231000,462.071000,252.231000,462.071000L238.464000,462.071000C238.464000,462.071000,238.464000,462.071000,238.464000,461.699000L238.464000,461.327000Z" clip-rule="evenodd" fill="rgb(0,0,0)" fill-opacity="0.101961" fill-rule="evenodd" stroke="none" stroke-width="1"/><path id="eil7nce9135d21" d="M79.855900,575.687000C81.295900,575.687000,82.159900,576.838000,82.159900,577.989000L82.159900,590.938000L77.839800,590.938000L77.839800,577.989000C77.839800,576.838000,78.703900,575.687000,79.855900,575.687000Z" clip-rule="evenodd" fill="rgb(145,96,19)" fill-rule="evenodd" stroke="none" stroke-width="1"/><path id="eil7nce9135d22" d="M92.816000,552.091000C95.984000,555.257000,98,559.861000,98,564.752000C98,574.536000,89.936000,582.593000,79.856000,582.593000C70.064000,582.593000,62,574.536000,62,564.752000C62,559.861000,64.016000,555.257000,67.184000,552.091000C67.760000,551.516000,68.048000,550.653000,67.472000,550.077000C66.608000,548.063000,66.320000,546.049000,66.320000,544.034000C66.320000,540.294000,67.760000,536.553000,70.640000,534.251000C71.216000,533.675000,71.216000,532.812000,70.928000,531.949000C70.640000,531.086000,70.352000,529.647000,70.352000,528.496000C70.352000,523.316000,74.672000,519,79.856000,519C85.328000,519,89.648000,523.316000,89.648000,528.496000C89.648000,529.647000,89.360000,531.086000,89.072000,531.949000C88.496000,532.812000,88.784000,533.675000,89.360000,534.251000C91.952000,536.553000,93.680000,540.294000,93.680000,544.034000C93.680000,546.049000,93.104000,548.063000,92.240000,550.077000C91.952000,550.653000,92.240000,551.516000,92.816000,552.091000Z" clip-rule="evenodd" fill="rgb(115,209,61)" fill-rule="evenodd" stroke="none" stroke-width="1"/><path id="eil7nce9135d23" d="M83.312100,582.305000C82.160000,582.593000,81.008000,582.593000,79.856000,582.593000C70.064000,582.593000,62,574.536000,62,564.752000C62,559.861000,64.016000,555.257000,67.184000,552.091000C67.760000,551.516000,68.048000,550.653000,67.472000,550.077000C66.608000,548.063000,66.320000,546.049000,66.320000,544.034000C66.320000,540.294000,67.760000,536.553000,70.640000,534.251000C71.216000,533.675000,71.216000,532.812000,70.928000,531.949000C70.640000,531.086000,70.352000,529.647000,70.352000,528.496000C70.352000,523.316000,74.672000,519,79.856000,519C80.432000,519,81.008000,519,81.296000,519C77.552000,520.151000,74.384000,523.892000,74.384000,528.208000C74.384000,529.359000,74.672000,530.798000,75.248000,531.661000C75.536000,532.524000,75.248000,533.388000,74.672000,533.963000C72.080000,536.265000,70.352000,540.006000,70.352000,543.747000C70.352000,545.761000,70.928000,547.775000,71.792000,549.789000C72.080000,550.365000,72.080000,551.228000,71.216000,551.804000C68.048000,554.969000,66.032000,559.573000,66.032000,564.465000C66.032000,573.960000,73.808000,581.730000,83.312100,582.305000Z" clip-rule="evenodd" fill="rgb(70,184,55)" fill-rule="evenodd" stroke="none" stroke-width="1"/><path id="eil7nce9135d24" d="M79.856000,534.251000C80.144000,534.251000,80.432000,534.251000,80.432000,534.539000L80.432000,544.898000L85.328000,542.020000C85.616000,542.020000,85.904000,542.020000,86.192000,542.308000C86.192000,542.596000,86.192000,542.883000,85.904000,542.883000L80.432000,546.049000L80.432000,564.465000L85.328000,561.587000C85.616000,561.299000,85.904000,561.587000,86.192000,561.587000C86.192000,561.875000,86.192000,562.163000,85.904000,562.450000L80.432000,565.616000L80.432000,577.701000C80.432000,577.989000,80.144000,577.989000,79.856000,577.989000C79.568000,577.989000,79.280000,577.989000,79.280000,577.701000L79.280000,560.724000L74.096000,557.559000C73.808000,557.559000,73.808000,556.983000,73.808000,556.983000C74.096000,556.695000,74.384000,556.408000,74.384000,556.695000L79.280000,559.573000L79.280000,534.539000C79.280000,534.251000,79.568000,534.251000,79.856000,534.251000Z" clip-rule="evenodd" fill="rgb(145,96,19)" fill-rule="evenodd" stroke="none" stroke-width="1"/><path id="eil7nce9135d25" d="M70.064000,590.938000L89.936000,590.938000C90.224000,590.938000,90.512000,590.938000,90.512000,591.225000C90.512000,591.513000,90.224000,591.801000,89.936000,591.801000L70.064000,591.801000C69.776000,591.801000,69.488000,591.513000,69.488000,591.225000C69.488000,590.938000,69.776000,590.938000,70.064000,590.938000Z" clip-rule="evenodd" fill="rgb(0,0,0)" fill-opacity="0.101961" fill-rule="evenodd" stroke="none" stroke-width="1"/><path id="eil7nce9135d26" d="M188.821000,456.449000L159.849000,484.181000L159.849000,520.248000L217.721000,520.248000L217.721000,484.181000L188.821000,456.449000Z" fill="rgb(229,216,185)" stroke="none" stroke-width="1"/><path id="eil7nce9135d27" d="M188.821000,456.449000L159.849000,484.181000L159.849000,491.869000L188.821000,464.136000L217.721000,491.869000L217.721000,484.181000L188.821000,456.449000Z" fill="rgb(175,175,175)" stroke="none" stroke-width="1"/><path id="eil7nce9135d28" d="M217.721000,517.805000L159.849000,517.805000L159.849000,520.248000L217.721000,520.248000L217.721000,517.805000Z" fill="rgb(200,177,134)" stroke="none" stroke-width="1"/><path id="eil7nce9135d29" d="M154.792000,487.630000L188.821000,456.449000L222.345000,487.630000" fill="none" stroke="rgb(0,90,138)" stroke-width="7" stroke-miterlimit="10"/><path id="eil7nce9135d30" d="M188.821000,484.038000C192.572000,484.038000,195.612000,481.014000,195.612000,477.284000C195.612000,473.554000,192.572000,470.531000,188.821000,470.531000C185.070000,470.531000,182.030000,473.554000,182.030000,477.284000C182.030000,481.014000,185.070000,484.038000,188.821000,484.038000Z" fill="rgb(255,255,255)" stroke="none" stroke-width="1"/><path id="eil7nce9135d31" d="M193.517000,477.284000C193.517000,479.870000,191.422000,481.954000,188.821000,481.954000C186.220000,481.954000,184.125000,479.870000,184.125000,477.284000C184.125000,474.698000,186.220000,472.614000,188.821000,472.614000C191.422000,472.614000,193.517000,474.698000,193.517000,477.284000Z" fill="rgb(18,146,213)" stroke="none" stroke-width="1"/><path id="eil7nce9135d32" d="M186.003000,494.312000L167.580000,494.312000L167.580000,512.632000L186.003000,512.632000L186.003000,494.312000Z" fill="rgb(255,255,255)" stroke="none" stroke-width="1"/><path id="eil7nce9135d33" d="M184.269000,495.964000L169.241000,495.964000L169.241000,510.908000L184.269000,510.908000L184.269000,495.964000Z" fill="rgb(18,146,213)" stroke="none" stroke-width="1"/><path id="eil7nce9135d34" d="M177.333000,495.964000L176.250000,495.964000L176.250000,510.908000L177.333000,510.908000L177.333000,495.964000Z" fill="rgb(255,255,255)" stroke="none" stroke-width="1"/><path id="eil7nce9135d35" d="M184.269000,502.933000L169.241000,502.933000L169.241000,504.011000L184.269000,504.011000L184.269000,502.933000Z" fill="rgb(255,255,255)" stroke="none" stroke-width="1"/><path id="eil7nce9135d36" d="M209.629000,493.737000L191.205000,493.737000L191.205000,512.057000L209.629000,512.057000L209.629000,493.737000Z" fill="rgb(255,255,255)" stroke="none" stroke-width="1"/><path id="eil7nce9135d37" d="M207.895000,495.461000L192.867000,495.461000L192.867000,510.405000L207.895000,510.405000L207.895000,495.461000Z" fill="rgb(18,146,213)" stroke="none" stroke-width="1"/><path id="eil7nce9135d38" d="M200.959000,495.461000L199.875000,495.461000L199.875000,510.405000L200.959000,510.405000L200.959000,495.461000Z" fill="rgb(255,255,255)" stroke="none" stroke-width="1"/><path id="eil7nce9135d39" d="M207.895000,502.430000L192.867000,502.430000L192.867000,503.508000L207.895000,503.508000L207.895000,502.430000Z" fill="rgb(255,255,255)" stroke="none" stroke-width="1"/><path id="eil7nce9135d40" d="M219.888000,528.588000L156.959000,528.588000L156.959000,575L219.888000,575L219.888000,528.588000Z" fill="rgb(245,236,213)" stroke="none" stroke-width="1"/><path id="eil7nce9135d41" d="M219.888000,528.588000L156.959000,528.588000L156.959000,539.436000L219.888000,539.436000L219.888000,528.588000Z" fill="rgb(138,138,138)" stroke="none" stroke-width="1"/><path id="eil7nce9135d42" d="M219.888000,572.198000L156.959000,572.198000L156.959000,575L219.888000,575L219.888000,572.198000Z" fill="rgb(200,177,134)" stroke="none" stroke-width="1"/><path id="eil7nce9135d43" d="M205.655000,543.316000L171.553000,543.316000L171.553000,575L205.655000,575L205.655000,543.316000Z" fill="rgb(255,255,255)" stroke="none" stroke-width="1"/><path id="eil7nce9135d44" d="M202.621000,546.190000L174.516000,546.190000L174.516000,575L202.621000,575L202.621000,546.190000Z" fill="rgb(184,170,139)" stroke="none" stroke-width="1"/><path id="eil7nce9135d45" d="M202.621000,547.914000L174.516000,547.914000L174.516000,549.208000L202.621000,549.208000L202.621000,547.914000Z" fill="rgb(255,255,255)" stroke="none" stroke-width="1"/><path id="eil7nce9135d46" d="M202.621000,548.848000L174.516000,548.848000L174.516000,549.207000L202.621000,549.207000L202.621000,548.848000Z" fill="rgb(197,197,197)" stroke="none" stroke-width="1"/><path id="eil7nce9135d47" d="M202.621000,551.147000L174.516000,551.147000L174.516000,552.441000L202.621000,552.441000L202.621000,551.147000Z" fill="rgb(255,255,255)" stroke="none" stroke-width="1"/><path id="eil7nce9135d48" d="M202.621000,552.010000L174.516000,552.010000L174.516000,552.369000L202.621000,552.369000L202.621000,552.010000Z" fill="rgb(197,197,197)" stroke="none" stroke-width="1"/><path id="eil7nce9135d49" d="M202.621000,554.380000L174.516000,554.380000L174.516000,555.674000L202.621000,555.674000L202.621000,554.380000Z" fill="rgb(255,255,255)" stroke="none" stroke-width="1"/><path id="eil7nce9135d50" d="M202.621000,555.243000L174.516000,555.243000L174.516000,555.602000L202.621000,555.602000L202.621000,555.243000Z" fill="rgb(197,197,197)" stroke="none" stroke-width="1"/><path id="eil7nce9135d51" d="M202.621000,557.614000L174.516000,557.614000L174.516000,558.907000L202.621000,558.907000L202.621000,557.614000Z" fill="rgb(255,255,255)" stroke="none" stroke-width="1"/><path id="eil7nce9135d52" d="M202.621000,558.476000L174.516000,558.476000L174.516000,558.835000L202.621000,558.835000L202.621000,558.476000Z" fill="rgb(197,197,197)" stroke="none" stroke-width="1"/><path id="eil7nce9135d53" d="M202.621000,560.775000L174.516000,560.775000L174.516000,562.068000L202.621000,562.068000L202.621000,560.775000Z" fill="rgb(255,255,255)" stroke="none" stroke-width="1"/><path id="eil7nce9135d54" d="M202.621000,561.709000L174.516000,561.709000L174.516000,562.068000L202.621000,562.068000L202.621000,561.709000Z" fill="rgb(197,197,197)" stroke="none" stroke-width="1"/><path id="eil7nce9135d55" d="M202.621000,564.008000L174.516000,564.008000L174.516000,565.301000L202.621000,565.301000L202.621000,564.008000Z" fill="rgb(255,255,255)" stroke="none" stroke-width="1"/><path id="eil7nce9135d56" d="M202.621000,564.942000L174.516000,564.942000L174.516000,565.301000L202.621000,565.301000L202.621000,564.942000Z" fill="rgb(197,197,197)" stroke="none" stroke-width="1"/><path id="eil7nce9135d57" d="M202.621000,567.241000L174.516000,567.241000L174.516000,568.534000L202.621000,568.534000L202.621000,567.241000Z" fill="rgb(255,255,255)" stroke="none" stroke-width="1"/><path id="eil7nce9135d58" d="M202.621000,568.175000L174.516000,568.175000L174.516000,568.534000L202.621000,568.534000L202.621000,568.175000Z" fill="rgb(197,197,197)" stroke="none" stroke-width="1"/><path id="eil7nce9135d59" d="M202.621000,570.474000L174.516000,570.474000L174.516000,571.767000L202.621000,571.767000L202.621000,570.474000Z" fill="rgb(255,255,255)" stroke="none" stroke-width="1"/><path id="eil7nce9135d60" d="M202.621000,571.408000L174.516000,571.408000L174.516000,571.767000L202.621000,571.767000L202.621000,571.408000Z" fill="rgb(197,197,197)" stroke="none" stroke-width="1"/><path id="eil7nce9135d61" d="M224.007000,519.607000L175.310000,519.607000L173.865000,519.607000L152.841000,519.607000L148,534.982000L173.865000,534.982000L175.310000,534.982000L228.775000,534.982000L224.007000,519.607000Z" fill="rgb(0,90,138)" stroke="none" stroke-width="1"/><path id="eil7nce9135d62" d="M157.970000,523.056000L225.090000,523.056000L224.007000,519.607000L152.841000,519.607000L148,534.982000L154.647000,534.982000L157.970000,523.056000Z" fill="rgb(12,68,98)" stroke="none" stroke-width="1"/><path id="eil7nce9135d63" d="M228.775000,534.982000L148,534.982000L148,536.706000L228.775000,536.706000L228.775000,534.982000Z" fill="rgb(80,43,50)" stroke="none" stroke-width="1"/><path id="eil7nce9135d64" d="M219.888000,536.706000L207.895000,536.706000L207.895000,574.928000L219.888000,574.928000L219.888000,536.706000Z" fill="rgb(138,138,138)" stroke="none" stroke-width="1"/><path id="eil7nce9135d65" d="M243.153000,504.807000L212.808000,526.432000L212.808000,575L273.498000,575L273.498000,526.432000L243.153000,504.807000Z" fill="rgb(235,231,207)" stroke="none" stroke-width="1"/><path id="eil7nce9135d66" d="M243.153000,504.807000L212.808000,526.432000L212.808000,537.568000L243.153000,515.871000L273.498000,537.568000L273.498000,526.432000L243.153000,504.807000Z" fill="rgb(175,175,175)" stroke="none" stroke-width="1"/><path id="eil7nce9135d67" d="M273.498000,571.336000L212.808000,571.336000L212.808000,575L273.498000,575L273.498000,571.336000Z" fill="rgb(197,185,158)" stroke="none" stroke-width="1"/><path id="eil7nce9135d68" d="M252.039000,544.825000L234.266000,544.825000L234.266000,575L252.039000,575L252.039000,544.825000Z" fill="rgb(131,87,47)" stroke="none" stroke-width="1"/><path id="eil7nce9135d69" d="M235.350000,575L235.350000,546.693000L250.883000,546.693000L250.883000,575" fill="none" stroke="rgb(101,68,35)" stroke-width="1" stroke-miterlimit="10"/><g id="eil7nce9135d70" opacity="0.2"><path id="eil7nce9135d71" d="M249.655000,547.986000L236.433000,547.986000L236.433000,553.949000L249.655000,553.949000L249.655000,547.986000Z" opacity="0.2" fill="rgb(255,255,255)" stroke="none" stroke-width="1"/><path id="eil7nce9135d72" d="M249.655000,554.740000L236.433000,554.740000L236.433000,560.703000L249.655000,560.703000L249.655000,554.740000Z" opacity="0.2" fill="rgb(255,255,255)" stroke="none" stroke-width="1"/><path id="eil7nce9135d73" d="M249.655000,561.421000L236.433000,561.421000L236.433000,567.384000L249.655000,567.384000L249.655000,561.421000Z" opacity="0.2" fill="rgb(255,255,255)" stroke="none" stroke-width="1"/><path id="eil7nce9135d74" d="M249.655000,568.103000L236.433000,568.103000L236.433000,574.066000L249.655000,574.066000L249.655000,568.103000Z" opacity="0.2" fill="rgb(255,255,255)" stroke="none" stroke-width="1"/></g><path id="eil7nce9135d75" d="M250.016000,560.846000C250.016000,561.493000,249.438000,562.068000,248.788000,562.068000C248.138000,562.068000,247.560000,561.493000,247.560000,560.846000C247.560000,560.200000,248.138000,559.625000,248.788000,559.625000C249.511000,559.625000,250.016000,560.128000,250.016000,560.846000Z" fill="rgb(101,68,35)" stroke="none" stroke-width="1"/><path id="eil7nce9135d76" d="M249.655000,560.846000C249.655000,561.277000,249.294000,561.637000,248.860000,561.637000C248.427000,561.637000,248.066000,561.277000,248.066000,560.846000C248.066000,560.415000,248.427000,560.056000,248.860000,560.056000C249.294000,559.984000,249.655000,560.343000,249.655000,560.846000Z" fill="rgb(81,55,27)" stroke="none" stroke-width="1"/><path id="eil7nce9135d77" d="M207.245000,531.749000L243.153000,504.807000L278.555000,530.743000" fill="none" stroke="rgb(9,78,115)" stroke-width="7" stroke-miterlimit="10"/><path id="eil7nce9135d78" d="M250.594000,527.654000C250.594000,531.749000,247.271000,535.054000,243.153000,535.054000C239.034000,535.054000,235.711000,531.749000,235.711000,527.654000C235.711000,523.559000,239.034000,520.254000,243.153000,520.254000C247.199000,520.326000,250.594000,523.630000,250.594000,527.654000Z" fill="rgb(255,255,255)" stroke="none" stroke-width="1"/><path id="eil7nce9135d79" d="M248.282000,527.654000C248.282000,530.456000,245.970000,532.755000,243.153000,532.755000C240.335000,532.755000,238.023000,530.456000,238.023000,527.654000C238.023000,524.852000,240.335000,522.553000,243.153000,522.553000C245.970000,522.553000,248.282000,524.852000,248.282000,527.654000Z" fill="rgb(18,146,213)" stroke="none" stroke-width="1"/><path id="eil7nce9135d80" d="M233.760000,554.237000C233.616000,552.584000,231.448000,551.291000,228.775000,551.291000C226.102000,551.291000,223.934000,552.584000,223.790000,554.237000L223.790000,575L233.760000,575L233.760000,554.237000Z" fill="rgb(255,255,255)" stroke="none" stroke-width="1"/><path id="eil7nce9135d81" d="M232.749000,554.596000C232.676000,553.303000,230.942000,552.225000,228.775000,552.225000C226.680000,552.225000,224.946000,553.231000,224.801000,554.596000L224.801000,575L232.676000,575L232.749000,554.596000Z" fill="rgb(18,146,213)" stroke="none" stroke-width="1"/><path id="eil7nce9135d82" d="M229.281000,551.578000L228.269000,551.578000L228.269000,575L229.281000,575L229.281000,551.578000Z" fill="rgb(255,255,255)" stroke="none" stroke-width="1"/><path id="eil7nce9135d83" d="M232.749000,555.530000L224.874000,555.530000L224.874000,556.248000L232.749000,556.248000L232.749000,555.530000Z" fill="rgb(255,255,255)" stroke="none" stroke-width="1"/><path id="eil7nce9135d84" d="M232.749000,559.338000L224.874000,559.338000L224.874000,560.056000L232.749000,560.056000L232.749000,559.338000Z" fill="rgb(255,255,255)" stroke="none" stroke-width="1"/><path id="eil7nce9135d85" d="M232.749000,563.146000L224.874000,563.146000L224.874000,563.864000L232.749000,563.864000L232.749000,563.146000Z" fill="rgb(255,255,255)" stroke="none" stroke-width="1"/><path id="eil7nce9135d86" d="M232.749000,566.953000L224.874000,566.953000L224.874000,567.672000L232.749000,567.672000L232.749000,566.953000Z" fill="rgb(255,255,255)" stroke="none" stroke-width="1"/><path id="eil7nce9135d87" d="M232.749000,570.761000L224.874000,570.761000L224.874000,571.480000L232.749000,571.480000L232.749000,570.761000Z" fill="rgb(255,255,255)" stroke="none" stroke-width="1"/><path id="eil7nce9135d88" d="M261.938000,554.237000C261.865000,552.584000,259.626000,551.291000,256.952000,551.291000C254.279000,551.291000,252.112000,552.584000,251.967000,554.237000L251.967000,575L261.938000,575L261.938000,554.237000Z" fill="rgb(255,255,255)" stroke="none" stroke-width="1"/><path id="eil7nce9135d89" d="M260.926000,554.596000C260.854000,553.303000,259.120000,552.225000,256.952000,552.225000C254.857000,552.225000,253.123000,553.231000,252.979000,554.596000L252.979000,575L260.854000,575L260.926000,554.596000Z" fill="rgb(18,146,213)" stroke="none" stroke-width="1"/><path id="eil7nce9135d90" d="M257.458000,551.578000L256.447000,551.578000L256.447000,575L257.458000,575L257.458000,551.578000Z" fill="rgb(255,255,255)" stroke="none" stroke-width="1"/><path id="eil7nce9135d91" d="M260.854000,555.530000L252.979000,555.530000L252.979000,556.248000L260.854000,556.248000L260.854000,555.530000Z" fill="rgb(255,255,255)" stroke="none" stroke-width="1"/><path id="eil7nce9135d92" d="M260.854000,559.338000L252.979000,559.338000L252.979000,560.056000L260.854000,560.056000L260.854000,559.338000Z" fill="rgb(255,255,255)" stroke="none" stroke-width="1"/><path id="eil7nce9135d93" d="M260.854000,563.146000L252.979000,563.146000L252.979000,563.864000L260.854000,563.864000L260.854000,563.146000Z" fill="rgb(255,255,255)" stroke="none" stroke-width="1"/><path id="eil7nce9135d94" d="M260.854000,566.953000L252.979000,566.953000L252.979000,567.672000L260.854000,567.672000L260.854000,566.953000Z" fill="rgb(255,255,255)" stroke="none" stroke-width="1"/><path id="eil7nce9135d95" d="M260.854000,570.761000L252.979000,570.761000L252.979000,571.480000L260.854000,571.480000L260.854000,570.761000Z" fill="rgb(255,255,255)" stroke="none" stroke-width="1"/><path id="eil7nce9135d96" d="M23.833700,435.977000C-20.125600,449.746000,-64.604200,456.073000,-108.910000,454.584000C-147.504000,453.468000,-185.925000,446.769000,-224,434.861000L-224,433C-185.925000,444.908000,-147.504000,451.607000,-108.910000,452.723000C-64.604200,454.212000,-20.125600,448.258000,23.833700,434.116000L24.006800,434.116000C45.294200,459.422000,67.966100,477.285000,91.676500,487.705000C102.753000,492.915000,114.175000,496.636000,125.598000,498.497000C131.136000,499.241000,136.674000,499.985000,142.212000,500.357000C147.578000,500.357000,153.116000,500.357000,158.481000,499.985000L159,499.613000L159,501.474000L158.481000,501.474000C153.116000,501.846000,147.578000,502.218000,142.212000,501.846000C136.674000,501.846000,131.136000,501.102000,125.425000,500.357000C114.002000,498.124000,102.580000,494.775000,91.503400,489.565000C67.793100,478.773000,44.948100,460.910000,23.833700,435.977000Z" clip-rule="evenodd" fill="rgb(0,255,255)" fill-rule="evenodd" stroke="none" stroke-width="1"/><path id="eil7nce9135d97" d="M26.036400,442.063000L26.036400,585.557000L19.339100,585.557000L19.339100,442.063000L17.106700,442.063000L17.106700,439.461000L20.827400,439.461000L20.827400,435L23.804000,435L23.804000,439.461000L28.268800,439.461000L28.268800,442.063000L26.036400,442.063000Z" clip-rule="evenodd" fill="rgb(105,67,67)" fill-rule="evenodd" stroke="none" stroke-width="1"/><path id="eil7nce9135d98" d="M306.482000,480L275.860000,480L282.445000,405.260000L299.018000,405.425000L306.482000,480Z" fill="rgb(234,234,234)" stroke="none" stroke-width="1"/><path id="eil7nce9135d99" d="M280.085000,431.901000L279.537000,438.410000L302.366000,438.410000L301.707000,431.901000L280.085000,431.901000Z" fill="rgb(248,85,85)" stroke="none" stroke-width="1"/><path id="eil7nce9135d100" d="M276.628000,471.561000L275.860000,480L306.482000,480L305.659000,471.561000L276.628000,471.561000Z" fill="rgb(248,85,85)" stroke="none" stroke-width="1"/><path id="eil7nce9135d101" d="M295.561000,464.997000L285.957000,464.997000L285.957000,479.945000L295.561000,479.945000L295.561000,464.997000Z" fill="rgb(113,64,55)" stroke="none" stroke-width="1"/><path id="eil7nce9135d102" d="M293.805000,428.481000L287.768000,428.481000L287.768000,438.300000L293.805000,438.300000L293.805000,428.481000Z" fill="rgb(113,64,55)" stroke="none" stroke-width="1"/><path id="eil7nce9135d103" d="M300,407C298.330000,402.270000,294.676000,399,290.500000,399C286.272000,399,282.670000,402.270000,281,407L300,407Z" fill="rgb(113,64,55)" stroke="none" stroke-width="1"/><g id="eil7nce9135d104_tr" transform="translate(291.198000,417.560000) rotate(0)"><g id="eil7nce9135d104" transform="translate(-291.198000,-417.560000)"><path id="eil7nce9135d105" d="M291.665000,417.119000L291.280000,417.560000L271.195000,398.420000L271.634000,397.979000L291.665000,417.119000Z" fill="rgb(113,64,55)" stroke="none" stroke-width="1"/><path id="eil7nce9135d106" d="M274.429000,394.991000L271.326000,398.267000L286.830000,413.097000L289.933000,409.821000L274.429000,394.991000Z" fill="rgb(255,170,66)" stroke="none" stroke-width="1"/><path id="eil7nce9135d107" d="M291.280000,417.395000L290.841000,417.008000L310.488000,396.324000L310.927000,396.710000L291.280000,417.395000Z" fill="rgb(113,64,55)" stroke="none" stroke-width="1"/><path id="eil7nce9135d108" d="M299.732000,414.692000L296.384000,411.548000L310.598000,396.434000L314,399.633000L299.732000,414.692000Z" fill="rgb(255,170,66)" stroke="none" stroke-width="1"/><path id="eil7nce9135d109" d="M291.323000,416.758000L290.901000,417.192000L310.643000,436.582000L311.065000,436.149000L291.323000,416.758000Z" fill="rgb(113,64,55)" stroke="none" stroke-width="1"/><path id="eil7nce9135d110" d="M290.942000,416.921000L271.956000,437.061000L272.394000,437.478000L291.380000,417.338000L290.942000,416.921000Z" fill="rgb(113,64,55)" stroke="none" stroke-width="1"/><path id="eil7nce9135d111" d="M293.640000,417.284000C293.585000,418.663000,292.433000,419.711000,291.116000,419.656000C289.744000,419.601000,288.701000,418.443000,288.756000,417.119000C288.811000,415.740000,289.963000,414.692000,291.280000,414.747000C292.652000,414.802000,293.695000,415.960000,293.640000,417.284000Z" fill="rgb(113,64,55)" stroke="none" stroke-width="1"/><path id="eil7nce9135d112" d="M292.158000,424.841000L295.616000,421.201000L310.872000,436.259000L307.469000,439.899000L292.158000,424.841000Z" fill="rgb(255,170,66)" stroke="none" stroke-width="1"/><path id="eil7nce9135d113" d="M283.213000,419.049000L286.506000,422.193000L272.293000,437.307000L269,434.163000L283.213000,419.049000Z" transform="matrix(1 0 0 1 -0.10199999999998 0.17099999999999)" fill="rgb(255,170,66)" stroke="none" stroke-width="1"/></g></g><path id="eil7nce9135d114" d="M283.419000,563.350000L283.065000,562.252000C283.105000,562.213000,283.144000,562.213000,283.222000,562.173000C283.497000,562.056000,284.439000,562.173000,284.439000,562.173000C284.910000,562.173000,285.263000,562.134000,285.263000,561.663000L285.263000,561.624000C285.263000,561.153000,284.831000,561.075000,284.360000,561.036000C283.693000,560.996000,282.045000,560.761000,281.771000,560.761000C281.378000,560.761000,281.025000,560.996000,280.829000,561.271000C280.711000,561.428000,280.594000,561.624000,280.594000,561.859000C280.594000,562.448000,280.986000,562.723000,281.771000,562.723000C281.967000,562.723000,282.124000,562.683000,282.320000,562.605000L282.634000,563.586000C282.673000,563.429000,283.262000,563.233000,283.419000,563.350000Z" fill="rgb(51,51,51)" stroke="none" stroke-width="1"/><path id="eil7nce9135d115" d="M298.407000,565.979000C297.230000,565.979000,296.092000,566.293000,295.111000,566.843000C295.229000,567.078000,295.346000,567.313000,295.464000,567.549000C296.327000,567.078000,297.308000,566.764000,298.368000,566.764000C301.624000,566.764000,304.253000,569.393000,304.253000,572.649000C304.253000,575.906000,301.624000,578.535000,298.368000,578.535000C295.111000,578.535000,292.482000,575.906000,292.482000,572.649000C292.482000,570.766000,293.385000,569.079000,294.797000,567.980000C294.679000,567.745000,294.522000,567.510000,294.405000,567.235000C292.757000,568.451000,291.658000,570.413000,291.658000,572.610000C291.658000,576.298000,294.640000,579.280000,298.328000,579.280000C302.016000,579.280000,304.998000,576.298000,304.998000,572.610000C305.077000,569.001000,302.095000,565.979000,298.407000,565.979000Z" fill="rgb(51,51,51)" stroke="none" stroke-width="1"/><path id="eil7nce9135d116" d="M298.407000,573.787000C299.035000,573.787000,299.545000,573.277000,299.545000,572.649000C299.545000,572.022000,299.035000,571.512000,298.407000,571.512000C298.289000,571.512000,298.171000,571.551000,298.054000,571.590000C298.289000,571.904000,298.485000,572.139000,298.642000,572.296000C298.799000,572.453000,298.799000,572.728000,298.642000,572.885000C298.564000,572.963000,298.446000,573.003000,298.368000,573.003000C298.250000,573.003000,298.171000,572.963000,298.093000,572.885000C297.936000,572.728000,297.740000,572.453000,297.465000,572.100000C297.387000,572.257000,297.308000,572.453000,297.308000,572.649000C297.269000,573.316000,297.779000,573.787000,298.407000,573.787000Z" fill="rgb(51,51,51)" stroke="none" stroke-width="1"/><path id="eil7nce9135d117" d="M277.416000,572.257000L277.651000,572.257000C277.612000,572.178000,277.612000,572.139000,277.573000,572.061000L277.416000,572.257000Z" fill="rgb(51,51,51)" stroke="none" stroke-width="1"/><path id="eil7nce9135d118" d="M286.479000,572.846000C286.361000,573.003000,286.048000,573.003000,286.048000,573.003000L284.164000,573.003000C284.321000,573.787000,284.949000,574.415000,285.773000,574.533000L283.144000,574.297000C283.262000,573.866000,283.301000,573.434000,283.340000,573.003000L282.516000,573.003000C282.477000,573.434000,282.438000,573.866000,282.320000,574.258000L281.771000,574.219000L276.670000,573.787000C277.180000,573.787000,277.573000,573.473000,277.729000,573.042000L276.670000,573.042000C276.513000,573.042000,276.395000,573.003000,276.317000,572.846000C276.239000,572.689000,276.278000,572.571000,276.356000,572.453000L277.023000,571.590000C276.906000,571.551000,276.788000,571.551000,276.670000,571.551000L277.102000,571.512000L277.533000,570.923000L276.631000,571.002000C275.728000,571.002000,274.983000,571.747000,274.983000,572.649000C274.983000,573.552000,275.728000,574.297000,276.631000,574.337000L281.575000,574.807000L282.124000,574.847000C281.261000,577.044000,279.142000,578.574000,276.670000,578.574000C273.414000,578.574000,270.785000,575.945000,270.785000,572.689000C270.785000,569.432000,273.414000,566.803000,276.670000,566.803000C277.886000,566.803000,278.985000,567.156000,279.927000,567.784000L280.437000,567.156000C279.377000,566.411000,278.083000,565.979000,276.670000,565.979000C272.982000,565.979000,270,568.961000,270,572.649000C270,576.338000,272.982000,579.320000,276.670000,579.320000C279.574000,579.320000,282.045000,577.436000,282.987000,574.847000L286.087000,575.121000L286.126000,575.121000L286.361000,576.652000L286.165000,576.691000C285.969000,576.730000,285.812000,576.926000,285.851000,577.162000L285.851000,577.201000C285.891000,577.397000,286.087000,577.554000,286.322000,577.515000L287.931000,577.201000C288.127000,577.162000,288.284000,576.965000,288.245000,576.730000L288.245000,576.691000C288.205000,576.495000,288.009000,576.338000,287.774000,576.377000L287.146000,576.495000L286.911000,574.964000C287.892000,574.611000,288.559000,573.630000,288.559000,572.571000C288.559000,572.061000,288.402000,571.551000,288.088000,571.119000L286.479000,572.846000Z" fill="rgb(51,51,51)" stroke="none" stroke-width="1"/><path id="eil7nce9135d119" d="M284.125000,572.257000L285.459000,572.257000L285.067000,571.001000C284.596000,571.237000,284.243000,571.708000,284.125000,572.257000Z" fill="rgb(51,51,51)" stroke="none" stroke-width="1"/><path id="eil7nce9135d120" d="M295.778000,568.059000C296.563000,567.627000,297.465000,567.353000,298.407000,567.353000C301.350000,567.353000,303.743000,569.746000,303.743000,572.689000C303.743000,575.631000,301.350000,578.025000,298.407000,578.025000C295.464000,578.025000,293.071000,575.631000,293.071000,572.689000C293.071000,571.001000,293.856000,569.471000,295.111000,568.490000C295.033000,568.333000,294.915000,568.176000,294.836000,568.020000C293.424000,569.079000,292.521000,570.766000,292.521000,572.689000C292.521000,575.945000,295.150000,578.574000,298.407000,578.574000C301.663000,578.574000,304.292000,575.945000,304.292000,572.689000C304.292000,569.432000,301.663000,566.803000,298.407000,566.803000C297.348000,566.803000,296.367000,567.078000,295.503000,567.588000C295.582000,567.745000,295.660000,567.902000,295.778000,568.059000Z" fill="rgb(191,63,18)" stroke="none" stroke-width="1"/><path id="eil7nce9135d121" d="M282.281000,574.258000C282.398000,573.866000,282.477000,573.434000,282.477000,573.002000L281.928000,573.002000C281.888000,573.434000,281.849000,573.826000,281.731000,574.180000L282.281000,574.258000Z" fill="rgb(191,63,18)" stroke="none" stroke-width="1"/><path id="eil7nce9135d122" d="M281.496000,570.531000L282.046000,570.491000C281.692000,569.668000,281.182000,568.922000,280.515000,568.333000L280.201000,568.765000C280.751000,569.236000,281.182000,569.824000,281.496000,570.531000Z" fill="rgb(191,63,18)" stroke="none" stroke-width="1"/><path id="eil7nce9135d123" d="M281.692000,571.080000C281.810000,571.472000,281.889000,571.865000,281.928000,572.257000L282.477000,572.257000C282.438000,571.825000,282.359000,571.433000,282.242000,571.041000L281.692000,571.080000Z" fill="rgb(191,63,18)" stroke="none" stroke-width="1"/><path id="eil7nce9135d124" d="M270.745000,572.689000C270.745000,575.945000,273.374000,578.574000,276.631000,578.574000C279.103000,578.574000,281.221000,577.044000,282.085000,574.847000L281.535000,574.807000C280.711000,576.730000,278.828000,578.064000,276.631000,578.064000C273.688000,578.064000,271.295000,575.671000,271.295000,572.728000C271.295000,569.785000,273.688000,567.392000,276.631000,567.392000C277.729000,567.392000,278.710000,567.706000,279.574000,568.294000L279.887000,567.863000C278.946000,567.235000,277.808000,566.882000,276.631000,566.882000C273.374000,566.803000,270.745000,569.432000,270.745000,572.689000Z" fill="rgb(191,63,18)" stroke="none" stroke-width="1"/><path id="eil7nce9135d125" d="M294.248000,563.115000L294.248000,560.447000C294.248000,560.329000,294.169000,560.172000,294.091000,560.094000C293.973000,560.015000,293.855000,559.976000,293.738000,560.015000L292.208000,560.172000C292.129000,560.094000,291.972000,560.055000,291.854000,560.055000L289.775000,560.133000C289.461000,560.133000,289.265000,560.408000,289.265000,560.682000C289.265000,560.918000,289.461000,561.114000,289.657000,561.192000C289.696000,561.192000,289.775000,561.232000,289.814000,561.192000L291.894000,561.114000C292.011000,561.114000,292.129000,561.075000,292.208000,560.996000L293.424000,560.918000L293.424000,563.507000C293.424000,563.272000,293.424000,563.076000,293.424000,563.076000C293.424000,562.919000,294.169000,562.958000,294.248000,563.115000Z" fill="rgb(51,51,51)" stroke="none" stroke-width="1"/><path id="eil7nce9135d126" d="M295.111000,568.490000C295.896000,569.903000,296.798000,571.276000,297.465000,572.139000C297.740000,572.492000,297.936000,572.767000,298.093000,572.924000C298.171000,573.002000,298.289000,573.042000,298.368000,573.042000C298.485000,573.042000,298.564000,573.002000,298.642000,572.924000C298.799000,572.767000,298.799000,572.492000,298.642000,572.335000C298.485000,572.178000,298.289000,571.943000,298.054000,571.629000C297.426000,570.766000,296.524000,569.432000,295.778000,568.059000C295.700000,567.902000,295.621000,567.745000,295.503000,567.588000C295.386000,567.352000,295.268000,567.117000,295.150000,566.882000C294.679000,565.940000,294.326000,565.077000,294.287000,564.488000C294.326000,564.410000,294.287000,564.331000,294.287000,564.253000C294.287000,563.860000,294.287000,563.193000,294.287000,563.193000L294.287000,563.154000C294.209000,562.958000,293.502000,562.958000,293.502000,563.154000C293.502000,563.154000,293.502000,563.350000,293.502000,563.586000C293.502000,563.704000,293.502000,563.860000,293.502000,564.017000L283.733000,564.017000L283.536000,563.429000C283.536000,563.429000,283.536000,563.390000,283.497000,563.390000C283.340000,563.272000,282.752000,563.429000,282.752000,563.625000C282.752000,563.625000,282.752000,563.625000,282.752000,563.664000L282.869000,564.057000C282.830000,564.096000,282.830000,564.096000,282.791000,564.135000L280.398000,567.196000L279.887000,567.823000L279.574000,568.255000L277.494000,570.923000L277.062000,571.511000L276.984000,571.590000L276.317000,572.453000C276.239000,572.571000,276.199000,572.689000,276.278000,572.846000C276.356000,573.002000,276.474000,573.042000,276.631000,573.042000L277.690000,573.042000L281.967000,573.042000L282.516000,573.042000L283.340000,573.042000L284.203000,573.042000L286.087000,573.042000C286.087000,573.042000,286.401000,573.081000,286.518000,572.885000L288.088000,571.198000L293.659000,565.234000C293.855000,565.822000,294.130000,566.568000,294.522000,567.274000C294.640000,567.509000,294.758000,567.745000,294.915000,568.019000C294.915000,568.176000,294.993000,568.333000,295.111000,568.490000ZM284.125000,572.257000L283.262000,572.257000L282.438000,572.257000L281.889000,572.257000L277.612000,572.296000L277.376000,572.296000L277.533000,572.100000L278.083000,571.394000L278.553000,570.805000L280.162000,568.726000L280.476000,568.294000L280.986000,567.666000L283.105000,564.920000L284.792000,570.177000L284.988000,570.766000L285.027000,570.923000L285.420000,572.178000L284.125000,572.257000ZM287.421000,570.531000L286.204000,571.825000L285.655000,570.099000L283.929000,564.724000L292.914000,564.724000L287.421000,570.531000Z" fill="rgb(248,85,85)" stroke="none" stroke-width="1"/><path id="eil7nce9135d127" d="M285.027000,570.805000L284.831000,570.217000L282.909000,570.413000C282.516000,569.353000,281.849000,568.412000,281.025000,567.706000L280.515000,568.333000C281.182000,568.922000,281.692000,569.667000,282.045000,570.491000L281.496000,570.531000L278.593000,570.805000L278.122000,571.394000L281.692000,571.080000L282.242000,571.041000C282.359000,571.433000,282.438000,571.825000,282.477000,572.257000L283.301000,572.257000C283.262000,571.825000,283.183000,571.394000,283.105000,570.962000L285.027000,570.805000Z" fill="rgb(51,51,51)" stroke="none" stroke-width="1"/><path id="eil7nce9135d128" d="M286.008000,570.099000L285.655000,570.138000L286.204000,571.865000L287.421000,570.570000C287.028000,570.256000,286.558000,570.099000,286.008000,570.099000Z" fill="rgb(51,51,51)" stroke="none" stroke-width="1"/></svg>