<?xml version="1.0" standalone="no"?>
<!DOCTYPE svg PUBLIC "-//W3C//DTD SVG 20010904//EN"
 "http://www.w3.org/TR/2001/REC-SVG-20010904/DTD/svg10.dtd">
<svg version="1.0" xmlns="http://www.w3.org/2000/svg"
 width="260.000000pt" height="260.000000pt" viewBox="0 0 260.000000 260.000000"
 preserveAspectRatio="xMidYMid meet">
<metadata>
Created by potrace 1.11, written by Peter Selinger 2001-2013
</metadata>
<g transform="translate(0.000000,260.000000) scale(0.100000,-0.100000)"
fill="#000000" stroke="none">
<path d="M1136 2589 c-551 -76 -988 -478 -1107 -1019 -30 -136 -33 -380 -6
-508 55 -259 178 -484 367 -672 196 -196 406 -311 670 -367 117 -24 353 -25
470 0 268 57 510 194 703 396 378 398 471 941 243 1417 -70 146 -141 249 -245
357 -189 196 -405 320 -661 378 -100 23 -331 33 -434 18z m-487 -560 c58 -20
61 -37 61 -354 l0 -285 48 0 48 0 12 58 c50 241 238 457 472 543 264 96 542
34 746 -166 244 -240 298 -578 141 -879 -133 -256 -437 -415 -721 -377 -311
42 -563 264 -634 558 l-17 73 -47 0 -48 0 0 -279 c0 -269 -1 -279 -21 -305
-42 -54 -109 -52 -146 2 -17 25 -18 66 -18 684 0 651 0 657 21 685 16 21 55
51 70 53 1 0 15 -5 33 -11z"/>
<path d="M1449 1840 c-205 -32 -386 -199 -434 -402 -45 -190 9 -376 149 -513
117 -115 240 -162 401 -152 327 20 556 301 505 622 -45 286 -328 489 -621 445z"/>
</g>
</svg>
