<svg width="258" height="32" viewBox="0 0 258 32" fill="none" xmlns="http://www.w3.org/2000/svg">
<path d="M24.1336 11.3404C25.3978 12.5754 26.0873 14.1474 26.0873 16.0561C26.0873 17.8526 25.3978 19.4246 24.1336 20.7719C22.7546 22.1193 21.2606 22.6807 19.3069 22.6807C17.4681 22.6807 15.8592 22.007 14.4802 20.7719C13.1011 19.5368 12.5265 17.9649 12.5265 16.0561C12.5265 14.2596 13.216 12.6877 14.4802 11.3404C15.8592 9.99298 17.3532 9.43158 19.3069 9.43158C21.2606 9.43158 22.8695 10.1053 24.1336 11.3404Z" fill="white"/>
<path d="M16.4339 0C7.54594 0 0 7.22223 0 15.9439C0 24.6881 7.49262 31.8877 16.3189 31.8877C25.1383 31.8877 32.7528 24.5725 32.7528 15.9439C32.7528 7.28788 25.2726 0 16.4339 0ZM19.3069 25.1509C14.8034 25.1509 10.6451 21.7089 10.1131 17.2912H8.96392V23.9158C8.96392 24.4687 8.38483 25.0386 7.8147 25.0386C7.23582 25.0386 6.55056 24.3679 6.55056 23.8035V8.08421C6.55056 7.44289 7.07223 6.9614 7.69978 6.9614C8.34107 6.9614 8.849 7.46671 8.849 8.08421V14.7088H9.99822C10.2281 12.6877 11.1474 11.0035 12.6414 9.54386C14.4802 7.74737 16.6637 6.84912 19.192 6.84912C24.2206 6.84912 28.5007 11.0251 28.5007 15.9439C28.7225 20.9276 24.3655 25.1509 19.3069 25.1509Z" fill="white"/>
<path d="M133.195 7.41053C132.965 7.18596 132.62 7.07368 132.275 7.07368C131.931 7.07368 131.701 7.18596 131.356 7.41053C131.126 7.63509 131.011 7.85965 131.011 8.19649V14.8211H122.737V8.19649C122.737 7.85965 122.622 7.63509 122.392 7.41053C122.162 7.18596 121.817 7.07368 121.473 7.07368C121.128 7.07368 120.898 7.18596 120.553 7.41053C120.323 7.63509 120.208 7.97193 120.208 8.19649V23.9158C120.208 24.2526 120.323 24.4772 120.553 24.814C120.783 25.0386 121.128 25.1509 121.473 25.1509C121.817 25.1509 122.047 25.0386 122.392 24.814C122.622 24.5895 122.737 24.2526 122.737 23.9158V17.2912H131.011V23.9158C131.011 24.2526 131.126 24.4772 131.356 24.814C131.586 25.0386 131.931 25.1509 132.275 25.1509C132.62 25.1509 132.965 25.0386 133.195 24.814C133.424 24.5895 133.539 24.2526 133.539 23.9158V8.19649C133.539 7.85965 133.424 7.63509 133.195 7.41053ZM114.577 1.90877C114.347 1.68421 114.003 1.57193 113.773 1.57193C113.428 1.57193 113.083 1.68421 112.853 1.90877C112.739 2.13333 112.624 2.35789 112.624 2.58246C112.624 2.80702 112.509 2.9193 112.164 3.14386C111.819 3.25614 111.474 3.36842 111.13 3.36842C110.67 3.36842 110.325 3.25614 110.095 3.14386C109.865 3.03158 109.636 2.80702 109.636 2.58246C109.636 2.35789 109.521 2.13333 109.291 2.02105C109.061 1.79649 108.831 1.68421 108.486 1.68421C108.142 1.68421 107.797 1.79649 107.567 2.02105C107.337 2.24561 107.222 2.58246 107.222 2.80702C107.222 3.25614 107.337 3.59298 107.567 3.92982C107.797 4.26667 108.027 4.60351 108.371 4.82807C108.716 5.05263 109.176 5.27719 109.636 5.38947C110.095 5.50175 110.555 5.61404 111.13 5.61404C111.704 5.61404 112.164 5.50175 112.624 5.38947C113.083 5.27719 113.543 5.05263 113.888 4.82807C114.233 4.60351 114.462 4.26667 114.692 3.92982C114.922 3.59298 115.037 3.14386 115.037 2.80702C114.922 2.47018 114.807 2.24561 114.577 1.90877ZM118.485 7.74737C118.37 7.63509 118.37 7.52281 118.255 7.41053C118.14 7.29825 118.025 7.18597 117.91 7.18597C117.795 7.18597 117.565 7.07368 117.45 7.07368C117.106 7.07368 116.761 7.18596 116.531 7.52281L106.188 20.4351V8.19649C106.188 7.85965 106.073 7.63509 105.843 7.29825C105.613 7.07368 105.269 6.9614 104.924 6.9614C104.579 6.9614 104.234 7.07368 104.004 7.29825C103.775 7.52281 103.66 7.85965 103.66 8.19649V23.9158C103.66 24.1404 103.66 24.2526 103.775 24.3649C103.89 24.4772 103.89 24.5895 104.004 24.7018C104.119 24.814 104.234 24.9263 104.349 24.9263C104.464 25.0386 104.694 25.0386 104.809 25.0386C105.154 25.0386 105.498 24.9263 105.728 24.5895L116.071 11.6772V23.8035C116.071 24.1404 116.186 24.3649 116.416 24.7018C116.646 24.9263 116.991 25.0386 117.335 25.0386C117.68 25.0386 117.91 24.9263 118.255 24.7018C118.485 24.4772 118.6 24.1404 118.6 23.8035V8.08421C118.6 8.08421 118.6 7.85965 118.485 7.74737ZM101.936 23.4667L95.7301 7.85965C95.5002 7.29825 95.1555 7.07368 94.5808 7.07368C94.0062 7.07368 93.6615 7.29825 93.4316 7.85965L87.2258 23.3544C87.1109 23.5789 87.1109 23.6912 87.1109 23.9158C87.1109 24.2526 87.2258 24.4772 87.4557 24.814C87.6855 25.0386 88.0303 25.1509 88.2601 25.1509C88.6049 25.1509 88.8347 25.0386 89.1795 24.814C89.2944 24.7018 89.4094 24.5895 89.4094 24.4772L91.5929 19.0877H97.5688L99.7523 24.4772C99.8673 24.5895 99.8673 24.7018 99.9822 24.814C100.212 25.0386 100.442 25.1509 100.787 25.1509C101.131 25.1509 101.361 25.0386 101.706 24.814C101.936 24.5895 102.051 24.2526 102.051 23.9158C101.936 23.6912 101.936 23.5789 101.936 23.4667ZM92.5122 16.6175L94.5808 11.5649L96.5345 16.6175H92.5122ZM85.2722 23.4667L79.0664 7.85965C78.8365 7.29825 78.4918 7.07368 77.9171 7.07368C77.3425 7.07368 76.9978 7.29825 76.7679 7.85965L70.5621 23.3544C70.4472 23.4667 70.4472 23.6912 70.4472 23.8035C70.4472 24.0281 70.4472 24.1404 70.5621 24.2526C70.6771 24.3649 70.6771 24.4772 70.792 24.5895C70.9069 24.7018 71.0218 24.814 71.1367 24.814C71.2517 24.9263 71.4815 24.9263 71.5964 24.9263C72.0561 24.9263 72.5158 24.7018 72.7457 24.1404L77.8022 11.3404L82.8588 24.1404C83.0886 24.5895 83.4334 24.9263 84.008 24.9263C84.1229 24.9263 84.3528 24.9263 84.4677 24.814C84.5826 24.7018 84.6975 24.7018 84.8125 24.5895C84.9274 24.4772 85.0423 24.3649 85.0423 24.2526C85.1572 24.1404 85.1572 23.9158 85.1572 23.8035C85.3871 23.6912 85.2722 23.5789 85.2722 23.4667ZM68.3786 7.41053C68.1488 7.18596 67.804 7.07368 67.4592 7.07368C67.1145 7.07368 66.8846 7.18596 66.5399 7.41053C66.31 7.63509 66.1951 7.97193 66.1951 8.19649V14.8211H57.9207V8.19649C57.9207 7.85965 57.8058 7.63509 57.5759 7.41053C57.3461 7.18596 57.0013 7.07368 56.6566 7.07368C56.3118 7.07368 56.082 7.18596 55.7372 7.41053C55.5073 7.63509 55.3924 7.97193 55.3924 8.19649V23.9158C55.3924 24.2526 55.5073 24.4772 55.7372 24.814C55.967 25.0386 56.3118 25.1509 56.6566 25.1509C57.0013 25.1509 57.2312 25.0386 57.5759 24.814C57.8058 24.5895 57.9207 24.2526 57.9207 23.9158V17.2912H66.1951V23.9158C66.1951 24.2526 66.31 24.4772 66.5399 24.814C66.7697 25.0386 67.1145 25.1509 67.4592 25.1509C67.804 25.1509 68.0338 25.0386 68.3786 24.814C68.6085 24.5895 68.7234 24.2526 68.7234 23.9158V8.19649C68.7234 7.85965 68.6085 7.63509 68.3786 7.41053ZM53.094 12.5754C52.6343 11.5649 51.9448 10.5544 51.0254 9.65614C49.3016 7.85965 47.118 7.07368 44.5898 7.07368C42.0615 7.07368 39.8779 7.97193 38.0392 9.76842C36.2004 11.5649 35.2811 13.6982 35.2811 16.1684C35.2811 18.6386 36.2004 20.7719 38.0392 22.5684C39.8779 24.3649 42.0615 25.2632 44.5898 25.2632C47.118 25.2632 49.3016 24.3649 51.1403 22.5684C52.9791 20.7719 53.8984 18.6386 53.8984 16.1684C53.7835 14.8211 53.5537 13.6982 53.094 12.5754ZM49.4165 20.7719C48.0374 22.1193 46.4285 22.6807 44.5898 22.6807C42.751 22.6807 41.1421 22.007 39.763 20.7719C38.384 19.4246 37.8094 17.9649 37.8094 16.0561C37.8094 15.1579 37.9243 14.2596 38.269 13.4737C38.6138 12.6877 39.0735 12.014 39.763 11.3404C40.4526 10.6667 41.1421 10.2175 41.9465 9.8807C42.751 9.54386 43.5555 9.43158 44.5898 9.43158C46.4285 9.43158 48.0374 10.1053 49.4165 11.3404C50.7955 12.6877 51.3702 14.1474 51.3702 16.0561C51.3702 17.8526 50.6806 19.4246 49.4165 20.7719Z" fill="white"/>
<path d="M141.009 3.03159C141.239 3.03159 141.469 3.25615 141.469 3.48071V26.7228C141.469 26.9474 141.239 27.1719 141.009 27.1719C140.78 27.1719 140.55 26.9474 140.55 26.7228V3.48071C140.55 3.25615 140.78 3.03159 141.009 3.03159Z" fill="white"/>
<path d="M156.639 16.0561C156.639 17.7403 156.179 18.9754 155.375 19.986C154.57 20.9965 153.306 21.4456 151.812 21.4456C150.318 21.4456 149.169 20.9965 148.249 19.986C147.445 18.9754 146.985 17.7403 146.985 16.0561C146.985 14.3719 147.445 13.0246 148.249 12.1263C149.054 11.1158 150.318 10.6667 151.812 10.6667C153.306 10.6667 154.455 11.1158 155.375 12.1263C156.179 13.1368 156.639 14.4842 156.639 16.0561ZM147.79 16.0561C147.79 17.5158 148.135 18.7509 148.824 19.5368C149.514 20.3228 150.433 20.7719 151.812 20.7719C153.076 20.7719 154.11 20.3228 154.8 19.5368C155.49 18.7509 155.834 17.5158 155.834 16.0561C155.834 14.5965 155.49 13.3614 154.8 12.5754C154.11 11.7895 153.191 11.3403 151.812 11.3403C150.548 11.3403 149.514 11.7895 148.824 12.5754C148.135 13.4737 147.79 14.5965 147.79 16.0561Z" fill="white"/>
<path d="M159.627 21.3333H158.937V13.586H165.258V21.3333H164.568V14.2597H159.627V21.3333Z" fill="white"/>
<path d="M171.119 21.4456C169.97 21.4456 169.05 21.1088 168.361 20.4351C167.671 19.7614 167.441 18.7509 167.441 17.5158C167.441 16.2807 167.786 15.2702 168.361 14.4842C168.935 13.6982 169.855 13.3614 170.889 13.3614C171.808 13.3614 172.613 13.6982 173.073 14.3719C173.647 15.0456 173.877 15.8316 173.877 16.9544V17.5158H168.131C168.131 18.6386 168.361 19.4245 168.935 19.9859C169.395 20.5474 170.2 20.8842 171.119 20.8842C171.579 20.8842 171.923 20.8842 172.268 20.7719C172.613 20.6596 173.073 20.5474 173.532 20.3228V20.9965C173.073 21.221 172.613 21.3333 172.268 21.3333C172.038 21.4456 171.579 21.4456 171.119 21.4456ZM170.889 14.0351C170.085 14.0351 169.51 14.2596 169.05 14.821C168.591 15.2702 168.361 16.0561 168.246 16.9544H173.188C173.188 16.0561 172.958 15.3824 172.613 14.821C172.153 14.2596 171.579 14.0351 170.889 14.0351Z" fill="white"/>
<path d="M179.508 21.4456C178.244 21.4456 177.44 20.9965 176.865 20.0983V20.6597C176.865 20.9965 176.865 21.4456 176.865 21.7825V24.7018H176.176V13.586H176.75L176.865 14.7088C177.44 13.9228 178.244 13.4737 179.508 13.4737C180.543 13.4737 181.347 13.8105 181.922 14.4842C182.496 15.1579 182.726 16.1684 182.726 17.5158C182.726 18.7509 182.381 19.7614 181.807 20.4351C181.347 21.1088 180.543 21.4456 179.508 21.4456ZM179.508 20.8842C180.313 20.8842 181.002 20.5474 181.347 19.986C181.807 19.4246 182.036 18.5263 182.036 17.5158C182.036 15.2702 181.232 14.0351 179.508 14.0351C178.589 14.0351 177.899 14.2597 177.44 14.8211C176.98 15.2702 176.75 16.1684 176.75 17.2912V17.5158C176.75 18.7509 176.98 19.6491 177.325 20.0983C177.899 20.5474 178.589 20.8842 179.508 20.8842Z" fill="white"/>
<path d="M189.851 21.3333L189.621 20.0983C189.277 20.5474 188.817 20.9965 188.357 21.1088C187.898 21.3333 187.438 21.4456 186.863 21.4456C186.059 21.4456 185.484 21.2211 185.025 20.8842C184.565 20.5474 184.335 19.986 184.335 19.3123C184.335 18.5263 184.68 17.9649 185.254 17.5158C185.944 17.0667 186.863 16.8421 188.012 16.8421H189.506V16.2807C189.506 15.4947 189.392 14.9333 189.047 14.5965C188.702 14.2597 188.242 14.0351 187.553 14.0351C186.863 14.0351 186.059 14.2597 185.254 14.5965L185.025 14.0351C185.944 13.586 186.748 13.4737 187.668 13.4737C188.587 13.4737 189.162 13.6983 189.621 14.1474C190.081 14.5965 190.311 15.2702 190.311 16.1684V21.3333H189.851ZM186.978 20.8842C187.783 20.8842 188.472 20.6597 189.047 20.2105C189.506 19.7614 189.736 19.0877 189.736 18.1895V17.4035L188.357 17.5158C187.208 17.5158 186.404 17.7404 185.944 18.0772C185.484 18.414 185.254 18.8632 185.254 19.4246C185.254 19.8737 185.369 20.3228 185.714 20.5474C185.944 20.6597 186.404 20.8842 186.978 20.8842Z" fill="white"/>
<path d="M198.126 14.1474H195.367V21.3333H194.678V14.1474H191.92V13.586H198.011L198.126 14.1474Z" fill="white"/>
<path d="M206.285 17.4035C206.285 18.6386 205.94 19.6491 205.366 20.3228C204.791 20.9965 203.872 21.4456 202.722 21.4456C202.033 21.4456 201.458 21.3333 200.884 20.9965C200.309 20.6597 199.964 20.2105 199.62 19.5369C199.39 18.9754 199.16 18.1895 199.16 17.4035C199.16 16.1684 199.505 15.1579 200.079 14.4842C200.654 13.8105 201.573 13.4737 202.722 13.4737C203.872 13.4737 204.676 13.8105 205.251 14.5965C205.94 15.1579 206.285 16.1684 206.285 17.4035ZM199.964 17.4035C199.964 18.5263 200.194 19.3123 200.654 19.8737C201.114 20.4351 201.803 20.7719 202.722 20.7719C203.642 20.7719 204.331 20.4351 204.791 19.8737C205.251 19.3123 205.481 18.414 205.481 17.4035C205.481 16.2807 205.251 15.4947 204.791 14.9333C204.331 14.3719 203.642 14.0351 202.722 14.0351C201.803 14.0351 201.114 14.3719 200.654 14.9333C200.194 15.4947 199.964 16.393 199.964 17.4035Z" fill="white"/>
<path d="M211.916 21.4456C210.652 21.4456 209.848 20.9965 209.273 20.0983V20.6597C209.273 20.9965 209.273 21.4456 209.273 21.7825V24.7018H208.584V13.586H209.158L209.273 14.7088C209.848 13.9228 210.652 13.4737 211.916 13.4737C212.951 13.4737 213.755 13.8105 214.33 14.4842C214.904 15.1579 215.134 16.1684 215.134 17.5158C215.134 18.7509 214.789 19.7614 214.215 20.4351C213.755 21.1088 212.951 21.4456 211.916 21.4456ZM211.916 20.8842C212.721 20.8842 213.41 20.5474 213.755 19.986C214.215 19.4246 214.445 18.5263 214.445 17.5158C214.445 15.2702 213.64 14.0351 211.916 14.0351C210.997 14.0351 210.307 14.2597 209.848 14.8211C209.388 15.2702 209.158 16.1684 209.158 17.2912V17.5158C209.158 18.7509 209.388 19.6491 209.733 20.0983C210.307 20.5474 210.997 20.8842 211.916 20.8842Z" fill="white"/>
<path d="M224.558 21.4456C223.408 21.4456 222.489 21.1088 221.914 20.4351C221.225 19.7614 220.995 18.7509 220.995 17.5158C220.995 16.2807 221.34 15.2702 222.029 14.4842C222.719 13.8105 223.638 13.3614 224.788 13.3614C225.477 13.3614 226.167 13.4737 226.741 13.6982L226.511 14.3719C225.822 14.1474 225.247 14.0351 224.673 14.0351C223.753 14.0351 222.949 14.3719 222.489 14.9333C222.029 15.4947 221.685 16.393 221.685 17.5158C221.685 18.5263 221.914 19.4245 222.489 19.9859C222.949 20.5474 223.638 20.8842 224.558 20.8842C225.247 20.8842 225.937 20.7719 226.626 20.5474V21.221C226.052 21.3333 225.362 21.4456 224.558 21.4456Z" fill="white"/>
<path d="M234.556 15.3824C234.556 15.8316 234.441 16.2807 234.211 16.5052C233.981 16.7298 233.522 16.9544 232.947 17.0667C233.637 17.1789 234.096 17.2912 234.326 17.6281C234.556 17.9649 234.786 18.3017 234.786 18.8631C234.786 19.6491 234.556 20.2105 233.981 20.5474C233.522 20.9965 232.717 21.1088 231.798 21.1088H228.465V13.3614H231.798C232.717 13.3614 233.407 13.4737 233.866 13.8105C234.326 14.3719 234.556 14.821 234.556 15.3824ZM233.751 15.4947C233.751 15.0456 233.637 14.7088 233.292 14.4842C232.947 14.2596 232.487 14.1474 231.798 14.1474H229.155V16.8421H231.683C232.372 16.8421 232.947 16.7298 233.292 16.5052C233.637 16.2807 233.751 15.9438 233.751 15.4947ZM233.981 18.9754C233.981 17.9649 233.177 17.5158 231.683 17.5158H229.04V20.6596H231.683C233.292 20.6596 233.981 20.0982 233.981 18.9754Z" fill="white"/>
<path d="M236.854 21.3333H235.935L238.348 17.9649C237.659 17.8526 237.084 17.6281 236.739 17.179C236.395 16.8421 236.28 16.393 236.28 15.8316C236.28 15.1579 236.51 14.5965 236.969 14.1474C237.429 13.6982 238.118 13.586 238.923 13.586H242.256V21.3333H241.566V18.0772H239.038L236.854 21.3333ZM236.969 15.8316C236.969 16.393 237.199 16.7298 237.544 17.0667C237.889 17.2912 238.463 17.4035 239.153 17.4035H241.566V14.2597H239.038C238.463 14.2597 238.004 14.3719 237.659 14.7088C237.199 14.9333 236.969 15.2702 236.969 15.8316Z" fill="white"/>
<path d="M246.393 16.9544C247.887 16.9544 248.576 16.5053 248.576 15.4947C248.576 15.0456 248.461 14.7088 248.117 14.4842C247.772 14.2597 247.312 14.1474 246.738 14.1474C246.393 14.1474 245.933 14.1474 245.703 14.2597C245.359 14.3719 245.014 14.4842 244.669 14.5965L244.439 14.0351C245.244 13.6983 246.163 13.4737 246.967 13.4737C247.887 13.4737 248.461 13.6983 248.921 14.0351C249.381 14.3719 249.611 14.9333 249.611 15.4947C249.611 16.393 249.151 16.9544 248.232 17.179C248.806 17.2912 249.266 17.5158 249.496 17.8526C249.726 18.1895 249.955 18.6386 249.955 19.0877C249.955 19.7614 249.726 20.3228 249.151 20.7719C248.576 21.2211 247.887 21.4456 246.853 21.4456C246.278 21.4456 245.818 21.4456 245.474 21.3333C245.014 21.2211 244.669 21.1088 244.439 20.9965V20.2105C244.899 20.4351 245.359 20.5474 245.703 20.6597C246.048 20.7719 246.508 20.7719 246.853 20.7719C247.542 20.7719 248.117 20.6597 248.576 20.3228C249.036 19.986 249.151 19.6491 249.151 19.0877C249.151 18.5263 248.921 18.1895 248.576 17.8526C248.232 17.6281 247.657 17.5158 246.853 17.5158H245.703V16.9544H246.393Z" fill="white"/>
<path d="M252.369 13.586V19.2V20.6597L257.081 13.586H258V21.3333H257.31V15.7193V14.2597L252.599 21.3333H251.679V13.586H252.369Z" fill="white"/>
</svg>
